<?xml version='1.0' encoding='UTF-8' standalone='no'?>
<!-- Created with Fritzing (http://www.fritzing.org/) -->
<svg xmlns="http://www.w3.org/2000/svg" viewBox="0 0 300 330" width="0.3in" version="1.2"  baseProfile="tiny" y="0in" height="0.33in" x="0in">
    <desc >
        <referenceFile >dip_icon.svg</referenceFile>
    </desc>
    <g  gorn="0.1" id="icon">
        <rect width="300" fill="#303030"  y="30" height="270" gorn="0.1.0" id="middle" x="0"/>
        <rect width="300" fill="#3D3D3D"  y="30" height="24.6" gorn="0.1.1" id="top" x="0"/>
        <rect width="300" fill="#000000"  y="275.4" height="24.6" gorn="0.1.2" id="bottom" x="0"/>
        <polygon fill="#141414"  gorn="0.1.3" id="right" points="300,30,292.5,54.6,292.5,275.4,300,300"/>
        <polygon fill="#1F1F1F"  gorn="0.1.4" id="left" points="0,30,7.5,54.6,7.5,275.4,0,300"/>
        <polygon fill="#1C1C1C"  gorn="0.1.5" id="left-upper-rect" points="50,115,7.5,114.6,5.6,135.8,5.6,165,50,165"/>
        <polygon fill="#383838"  gorn="0.1.6" id="left-lower-rect" points="7.5,215.5,50,215.5,50,165,5.6,165,5.6,194.2"/>
        <path fill="#262626"  gorn="0.1.7" id="slot" d="M5.6,135.8l0,58.3c14.7,-1.7,26.2,-14,26.2,-29.2C31.8,149.7,20.4,137.5,5.6,135.8z"/>
        <path fill="#303030"  gorn="0.1.8" id="cover" d="M7.5,54.6L7.5,114.5c23.8,4.5,41.9,25.3,41.9,50.4c0,25.1,-18,46,-41.9,50.5L7.5,215.5l50,0L57.5,54.6L7.5,54.6z"/>
        <circle cy="234.7" fill="#212121"  cx="65" r="20.6"/>
        <text fill="#dddddd" stroke="none" text-anchor="start" font-family="OCRA" font-size="80"  y="165" gorn="0.1.10" id="label" x="65">IC16</text>
        <rect width="30" fill="#8C8C8C"  y="286.6" height="43.4" gorn="0.1.11" id="connector0pin" x="35"/>
        <rect width="30" fill="#8C8C8C"  y="300" height="30" gorn="0.1.12" id="connector0terminal" x="35"/>
        <polygon fill="#8C8C8C"  points="35,286.6,35,306.6,65,306.6,85,297.4,85,286.6"/>
        <rect width="30" fill="#8C8C8C"  height="43.4" gorn="0.1.14" id="connector5pin" x="35"/>
        <rect width="30" fill="#8C8C8C"  height="30" gorn="0.1.15" id="connector5terminal" x="35"/>
        <polygon fill="#8C8C8C"  points="85,43.4,85,32.6,65,23.4,35,23.4,35,43.4"/>
        <rect width="30" fill="#8C8C8C"  y="286.6" height="43.4" gorn="0.1.17" id="connector2pin" x="235"/>
        <rect width="30" fill="#8C8C8C"  y="300" height="30" gorn="0.1.18" id="connector2terminal" x="235"/>
        <polygon fill="#8C8C8C"  points="215,286.6,215,297.4,235,306.6,265,306.6,265,286.6"/>
        <rect width="30" fill="#8C8C8C"  y="0" height="43.4" gorn="0.1.20" id="connector3pin" x="235"/>
        <rect width="30" fill="#8C8C8C"  y="0" height="30" gorn="0.1.21" id="connector3terminal" x="235"/>
        <polygon fill="#8C8C8C"  points="265,43.4,265,23.4,235,23.4,215,32.6,215,43.4"/>
        <rect width="30" fill="#8C8C8C"  y="286.6" height="43.4" gorn="0.1.23" id="connector1pin" x="135"/>
        <rect width="30" fill="#8C8C8C"  y="300" height="30" gorn="0.1.24" id="connector1terminal" x="135"/>
        <polygon fill="#8C8C8C"  points="115,286.6,115,297.4,135,306.6,165,306.6,185,297.4,185,286.6"/>
        <rect width="30" fill="#8C8C8C"  y="0" height="43.4" gorn="0.1.26" id="connector4pin" x="135"/>
        <rect width="30" fill="#8C8C8C"  height="30" gorn="0.1.27" id="connector4terminal" x="135"/>
        <polygon fill="#8C8C8C"  points="185,43.4,185,32.6,165,23.4,135,23.4,115,32.6,115,43.4"/>
    </g>
</svg>
