<?xml version='1.0' encoding='UTF-8' standalone='no'?>
<!-- Created with Fritzing (http://www.fritzing.org/) -->
<svg xmlns="http://www.w3.org/2000/svg" y="0in" version="1.2" baseProfile="tiny" width="0.3in" height="0.33in" viewBox="0 0 300 330"  x="0in">
    <desc >
        <referenceFile >dip_icon.svg</referenceFile>
    </desc>
    <g id="icon" gorn="0.1" >
        <rect y="30" id="middle" gorn="0.1.0" width="300" height="270"  fill="#303030" x="0"/>
        <rect y="30" id="top" gorn="0.1.1" width="300" height="24.6"  fill="#3D3D3D" x="0"/>
        <rect y="275.4" id="bottom" gorn="0.1.2" width="300" height="24.6"  fill="#000000" x="0"/>
        <polygon id="right" gorn="0.1.3" points="300,30,292.5,54.6,292.5,275.4,300,300"  fill="#141414"/>
        <polygon id="left" gorn="0.1.4" points="0,30,7.5,54.6,7.5,275.4,0,300"  fill="#1F1F1F"/>
        <polygon id="left-upper-rect" gorn="0.1.5" points="50,115,7.5,114.6,5.6,135.8,5.6,165,50,165"  fill="#1C1C1C"/>
        <polygon id="left-lower-rect" gorn="0.1.6" points="7.5,215.5,50,215.5,50,165,5.6,165,5.6,194.2"  fill="#383838"/>
        <path d="M5.6,135.8l0,58.3c14.7,-1.7,26.2,-14,26.2,-29.2C31.8,149.7,20.4,137.5,5.6,135.8z" id="slot" gorn="0.1.7"  fill="#262626"/>
        <path d="M7.5,54.6L7.5,114.5c23.8,4.5,41.9,25.3,41.9,50.4c0,25.1,-18,46,-41.9,50.5L7.5,215.5l50,0L57.5,54.6L7.5,54.6z" id="cover" gorn="0.1.8"  fill="#303030"/>
        <circle r="20.6" cy="234.7" cx="65"  fill="#212121"/>
        <text font-family="OCRA" font-size="80" y="165" stroke="none" text-anchor="start" id="label" gorn="0.1.10"  fill="#dddddd" x="65">IC14</text>
        <rect y="286.6" id="connector0pin" gorn="0.1.11" width="30" height="43.4"  fill="#8C8C8C" x="35"/>
        <rect y="300" id="connector0terminal" gorn="0.1.12" width="30" height="30"  fill="#8C8C8C" x="35"/>
        <polygon points="35,286.6,35,306.6,65,306.6,85,297.4,85,286.6"  fill="#8C8C8C"/>
        <rect id="connector5pin" gorn="0.1.14" width="30" height="43.4"  fill="#8C8C8C" x="35"/>
        <rect id="connector5terminal" gorn="0.1.15" width="30" height="30"  fill="#8C8C8C" x="35"/>
        <polygon points="85,43.4,85,32.6,65,23.4,35,23.4,35,43.4"  fill="#8C8C8C"/>
        <rect y="286.6" id="connector2pin" gorn="0.1.17" width="30" height="43.4"  fill="#8C8C8C" x="235"/>
        <rect y="300" id="connector2terminal" gorn="0.1.18" width="30" height="30"  fill="#8C8C8C" x="235"/>
        <polygon points="215,286.6,215,297.4,235,306.6,265,306.6,265,286.6"  fill="#8C8C8C"/>
        <rect y="0" id="connector3pin" gorn="0.1.20" width="30" height="43.4"  fill="#8C8C8C" x="235"/>
        <rect y="0" id="connector3terminal" gorn="0.1.21" width="30" height="30"  fill="#8C8C8C" x="235"/>
        <polygon points="265,43.4,265,23.4,235,23.4,215,32.6,215,43.4"  fill="#8C8C8C"/>
        <rect y="286.6" id="connector1pin" gorn="0.1.23" width="30" height="43.4"  fill="#8C8C8C" x="135"/>
        <rect y="300" id="connector1terminal" gorn="0.1.24" width="30" height="30"  fill="#8C8C8C" x="135"/>
        <polygon points="115,286.6,115,297.4,135,306.6,165,306.6,185,297.4,185,286.6"  fill="#8C8C8C"/>
        <rect y="0" id="connector4pin" gorn="0.1.26" width="30" height="43.4"  fill="#8C8C8C" x="135"/>
        <rect id="connector4terminal" gorn="0.1.27" width="30" height="30"  fill="#8C8C8C" x="135"/>
        <polygon points="185,43.4,185,32.6,165,23.4,135,23.4,115,32.6,115,43.4"  fill="#8C8C8C"/>
    </g>
</svg>
