<?xml version='1.0' encoding='UTF-8' standalone='no'?>
<!-- Created with Fritzing (http://www.fritzing.org/) -->
<svg xmlns="http://www.w3.org/2000/svg" x="0in" y="0in" height="0.33in"  baseProfile="tiny" width="0.3in" version="1.2" viewBox="0 0 300 330">
    <desc >
        <referenceFile >dip_icon.svg</referenceFile>
    </desc>
    <g gorn="0.1"  id="icon">
        <rect gorn="0.1.0" x="0" height="270" y="30" fill="#303030"  id="middle" width="300"/>
        <rect gorn="0.1.1" x="0" height="24.6" y="30" fill="#3D3D3D"  id="top" width="300"/>
        <rect gorn="0.1.2" x="0" height="24.6" y="275.4" fill="#000000"  id="bottom" width="300"/>
        <polygon gorn="0.1.3" fill="#141414"  id="right" points="300,30,292.5,54.6,292.5,275.4,300,300"/>
        <polygon gorn="0.1.4" fill="#1F1F1F"  id="left" points="0,30,7.5,54.6,7.5,275.4,0,300"/>
        <polygon gorn="0.1.5" fill="#1C1C1C"  id="left-upper-rect" points="50,115,7.5,114.6,5.6,135.8,5.6,165,50,165"/>
        <polygon gorn="0.1.6" fill="#383838"  id="left-lower-rect" points="7.5,215.5,50,215.5,50,165,5.6,165,5.6,194.2"/>
        <path gorn="0.1.7" fill="#262626"  id="slot" d="M5.6,135.8l0,58.3c14.7,-1.7,26.2,-14,26.2,-29.2C31.8,149.7,20.4,137.5,5.6,135.8z"/>
        <path gorn="0.1.8" fill="#303030"  id="cover" d="M7.5,54.6L7.5,114.5c23.8,4.5,41.9,25.3,41.9,50.4c0,25.1,-18,46,-41.9,50.5L7.5,215.5l50,0L57.5,54.6L7.5,54.6z"/>
        <circle cx="65" fill="#212121"  r="20.6" cy="234.7"/>
        <text gorn="0.1.10" x="65" y="165" fill="#dddddd" stroke="none"  id="label" text-anchor="start" font-family="OCRA" font-size="80">IC14</text>
        <rect gorn="0.1.11" x="35" height="43.4" y="286.6" fill="#8C8C8C"  id="connector0pin" width="30"/>
        <rect gorn="0.1.12" x="35" height="30" y="300" fill="#8C8C8C"  id="connector0terminal" width="30"/>
        <polygon fill="#8C8C8C"  points="35,286.6,35,306.6,65,306.6,85,297.4,85,286.6"/>
        <rect gorn="0.1.14" x="35" height="43.4" fill="#8C8C8C"  id="connector5pin" width="30"/>
        <rect gorn="0.1.15" x="35" height="30" fill="#8C8C8C"  id="connector5terminal" width="30"/>
        <polygon fill="#8C8C8C"  points="85,43.4,85,32.6,65,23.4,35,23.4,35,43.4"/>
        <rect gorn="0.1.17" x="235" height="43.4" y="286.6" fill="#8C8C8C"  id="connector2pin" width="30"/>
        <rect gorn="0.1.18" x="235" height="30" y="300" fill="#8C8C8C"  id="connector2terminal" width="30"/>
        <polygon fill="#8C8C8C"  points="215,286.6,215,297.4,235,306.6,265,306.6,265,286.6"/>
        <rect gorn="0.1.20" x="235" height="43.4" y="0" fill="#8C8C8C"  id="connector3pin" width="30"/>
        <rect gorn="0.1.21" x="235" height="30" y="0" fill="#8C8C8C"  id="connector3terminal" width="30"/>
        <polygon fill="#8C8C8C"  points="265,43.4,265,23.4,235,23.4,215,32.6,215,43.4"/>
        <rect gorn="0.1.23" x="135" height="43.4" y="286.6" fill="#8C8C8C"  id="connector1pin" width="30"/>
        <rect gorn="0.1.24" x="135" height="30" y="300" fill="#8C8C8C"  id="connector1terminal" width="30"/>
        <polygon fill="#8C8C8C"  points="115,286.6,115,297.4,135,306.6,165,306.6,185,297.4,185,286.6"/>
        <rect gorn="0.1.26" x="135" height="43.4" y="0" fill="#8C8C8C"  id="connector4pin" width="30"/>
        <rect gorn="0.1.27" x="135" height="30" fill="#8C8C8C"  id="connector4terminal" width="30"/>
        <polygon fill="#8C8C8C"  points="185,43.4,185,32.6,165,23.4,135,23.4,115,32.6,115,43.4"/>
    </g>
</svg>
