<?xml version='1.0' encoding='UTF-8' standalone='no'?>
<!-- Created with Fritzing (http://www.fritzing.org/) -->
<svg xmlns="http://www.w3.org/2000/svg" y="0in" x="0in" version="1.2" width="0.3in"  baseProfile="tiny" viewBox="0 0 300 330" height="0.33in">
    <desc >
        <referenceFile >dip_icon.svg</referenceFile>
    </desc>
    <g id="icon" gorn="0.1" >
        <rect y="30" id="middle" x="0" fill="#303030" gorn="0.1.0" width="300"  height="270"/>
        <rect y="30" id="top" x="0" fill="#3D3D3D" gorn="0.1.1" width="300"  height="24.6"/>
        <rect y="275.4" id="bottom" x="0" fill="#000000" gorn="0.1.2" width="300"  height="24.6"/>
        <polygon id="right" fill="#141414" gorn="0.1.3"  points="300,30,292.5,54.6,292.5,275.4,300,300"/>
        <polygon id="left" fill="#1F1F1F" gorn="0.1.4"  points="0,30,7.5,54.6,7.5,275.4,0,300"/>
        <polygon id="left-upper-rect" fill="#1C1C1C" gorn="0.1.5"  points="50,115,7.5,114.6,5.6,135.8,5.6,165,50,165"/>
        <polygon id="left-lower-rect" fill="#383838" gorn="0.1.6"  points="7.5,215.5,50,215.5,50,165,5.6,165,5.6,194.2"/>
        <path id="slot" fill="#262626" gorn="0.1.7" d="M5.6,135.8l0,58.3c14.7,-1.7,26.2,-14,26.2,-29.2C31.8,149.7,20.4,137.5,5.6,135.8z" />
        <path id="cover" fill="#303030" gorn="0.1.8" d="M7.5,54.6L7.5,114.5c23.8,4.5,41.9,25.3,41.9,50.4c0,25.1,-18,46,-41.9,50.5L7.5,215.5l50,0L57.5,54.6L7.5,54.6z" />
        <circle cx="65" r="20.6" fill="#212121" cy="234.7" />
        <text y="165" id="label" x="65" fill="#dddddd" text-anchor="start" gorn="0.1.10"  font-size="80" font-family="OCRA" stroke="none">IC14</text>
        <rect y="286.6" id="connector0pin" x="35" fill="#8C8C8C" gorn="0.1.11" width="30"  height="43.4"/>
        <rect y="300" id="connector0terminal" x="35" fill="#8C8C8C" gorn="0.1.12" width="30"  height="30"/>
        <polygon fill="#8C8C8C"  points="35,286.6,35,306.6,65,306.6,85,297.4,85,286.6"/>
        <rect id="connector5pin" x="35" fill="#8C8C8C" gorn="0.1.14" width="30"  height="43.4"/>
        <rect id="connector5terminal" x="35" fill="#8C8C8C" gorn="0.1.15" width="30"  height="30"/>
        <polygon fill="#8C8C8C"  points="85,43.4,85,32.6,65,23.4,35,23.4,35,43.4"/>
        <rect y="286.6" id="connector2pin" x="235" fill="#8C8C8C" gorn="0.1.17" width="30"  height="43.4"/>
        <rect y="300" id="connector2terminal" x="235" fill="#8C8C8C" gorn="0.1.18" width="30"  height="30"/>
        <polygon fill="#8C8C8C"  points="215,286.6,215,297.4,235,306.6,265,306.6,265,286.6"/>
        <rect y="0" id="connector3pin" x="235" fill="#8C8C8C" gorn="0.1.20" width="30"  height="43.4"/>
        <rect y="0" id="connector3terminal" x="235" fill="#8C8C8C" gorn="0.1.21" width="30"  height="30"/>
        <polygon fill="#8C8C8C"  points="265,43.4,265,23.4,235,23.4,215,32.6,215,43.4"/>
        <rect y="286.6" id="connector1pin" x="135" fill="#8C8C8C" gorn="0.1.23" width="30"  height="43.4"/>
        <rect y="300" id="connector1terminal" x="135" fill="#8C8C8C" gorn="0.1.24" width="30"  height="30"/>
        <polygon fill="#8C8C8C"  points="115,286.6,115,297.4,135,306.6,165,306.6,185,297.4,185,286.6"/>
        <rect y="0" id="connector4pin" x="135" fill="#8C8C8C" gorn="0.1.26" width="30"  height="43.4"/>
        <rect id="connector4terminal" x="135" fill="#8C8C8C" gorn="0.1.27" width="30"  height="30"/>
        <polygon fill="#8C8C8C"  points="185,43.4,185,32.6,165,23.4,135,23.4,115,32.6,115,43.4"/>
    </g>
</svg>
