<?xml version='1.0' encoding='UTF-8' standalone='no'?>
<!-- Created with Fritzing (http://www.fritzing.org/) -->
<svg xmlns="http://www.w3.org/2000/svg" height="0.33in" baseProfile="tiny" y="0in" x="0in" version="1.2" width="0.3in" viewBox="0 0 300 330" >
    <desc >
        <referenceFile >dip_icon.svg</referenceFile>
    </desc>
    <g gorn="0.1" id="icon" >
        <rect height="270" gorn="0.1.0" y="30" x="0" id="middle" fill="#303030" width="300" />
        <rect height="24.6" gorn="0.1.1" y="30" x="0" id="top" fill="#3D3D3D" width="300" />
        <rect height="24.6" gorn="0.1.2" y="275.4" x="0" id="bottom" fill="#000000" width="300" />
        <polygon gorn="0.1.3" id="right" fill="#141414" points="300,30,292.5,54.6,292.5,275.4,300,300" />
        <polygon gorn="0.1.4" id="left" fill="#1F1F1F" points="0,30,7.5,54.6,7.5,275.4,0,300" />
        <polygon gorn="0.1.5" id="left-upper-rect" fill="#1C1C1C" points="50,115,7.5,114.6,5.6,135.8,5.6,165,50,165" />
        <polygon gorn="0.1.6" id="left-lower-rect" fill="#383838" points="7.5,215.5,50,215.5,50,165,5.6,165,5.6,194.2" />
        <path gorn="0.1.7" d="M5.6,135.8l0,58.3c14.7,-1.7,26.2,-14,26.2,-29.2C31.8,149.7,20.4,137.5,5.6,135.8z" id="slot" fill="#262626" />
        <path gorn="0.1.8" d="M7.5,54.6L7.5,114.5c23.8,4.5,41.9,25.3,41.9,50.4c0,25.1,-18,46,-41.9,50.5L7.5,215.5l50,0L57.5,54.6L7.5,54.6z" id="cover" fill="#303030" />
        <circle cx="65" fill="#212121" cy="234.7" r="20.6" />
        <text gorn="0.1.10" stroke="none" y="165" x="65" id="label" fill="#dddddd"  font-family="OCRA" font-size="80" text-anchor="start">IC20</text>
        <rect height="43.4" gorn="0.1.11" y="286.6" x="35" id="connector0pin" fill="#8C8C8C" width="30" />
        <rect height="30" gorn="0.1.12" y="300" x="35" id="connector0terminal" fill="#8C8C8C" width="30" />
        <polygon fill="#8C8C8C" points="35,286.6,35,306.6,65,306.6,85,297.4,85,286.6" />
        <rect height="43.4" gorn="0.1.14" x="35" id="connector5pin" fill="#8C8C8C" width="30" />
        <rect height="30" gorn="0.1.15" x="35" id="connector5terminal" fill="#8C8C8C" width="30" />
        <polygon fill="#8C8C8C" points="85,43.4,85,32.6,65,23.4,35,23.4,35,43.4" />
        <rect height="43.4" gorn="0.1.17" y="286.6" x="235" id="connector2pin" fill="#8C8C8C" width="30" />
        <rect height="30" gorn="0.1.18" y="300" x="235" id="connector2terminal" fill="#8C8C8C" width="30" />
        <polygon fill="#8C8C8C" points="215,286.6,215,297.4,235,306.6,265,306.6,265,286.6" />
        <rect height="43.4" gorn="0.1.20" y="0" x="235" id="connector3pin" fill="#8C8C8C" width="30" />
        <rect height="30" gorn="0.1.21" y="0" x="235" id="connector3terminal" fill="#8C8C8C" width="30" />
        <polygon fill="#8C8C8C" points="265,43.4,265,23.4,235,23.4,215,32.6,215,43.4" />
        <rect height="43.4" gorn="0.1.23" y="286.6" x="135" id="connector1pin" fill="#8C8C8C" width="30" />
        <rect height="30" gorn="0.1.24" y="300" x="135" id="connector1terminal" fill="#8C8C8C" width="30" />
        <polygon fill="#8C8C8C" points="115,286.6,115,297.4,135,306.6,165,306.6,185,297.4,185,286.6" />
        <rect height="43.4" gorn="0.1.26" y="0" x="135" id="connector4pin" fill="#8C8C8C" width="30" />
        <rect height="30" gorn="0.1.27" x="135" id="connector4terminal" fill="#8C8C8C" width="30" />
        <polygon fill="#8C8C8C" points="185,43.4,185,32.6,165,23.4,135,23.4,115,32.6,115,43.4" />
    </g>
</svg>
