<?xml version='1.0' encoding='UTF-8' standalone='no'?>
<!-- Created with Fritzing (http://www.fritzing.org/) -->
<svg xmlns="http://www.w3.org/2000/svg" version="1.2"  height="0.33in" width="0.3in" viewBox="0 0 300 330" x="0in" y="0in" baseProfile="tiny">
    <desc >
        <referenceFile >dip_icon.svg</referenceFile>
    </desc>
    <g gorn="0.1"  id="icon">
        <rect gorn="0.1.0"  height="270" width="300" fill="#303030" x="0" y="30" id="middle"/>
        <rect gorn="0.1.1"  height="24.6" width="300" fill="#3D3D3D" x="0" y="30" id="top"/>
        <rect gorn="0.1.2"  height="24.6" width="300" fill="#000000" x="0" y="275.4" id="bottom"/>
        <polygon gorn="0.1.3"  fill="#141414" points="300,30,292.5,54.6,292.5,275.4,300,300" id="right"/>
        <polygon gorn="0.1.4"  fill="#1F1F1F" points="0,30,7.5,54.6,7.5,275.4,0,300" id="left"/>
        <polygon gorn="0.1.5"  fill="#1C1C1C" points="50,115,7.5,114.6,5.6,135.8,5.6,165,50,165" id="left-upper-rect"/>
        <polygon gorn="0.1.6"  fill="#383838" points="7.5,215.5,50,215.5,50,165,5.6,165,5.6,194.2" id="left-lower-rect"/>
        <path gorn="0.1.7"  fill="#262626" d="M5.6,135.8l0,58.3c14.7,-1.7,26.2,-14,26.2,-29.2C31.8,149.7,20.4,137.5,5.6,135.8z" id="slot"/>
        <path gorn="0.1.8"  fill="#303030" d="M7.5,54.6L7.5,114.5c23.8,4.5,41.9,25.3,41.9,50.4c0,25.1,-18,46,-41.9,50.5L7.5,215.5l50,0L57.5,54.6L7.5,54.6z" id="cover"/>
        <circle  fill="#212121" cy="234.7" cx="65" r="20.6"/>
        <text gorn="0.1.10"  font-size="80" fill="#dddddd" stroke="none" x="65" font-family="OCRA" text-anchor="start" y="165" id="label">IC14</text>
        <rect gorn="0.1.11"  height="43.4" width="30" fill="#8C8C8C" x="35" y="286.6" id="connector0pin"/>
        <rect gorn="0.1.12"  height="30" width="30" fill="#8C8C8C" x="35" y="300" id="connector0terminal"/>
        <polygon  fill="#8C8C8C" points="35,286.6,35,306.6,65,306.6,85,297.4,85,286.6"/>
        <rect gorn="0.1.14"  height="43.4" width="30" fill="#8C8C8C" x="35" id="connector5pin"/>
        <rect gorn="0.1.15"  height="30" width="30" fill="#8C8C8C" x="35" id="connector5terminal"/>
        <polygon  fill="#8C8C8C" points="85,43.4,85,32.6,65,23.4,35,23.4,35,43.4"/>
        <rect gorn="0.1.17"  height="43.4" width="30" fill="#8C8C8C" x="235" y="286.6" id="connector2pin"/>
        <rect gorn="0.1.18"  height="30" width="30" fill="#8C8C8C" x="235" y="300" id="connector2terminal"/>
        <polygon  fill="#8C8C8C" points="215,286.6,215,297.4,235,306.6,265,306.6,265,286.6"/>
        <rect gorn="0.1.20"  height="43.4" width="30" fill="#8C8C8C" x="235" y="0" id="connector3pin"/>
        <rect gorn="0.1.21"  height="30" width="30" fill="#8C8C8C" x="235" y="0" id="connector3terminal"/>
        <polygon  fill="#8C8C8C" points="265,43.4,265,23.4,235,23.4,215,32.6,215,43.4"/>
        <rect gorn="0.1.23"  height="43.4" width="30" fill="#8C8C8C" x="135" y="286.6" id="connector1pin"/>
        <rect gorn="0.1.24"  height="30" width="30" fill="#8C8C8C" x="135" y="300" id="connector1terminal"/>
        <polygon  fill="#8C8C8C" points="115,286.6,115,297.4,135,306.6,165,306.6,185,297.4,185,286.6"/>
        <rect gorn="0.1.26"  height="43.4" width="30" fill="#8C8C8C" x="135" y="0" id="connector4pin"/>
        <rect gorn="0.1.27"  height="30" width="30" fill="#8C8C8C" x="135" id="connector4terminal"/>
        <polygon  fill="#8C8C8C" points="185,43.4,185,32.6,165,23.4,135,23.4,115,32.6,115,43.4"/>
    </g>
</svg>
