<?xml version='1.0' encoding='UTF-8' standalone='no'?>
<!-- Created with Fritzing (http://www.fritzing.org/) -->
<svg xmlns="http://www.w3.org/2000/svg" x="0in"  viewBox="0 0 300 330" width="0.3in" height="0.33in" y="0in" version="1.2" baseProfile="tiny">
    <desc >
        <referenceFile >dip_icon.svg</referenceFile>
    </desc>
    <g id="icon"  gorn="0.1">
        <rect x="0" id="middle"  gorn="0.1.0" height="270" width="300" y="30" fill="#303030"/>
        <rect x="0" id="top"  gorn="0.1.1" height="24.6" width="300" y="30" fill="#3D3D3D"/>
        <rect x="0" id="bottom"  gorn="0.1.2" height="24.6" width="300" y="275.4" fill="#000000"/>
        <polygon id="right"  gorn="0.1.3" fill="#141414" points="300,30,292.5,54.6,292.5,275.4,300,300"/>
        <polygon id="left"  gorn="0.1.4" fill="#1F1F1F" points="0,30,7.5,54.6,7.5,275.4,0,300"/>
        <polygon id="left-upper-rect"  gorn="0.1.5" fill="#1C1C1C" points="50,115,7.5,114.6,5.6,135.8,5.6,165,50,165"/>
        <polygon id="left-lower-rect"  gorn="0.1.6" fill="#383838" points="7.5,215.5,50,215.5,50,165,5.6,165,5.6,194.2"/>
        <path id="slot"  gorn="0.1.7" d="M5.6,135.8l0,58.3c14.7,-1.7,26.2,-14,26.2,-29.2C31.8,149.7,20.4,137.5,5.6,135.8z" fill="#262626"/>
        <path id="cover"  gorn="0.1.8" d="M7.5,54.6L7.5,114.5c23.8,4.5,41.9,25.3,41.9,50.4c0,25.1,-18,46,-41.9,50.5L7.5,215.5l50,0L57.5,54.6L7.5,54.6z" fill="#303030"/>
        <circle  r="20.6" cx="65" cy="234.7" fill="#212121"/>
        <text stroke="none" x="65" id="label"  gorn="0.1.10" text-anchor="start" y="165" font-size="80" fill="#dddddd" font-family="OCRA">IC16</text>
        <rect x="35" id="connector0pin"  gorn="0.1.11" height="43.4" width="30" y="286.6" fill="#8C8C8C"/>
        <rect x="35" id="connector0terminal"  gorn="0.1.12" height="30" width="30" y="300" fill="#8C8C8C"/>
        <polygon  fill="#8C8C8C" points="35,286.6,35,306.6,65,306.6,85,297.4,85,286.6"/>
        <rect x="35" id="connector5pin"  gorn="0.1.14" height="43.4" width="30" fill="#8C8C8C"/>
        <rect x="35" id="connector5terminal"  gorn="0.1.15" height="30" width="30" fill="#8C8C8C"/>
        <polygon  fill="#8C8C8C" points="85,43.4,85,32.6,65,23.4,35,23.4,35,43.4"/>
        <rect x="235" id="connector2pin"  gorn="0.1.17" height="43.4" width="30" y="286.6" fill="#8C8C8C"/>
        <rect x="235" id="connector2terminal"  gorn="0.1.18" height="30" width="30" y="300" fill="#8C8C8C"/>
        <polygon  fill="#8C8C8C" points="215,286.6,215,297.4,235,306.6,265,306.6,265,286.6"/>
        <rect x="235" id="connector3pin"  gorn="0.1.20" height="43.4" width="30" y="0" fill="#8C8C8C"/>
        <rect x="235" id="connector3terminal"  gorn="0.1.21" height="30" width="30" y="0" fill="#8C8C8C"/>
        <polygon  fill="#8C8C8C" points="265,43.4,265,23.4,235,23.4,215,32.6,215,43.4"/>
        <rect x="135" id="connector1pin"  gorn="0.1.23" height="43.4" width="30" y="286.6" fill="#8C8C8C"/>
        <rect x="135" id="connector1terminal"  gorn="0.1.24" height="30" width="30" y="300" fill="#8C8C8C"/>
        <polygon  fill="#8C8C8C" points="115,286.6,115,297.4,135,306.6,165,306.6,185,297.4,185,286.6"/>
        <rect x="135" id="connector4pin"  gorn="0.1.26" height="43.4" width="30" y="0" fill="#8C8C8C"/>
        <rect x="135" id="connector4terminal"  gorn="0.1.27" height="30" width="30" fill="#8C8C8C"/>
        <polygon  fill="#8C8C8C" points="185,43.4,185,32.6,165,23.4,135,23.4,115,32.6,115,43.4"/>
    </g>
</svg>
