<?xml version='1.0' encoding='UTF-8' standalone='no'?>
<!-- Created with Fritzing (http://www.fritzing.org/) -->
<svg xmlns="http://www.w3.org/2000/svg" height="0.33in" x="0in" viewBox="0 0 300 330" y="0in"  width="0.3in" baseProfile="tiny" version="1.2">
    <desc >
        <referenceFile >dip_icon.svg</referenceFile>
    </desc>
    <g id="icon"  gorn="0.1">
        <rect height="270" id="middle" x="0" y="30"  gorn="0.1.0" width="300" fill="#303030"/>
        <rect height="24.6" id="top" x="0" y="30"  gorn="0.1.1" width="300" fill="#3D3D3D"/>
        <rect height="24.6" id="bottom" x="0" y="275.4"  gorn="0.1.2" width="300" fill="#000000"/>
        <polygon id="right" points="300,30,292.5,54.6,292.5,275.4,300,300"  gorn="0.1.3" fill="#141414"/>
        <polygon id="left" points="0,30,7.5,54.6,7.5,275.4,0,300"  gorn="0.1.4" fill="#1F1F1F"/>
        <polygon id="left-upper-rect" points="50,115,7.5,114.6,5.6,135.8,5.6,165,50,165"  gorn="0.1.5" fill="#1C1C1C"/>
        <polygon id="left-lower-rect" points="7.5,215.5,50,215.5,50,165,5.6,165,5.6,194.2"  gorn="0.1.6" fill="#383838"/>
        <path id="slot" d="M5.6,135.8l0,58.3c14.7,-1.7,26.2,-14,26.2,-29.2C31.8,149.7,20.4,137.5,5.6,135.8z"  gorn="0.1.7" fill="#262626"/>
        <path id="cover" d="M7.5,54.6L7.5,114.5c23.8,4.5,41.9,25.3,41.9,50.4c0,25.1,-18,46,-41.9,50.5L7.5,215.5l50,0L57.5,54.6L7.5,54.6z"  gorn="0.1.8" fill="#303030"/>
        <circle cy="234.7"  cx="65" r="20.6" fill="#212121"/>
        <text id="label" font-family="OCRA" x="65" y="165"  text-anchor="start" font-size="80" gorn="0.1.10" stroke="none" fill="#dddddd">IC</text>
        <rect height="43.4" id="connector0pin" x="35" y="286.6"  gorn="0.1.11" width="30" fill="#8C8C8C"/>
        <rect height="30" id="connector0terminal" x="35" y="300"  gorn="0.1.12" width="30" fill="#8C8C8C"/>
        <polygon points="35,286.6,35,306.6,65,306.6,85,297.4,85,286.6"  fill="#8C8C8C"/>
        <rect height="43.4" id="connector5pin" x="35"  gorn="0.1.14" width="30" fill="#8C8C8C"/>
        <rect height="30" id="connector5terminal" x="35"  gorn="0.1.15" width="30" fill="#8C8C8C"/>
        <polygon points="85,43.4,85,32.6,65,23.4,35,23.4,35,43.4"  fill="#8C8C8C"/>
        <rect height="43.4" id="connector2pin" x="235" y="286.6"  gorn="0.1.17" width="30" fill="#8C8C8C"/>
        <rect height="30" id="connector2terminal" x="235" y="300"  gorn="0.1.18" width="30" fill="#8C8C8C"/>
        <polygon points="215,286.6,215,297.4,235,306.6,265,306.6,265,286.6"  fill="#8C8C8C"/>
        <rect height="43.4" id="connector3pin" x="235" y="0"  gorn="0.1.20" width="30" fill="#8C8C8C"/>
        <rect height="30" id="connector3terminal" x="235" y="0"  gorn="0.1.21" width="30" fill="#8C8C8C"/>
        <polygon points="265,43.4,265,23.4,235,23.4,215,32.6,215,43.4"  fill="#8C8C8C"/>
        <rect height="43.4" id="connector1pin" x="135" y="286.6"  gorn="0.1.23" width="30" fill="#8C8C8C"/>
        <rect height="30" id="connector1terminal" x="135" y="300"  gorn="0.1.24" width="30" fill="#8C8C8C"/>
        <polygon points="115,286.6,115,297.4,135,306.6,165,306.6,185,297.4,185,286.6"  fill="#8C8C8C"/>
        <rect height="43.4" id="connector4pin" x="135" y="0"  gorn="0.1.26" width="30" fill="#8C8C8C"/>
        <rect height="30" id="connector4terminal" x="135"  gorn="0.1.27" width="30" fill="#8C8C8C"/>
        <polygon points="185,43.4,185,32.6,165,23.4,135,23.4,115,32.6,115,43.4"  fill="#8C8C8C"/>
    </g>
</svg>
