<?xml version='1.0' encoding='utf-8'?>
<svg xmlns="http://www.w3.org/2000/svg" viewBox="0 0 70 33" baseProfile="tiny" id="svg2"  version="1.2" height="0.33in" width="0.7in" gorn="0">
    <desc >
        <referenceFile >generic_ic_dip_14_300mil_bread.svg</referenceFile>
    </desc>
    <g id="breadboard"  gorn="0.1">
        <rect fill="#303030" x="0" id="middle"  height="27" width="70" gorn="0.1.0" y="3"/>
        <rect fill="#3D3D3D" x="0" id="top"  height="2.46" width="70" gorn="0.1.1" y="3.0"/>
        <rect fill="#000000" x="0" id="bottom"  height="2.46" width="70" gorn="0.1.2" y="27.54"/>
        <polygon fill="#141414" points="70,3 69.25,5.46 69.25,27.54 70,30" id="right"  gorn="0.1.3"/>
        <polygon fill="#1F1F1F" points="0,3 0.75,5.46 0.75,27.54 0,30" id="left"  gorn="0.1.4"/>
        <polygon fill="#1C1C1C" points="5,11.5 0.75,11.46 0.56,13.58 0.56,16.5 5,16.5" id="left-upper-rect"  gorn="0.1.5"/>
        <polygon fill="#383838" points="0.75,21.55 5,21.55 5,16.5 0.56,16.5 0.56,19.42" id="left-lower-rect"  gorn="0.1.6"/>
        <path fill="#262626" id="slot"  d="M0.56,13.58v5.83c1.47-0.17,2.62-1.4,2.62-2.92C3.18,14.97,2.04,13.75,0.56,13.58z" gorn="0.1.7"/>
        <path fill="#303030" id="cover"  d="M0.75,5.46V11.45c2.38,0.45,4.19,2.53,4.19,5.04c0,2.51-1.8,4.6-4.19,5.05V21.55h5.0V5.46H0.75z" gorn="0.1.8"/>
        <circle r="2.06" fill="#212121" cx="6.5" cy="23.47" />
        <text font-size="8" stroke="none" fill="#e6e6e6" x="6.5" text-anchor="start" id="label"  font-family="OCRA" gorn="0.1.10" y="16.5">IC</text>
        <rect fill="#8C8C8C" x="3.5" id="connector0pin"  height="4.34" width="3" gorn="0.1.11" y="28.66"/>
        <rect fill="#8C8C8C" x="3.5" id="connector0terminal"  height="3" width="3" gorn="0.1.12" y="30"/>
        <polygon fill="#8C8C8C" points="3.5,28.66 3.5,30.66 6.5,30.66 8.5,29.74 8.5,28.66 " />
        <rect fill="#8C8C8C" x="3.5" id="connector13pin"  height="4.34" width="3" gorn="0.1.14"/>
        <rect fill="#8C8C8C" x="3.5" id="connector13terminal"  height="3" width="3" gorn="0.1.15"/>
        <polygon fill="#8C8C8C" points="8.5,4.34 8.5,3.26 6.5,2.34 3.5,2.34 3.5,4.34" />
        <rect fill="#8C8C8C" x="63.5" id="connector6pin"  height="4.34" width="3" gorn="0.1.17" y="28.66"/>
        <rect fill="#8C8C8C" x="63.5" id="connector6terminal"  height="3" width="3" gorn="0.1.18" y="30"/>
        <polygon fill="#8C8C8C" points="61.5,28.66 61.5,29.74 63.5,30.66 66.5,30.66 66.5,28.66" />
        <rect fill="#8C8C8C" x="63.5" id="connector7pin"  height="4.34" width="3" gorn="0.1.20" y="0"/>
        <rect fill="#8C8C8C" x="63.5" id="connector7terminal"  height="3" width="3" gorn="0.1.21" y="0"/>
        <polygon fill="#8C8C8C" points="66.5,4.34 66.5,2.34 63.5,2.34 61.5,3.26 61.5,4.34 " />
        <rect fill="#8C8C8C" x="13.5" id="connector12pin"  height="4.34" width="3" gorn="0.1.23" y="0"/>
        <rect fill="#8C8C8C" x="13.5" id="connector12terminal"  height="3" width="3" gorn="0.1.24"/>
        <polygon fill="#8C8C8C" points="18.5,4.34 18.5,3.26 16.5,2.34 13.5,2.34 11.5,3.26 11.5,4.34" />
        <rect fill="#8C8C8C" x="23.5" id="connector11pin"  height="4.34" width="3" gorn="0.1.26" y="0"/>
        <rect fill="#8C8C8C" x="23.5" id="connector11terminal"  height="3" width="3" gorn="0.1.27"/>
        <polygon fill="#8C8C8C" points="28.5,4.34 28.5,3.26 26.5,2.34 23.5,2.34 21.5,3.26 21.5,4.34" />
        <rect fill="#8C8C8C" x="33.5" id="connector10pin"  height="4.34" width="3" gorn="0.1.29" y="0"/>
        <rect fill="#8C8C8C" x="33.5" id="connector10terminal"  height="3" width="3" gorn="0.1.30"/>
        <polygon fill="#8C8C8C" points="38.5,4.34 38.5,3.26 36.5,2.34 33.5,2.34 31.5,3.26 31.5,4.34" />
        <rect fill="#8C8C8C" x="43.5" id="connector9pin"  height="4.34" width="3" gorn="0.1.32" y="0"/>
        <rect fill="#8C8C8C" x="43.5" id="connector9terminal"  height="3" width="3" gorn="0.1.33"/>
        <polygon fill="#8C8C8C" points="48.5,4.34 48.5,3.26 46.5,2.34 43.5,2.34 41.5,3.26 41.5,4.34" />
        <rect fill="#8C8C8C" x="53.5" id="connector8pin"  height="4.34" width="3" gorn="0.1.35" y="0"/>
        <rect fill="#8C8C8C" x="53.5" id="connector8terminal"  height="3" width="3" gorn="0.1.36"/>
        <polygon fill="#8C8C8C" points="58.5,4.34 58.5,3.26 56.5,2.34 53.5,2.34 51.5,3.26 51.5,4.34" />
        <rect fill="#8C8C8C" x="13.5" id="connector1pin"  height="4.34" width="3" gorn="0.1.38" y="28.66"/>
        <rect fill="#8C8C8C" x="13.5" id="connector1terminal"  height="3" width="3" gorn="0.1.39" y="30"/>
        <polygon fill="#8C8C8C" points="11.5,28.66 11.5,29.74 13.5,30.66 16.5,30.66 18.5,29.74 18.5,28.66" />
        <rect fill="#8C8C8C" x="23.5" id="connector2pin"  height="4.34" width="3" gorn="0.1.41" y="28.66"/>
        <rect fill="#8C8C8C" x="23.5" id="connector2terminal"  height="3" width="3" gorn="0.1.42" y="30"/>
        <polygon fill="#8C8C8C" points="21.5,28.66 21.5,29.74 23.5,30.66 26.5,30.66 28.5,29.74 28.5,28.66" />
        <rect fill="#8C8C8C" x="33.5" id="connector3pin"  height="4.34" width="3" gorn="0.1.44" y="28.66"/>
        <rect fill="#8C8C8C" x="33.5" id="connector3terminal"  height="3" width="3" gorn="0.1.45" y="30"/>
        <polygon fill="#8C8C8C" points="31.5,28.66 31.5,29.74 33.5,30.66 36.5,30.66 38.5,29.74 38.5,28.66" />
        <rect fill="#8C8C8C" x="43.5" id="connector4pin"  height="4.34" width="3" gorn="0.1.47" y="28.66"/>
        <rect fill="#8C8C8C" x="43.5" id="connector4terminal"  height="3" width="3" gorn="0.1.48" y="30"/>
        <polygon fill="#8C8C8C" points="41.5,28.66 41.5,29.74 43.5,30.66 46.5,30.66 48.5,29.74 48.5,28.66" />
        <rect fill="#8C8C8C" x="53.5" id="connector5pin"  height="4.34" width="3" gorn="0.1.50" y="28.66"/>
        <rect fill="#8C8C8C" x="53.5" id="connector5terminal"  height="3" width="3" gorn="0.1.51" y="30"/>
        <polygon fill="#8C8C8C" points="51.5,28.66 51.5,29.74 53.5,30.66 56.5,30.66 58.5,29.74 58.5,28.66" />
    </g>
</svg>
