<?xml version='1.0' encoding='utf-8'?>
<svg xmlns="http://www.w3.org/2000/svg" width="0.8in" viewBox="0 0 80 33"  version="1.2" gorn="0" baseProfile="tiny" id="svg2" height="0.33in">
    <desc >
        <referenceFile >generic_ic_dip_16_300mil_bread.svg</referenceFile>
    </desc>
    <g  gorn="0.1" id="breadboard">
        <rect width="80"  x="0" y="3" gorn="0.1.0" id="middle" height="27" fill="#303030"/>
        <rect width="80"  x="0" y="3.0" gorn="0.1.1" id="top" height="2.46" fill="#3D3D3D"/>
        <rect width="80"  x="0" y="27.54" gorn="0.1.2" id="bottom" height="2.46" fill="#000000"/>
        <polygon  gorn="0.1.3" id="right" points="80,3 79.25,5.46 79.25,27.54 80,30" fill="#141414"/>
        <polygon  gorn="0.1.4" id="left" points="0,3 0.75,5.46 0.75,27.54 0,30" fill="#1F1F1F"/>
        <polygon  gorn="0.1.5" id="left-upper-rect" points="5,11.5 0.75,11.46 0.56,13.58 0.56,16.5 5,16.5" fill="#1C1C1C"/>
        <polygon  gorn="0.1.6" id="left-lower-rect" points="0.75,21.55 5,21.55 5,16.5 0.56,16.5 0.56,19.42" fill="#383838"/>
        <path  d="M0.56,13.58v5.83c1.47-0.17,2.62-1.4,2.62-2.92C3.18,14.97,2.04,13.75,0.56,13.58z" gorn="0.1.7" id="slot" fill="#262626"/>
        <path  d="M0.75,5.46V11.45c2.38,0.45,4.19,2.53,4.19,5.04c0,2.51-1.8,4.6-4.19,5.05V21.55h5.0V5.46H0.75z" gorn="0.1.8" id="cover" fill="#303030"/>
        <circle r="2.06"  cy="23.47" cx="6.5" fill="#212121"/>
        <text  x="6.5" y="16.5" stroke="none" gorn="0.1.10" font-size="8" id="label" text-anchor="start" font-family="OCRA" fill="#e6e6e6">IC</text>
        <rect width="3"  x="3.5" y="28.66" gorn="0.1.11" id="connector0pin" height="4.34" fill="#8C8C8C"/>
        <rect width="3"  x="3.5" y="30" gorn="0.1.12" id="connector0terminal" height="3" fill="#8C8C8C"/>
        <polygon  points="3.5,28.66 3.5,30.66 6.5,30.66 8.5,29.74 8.5,28.66 " fill="#8C8C8C"/>
        <rect width="3"  x="3.5" gorn="0.1.14" id="connector15pin" height="4.34" fill="#8C8C8C"/>
        <rect width="3"  x="3.5" gorn="0.1.15" id="connector15terminal" height="3" fill="#8C8C8C"/>
        <polygon  points="8.5,4.34 8.5,3.26 6.5,2.34 3.5,2.34 3.5,4.34" fill="#8C8C8C"/>
        <rect width="3"  x="73.5" y="28.66" gorn="0.1.17" id="connector7pin" height="4.34" fill="#8C8C8C"/>
        <rect width="3"  x="73.5" y="30" gorn="0.1.18" id="connector7terminal" height="3" fill="#8C8C8C"/>
        <polygon  points="71.5,28.66 71.5,29.74 73.5,30.66 76.5,30.66 76.5,28.66" fill="#8C8C8C"/>
        <rect width="3"  x="73.5" y="0" gorn="0.1.20" id="connector8pin" height="4.34" fill="#8C8C8C"/>
        <rect width="3"  x="73.5" y="0" gorn="0.1.21" id="connector8terminal" height="3" fill="#8C8C8C"/>
        <polygon  points="76.5,4.34 76.5,2.34 73.5,2.34 71.5,3.26 71.5,4.34 " fill="#8C8C8C"/>
        <rect width="3"  x="13.5" y="0" gorn="0.1.23" id="connector14pin" height="4.34" fill="#8C8C8C"/>
        <rect width="3"  x="13.5" gorn="0.1.24" id="connector14terminal" height="3" fill="#8C8C8C"/>
        <polygon  points="18.5,4.34 18.5,3.26 16.5,2.34 13.5,2.34 11.5,3.26 11.5,4.34" fill="#8C8C8C"/>
        <rect width="3"  x="23.5" y="0" gorn="0.1.26" id="connector13pin" height="4.34" fill="#8C8C8C"/>
        <rect width="3"  x="23.5" gorn="0.1.27" id="connector13terminal" height="3" fill="#8C8C8C"/>
        <polygon  points="28.5,4.34 28.5,3.26 26.5,2.34 23.5,2.34 21.5,3.26 21.5,4.34" fill="#8C8C8C"/>
        <rect width="3"  x="33.5" y="0" gorn="0.1.29" id="connector12pin" height="4.34" fill="#8C8C8C"/>
        <rect width="3"  x="33.5" gorn="0.1.30" id="connector12terminal" height="3" fill="#8C8C8C"/>
        <polygon  points="38.5,4.34 38.5,3.26 36.5,2.34 33.5,2.34 31.5,3.26 31.5,4.34" fill="#8C8C8C"/>
        <rect width="3"  x="43.5" y="0" gorn="0.1.32" id="connector11pin" height="4.34" fill="#8C8C8C"/>
        <rect width="3"  x="43.5" gorn="0.1.33" id="connector11terminal" height="3" fill="#8C8C8C"/>
        <polygon  points="48.5,4.34 48.5,3.26 46.5,2.34 43.5,2.34 41.5,3.26 41.5,4.34" fill="#8C8C8C"/>
        <rect width="3"  x="53.5" y="0" gorn="0.1.35" id="connector10pin" height="4.34" fill="#8C8C8C"/>
        <rect width="3"  x="53.5" gorn="0.1.36" id="connector10terminal" height="3" fill="#8C8C8C"/>
        <polygon  points="58.5,4.34 58.5,3.26 56.5,2.34 53.5,2.34 51.5,3.26 51.5,4.34" fill="#8C8C8C"/>
        <rect width="3"  x="63.5" y="0" gorn="0.1.38" id="connector9pin" height="4.34" fill="#8C8C8C"/>
        <rect width="3"  x="63.5" gorn="0.1.39" id="connector9terminal" height="3" fill="#8C8C8C"/>
        <polygon  points="68.5,4.34 68.5,3.26 66.5,2.34 63.5,2.34 61.5,3.26 61.5,4.34" fill="#8C8C8C"/>
        <rect width="3"  x="13.5" y="28.66" gorn="0.1.41" id="connector1pin" height="4.34" fill="#8C8C8C"/>
        <rect width="3"  x="13.5" y="30" gorn="0.1.42" id="connector1terminal" height="3" fill="#8C8C8C"/>
        <polygon  points="11.5,28.66 11.5,29.74 13.5,30.66 16.5,30.66 18.5,29.74 18.5,28.66" fill="#8C8C8C"/>
        <rect width="3"  x="23.5" y="28.66" gorn="0.1.44" id="connector2pin" height="4.34" fill="#8C8C8C"/>
        <rect width="3"  x="23.5" y="30" gorn="0.1.45" id="connector2terminal" height="3" fill="#8C8C8C"/>
        <polygon  points="21.5,28.66 21.5,29.74 23.5,30.66 26.5,30.66 28.5,29.74 28.5,28.66" fill="#8C8C8C"/>
        <rect width="3"  x="33.5" y="28.66" gorn="0.1.47" id="connector3pin" height="4.34" fill="#8C8C8C"/>
        <rect width="3"  x="33.5" y="30" gorn="0.1.48" id="connector3terminal" height="3" fill="#8C8C8C"/>
        <polygon  points="31.5,28.66 31.5,29.74 33.5,30.66 36.5,30.66 38.5,29.74 38.5,28.66" fill="#8C8C8C"/>
        <rect width="3"  x="43.5" y="28.66" gorn="0.1.50" id="connector4pin" height="4.34" fill="#8C8C8C"/>
        <rect width="3"  x="43.5" y="30" gorn="0.1.51" id="connector4terminal" height="3" fill="#8C8C8C"/>
        <polygon  points="41.5,28.66 41.5,29.74 43.5,30.66 46.5,30.66 48.5,29.74 48.5,28.66" fill="#8C8C8C"/>
        <rect width="3"  x="53.5" y="28.66" gorn="0.1.53" id="connector5pin" height="4.34" fill="#8C8C8C"/>
        <rect width="3"  x="53.5" y="30" gorn="0.1.54" id="connector5terminal" height="3" fill="#8C8C8C"/>
        <polygon  points="51.5,28.66 51.5,29.74 53.5,30.66 56.5,30.66 58.5,29.74 58.5,28.66" fill="#8C8C8C"/>
        <rect width="3"  x="63.5" y="28.66" gorn="0.1.56" id="connector6pin" height="4.34" fill="#8C8C8C"/>
        <rect width="3"  x="63.5" y="30" gorn="0.1.57" id="connector6terminal" height="3" fill="#8C8C8C"/>
        <polygon  points="61.5,28.66 61.5,29.74 63.5,30.66 66.5,30.66 68.5,29.74 68.5,28.66" fill="#8C8C8C"/>
    </g>
</svg>
