<?xml version='1.0' encoding='utf-8'?>
<svg xmlns="http://www.w3.org/2000/svg" height="0.33in" gorn="0" baseProfile="tiny" id="svg2" version="1.2" viewBox="0 0 100 33" width="1in" >
    <desc >
        <referenceFile >generic_ic_dip_20_300mil_bread.svg</referenceFile>
    </desc>
    <g gorn="0.1" id="breadboard" >
        <rect height="27" gorn="0.1.0" y="3" x="0" id="middle" fill="#303030" width="100" />
        <rect height="2.46" gorn="0.1.1" y="3.0" x="0" id="top" fill="#3D3D3D" width="100" />
        <rect height="2.46" gorn="0.1.2" y="27.54" x="0" id="bottom" fill="#000000" width="100" />
        <polygon gorn="0.1.3" id="right" fill="#141414" points="100,3 99.25,5.46 99.25,27.54 100,30" />
        <polygon gorn="0.1.4" id="left" fill="#1F1F1F" points="0,3 0.75,5.46 0.75,27.54 0,30" />
        <polygon gorn="0.1.5" id="left-upper-rect" fill="#1C1C1C" points="5,11.5 0.75,11.46 0.56,13.58 0.56,16.5 5,16.5" />
        <polygon gorn="0.1.6" id="left-lower-rect" fill="#383838" points="0.75,21.55 5,21.55 5,16.5 0.56,16.5 0.56,19.42" />
        <path gorn="0.1.7" d="M0.56,13.58v5.83c1.47-0.17,2.62-1.4,2.62-2.92C3.18,14.97,2.04,13.75,0.56,13.58z" id="slot" fill="#262626" />
        <path gorn="0.1.8" d="M0.75,5.46V11.45c2.38,0.45,4.19,2.53,4.19,5.04c0,2.51-1.8,4.6-4.19,5.05V21.55h5.0V5.46H0.75z" id="cover" fill="#303030" />
        <circle cx="6.5" fill="#212121" cy="23.47" r="2.06" />
        <text gorn="0.1.10" stroke="none" y="16.5" x="6.5" id="label" fill="#e6e6e6"  font-family="OCRA" font-size="8" text-anchor="start">IC</text>
        <rect height="4.34" gorn="0.1.11" y="28.66" x="3.5" id="connector0pin" fill="#8C8C8C" width="3" />
        <rect height="3" gorn="0.1.12" y="30" x="3.5" id="connector0terminal" fill="#8C8C8C" width="3" />
        <polygon fill="#8C8C8C" points="3.5,28.66 3.5,30.66 6.5,30.66 8.5,29.74 8.5,28.66 " />
        <rect height="4.34" gorn="0.1.14" x="3.5" id="connector19pin" fill="#8C8C8C" width="3" />
        <rect height="3" gorn="0.1.15" x="3.5" id="connector19terminal" fill="#8C8C8C" width="3" />
        <polygon fill="#8C8C8C" points="8.5,4.34 8.5,3.26 6.5,2.34 3.5,2.34 3.5,4.34" />
        <rect height="4.34" gorn="0.1.17" y="28.66" x="93.5" id="connector9pin" fill="#8C8C8C" width="3" />
        <rect height="3" gorn="0.1.18" y="30" x="93.5" id="connector9terminal" fill="#8C8C8C" width="3" />
        <polygon fill="#8C8C8C" points="91.5,28.66 91.5,29.74 93.5,30.66 96.5,30.66 96.5,28.66" />
        <rect height="4.34" gorn="0.1.20" y="0" x="93.5" id="connector10pin" fill="#8C8C8C" width="3" />
        <rect height="3" gorn="0.1.21" y="0" x="93.5" id="connector10terminal" fill="#8C8C8C" width="3" />
        <polygon fill="#8C8C8C" points="96.5,4.34 96.5,2.34 93.5,2.34 91.5,3.26 91.5,4.34 " />
        <rect height="4.34" gorn="0.1.23" y="0" x="13.5" id="connector18pin" fill="#8C8C8C" width="3" />
        <rect height="3" gorn="0.1.24" x="13.5" id="connector18terminal" fill="#8C8C8C" width="3" />
        <polygon fill="#8C8C8C" points="18.5,4.34 18.5,3.26 16.5,2.34 13.5,2.34 11.5,3.26 11.5,4.34" />
        <rect height="4.34" gorn="0.1.26" y="0" x="23.5" id="connector17pin" fill="#8C8C8C" width="3" />
        <rect height="3" gorn="0.1.27" x="23.5" id="connector17terminal" fill="#8C8C8C" width="3" />
        <polygon fill="#8C8C8C" points="28.5,4.34 28.5,3.26 26.5,2.34 23.5,2.34 21.5,3.26 21.5,4.34" />
        <rect height="4.34" gorn="0.1.29" y="0" x="33.5" id="connector16pin" fill="#8C8C8C" width="3" />
        <rect height="3" gorn="0.1.30" x="33.5" id="connector16terminal" fill="#8C8C8C" width="3" />
        <polygon fill="#8C8C8C" points="38.5,4.34 38.5,3.26 36.5,2.34 33.5,2.34 31.5,3.26 31.5,4.34" />
        <rect height="4.34" gorn="0.1.32" y="0" x="43.5" id="connector15pin" fill="#8C8C8C" width="3" />
        <rect height="3" gorn="0.1.33" x="43.5" id="connector15terminal" fill="#8C8C8C" width="3" />
        <polygon fill="#8C8C8C" points="48.5,4.34 48.5,3.26 46.5,2.34 43.5,2.34 41.5,3.26 41.5,4.34" />
        <rect height="4.34" gorn="0.1.35" y="0" x="53.5" id="connector14pin" fill="#8C8C8C" width="3" />
        <rect height="3" gorn="0.1.36" x="53.5" id="connector14terminal" fill="#8C8C8C" width="3" />
        <polygon fill="#8C8C8C" points="58.5,4.34 58.5,3.26 56.5,2.34 53.5,2.34 51.5,3.26 51.5,4.34" />
        <rect height="4.34" gorn="0.1.38" y="0" x="63.5" id="connector13pin" fill="#8C8C8C" width="3" />
        <rect height="3" gorn="0.1.39" x="63.5" id="connector13terminal" fill="#8C8C8C" width="3" />
        <polygon fill="#8C8C8C" points="68.5,4.34 68.5,3.26 66.5,2.34 63.5,2.34 61.5,3.26 61.5,4.34" />
        <rect height="4.34" gorn="0.1.41" y="0" x="73.5" id="connector12pin" fill="#8C8C8C" width="3" />
        <rect height="3" gorn="0.1.42" x="73.5" id="connector12terminal" fill="#8C8C8C" width="3" />
        <polygon fill="#8C8C8C" points="78.5,4.34 78.5,3.26 76.5,2.34 73.5,2.34 71.5,3.26 71.5,4.34" />
        <rect height="4.34" gorn="0.1.44" y="0" x="83.5" id="connector11pin" fill="#8C8C8C" width="3" />
        <rect height="3" gorn="0.1.45" x="83.5" id="connector11terminal" fill="#8C8C8C" width="3" />
        <polygon fill="#8C8C8C" points="88.5,4.34 88.5,3.26 86.5,2.34 83.5,2.34 81.5,3.26 81.5,4.34" />
        <rect height="4.34" gorn="0.1.47" y="28.66" x="13.5" id="connector1pin" fill="#8C8C8C" width="3" />
        <rect height="3" gorn="0.1.48" y="30" x="13.5" id="connector1terminal" fill="#8C8C8C" width="3" />
        <polygon fill="#8C8C8C" points="11.5,28.66 11.5,29.74 13.5,30.66 16.5,30.66 18.5,29.74 18.5,28.66" />
        <rect height="4.34" gorn="0.1.50" y="28.66" x="23.5" id="connector2pin" fill="#8C8C8C" width="3" />
        <rect height="3" gorn="0.1.51" y="30" x="23.5" id="connector2terminal" fill="#8C8C8C" width="3" />
        <polygon fill="#8C8C8C" points="21.5,28.66 21.5,29.74 23.5,30.66 26.5,30.66 28.5,29.74 28.5,28.66" />
        <rect height="4.34" gorn="0.1.53" y="28.66" x="33.5" id="connector3pin" fill="#8C8C8C" width="3" />
        <rect height="3" gorn="0.1.54" y="30" x="33.5" id="connector3terminal" fill="#8C8C8C" width="3" />
        <polygon fill="#8C8C8C" points="31.5,28.66 31.5,29.74 33.5,30.66 36.5,30.66 38.5,29.74 38.5,28.66" />
        <rect height="4.34" gorn="0.1.56" y="28.66" x="43.5" id="connector4pin" fill="#8C8C8C" width="3" />
        <rect height="3" gorn="0.1.57" y="30" x="43.5" id="connector4terminal" fill="#8C8C8C" width="3" />
        <polygon fill="#8C8C8C" points="41.5,28.66 41.5,29.74 43.5,30.66 46.5,30.66 48.5,29.74 48.5,28.66" />
        <rect height="4.34" gorn="0.1.59" y="28.66" x="53.5" id="connector5pin" fill="#8C8C8C" width="3" />
        <rect height="3" gorn="0.1.60" y="30" x="53.5" id="connector5terminal" fill="#8C8C8C" width="3" />
        <polygon fill="#8C8C8C" points="51.5,28.66 51.5,29.74 53.5,30.66 56.5,30.66 58.5,29.74 58.5,28.66" />
        <rect height="4.34" gorn="0.1.62" y="28.66" x="63.5" id="connector6pin" fill="#8C8C8C" width="3" />
        <rect height="3" gorn="0.1.63" y="30" x="63.5" id="connector6terminal" fill="#8C8C8C" width="3" />
        <polygon fill="#8C8C8C" points="61.5,28.66 61.5,29.74 63.5,30.66 66.5,30.66 68.5,29.74 68.5,28.66" />
        <rect height="4.34" gorn="0.1.65" y="28.66" x="73.5" id="connector7pin" fill="#8C8C8C" width="3" />
        <rect height="3" gorn="0.1.66" y="30" x="73.5" id="connector7terminal" fill="#8C8C8C" width="3" />
        <polygon fill="#8C8C8C" points="71.5,28.66 71.5,29.74 73.5,30.66 76.5,30.66 78.5,29.74 78.5,28.66" />
        <rect height="4.34" gorn="0.1.68" y="28.66" x="83.5" id="connector8pin" fill="#8C8C8C" width="3" />
        <rect height="3" gorn="0.1.69" y="30" x="83.5" id="connector8terminal" fill="#8C8C8C" width="3" />
        <polygon fill="#8C8C8C" points="81.5,28.66 81.5,29.74 83.5,30.66 86.5,30.66 88.5,29.74 88.5,28.66" />
    </g>
</svg>
