<?xml version='1.0' encoding='utf-8'?>
<svg xmlns="http://www.w3.org/2000/svg" baseProfile="tiny" height="0.33in" version="1.2" id="svg2" viewBox="0 0 70 33" gorn="0" width="0.7in" >
    <desc>
        <referenceFile>generic_ic_dip_14_300mil_bread.svg</referenceFile>
    </desc>
    <g id="breadboard" gorn="0.0" >
        <rect height="27" y="3" fill="#303030" id="middle" gorn="0.0.0" width="70"  x="0"/>
        <rect height="2.46" y="3.0" fill="#3D3D3D" id="top" gorn="0.0.1" width="70"  x="0"/>
        <rect height="2.46" y="27.54" fill="#000000" id="bottom" gorn="0.0.2" width="70"  x="0"/>
        <polygon fill="#141414" id="right" gorn="0.0.3"  points="70,3 69.25,5.46 69.25,27.54 70,30"/>
        <polygon fill="#1F1F1F" id="left" gorn="0.0.4"  points="0,3 0.75,5.46 0.75,27.54 0,30"/>
        <polygon fill="#1C1C1C" id="left-upper-rect" gorn="0.0.5"  points="5,11.5 0.75,11.46 0.56,13.58 0.56,16.5 5,16.5"/>
        <polygon fill="#383838" id="left-lower-rect" gorn="0.0.6"  points="0.75,21.55 5,21.55 5,16.5 0.56,16.5 0.56,19.42"/>
        <path d="M0.56,13.58v5.83c1.47-0.17,2.62-1.4,2.62-2.92C3.18,14.97,2.04,13.75,0.56,13.58z" fill="#262626" id="slot" gorn="0.0.7" />
        <path d="M0.75,5.46V11.45c2.38,0.45,4.19,2.53,4.19,5.04c0,2.51-1.8,4.6-4.19,5.05V21.55h5.0V5.46H0.75z" fill="#303030" id="cover" gorn="0.0.8" />
        <circle fill="#212121" cx="6.5" r="2.06" cy="23.47" />
        <text font-size="8" stroke="none" font-family="OCRA" y="16.5" fill="#e6e6e6" id="label" gorn="0.0.10" text-anchor="start"  x="6.5">IC</text>
        <rect height="4.34" y="28.66" fill="#8C8C8C" id="connector0pin" gorn="0.0.11" width="3"  x="3.5"/>
        <rect height="3" y="30" fill="#8C8C8C" id="connector0terminal" gorn="0.0.12" width="3"  x="3.5"/>
        <polygon fill="#8C8C8C"  points="3.5,28.66 3.5,30.66 6.5,30.66 8.5,29.74 8.5,28.66 "/>
        <rect height="4.34" fill="#8C8C8C" id="connector13pin" gorn="0.0.14" width="3"  x="3.5"/>
        <rect height="3" fill="#8C8C8C" id="connector13terminal" gorn="0.0.15" width="3"  x="3.5"/>
        <polygon fill="#8C8C8C"  points="8.5,4.34 8.5,3.26 6.5,2.34 3.5,2.34 3.5,4.34"/>
        <rect height="4.34" y="28.66" fill="#8C8C8C" id="connector6pin" gorn="0.0.17" width="3"  x="63.5"/>
        <rect height="3" y="30" fill="#8C8C8C" id="connector6terminal" gorn="0.0.18" width="3"  x="63.5"/>
        <polygon fill="#8C8C8C"  points="61.5,28.66 61.5,29.74 63.5,30.66 66.5,30.66 66.5,28.66"/>
        <rect height="4.34" y="0" fill="#8C8C8C" id="connector7pin" gorn="0.0.20" width="3"  x="63.5"/>
        <rect height="3" y="0" fill="#8C8C8C" id="connector7terminal" gorn="0.0.21" width="3"  x="63.5"/>
        <polygon fill="#8C8C8C"  points="66.5,4.34 66.5,2.34 63.5,2.34 61.5,3.26 61.5,4.34 "/>
        <rect height="4.34" y="0" fill="#8C8C8C" id="connector12pin" gorn="0.0.23" width="3"  x="13.5"/>
        <rect height="3" fill="#8C8C8C" id="connector12terminal" gorn="0.0.24" width="3"  x="13.5"/>
        <polygon fill="#8C8C8C"  points="18.5,4.34 18.5,3.26 16.5,2.34 13.5,2.34 11.5,3.26 11.5,4.34"/>
        <rect height="4.34" y="0" fill="#8C8C8C" id="connector11pin" gorn="0.0.26" width="3"  x="23.5"/>
        <rect height="3" fill="#8C8C8C" id="connector11terminal" gorn="0.0.27" width="3"  x="23.5"/>
        <polygon fill="#8C8C8C"  points="28.5,4.34 28.5,3.26 26.5,2.34 23.5,2.34 21.5,3.26 21.5,4.34"/>
        <rect height="4.34" y="0" fill="#8C8C8C" id="connector10pin" gorn="0.0.29" width="3"  x="33.5"/>
        <rect height="3" fill="#8C8C8C" id="connector10terminal" gorn="0.0.30" width="3"  x="33.5"/>
        <polygon fill="#8C8C8C"  points="38.5,4.34 38.5,3.26 36.5,2.34 33.5,2.34 31.5,3.26 31.5,4.34"/>
        <rect height="4.34" y="0" fill="#8C8C8C" id="connector9pin" gorn="0.0.32" width="3"  x="43.5"/>
        <rect height="3" fill="#8C8C8C" id="connector9terminal" gorn="0.0.33" width="3"  x="43.5"/>
        <polygon fill="#8C8C8C"  points="48.5,4.34 48.5,3.26 46.5,2.34 43.5,2.34 41.5,3.26 41.5,4.34"/>
        <rect height="4.34" y="0" fill="#8C8C8C" id="connector8pin" gorn="0.0.35" width="3"  x="53.5"/>
        <rect height="3" fill="#8C8C8C" id="connector8terminal" gorn="0.0.36" width="3"  x="53.5"/>
        <polygon fill="#8C8C8C"  points="58.5,4.34 58.5,3.26 56.5,2.34 53.5,2.34 51.5,3.26 51.5,4.34"/>
        <rect height="4.34" y="28.66" fill="#8C8C8C" id="connector1pin" gorn="0.0.38" width="3"  x="13.5"/>
        <rect height="3" y="30" fill="#8C8C8C" id="connector1terminal" gorn="0.0.39" width="3"  x="13.5"/>
        <polygon fill="#8C8C8C"  points="11.5,28.66 11.5,29.74 13.5,30.66 16.5,30.66 18.5,29.74 18.5,28.66"/>
        <rect height="4.34" y="28.66" fill="#8C8C8C" id="connector2pin" gorn="0.0.41" width="3"  x="23.5"/>
        <rect height="3" y="30" fill="#8C8C8C" id="connector2terminal" gorn="0.0.42" width="3"  x="23.5"/>
        <polygon fill="#8C8C8C"  points="21.5,28.66 21.5,29.74 23.5,30.66 26.5,30.66 28.5,29.74 28.5,28.66"/>
        <rect height="4.34" y="28.66" fill="#8C8C8C" id="connector3pin" gorn="0.0.44" width="3"  x="33.5"/>
        <rect height="3" y="30" fill="#8C8C8C" id="connector3terminal" gorn="0.0.45" width="3"  x="33.5"/>
        <polygon fill="#8C8C8C"  points="31.5,28.66 31.5,29.74 33.5,30.66 36.5,30.66 38.5,29.74 38.5,28.66"/>
        <rect height="4.34" y="28.66" fill="#8C8C8C" id="connector4pin" gorn="0.0.47" width="3"  x="43.5"/>
        <rect height="3" y="30" fill="#8C8C8C" id="connector4terminal" gorn="0.0.48" width="3"  x="43.5"/>
        <polygon fill="#8C8C8C"  points="41.5,28.66 41.5,29.74 43.5,30.66 46.5,30.66 48.5,29.74 48.5,28.66"/>
        <rect height="4.34" y="28.66" fill="#8C8C8C" id="connector5pin" gorn="0.0.50" width="3"  x="53.5"/>
        <rect height="3" y="30" fill="#8C8C8C" id="connector5terminal" gorn="0.0.51" width="3"  x="53.5"/>
        <polygon fill="#8C8C8C"  points="51.5,28.66 51.5,29.74 53.5,30.66 56.5,30.66 58.5,29.74 58.5,28.66"/>
    </g>
</svg>
