<?xml version='1.0' encoding='utf-8'?>
<svg xmlns="http://www.w3.org/2000/svg"  version="1.2" gorn="0" height="0.33in" viewBox="0 0 80 33" baseProfile="tiny" width="0.8in" id="svg2">
    <desc>
        <referenceFile>generic_ic_dip_16_300mil_bread.svg</referenceFile>
    </desc>
    <g  gorn="0.0" id="breadboard">
        <rect  y="3" gorn="0.0.0" height="27" width="80" x="0" id="middle" fill="#303030"/>
        <rect  y="3.0" gorn="0.0.1" height="2.46" width="80" x="0" id="top" fill="#3D3D3D"/>
        <rect  y="27.54" gorn="0.0.2" height="2.46" width="80" x="0" id="bottom" fill="#000000"/>
        <polygon  gorn="0.0.3" points="80,3 79.25,5.46 79.25,27.54 80,30" id="right" fill="#141414"/>
        <polygon  gorn="0.0.4" points="0,3 0.75,5.46 0.75,27.54 0,30" id="left" fill="#1F1F1F"/>
        <polygon  gorn="0.0.5" points="5,11.5 0.75,11.46 0.56,13.58 0.56,16.5 5,16.5" id="left-upper-rect" fill="#1C1C1C"/>
        <polygon  gorn="0.0.6" points="0.75,21.55 5,21.55 5,16.5 0.56,16.5 0.56,19.42" id="left-lower-rect" fill="#383838"/>
        <path  gorn="0.0.7" d="M0.56,13.58v5.83c1.47-0.17,2.62-1.4,2.62-2.92C3.18,14.97,2.04,13.75,0.56,13.58z" id="slot" fill="#262626"/>
        <path  gorn="0.0.8" d="M0.75,5.46V11.45c2.38,0.45,4.19,2.53,4.19,5.04c0,2.51-1.8,4.6-4.19,5.05V21.55h5.0V5.46H0.75z" id="cover" fill="#303030"/>
        <circle  cx="6.5" r="2.06" cy="23.47" fill="#212121"/>
        <text  text-anchor="start" y="16.5" gorn="0.0.10" font-family="OCRA" font-size="8" stroke="none" x="6.5" id="label" fill="#e6e6e6">IC</text>
        <rect  y="28.66" gorn="0.0.11" height="4.34" width="3" x="3.5" id="connector0pin" fill="#8C8C8C"/>
        <rect  y="30" gorn="0.0.12" height="3" width="3" x="3.5" id="connector0terminal" fill="#8C8C8C"/>
        <polygon  points="3.5,28.66 3.5,30.66 6.5,30.66 8.5,29.74 8.5,28.66 " fill="#8C8C8C"/>
        <rect  gorn="0.0.14" height="4.34" width="3" x="3.5" id="connector15pin" fill="#8C8C8C"/>
        <rect  gorn="0.0.15" height="3" width="3" x="3.5" id="connector15terminal" fill="#8C8C8C"/>
        <polygon  points="8.5,4.34 8.5,3.26 6.5,2.34 3.5,2.34 3.5,4.34" fill="#8C8C8C"/>
        <rect  y="28.66" gorn="0.0.17" height="4.34" width="3" x="73.5" id="connector7pin" fill="#8C8C8C"/>
        <rect  y="30" gorn="0.0.18" height="3" width="3" x="73.5" id="connector7terminal" fill="#8C8C8C"/>
        <polygon  points="71.5,28.66 71.5,29.74 73.5,30.66 76.5,30.66 76.5,28.66" fill="#8C8C8C"/>
        <rect  y="0" gorn="0.0.20" height="4.34" width="3" x="73.5" id="connector8pin" fill="#8C8C8C"/>
        <rect  y="0" gorn="0.0.21" height="3" width="3" x="73.5" id="connector8terminal" fill="#8C8C8C"/>
        <polygon  points="76.5,4.34 76.5,2.34 73.5,2.34 71.5,3.26 71.5,4.34 " fill="#8C8C8C"/>
        <rect  y="0" gorn="0.0.23" height="4.34" width="3" x="13.5" id="connector14pin" fill="#8C8C8C"/>
        <rect  gorn="0.0.24" height="3" width="3" x="13.5" id="connector14terminal" fill="#8C8C8C"/>
        <polygon  points="18.5,4.34 18.5,3.26 16.5,2.34 13.5,2.34 11.5,3.26 11.5,4.34" fill="#8C8C8C"/>
        <rect  y="0" gorn="0.0.26" height="4.34" width="3" x="23.5" id="connector13pin" fill="#8C8C8C"/>
        <rect  gorn="0.0.27" height="3" width="3" x="23.5" id="connector13terminal" fill="#8C8C8C"/>
        <polygon  points="28.5,4.34 28.5,3.26 26.5,2.34 23.5,2.34 21.5,3.26 21.5,4.34" fill="#8C8C8C"/>
        <rect  y="0" gorn="0.0.29" height="4.34" width="3" x="33.5" id="connector12pin" fill="#8C8C8C"/>
        <rect  gorn="0.0.30" height="3" width="3" x="33.5" id="connector12terminal" fill="#8C8C8C"/>
        <polygon  points="38.5,4.34 38.5,3.26 36.5,2.34 33.5,2.34 31.5,3.26 31.5,4.34" fill="#8C8C8C"/>
        <rect  y="0" gorn="0.0.32" height="4.34" width="3" x="43.5" id="connector11pin" fill="#8C8C8C"/>
        <rect  gorn="0.0.33" height="3" width="3" x="43.5" id="connector11terminal" fill="#8C8C8C"/>
        <polygon  points="48.5,4.34 48.5,3.26 46.5,2.34 43.5,2.34 41.5,3.26 41.5,4.34" fill="#8C8C8C"/>
        <rect  y="0" gorn="0.0.35" height="4.34" width="3" x="53.5" id="connector10pin" fill="#8C8C8C"/>
        <rect  gorn="0.0.36" height="3" width="3" x="53.5" id="connector10terminal" fill="#8C8C8C"/>
        <polygon  points="58.5,4.34 58.5,3.26 56.5,2.34 53.5,2.34 51.5,3.26 51.5,4.34" fill="#8C8C8C"/>
        <rect  y="0" gorn="0.0.38" height="4.34" width="3" x="63.5" id="connector9pin" fill="#8C8C8C"/>
        <rect  gorn="0.0.39" height="3" width="3" x="63.5" id="connector9terminal" fill="#8C8C8C"/>
        <polygon  points="68.5,4.34 68.5,3.26 66.5,2.34 63.5,2.34 61.5,3.26 61.5,4.34" fill="#8C8C8C"/>
        <rect  y="28.66" gorn="0.0.41" height="4.34" width="3" x="13.5" id="connector1pin" fill="#8C8C8C"/>
        <rect  y="30" gorn="0.0.42" height="3" width="3" x="13.5" id="connector1terminal" fill="#8C8C8C"/>
        <polygon  points="11.5,28.66 11.5,29.74 13.5,30.66 16.5,30.66 18.5,29.74 18.5,28.66" fill="#8C8C8C"/>
        <rect  y="28.66" gorn="0.0.44" height="4.34" width="3" x="23.5" id="connector2pin" fill="#8C8C8C"/>
        <rect  y="30" gorn="0.0.45" height="3" width="3" x="23.5" id="connector2terminal" fill="#8C8C8C"/>
        <polygon  points="21.5,28.66 21.5,29.74 23.5,30.66 26.5,30.66 28.5,29.74 28.5,28.66" fill="#8C8C8C"/>
        <rect  y="28.66" gorn="0.0.47" height="4.34" width="3" x="33.5" id="connector3pin" fill="#8C8C8C"/>
        <rect  y="30" gorn="0.0.48" height="3" width="3" x="33.5" id="connector3terminal" fill="#8C8C8C"/>
        <polygon  points="31.5,28.66 31.5,29.74 33.5,30.66 36.5,30.66 38.5,29.74 38.5,28.66" fill="#8C8C8C"/>
        <rect  y="28.66" gorn="0.0.50" height="4.34" width="3" x="43.5" id="connector4pin" fill="#8C8C8C"/>
        <rect  y="30" gorn="0.0.51" height="3" width="3" x="43.5" id="connector4terminal" fill="#8C8C8C"/>
        <polygon  points="41.5,28.66 41.5,29.74 43.5,30.66 46.5,30.66 48.5,29.74 48.5,28.66" fill="#8C8C8C"/>
        <rect  y="28.66" gorn="0.0.53" height="4.34" width="3" x="53.5" id="connector5pin" fill="#8C8C8C"/>
        <rect  y="30" gorn="0.0.54" height="3" width="3" x="53.5" id="connector5terminal" fill="#8C8C8C"/>
        <polygon  points="51.5,28.66 51.5,29.74 53.5,30.66 56.5,30.66 58.5,29.74 58.5,28.66" fill="#8C8C8C"/>
        <rect  y="28.66" gorn="0.0.56" height="4.34" width="3" x="63.5" id="connector6pin" fill="#8C8C8C"/>
        <rect  y="30" gorn="0.0.57" height="3" width="3" x="63.5" id="connector6terminal" fill="#8C8C8C"/>
        <polygon  points="61.5,28.66 61.5,29.74 63.5,30.66 66.5,30.66 68.5,29.74 68.5,28.66" fill="#8C8C8C"/>
    </g>
</svg>
