<?xml version='1.0' encoding='utf-8'?>
<svg xmlns="http://www.w3.org/2000/svg" id="svg2" gorn="0" viewBox="0 0 100 33" width="1in"  version="1.2" height="0.33in" baseProfile="tiny">
    <desc>
        <referenceFile>generic_ic_dip_20_300mil_bread.svg</referenceFile>
    </desc>
    <g id="breadboard" gorn="0.0" >
        <rect id="middle" gorn="0.0.0" fill="#303030" width="100"  x="0" height="27" y="3"/>
        <rect id="top" gorn="0.0.1" fill="#3D3D3D" width="100"  x="0" height="2.46" y="3.0"/>
        <rect id="bottom" gorn="0.0.2" fill="#000000" width="100"  x="0" height="2.46" y="27.54"/>
        <polygon id="right" gorn="0.0.3" fill="#141414"  points="100,3 99.25,5.46 99.25,27.54 100,30"/>
        <polygon id="left" gorn="0.0.4" fill="#1F1F1F"  points="0,3 0.75,5.46 0.75,27.54 0,30"/>
        <polygon id="left-upper-rect" gorn="0.0.5" fill="#1C1C1C"  points="5,11.5 0.75,11.46 0.56,13.58 0.56,16.5 5,16.5"/>
        <polygon id="left-lower-rect" gorn="0.0.6" fill="#383838"  points="0.75,21.55 5,21.55 5,16.5 0.56,16.5 0.56,19.42"/>
        <path id="slot" gorn="0.0.7" fill="#262626"  d="M0.56,13.58v5.83c1.47-0.17,2.62-1.4,2.62-2.92C3.18,14.97,2.04,13.75,0.56,13.58z"/>
        <path id="cover" gorn="0.0.8" fill="#303030"  d="M0.75,5.46V11.45c2.38,0.45,4.19,2.53,4.19,5.04c0,2.51-1.8,4.6-4.19,5.05V21.55h5.0V5.46H0.75z"/>
        <circle cx="6.5" fill="#212121" cy="23.47"  r="2.06"/>
        <text id="label" font-size="8" gorn="0.0.10" fill="#e6e6e6" text-anchor="start" font-family="OCRA"  stroke="none" x="6.5" y="16.5">IC</text>
        <rect id="connector0pin" gorn="0.0.11" fill="#8C8C8C" width="3"  x="3.5" height="4.34" y="28.66"/>
        <rect id="connector0terminal" gorn="0.0.12" fill="#8C8C8C" width="3"  x="3.5" height="3" y="30"/>
        <polygon fill="#8C8C8C"  points="3.5,28.66 3.5,30.66 6.5,30.66 8.5,29.74 8.5,28.66 "/>
        <rect id="connector19pin" gorn="0.0.14" fill="#8C8C8C" width="3"  x="3.5" height="4.34"/>
        <rect id="connector19terminal" gorn="0.0.15" fill="#8C8C8C" width="3"  x="3.5" height="3"/>
        <polygon fill="#8C8C8C"  points="8.5,4.34 8.5,3.26 6.5,2.34 3.5,2.34 3.5,4.34"/>
        <rect id="connector9pin" gorn="0.0.17" fill="#8C8C8C" width="3"  x="93.5" height="4.34" y="28.66"/>
        <rect id="connector9terminal" gorn="0.0.18" fill="#8C8C8C" width="3"  x="93.5" height="3" y="30"/>
        <polygon fill="#8C8C8C"  points="91.5,28.66 91.5,29.74 93.5,30.66 96.5,30.66 96.5,28.66"/>
        <rect id="connector10pin" gorn="0.0.20" fill="#8C8C8C" width="3"  x="93.5" height="4.34" y="0"/>
        <rect id="connector10terminal" gorn="0.0.21" fill="#8C8C8C" width="3"  x="93.5" height="3" y="0"/>
        <polygon fill="#8C8C8C"  points="96.5,4.34 96.5,2.34 93.5,2.34 91.5,3.26 91.5,4.34 "/>
        <rect id="connector18pin" gorn="0.0.23" fill="#8C8C8C" width="3"  x="13.5" height="4.34" y="0"/>
        <rect id="connector18terminal" gorn="0.0.24" fill="#8C8C8C" width="3"  x="13.5" height="3"/>
        <polygon fill="#8C8C8C"  points="18.5,4.34 18.5,3.26 16.5,2.34 13.5,2.34 11.5,3.26 11.5,4.34"/>
        <rect id="connector17pin" gorn="0.0.26" fill="#8C8C8C" width="3"  x="23.5" height="4.34" y="0"/>
        <rect id="connector17terminal" gorn="0.0.27" fill="#8C8C8C" width="3"  x="23.5" height="3"/>
        <polygon fill="#8C8C8C"  points="28.5,4.34 28.5,3.26 26.5,2.34 23.5,2.34 21.5,3.26 21.5,4.34"/>
        <rect id="connector16pin" gorn="0.0.29" fill="#8C8C8C" width="3"  x="33.5" height="4.34" y="0"/>
        <rect id="connector16terminal" gorn="0.0.30" fill="#8C8C8C" width="3"  x="33.5" height="3"/>
        <polygon fill="#8C8C8C"  points="38.5,4.34 38.5,3.26 36.5,2.34 33.5,2.34 31.5,3.26 31.5,4.34"/>
        <rect id="connector15pin" gorn="0.0.32" fill="#8C8C8C" width="3"  x="43.5" height="4.34" y="0"/>
        <rect id="connector15terminal" gorn="0.0.33" fill="#8C8C8C" width="3"  x="43.5" height="3"/>
        <polygon fill="#8C8C8C"  points="48.5,4.34 48.5,3.26 46.5,2.34 43.5,2.34 41.5,3.26 41.5,4.34"/>
        <rect id="connector14pin" gorn="0.0.35" fill="#8C8C8C" width="3"  x="53.5" height="4.34" y="0"/>
        <rect id="connector14terminal" gorn="0.0.36" fill="#8C8C8C" width="3"  x="53.5" height="3"/>
        <polygon fill="#8C8C8C"  points="58.5,4.34 58.5,3.26 56.5,2.34 53.5,2.34 51.5,3.26 51.5,4.34"/>
        <rect id="connector13pin" gorn="0.0.38" fill="#8C8C8C" width="3"  x="63.5" height="4.34" y="0"/>
        <rect id="connector13terminal" gorn="0.0.39" fill="#8C8C8C" width="3"  x="63.5" height="3"/>
        <polygon fill="#8C8C8C"  points="68.5,4.34 68.5,3.26 66.5,2.34 63.5,2.34 61.5,3.26 61.5,4.34"/>
        <rect id="connector12pin" gorn="0.0.41" fill="#8C8C8C" width="3"  x="73.5" height="4.34" y="0"/>
        <rect id="connector12terminal" gorn="0.0.42" fill="#8C8C8C" width="3"  x="73.5" height="3"/>
        <polygon fill="#8C8C8C"  points="78.5,4.34 78.5,3.26 76.5,2.34 73.5,2.34 71.5,3.26 71.5,4.34"/>
        <rect id="connector11pin" gorn="0.0.44" fill="#8C8C8C" width="3"  x="83.5" height="4.34" y="0"/>
        <rect id="connector11terminal" gorn="0.0.45" fill="#8C8C8C" width="3"  x="83.5" height="3"/>
        <polygon fill="#8C8C8C"  points="88.5,4.34 88.5,3.26 86.5,2.34 83.5,2.34 81.5,3.26 81.5,4.34"/>
        <rect id="connector1pin" gorn="0.0.47" fill="#8C8C8C" width="3"  x="13.5" height="4.34" y="28.66"/>
        <rect id="connector1terminal" gorn="0.0.48" fill="#8C8C8C" width="3"  x="13.5" height="3" y="30"/>
        <polygon fill="#8C8C8C"  points="11.5,28.66 11.5,29.74 13.5,30.66 16.5,30.66 18.5,29.74 18.5,28.66"/>
        <rect id="connector2pin" gorn="0.0.50" fill="#8C8C8C" width="3"  x="23.5" height="4.34" y="28.66"/>
        <rect id="connector2terminal" gorn="0.0.51" fill="#8C8C8C" width="3"  x="23.5" height="3" y="30"/>
        <polygon fill="#8C8C8C"  points="21.5,28.66 21.5,29.74 23.5,30.66 26.5,30.66 28.5,29.74 28.5,28.66"/>
        <rect id="connector3pin" gorn="0.0.53" fill="#8C8C8C" width="3"  x="33.5" height="4.34" y="28.66"/>
        <rect id="connector3terminal" gorn="0.0.54" fill="#8C8C8C" width="3"  x="33.5" height="3" y="30"/>
        <polygon fill="#8C8C8C"  points="31.5,28.66 31.5,29.74 33.5,30.66 36.5,30.66 38.5,29.74 38.5,28.66"/>
        <rect id="connector4pin" gorn="0.0.56" fill="#8C8C8C" width="3"  x="43.5" height="4.34" y="28.66"/>
        <rect id="connector4terminal" gorn="0.0.57" fill="#8C8C8C" width="3"  x="43.5" height="3" y="30"/>
        <polygon fill="#8C8C8C"  points="41.5,28.66 41.5,29.74 43.5,30.66 46.5,30.66 48.5,29.74 48.5,28.66"/>
        <rect id="connector5pin" gorn="0.0.59" fill="#8C8C8C" width="3"  x="53.5" height="4.34" y="28.66"/>
        <rect id="connector5terminal" gorn="0.0.60" fill="#8C8C8C" width="3"  x="53.5" height="3" y="30"/>
        <polygon fill="#8C8C8C"  points="51.5,28.66 51.5,29.74 53.5,30.66 56.5,30.66 58.5,29.74 58.5,28.66"/>
        <rect id="connector6pin" gorn="0.0.62" fill="#8C8C8C" width="3"  x="63.5" height="4.34" y="28.66"/>
        <rect id="connector6terminal" gorn="0.0.63" fill="#8C8C8C" width="3"  x="63.5" height="3" y="30"/>
        <polygon fill="#8C8C8C"  points="61.5,28.66 61.5,29.74 63.5,30.66 66.5,30.66 68.5,29.74 68.5,28.66"/>
        <rect id="connector7pin" gorn="0.0.65" fill="#8C8C8C" width="3"  x="73.5" height="4.34" y="28.66"/>
        <rect id="connector7terminal" gorn="0.0.66" fill="#8C8C8C" width="3"  x="73.5" height="3" y="30"/>
        <polygon fill="#8C8C8C"  points="71.5,28.66 71.5,29.74 73.5,30.66 76.5,30.66 78.5,29.74 78.5,28.66"/>
        <rect id="connector8pin" gorn="0.0.68" fill="#8C8C8C" width="3"  x="83.5" height="4.34" y="28.66"/>
        <rect id="connector8terminal" gorn="0.0.69" fill="#8C8C8C" width="3"  x="83.5" height="3" y="30"/>
        <polygon fill="#8C8C8C"  points="81.5,28.66 81.5,29.74 83.5,30.66 86.5,30.66 88.5,29.74 88.5,28.66"/>
    </g>
</svg>
