%TF.GenerationSoftware,KiCad,Pcbnew,7.0.6-0*%
%TF.CreationDate,2023-08-04T10:28:54-07:00*%
%TF.ProjectId,V503,56353033-2e6b-4696-9361-645f70636258,rev?*%
%TF.SameCoordinates,Original*%
%TF.FileFunction,Soldermask,Bot*%
%TF.FilePolarity,Negative*%
%FSLAX46Y46*%
G04 Gerber Fmt 4.6, Leading zero omitted, Abs format (unit mm)*
G04 Created by KiCad (PCBNEW 7.0.6-0) date 2023-08-04 10:28:54*
%MOMM*%
%LPD*%
G01*
G04 APERTURE LIST*
%ADD10R,1.600000X1.600000*%
%ADD11O,1.600000X1.600000*%
%ADD12C,1.600000*%
%ADD13R,1.700000X1.700000*%
%ADD14O,1.700000X1.700000*%
G04 APERTURE END LIST*
D10*
%TO.C,U4*%
X56388000Y-53975000D03*
D11*
X58928000Y-53975000D03*
X61468000Y-53975000D03*
X64008000Y-53975000D03*
X66548000Y-53975000D03*
X69088000Y-53975000D03*
X71628000Y-53975000D03*
X74168000Y-53975000D03*
X74168000Y-46355000D03*
X71628000Y-46355000D03*
X69088000Y-46355000D03*
X66548000Y-46355000D03*
X64008000Y-46355000D03*
X61468000Y-46355000D03*
X58928000Y-46355000D03*
X56388000Y-46355000D03*
%TD*%
D10*
%TO.C,U3*%
X43307000Y-93853000D03*
D11*
X45847000Y-93853000D03*
X48387000Y-93853000D03*
X50927000Y-93853000D03*
X53467000Y-93853000D03*
X56007000Y-93853000D03*
X58547000Y-93853000D03*
X61087000Y-93853000D03*
X63627000Y-93853000D03*
X66167000Y-93853000D03*
X66167000Y-86233000D03*
X63627000Y-86233000D03*
X61087000Y-86233000D03*
X58547000Y-86233000D03*
X56007000Y-86233000D03*
X53467000Y-86233000D03*
X50927000Y-86233000D03*
X48387000Y-86233000D03*
X45847000Y-86233000D03*
X43307000Y-86233000D03*
%TD*%
D12*
%TO.C,C9*%
X78994000Y-71775000D03*
X78994000Y-74275000D03*
%TD*%
%TO.C,C5*%
X57912000Y-121031000D03*
X57912000Y-123531000D03*
%TD*%
D10*
%TO.C,U12*%
X39497000Y-155575000D03*
D11*
X39497000Y-158115000D03*
X39497000Y-160655000D03*
X39497000Y-163195000D03*
X39497000Y-165735000D03*
X39497000Y-168275000D03*
X39497000Y-170815000D03*
X39497000Y-173355000D03*
X39497000Y-175895000D03*
X39497000Y-178435000D03*
X47117000Y-178435000D03*
X47117000Y-175895000D03*
X47117000Y-173355000D03*
X47117000Y-170815000D03*
X47117000Y-168275000D03*
X47117000Y-165735000D03*
X47117000Y-163195000D03*
X47117000Y-160655000D03*
X47117000Y-158115000D03*
X47117000Y-155575000D03*
%TD*%
D12*
%TO.C,C7*%
X66294000Y-59075000D03*
X66294000Y-61575000D03*
%TD*%
D10*
%TO.C,U9*%
X81803000Y-79365000D03*
D11*
X84343000Y-79365000D03*
X86883000Y-79365000D03*
X89423000Y-79365000D03*
X91963000Y-79365000D03*
X94503000Y-79365000D03*
X97043000Y-79365000D03*
X99583000Y-79365000D03*
X99583000Y-71745000D03*
X97043000Y-71745000D03*
X94503000Y-71745000D03*
X91963000Y-71745000D03*
X89423000Y-71745000D03*
X86883000Y-71745000D03*
X84343000Y-71745000D03*
X81803000Y-71745000D03*
%TD*%
D10*
%TO.C,U6*%
X79248000Y-93853000D03*
D11*
X81788000Y-93853000D03*
X84328000Y-93853000D03*
X86868000Y-93853000D03*
X89408000Y-93853000D03*
X91948000Y-93853000D03*
X94488000Y-93853000D03*
X97028000Y-93853000D03*
X99568000Y-93853000D03*
X102108000Y-93853000D03*
X102108000Y-86233000D03*
X99568000Y-86233000D03*
X97028000Y-86233000D03*
X94488000Y-86233000D03*
X91948000Y-86233000D03*
X89408000Y-86233000D03*
X86868000Y-86233000D03*
X84328000Y-86233000D03*
X81788000Y-86233000D03*
X79248000Y-86233000D03*
%TD*%
D10*
%TO.C,U2*%
X48123000Y-121016000D03*
D11*
X48123000Y-118476000D03*
X48123000Y-115936000D03*
X48123000Y-113396000D03*
X48123000Y-110856000D03*
X48123000Y-108316000D03*
X48123000Y-105776000D03*
X48123000Y-103236000D03*
X40503000Y-103236000D03*
X40503000Y-105776000D03*
X40503000Y-108316000D03*
X40503000Y-110856000D03*
X40503000Y-113396000D03*
X40503000Y-115936000D03*
X40503000Y-118476000D03*
X40503000Y-121016000D03*
%TD*%
D10*
%TO.C,U1*%
X43688000Y-41275000D03*
D11*
X46228000Y-41275000D03*
X48768000Y-41275000D03*
X51308000Y-41275000D03*
X53848000Y-41275000D03*
X56388000Y-41275000D03*
X58928000Y-41275000D03*
X61468000Y-41275000D03*
X61468000Y-33655000D03*
X58928000Y-33655000D03*
X56388000Y-33655000D03*
X53848000Y-33655000D03*
X51308000Y-33655000D03*
X48768000Y-33655000D03*
X46228000Y-33655000D03*
X43688000Y-33655000D03*
%TD*%
D12*
%TO.C,C13*%
X95504000Y-152400000D03*
X95504000Y-154900000D03*
%TD*%
D10*
%TO.C,U7*%
X69103000Y-66665000D03*
D11*
X71643000Y-66665000D03*
X74183000Y-66665000D03*
X76723000Y-66665000D03*
X79263000Y-66665000D03*
X81803000Y-66665000D03*
X84343000Y-66665000D03*
X86883000Y-66665000D03*
X86883000Y-59045000D03*
X84343000Y-59045000D03*
X81803000Y-59045000D03*
X79263000Y-59045000D03*
X76723000Y-59045000D03*
X74183000Y-59045000D03*
X71643000Y-59045000D03*
X69103000Y-59045000D03*
%TD*%
D10*
%TO.C,U5*%
X67945000Y-121031000D03*
D11*
X67945000Y-118491000D03*
X67945000Y-115951000D03*
X67945000Y-113411000D03*
X67945000Y-110871000D03*
X67945000Y-108331000D03*
X67945000Y-105791000D03*
X67945000Y-103251000D03*
X60325000Y-103251000D03*
X60325000Y-105791000D03*
X60325000Y-108331000D03*
X60325000Y-110871000D03*
X60325000Y-113411000D03*
X60325000Y-115951000D03*
X60325000Y-118491000D03*
X60325000Y-121031000D03*
%TD*%
D12*
%TO.C,C14*%
X96373000Y-178435000D03*
X93873000Y-178435000D03*
%TD*%
D10*
%TO.C,U10*%
X105918000Y-121031000D03*
D11*
X105918000Y-118491000D03*
X105918000Y-115951000D03*
X105918000Y-113411000D03*
X105918000Y-110871000D03*
X105918000Y-108331000D03*
X105918000Y-105791000D03*
X105918000Y-103251000D03*
X98298000Y-103251000D03*
X98298000Y-105791000D03*
X98298000Y-108331000D03*
X98298000Y-110871000D03*
X98298000Y-113411000D03*
X98298000Y-115951000D03*
X98298000Y-118491000D03*
X98298000Y-121031000D03*
%TD*%
D12*
%TO.C,C3*%
X40259000Y-86126000D03*
X40259000Y-88626000D03*
%TD*%
%TO.C,C11*%
X47097000Y-126619000D03*
X44597000Y-126619000D03*
%TD*%
%TO.C,C8*%
X75819000Y-121051000D03*
X75819000Y-123551000D03*
%TD*%
D13*
%TO.C,J1*%
X36449000Y-31115000D03*
D14*
X36449000Y-33655000D03*
X36449000Y-36195000D03*
X36449000Y-38735000D03*
X36449000Y-41275000D03*
X36449000Y-43815000D03*
X36449000Y-46355000D03*
X36449000Y-48895000D03*
X36449000Y-51435000D03*
X36449000Y-53975000D03*
X36449000Y-56515000D03*
X36449000Y-59055000D03*
X36449000Y-61595000D03*
X36449000Y-64135000D03*
X36449000Y-66675000D03*
X36449000Y-69215000D03*
X36449000Y-71755000D03*
X36449000Y-74295000D03*
X36449000Y-76835000D03*
X36449000Y-79375000D03*
%TD*%
D12*
%TO.C,C6*%
X76073000Y-86233000D03*
X76073000Y-88733000D03*
%TD*%
D13*
%TO.C,J2*%
X109220000Y-31115000D03*
D14*
X109220000Y-33655000D03*
X109220000Y-36195000D03*
X109220000Y-38735000D03*
X109220000Y-41275000D03*
X109220000Y-43815000D03*
X109220000Y-46355000D03*
X109220000Y-48895000D03*
X109220000Y-51435000D03*
X109220000Y-53975000D03*
X109220000Y-56515000D03*
X109220000Y-59055000D03*
X109220000Y-61595000D03*
X109220000Y-64135000D03*
X109220000Y-66675000D03*
X109220000Y-69215000D03*
X109220000Y-71755000D03*
X109220000Y-74295000D03*
X109220000Y-76835000D03*
X109220000Y-79375000D03*
%TD*%
D10*
%TO.C,U11*%
X39497000Y-129540000D03*
D11*
X39497000Y-132080000D03*
X39497000Y-134620000D03*
X39497000Y-137160000D03*
X39497000Y-139700000D03*
X39497000Y-142240000D03*
X39497000Y-144780000D03*
X39497000Y-147320000D03*
X39497000Y-149860000D03*
X39497000Y-152400000D03*
X47117000Y-152400000D03*
X47117000Y-149860000D03*
X47117000Y-147320000D03*
X47117000Y-144780000D03*
X47117000Y-142240000D03*
X47117000Y-139700000D03*
X47117000Y-137160000D03*
X47117000Y-134620000D03*
X47117000Y-132080000D03*
X47117000Y-129540000D03*
%TD*%
D13*
%TO.C,J4*%
X109220000Y-130175000D03*
D14*
X109220000Y-132715000D03*
X109220000Y-135255000D03*
X109220000Y-137795000D03*
X109220000Y-140335000D03*
X109220000Y-142875000D03*
X109220000Y-145415000D03*
X109220000Y-147955000D03*
X109220000Y-150495000D03*
X109220000Y-153035000D03*
X109220000Y-155575000D03*
X109220000Y-158115000D03*
X109220000Y-160655000D03*
X109220000Y-163195000D03*
X109220000Y-165735000D03*
X109220000Y-168275000D03*
X109220000Y-170815000D03*
X109220000Y-173355000D03*
X109220000Y-175895000D03*
X109220000Y-178435000D03*
%TD*%
D12*
%TO.C,C1*%
X40513000Y-33695000D03*
X40513000Y-36195000D03*
%TD*%
%TO.C,C12*%
X49276000Y-155575000D03*
X51776000Y-155575000D03*
%TD*%
D10*
%TO.C,U8*%
X85852000Y-121031000D03*
D11*
X85852000Y-118491000D03*
X85852000Y-115951000D03*
X85852000Y-113411000D03*
X85852000Y-110871000D03*
X85852000Y-108331000D03*
X85852000Y-105791000D03*
X85852000Y-103251000D03*
X78232000Y-103251000D03*
X78232000Y-105791000D03*
X78232000Y-108331000D03*
X78232000Y-110871000D03*
X78232000Y-113411000D03*
X78232000Y-115951000D03*
X78232000Y-118491000D03*
X78232000Y-121031000D03*
%TD*%
D12*
%TO.C,C4*%
X53467000Y-46375000D03*
X53467000Y-48875000D03*
%TD*%
D10*
%TO.C,U13*%
X106172000Y-152400000D03*
D11*
X106172000Y-149860000D03*
X106172000Y-147320000D03*
X106172000Y-144780000D03*
X106172000Y-142240000D03*
X106172000Y-139700000D03*
X106172000Y-137160000D03*
X106172000Y-134620000D03*
X106172000Y-132080000D03*
X106172000Y-129540000D03*
X98552000Y-129540000D03*
X98552000Y-132080000D03*
X98552000Y-134620000D03*
X98552000Y-137160000D03*
X98552000Y-139700000D03*
X98552000Y-142240000D03*
X98552000Y-144780000D03*
X98552000Y-147320000D03*
X98552000Y-149860000D03*
X98552000Y-152400000D03*
%TD*%
D12*
%TO.C,C2*%
X37973000Y-121011000D03*
X37973000Y-118511000D03*
%TD*%
D13*
%TO.C,J3*%
X36449000Y-130175000D03*
D14*
X36449000Y-132715000D03*
X36449000Y-135255000D03*
X36449000Y-137795000D03*
X36449000Y-140335000D03*
X36449000Y-142875000D03*
X36449000Y-145415000D03*
X36449000Y-147955000D03*
X36449000Y-150495000D03*
X36449000Y-153035000D03*
X36449000Y-155575000D03*
X36449000Y-158115000D03*
X36449000Y-160655000D03*
X36449000Y-163195000D03*
X36449000Y-165735000D03*
X36449000Y-168275000D03*
X36449000Y-170815000D03*
X36449000Y-173355000D03*
X36449000Y-175895000D03*
X36449000Y-178435000D03*
%TD*%
D10*
%TO.C,U14*%
X106172000Y-178435000D03*
D11*
X106172000Y-175895000D03*
X106172000Y-173355000D03*
X106172000Y-170815000D03*
X106172000Y-168275000D03*
X106172000Y-165735000D03*
X106172000Y-163195000D03*
X106172000Y-160655000D03*
X106172000Y-158115000D03*
X106172000Y-155575000D03*
X98552000Y-155575000D03*
X98552000Y-158115000D03*
X98552000Y-160655000D03*
X98552000Y-163195000D03*
X98552000Y-165735000D03*
X98552000Y-168275000D03*
X98552000Y-170815000D03*
X98552000Y-173355000D03*
X98552000Y-175895000D03*
X98552000Y-178435000D03*
%TD*%
D12*
%TO.C,C10*%
X98308800Y-123926600D03*
X95808800Y-123926600D03*
%TD*%
M02*
