%TF.GenerationSoftware,KiCad,Pcbnew,7.0.6-0*%
%TF.CreationDate,2023-08-04T10:28:54-07:00*%
%TF.ProjectId,V503,56353033-2e6b-4696-9361-645f70636258,rev?*%
%TF.SameCoordinates,Original*%
%TF.FileFunction,Copper,L4,Bot*%
%TF.FilePolarity,Positive*%
%FSLAX46Y46*%
G04 Gerber Fmt 4.6, Leading zero omitted, Abs format (unit mm)*
G04 Created by KiCad (PCBNEW 7.0.6-0) date 2023-08-04 10:28:54*
%MOMM*%
%LPD*%
G01*
G04 APERTURE LIST*
%TA.AperFunction,ComponentPad*%
%ADD10R,1.600000X1.600000*%
%TD*%
%TA.AperFunction,ComponentPad*%
%ADD11O,1.600000X1.600000*%
%TD*%
%TA.AperFunction,ComponentPad*%
%ADD12C,1.600000*%
%TD*%
%TA.AperFunction,ComponentPad*%
%ADD13R,1.700000X1.700000*%
%TD*%
%TA.AperFunction,ComponentPad*%
%ADD14O,1.700000X1.700000*%
%TD*%
%TA.AperFunction,ViaPad*%
%ADD15C,0.800000*%
%TD*%
%TA.AperFunction,Conductor*%
%ADD16C,0.250000*%
%TD*%
G04 APERTURE END LIST*
D10*
%TO.P,U4,1,D2*%
%TO.N,HLD5*%
X56388000Y-53975000D03*
D11*
%TO.P,U4,2,D3*%
%TO.N,HLD6*%
X58928000Y-53975000D03*
%TO.P,U4,3,D4*%
%TO.N,HLD7*%
X61468000Y-53975000D03*
%TO.P,U4,4,Rb*%
%TO.N,Rb*%
X64008000Y-53975000D03*
%TO.P,U4,5,Ra*%
%TO.N,Ra*%
X66548000Y-53975000D03*
%TO.P,U4,6,Q4*%
%TO.N,SYSADDR7*%
X69088000Y-53975000D03*
%TO.P,U4,7,Q3*%
%TO.N,SYSADDR6*%
X71628000Y-53975000D03*
%TO.P,U4,8,GND*%
%TO.N,GND*%
X74168000Y-53975000D03*
%TO.P,U4,9,Q2*%
%TO.N,SYSADDR5*%
X74168000Y-46355000D03*
%TO.P,U4,10,Q1*%
%TO.N,SYSADDR4*%
X71628000Y-46355000D03*
%TO.P,U4,11,~{Er}*%
%TO.N,~{Er}*%
X69088000Y-46355000D03*
%TO.P,U4,12,~{Ew}*%
%TO.N,~{Ew}*%
X66548000Y-46355000D03*
%TO.P,U4,13,Wb*%
%TO.N,Wb*%
X64008000Y-46355000D03*
%TO.P,U4,14,Wa*%
%TO.N,Wa*%
X61468000Y-46355000D03*
%TO.P,U4,15,D1*%
%TO.N,HLD4*%
X58928000Y-46355000D03*
%TO.P,U4,16,VCC*%
%TO.N,VCC*%
X56388000Y-46355000D03*
%TD*%
D10*
%TO.P,U3,1,OE*%
%TO.N,GND*%
X43307000Y-93853000D03*
D11*
%TO.P,U3,2,D0*%
%TO.N,SUM0*%
X45847000Y-93853000D03*
%TO.P,U3,3,D1*%
%TO.N,SUM1*%
X48387000Y-93853000D03*
%TO.P,U3,4,D2*%
%TO.N,SUM2*%
X50927000Y-93853000D03*
%TO.P,U3,5,D3*%
%TO.N,SUM3*%
X53467000Y-93853000D03*
%TO.P,U3,6,D4*%
%TO.N,SUM4*%
X56007000Y-93853000D03*
%TO.P,U3,7,D5*%
%TO.N,SUM5*%
X58547000Y-93853000D03*
%TO.P,U3,8,D6*%
%TO.N,SUM6*%
X61087000Y-93853000D03*
%TO.P,U3,9,D7*%
%TO.N,SUM7*%
X63627000Y-93853000D03*
%TO.P,U3,10,GND*%
%TO.N,GND*%
X66167000Y-93853000D03*
%TO.P,U3,11,Cp*%
%TO.N,SYSCLK*%
X66167000Y-86233000D03*
%TO.P,U3,12,Q7*%
%TO.N,HLD7*%
X63627000Y-86233000D03*
%TO.P,U3,13,Q6*%
%TO.N,HLD6*%
X61087000Y-86233000D03*
%TO.P,U3,14,Q5*%
%TO.N,HLD5*%
X58547000Y-86233000D03*
%TO.P,U3,15,Q4*%
%TO.N,HLD4*%
X56007000Y-86233000D03*
%TO.P,U3,16,Q3*%
%TO.N,HLD3*%
X53467000Y-86233000D03*
%TO.P,U3,17,Q2*%
%TO.N,HLD2*%
X50927000Y-86233000D03*
%TO.P,U3,18,Q1*%
%TO.N,HLD1*%
X48387000Y-86233000D03*
%TO.P,U3,19,Q0*%
%TO.N,HLD0*%
X45847000Y-86233000D03*
%TO.P,U3,20,VCC*%
%TO.N,VCC*%
X43307000Y-86233000D03*
%TD*%
D12*
%TO.P,C9,1*%
%TO.N,VCC*%
X78994000Y-71775000D03*
%TO.P,C9,2*%
%TO.N,GND*%
X78994000Y-74275000D03*
%TD*%
%TO.P,C5,1*%
%TO.N,VCC*%
X57912000Y-121031000D03*
%TO.P,C5,2*%
%TO.N,GND*%
X57912000Y-123531000D03*
%TD*%
D10*
%TO.P,U12,1,A->B*%
%TO.N,VCC*%
X39497000Y-155575000D03*
D11*
%TO.P,U12,2,A0*%
%TO.N,ALU8*%
X39497000Y-158115000D03*
%TO.P,U12,3,A1*%
%TO.N,ALU9*%
X39497000Y-160655000D03*
%TO.P,U12,4,A2*%
%TO.N,ALU10*%
X39497000Y-163195000D03*
%TO.P,U12,5,A3*%
%TO.N,ALU11*%
X39497000Y-165735000D03*
%TO.P,U12,6,A4*%
%TO.N,ALU12*%
X39497000Y-168275000D03*
%TO.P,U12,7,A5*%
%TO.N,ALU13*%
X39497000Y-170815000D03*
%TO.P,U12,8,A6*%
%TO.N,ALU14*%
X39497000Y-173355000D03*
%TO.P,U12,9,A7*%
%TO.N,ALU15*%
X39497000Y-175895000D03*
%TO.P,U12,10,GND*%
%TO.N,GND*%
X39497000Y-178435000D03*
%TO.P,U12,11,B7*%
%TO.N,SYSADDR15*%
X47117000Y-178435000D03*
%TO.P,U12,12,B6*%
%TO.N,SYSADDR14*%
X47117000Y-175895000D03*
%TO.P,U12,13,B5*%
%TO.N,SYSADDR13*%
X47117000Y-173355000D03*
%TO.P,U12,14,B4*%
%TO.N,SYSADDR12*%
X47117000Y-170815000D03*
%TO.P,U12,15,B3*%
%TO.N,SYSADDR11*%
X47117000Y-168275000D03*
%TO.P,U12,16,B2*%
%TO.N,SYSADDR10*%
X47117000Y-165735000D03*
%TO.P,U12,17,B1*%
%TO.N,SYSADDR9*%
X47117000Y-163195000D03*
%TO.P,U12,18,B0*%
%TO.N,SYSADDR8*%
X47117000Y-160655000D03*
%TO.P,U12,19,CE*%
%TO.N,~{ALUtoA}*%
X47117000Y-158115000D03*
%TO.P,U12,20,VCC*%
%TO.N,VCC*%
X47117000Y-155575000D03*
%TD*%
D12*
%TO.P,C7,1*%
%TO.N,VCC*%
X66294000Y-59075000D03*
%TO.P,C7,2*%
%TO.N,GND*%
X66294000Y-61575000D03*
%TD*%
D10*
%TO.P,U9,1,D2*%
%TO.N,HLD13*%
X81803000Y-79365000D03*
D11*
%TO.P,U9,2,D3*%
%TO.N,HLD14*%
X84343000Y-79365000D03*
%TO.P,U9,3,D4*%
%TO.N,HLD15*%
X86883000Y-79365000D03*
%TO.P,U9,4,Rb*%
%TO.N,Rb*%
X89423000Y-79365000D03*
%TO.P,U9,5,Ra*%
%TO.N,Ra*%
X91963000Y-79365000D03*
%TO.P,U9,6,Q4*%
%TO.N,SYSADDR15*%
X94503000Y-79365000D03*
%TO.P,U9,7,Q3*%
%TO.N,SYSADDR14*%
X97043000Y-79365000D03*
%TO.P,U9,8,GND*%
%TO.N,GND*%
X99583000Y-79365000D03*
%TO.P,U9,9,Q2*%
%TO.N,SYSADDR13*%
X99583000Y-71745000D03*
%TO.P,U9,10,Q1*%
%TO.N,SYSADDR12*%
X97043000Y-71745000D03*
%TO.P,U9,11,~{Er}*%
%TO.N,~{Er}*%
X94503000Y-71745000D03*
%TO.P,U9,12,~{Ew}*%
%TO.N,~{Ew}*%
X91963000Y-71745000D03*
%TO.P,U9,13,Wb*%
%TO.N,Wb*%
X89423000Y-71745000D03*
%TO.P,U9,14,Wa*%
%TO.N,Wa*%
X86883000Y-71745000D03*
%TO.P,U9,15,D1*%
%TO.N,HLD12*%
X84343000Y-71745000D03*
%TO.P,U9,16,VCC*%
%TO.N,VCC*%
X81803000Y-71745000D03*
%TD*%
D10*
%TO.P,U6,1,OE*%
%TO.N,GND*%
X79248000Y-93853000D03*
D11*
%TO.P,U6,2,D0*%
%TO.N,SUM8*%
X81788000Y-93853000D03*
%TO.P,U6,3,D1*%
%TO.N,SUM9*%
X84328000Y-93853000D03*
%TO.P,U6,4,D2*%
%TO.N,SUM10*%
X86868000Y-93853000D03*
%TO.P,U6,5,D3*%
%TO.N,SUM11*%
X89408000Y-93853000D03*
%TO.P,U6,6,D4*%
%TO.N,SUM12*%
X91948000Y-93853000D03*
%TO.P,U6,7,D5*%
%TO.N,SUM13*%
X94488000Y-93853000D03*
%TO.P,U6,8,D6*%
%TO.N,SUM14*%
X97028000Y-93853000D03*
%TO.P,U6,9,D7*%
%TO.N,SUM15*%
X99568000Y-93853000D03*
%TO.P,U6,10,GND*%
%TO.N,GND*%
X102108000Y-93853000D03*
%TO.P,U6,11,Cp*%
%TO.N,SYSCLK*%
X102108000Y-86233000D03*
%TO.P,U6,12,Q7*%
%TO.N,HLD15*%
X99568000Y-86233000D03*
%TO.P,U6,13,Q6*%
%TO.N,HLD14*%
X97028000Y-86233000D03*
%TO.P,U6,14,Q5*%
%TO.N,HLD13*%
X94488000Y-86233000D03*
%TO.P,U6,15,Q4*%
%TO.N,HLD12*%
X91948000Y-86233000D03*
%TO.P,U6,16,Q3*%
%TO.N,HLD11*%
X89408000Y-86233000D03*
%TO.P,U6,17,Q2*%
%TO.N,HLD10*%
X86868000Y-86233000D03*
%TO.P,U6,18,Q1*%
%TO.N,HLD9*%
X84328000Y-86233000D03*
%TO.P,U6,19,Q0*%
%TO.N,HLD8*%
X81788000Y-86233000D03*
%TO.P,U6,20,VCC*%
%TO.N,VCC*%
X79248000Y-86233000D03*
%TD*%
D10*
%TO.P,U2,1,S2*%
%TO.N,SUM1*%
X48123000Y-121016000D03*
D11*
%TO.P,U2,2,B2*%
%TO.N,SRC2:1*%
X48123000Y-118476000D03*
%TO.P,U2,3,A2*%
%TO.N,SYSADDR1*%
X48123000Y-115936000D03*
%TO.P,U2,4,S1*%
%TO.N,SUM0*%
X48123000Y-113396000D03*
%TO.P,U2,5,A1*%
%TO.N,SYSADDR0*%
X48123000Y-110856000D03*
%TO.P,U2,6,B1*%
%TO.N,SRC2:0*%
X48123000Y-108316000D03*
%TO.P,U2,7,C0*%
%TO.N,GND*%
X48123000Y-105776000D03*
%TO.P,U2,8,GND*%
X48123000Y-103236000D03*
%TO.P,U2,9,C4*%
%TO.N,CO4*%
X40503000Y-103236000D03*
%TO.P,U2,10,S4*%
%TO.N,SUM3*%
X40503000Y-105776000D03*
%TO.P,U2,11,B4*%
%TO.N,SRC2:2*%
X40503000Y-108316000D03*
%TO.P,U2,12,A4*%
%TO.N,SYSADDR3*%
X40503000Y-110856000D03*
%TO.P,U2,13,S3*%
%TO.N,SUM2*%
X40503000Y-113396000D03*
%TO.P,U2,14,A3*%
%TO.N,SYSADDR2*%
X40503000Y-115936000D03*
%TO.P,U2,15,B3*%
%TO.N,SRC2:2*%
X40503000Y-118476000D03*
%TO.P,U2,16,VCC*%
%TO.N,VCC*%
X40503000Y-121016000D03*
%TD*%
D10*
%TO.P,U1,1,D2*%
%TO.N,HLD1*%
X43688000Y-41275000D03*
D11*
%TO.P,U1,2,D3*%
%TO.N,HLD2*%
X46228000Y-41275000D03*
%TO.P,U1,3,D4*%
%TO.N,HLD3*%
X48768000Y-41275000D03*
%TO.P,U1,4,Rb*%
%TO.N,Rb*%
X51308000Y-41275000D03*
%TO.P,U1,5,Ra*%
%TO.N,Ra*%
X53848000Y-41275000D03*
%TO.P,U1,6,Q4*%
%TO.N,SYSADDR3*%
X56388000Y-41275000D03*
%TO.P,U1,7,Q3*%
%TO.N,SYSADDR2*%
X58928000Y-41275000D03*
%TO.P,U1,8,GND*%
%TO.N,GND*%
X61468000Y-41275000D03*
%TO.P,U1,9,Q2*%
%TO.N,SYSADDR1*%
X61468000Y-33655000D03*
%TO.P,U1,10,Q1*%
%TO.N,SYSADDR0*%
X58928000Y-33655000D03*
%TO.P,U1,11,~{Er}*%
%TO.N,~{Er}*%
X56388000Y-33655000D03*
%TO.P,U1,12,~{Ew}*%
%TO.N,~{Ew}*%
X53848000Y-33655000D03*
%TO.P,U1,13,Wb*%
%TO.N,Wb*%
X51308000Y-33655000D03*
%TO.P,U1,14,Wa*%
%TO.N,Wa*%
X48768000Y-33655000D03*
%TO.P,U1,15,D1*%
%TO.N,HLD0*%
X46228000Y-33655000D03*
%TO.P,U1,16,VCC*%
%TO.N,VCC*%
X43688000Y-33655000D03*
%TD*%
D12*
%TO.P,C13,1*%
%TO.N,VCC*%
X95504000Y-152400000D03*
%TO.P,C13,2*%
%TO.N,GND*%
X95504000Y-154900000D03*
%TD*%
D10*
%TO.P,U7,1,D2*%
%TO.N,HLD9*%
X69103000Y-66665000D03*
D11*
%TO.P,U7,2,D3*%
%TO.N,HLD10*%
X71643000Y-66665000D03*
%TO.P,U7,3,D4*%
%TO.N,HLD11*%
X74183000Y-66665000D03*
%TO.P,U7,4,Rb*%
%TO.N,Rb*%
X76723000Y-66665000D03*
%TO.P,U7,5,Ra*%
%TO.N,Ra*%
X79263000Y-66665000D03*
%TO.P,U7,6,Q4*%
%TO.N,SYSADDR11*%
X81803000Y-66665000D03*
%TO.P,U7,7,Q3*%
%TO.N,SYSADDR10*%
X84343000Y-66665000D03*
%TO.P,U7,8,GND*%
%TO.N,GND*%
X86883000Y-66665000D03*
%TO.P,U7,9,Q2*%
%TO.N,SYSADDR9*%
X86883000Y-59045000D03*
%TO.P,U7,10,Q1*%
%TO.N,SYSADDR8*%
X84343000Y-59045000D03*
%TO.P,U7,11,~{Er}*%
%TO.N,~{Er}*%
X81803000Y-59045000D03*
%TO.P,U7,12,~{Ew}*%
%TO.N,~{Ew}*%
X79263000Y-59045000D03*
%TO.P,U7,13,Wb*%
%TO.N,Wb*%
X76723000Y-59045000D03*
%TO.P,U7,14,Wa*%
%TO.N,Wa*%
X74183000Y-59045000D03*
%TO.P,U7,15,D1*%
%TO.N,HLD8*%
X71643000Y-59045000D03*
%TO.P,U7,16,VCC*%
%TO.N,VCC*%
X69103000Y-59045000D03*
%TD*%
D10*
%TO.P,U5,1,S2*%
%TO.N,SUM5*%
X67945000Y-121031000D03*
D11*
%TO.P,U5,2,B2*%
%TO.N,SRC2:2*%
X67945000Y-118491000D03*
%TO.P,U5,3,A2*%
%TO.N,SYSADDR5*%
X67945000Y-115951000D03*
%TO.P,U5,4,S1*%
%TO.N,SUM4*%
X67945000Y-113411000D03*
%TO.P,U5,5,A1*%
%TO.N,SYSADDR4*%
X67945000Y-110871000D03*
%TO.P,U5,6,B1*%
%TO.N,SRC2:2*%
X67945000Y-108331000D03*
%TO.P,U5,7,C0*%
%TO.N,CO4*%
X67945000Y-105791000D03*
%TO.P,U5,8,GND*%
%TO.N,GND*%
X67945000Y-103251000D03*
%TO.P,U5,9,C4*%
%TO.N,CO8*%
X60325000Y-103251000D03*
%TO.P,U5,10,S4*%
%TO.N,SUM7*%
X60325000Y-105791000D03*
%TO.P,U5,11,B4*%
%TO.N,SRC2:2*%
X60325000Y-108331000D03*
%TO.P,U5,12,A4*%
%TO.N,SYSADDR7*%
X60325000Y-110871000D03*
%TO.P,U5,13,S3*%
%TO.N,SUM6*%
X60325000Y-113411000D03*
%TO.P,U5,14,A3*%
%TO.N,SYSADDR6*%
X60325000Y-115951000D03*
%TO.P,U5,15,B3*%
%TO.N,SRC2:2*%
X60325000Y-118491000D03*
%TO.P,U5,16,VCC*%
%TO.N,VCC*%
X60325000Y-121031000D03*
%TD*%
D12*
%TO.P,C14,1*%
%TO.N,VCC*%
X96373000Y-178435000D03*
%TO.P,C14,2*%
%TO.N,GND*%
X93873000Y-178435000D03*
%TD*%
D10*
%TO.P,U10,1,S2*%
%TO.N,SUM13*%
X105918000Y-121031000D03*
D11*
%TO.P,U10,2,B2*%
%TO.N,SRC2:2*%
X105918000Y-118491000D03*
%TO.P,U10,3,A2*%
%TO.N,SYSADDR13*%
X105918000Y-115951000D03*
%TO.P,U10,4,S1*%
%TO.N,SUM12*%
X105918000Y-113411000D03*
%TO.P,U10,5,A1*%
%TO.N,SYSADDR12*%
X105918000Y-110871000D03*
%TO.P,U10,6,B1*%
%TO.N,SRC2:2*%
X105918000Y-108331000D03*
%TO.P,U10,7,C0*%
%TO.N,CO12*%
X105918000Y-105791000D03*
%TO.P,U10,8,GND*%
%TO.N,GND*%
X105918000Y-103251000D03*
%TO.P,U10,9,C4*%
%TO.N,unconnected-(U10-C4-Pad9)*%
X98298000Y-103251000D03*
%TO.P,U10,10,S4*%
%TO.N,SUM15*%
X98298000Y-105791000D03*
%TO.P,U10,11,B4*%
%TO.N,SRC2:2*%
X98298000Y-108331000D03*
%TO.P,U10,12,A4*%
%TO.N,SYSADDR15*%
X98298000Y-110871000D03*
%TO.P,U10,13,S3*%
%TO.N,SUM14*%
X98298000Y-113411000D03*
%TO.P,U10,14,A3*%
%TO.N,SYSADDR14*%
X98298000Y-115951000D03*
%TO.P,U10,15,B3*%
%TO.N,SRC2:2*%
X98298000Y-118491000D03*
%TO.P,U10,16,VCC*%
%TO.N,VCC*%
X98298000Y-121031000D03*
%TD*%
D12*
%TO.P,C3,1*%
%TO.N,VCC*%
X40259000Y-86126000D03*
%TO.P,C3,2*%
%TO.N,GND*%
X40259000Y-88626000D03*
%TD*%
%TO.P,C11,1*%
%TO.N,VCC*%
X47097000Y-126619000D03*
%TO.P,C11,2*%
%TO.N,GND*%
X44597000Y-126619000D03*
%TD*%
%TO.P,C8,1*%
%TO.N,VCC*%
X75819000Y-121051000D03*
%TO.P,C8,2*%
%TO.N,GND*%
X75819000Y-123551000D03*
%TD*%
D13*
%TO.P,J1,1,Pin_1*%
%TO.N,VCC*%
X36449000Y-31115000D03*
D14*
%TO.P,J1,2,Pin_2*%
X36449000Y-33655000D03*
%TO.P,J1,3,Pin_3*%
%TO.N,SYSCLK*%
X36449000Y-36195000D03*
%TO.P,J1,4,Pin_4*%
%TO.N,SRC2:0*%
X36449000Y-38735000D03*
%TO.P,J1,5,Pin_5*%
%TO.N,SRC2:1*%
X36449000Y-41275000D03*
%TO.P,J1,6,Pin_6*%
%TO.N,SRC2:2*%
X36449000Y-43815000D03*
%TO.P,J1,7,Pin_7*%
%TO.N,VCC*%
X36449000Y-46355000D03*
%TO.P,J1,8,Pin_8*%
X36449000Y-48895000D03*
%TO.P,J1,9,Pin_9*%
%TO.N,Ra*%
X36449000Y-51435000D03*
%TO.P,J1,10,Pin_10*%
%TO.N,Rb*%
X36449000Y-53975000D03*
%TO.P,J1,11,Pin_11*%
%TO.N,Wa*%
X36449000Y-56515000D03*
%TO.P,J1,12,Pin_12*%
%TO.N,Wb*%
X36449000Y-59055000D03*
%TO.P,J1,13,Pin_13*%
%TO.N,~{Ew}*%
X36449000Y-61595000D03*
%TO.P,J1,14,Pin_14*%
%TO.N,~{Er}*%
X36449000Y-64135000D03*
%TO.P,J1,15,Pin_15*%
%TO.N,VCC*%
X36449000Y-66675000D03*
%TO.P,J1,16,Pin_16*%
X36449000Y-69215000D03*
%TO.P,J1,17,Pin_17*%
%TO.N,~{ALUtoA}*%
X36449000Y-71755000D03*
%TO.P,J1,18,Pin_18*%
%TO.N,~{AtoD}*%
X36449000Y-74295000D03*
%TO.P,J1,19,Pin_19*%
%TO.N,VCC*%
X36449000Y-76835000D03*
%TO.P,J1,20,Pin_20*%
X36449000Y-79375000D03*
%TD*%
D12*
%TO.P,C6,1*%
%TO.N,VCC*%
X76073000Y-86233000D03*
%TO.P,C6,2*%
%TO.N,GND*%
X76073000Y-88733000D03*
%TD*%
D13*
%TO.P,J2,1,Pin_1*%
%TO.N,GND*%
X109220000Y-31115000D03*
D14*
%TO.P,J2,2,Pin_2*%
X109220000Y-33655000D03*
%TO.P,J2,3,Pin_3*%
%TO.N,SYSADDR0*%
X109220000Y-36195000D03*
%TO.P,J2,4,Pin_4*%
%TO.N,SYSADDR1*%
X109220000Y-38735000D03*
%TO.P,J2,5,Pin_5*%
%TO.N,SYSADDR2*%
X109220000Y-41275000D03*
%TO.P,J2,6,Pin_6*%
%TO.N,SYSADDR3*%
X109220000Y-43815000D03*
%TO.P,J2,7,Pin_7*%
%TO.N,SYSADDR4*%
X109220000Y-46355000D03*
%TO.P,J2,8,Pin_8*%
%TO.N,SYSADDR5*%
X109220000Y-48895000D03*
%TO.P,J2,9,Pin_9*%
%TO.N,SYSADDR6*%
X109220000Y-51435000D03*
%TO.P,J2,10,Pin_10*%
%TO.N,SYSADDR7*%
X109220000Y-53975000D03*
%TO.P,J2,11,Pin_11*%
%TO.N,SYSADDR8*%
X109220000Y-56515000D03*
%TO.P,J2,12,Pin_12*%
%TO.N,SYSADDR9*%
X109220000Y-59055000D03*
%TO.P,J2,13,Pin_13*%
%TO.N,SYSADDR10*%
X109220000Y-61595000D03*
%TO.P,J2,14,Pin_14*%
%TO.N,SYSADDR11*%
X109220000Y-64135000D03*
%TO.P,J2,15,Pin_15*%
%TO.N,SYSADDR12*%
X109220000Y-66675000D03*
%TO.P,J2,16,Pin_16*%
%TO.N,SYSADDR13*%
X109220000Y-69215000D03*
%TO.P,J2,17,Pin_17*%
%TO.N,SYSADDR14*%
X109220000Y-71755000D03*
%TO.P,J2,18,Pin_18*%
%TO.N,SYSADDR15*%
X109220000Y-74295000D03*
%TO.P,J2,19,Pin_19*%
%TO.N,GND*%
X109220000Y-76835000D03*
%TO.P,J2,20,Pin_20*%
X109220000Y-79375000D03*
%TD*%
D10*
%TO.P,U11,1,A->B*%
%TO.N,VCC*%
X39497000Y-129540000D03*
D11*
%TO.P,U11,2,A0*%
%TO.N,ALU0*%
X39497000Y-132080000D03*
%TO.P,U11,3,A1*%
%TO.N,ALU1*%
X39497000Y-134620000D03*
%TO.P,U11,4,A2*%
%TO.N,ALU2*%
X39497000Y-137160000D03*
%TO.P,U11,5,A3*%
%TO.N,ALU3*%
X39497000Y-139700000D03*
%TO.P,U11,6,A4*%
%TO.N,ALU4*%
X39497000Y-142240000D03*
%TO.P,U11,7,A5*%
%TO.N,ALU5*%
X39497000Y-144780000D03*
%TO.P,U11,8,A6*%
%TO.N,ALU6*%
X39497000Y-147320000D03*
%TO.P,U11,9,A7*%
%TO.N,ALU7*%
X39497000Y-149860000D03*
%TO.P,U11,10,GND*%
%TO.N,GND*%
X39497000Y-152400000D03*
%TO.P,U11,11,B7*%
%TO.N,SYSADDR7*%
X47117000Y-152400000D03*
%TO.P,U11,12,B6*%
%TO.N,SYSADDR6*%
X47117000Y-149860000D03*
%TO.P,U11,13,B5*%
%TO.N,SYSADDR5*%
X47117000Y-147320000D03*
%TO.P,U11,14,B4*%
%TO.N,SYSADDR4*%
X47117000Y-144780000D03*
%TO.P,U11,15,B3*%
%TO.N,SYSADDR3*%
X47117000Y-142240000D03*
%TO.P,U11,16,B2*%
%TO.N,SYSADDR2*%
X47117000Y-139700000D03*
%TO.P,U11,17,B1*%
%TO.N,SYSADDR1*%
X47117000Y-137160000D03*
%TO.P,U11,18,B0*%
%TO.N,SYSADDR0*%
X47117000Y-134620000D03*
%TO.P,U11,19,CE*%
%TO.N,~{ALUtoA}*%
X47117000Y-132080000D03*
%TO.P,U11,20,VCC*%
%TO.N,VCC*%
X47117000Y-129540000D03*
%TD*%
D13*
%TO.P,J4,1,Pin_1*%
%TO.N,GND*%
X109220000Y-130175000D03*
D14*
%TO.P,J4,2,Pin_2*%
X109220000Y-132715000D03*
%TO.P,J4,3,Pin_3*%
%TO.N,SYSDATA0*%
X109220000Y-135255000D03*
%TO.P,J4,4,Pin_4*%
%TO.N,SYSDATA1*%
X109220000Y-137795000D03*
%TO.P,J4,5,Pin_5*%
%TO.N,SYSDATA2*%
X109220000Y-140335000D03*
%TO.P,J4,6,Pin_6*%
%TO.N,SYSDATA3*%
X109220000Y-142875000D03*
%TO.P,J4,7,Pin_7*%
%TO.N,SYSDATA4*%
X109220000Y-145415000D03*
%TO.P,J4,8,Pin_8*%
%TO.N,SYSDATA5*%
X109220000Y-147955000D03*
%TO.P,J4,9,Pin_9*%
%TO.N,SYSDATA6*%
X109220000Y-150495000D03*
%TO.P,J4,10,Pin_10*%
%TO.N,SYSDATA7*%
X109220000Y-153035000D03*
%TO.P,J4,11,Pin_11*%
%TO.N,SYSDATA8*%
X109220000Y-155575000D03*
%TO.P,J4,12,Pin_12*%
%TO.N,SYSDATA9*%
X109220000Y-158115000D03*
%TO.P,J4,13,Pin_13*%
%TO.N,SYSDATA10*%
X109220000Y-160655000D03*
%TO.P,J4,14,Pin_14*%
%TO.N,SYSDATA11*%
X109220000Y-163195000D03*
%TO.P,J4,15,Pin_15*%
%TO.N,SYSDATA12*%
X109220000Y-165735000D03*
%TO.P,J4,16,Pin_16*%
%TO.N,SYSDATA13*%
X109220000Y-168275000D03*
%TO.P,J4,17,Pin_17*%
%TO.N,SYSDATA14*%
X109220000Y-170815000D03*
%TO.P,J4,18,Pin_18*%
%TO.N,SYSDATA15*%
X109220000Y-173355000D03*
%TO.P,J4,19,Pin_19*%
%TO.N,GND*%
X109220000Y-175895000D03*
%TO.P,J4,20,Pin_20*%
X109220000Y-178435000D03*
%TD*%
D12*
%TO.P,C1,1*%
%TO.N,VCC*%
X40513000Y-33695000D03*
%TO.P,C1,2*%
%TO.N,GND*%
X40513000Y-36195000D03*
%TD*%
%TO.P,C12,1*%
%TO.N,VCC*%
X49276000Y-155575000D03*
%TO.P,C12,2*%
%TO.N,GND*%
X51776000Y-155575000D03*
%TD*%
D10*
%TO.P,U8,1,S2*%
%TO.N,SUM9*%
X85852000Y-121031000D03*
D11*
%TO.P,U8,2,B2*%
%TO.N,SRC2:2*%
X85852000Y-118491000D03*
%TO.P,U8,3,A2*%
%TO.N,SYSADDR9*%
X85852000Y-115951000D03*
%TO.P,U8,4,S1*%
%TO.N,SUM8*%
X85852000Y-113411000D03*
%TO.P,U8,5,A1*%
%TO.N,SYSADDR8*%
X85852000Y-110871000D03*
%TO.P,U8,6,B1*%
%TO.N,SRC2:2*%
X85852000Y-108331000D03*
%TO.P,U8,7,C0*%
%TO.N,CO8*%
X85852000Y-105791000D03*
%TO.P,U8,8,GND*%
%TO.N,GND*%
X85852000Y-103251000D03*
%TO.P,U8,9,C4*%
%TO.N,CO12*%
X78232000Y-103251000D03*
%TO.P,U8,10,S4*%
%TO.N,SUM11*%
X78232000Y-105791000D03*
%TO.P,U8,11,B4*%
%TO.N,SRC2:2*%
X78232000Y-108331000D03*
%TO.P,U8,12,A4*%
%TO.N,SYSADDR11*%
X78232000Y-110871000D03*
%TO.P,U8,13,S3*%
%TO.N,SUM10*%
X78232000Y-113411000D03*
%TO.P,U8,14,A3*%
%TO.N,SYSADDR10*%
X78232000Y-115951000D03*
%TO.P,U8,15,B3*%
%TO.N,SRC2:2*%
X78232000Y-118491000D03*
%TO.P,U8,16,VCC*%
%TO.N,VCC*%
X78232000Y-121031000D03*
%TD*%
D12*
%TO.P,C4,1*%
%TO.N,VCC*%
X53467000Y-46375000D03*
%TO.P,C4,2*%
%TO.N,GND*%
X53467000Y-48875000D03*
%TD*%
D10*
%TO.P,U13,1,A->B*%
%TO.N,GND*%
X106172000Y-152400000D03*
D11*
%TO.P,U13,2,A0*%
%TO.N,SYSDATA7*%
X106172000Y-149860000D03*
%TO.P,U13,3,A1*%
%TO.N,SYSDATA6*%
X106172000Y-147320000D03*
%TO.P,U13,4,A2*%
%TO.N,SYSDATA5*%
X106172000Y-144780000D03*
%TO.P,U13,5,A3*%
%TO.N,SYSDATA4*%
X106172000Y-142240000D03*
%TO.P,U13,6,A4*%
%TO.N,SYSDATA3*%
X106172000Y-139700000D03*
%TO.P,U13,7,A5*%
%TO.N,SYSDATA2*%
X106172000Y-137160000D03*
%TO.P,U13,8,A6*%
%TO.N,SYSDATA1*%
X106172000Y-134620000D03*
%TO.P,U13,9,A7*%
%TO.N,SYSDATA0*%
X106172000Y-132080000D03*
%TO.P,U13,10,GND*%
%TO.N,GND*%
X106172000Y-129540000D03*
%TO.P,U13,11,B7*%
%TO.N,SYSADDR0*%
X98552000Y-129540000D03*
%TO.P,U13,12,B6*%
%TO.N,SYSADDR1*%
X98552000Y-132080000D03*
%TO.P,U13,13,B5*%
%TO.N,SYSADDR2*%
X98552000Y-134620000D03*
%TO.P,U13,14,B4*%
%TO.N,SYSADDR3*%
X98552000Y-137160000D03*
%TO.P,U13,15,B3*%
%TO.N,SYSADDR4*%
X98552000Y-139700000D03*
%TO.P,U13,16,B2*%
%TO.N,SYSADDR5*%
X98552000Y-142240000D03*
%TO.P,U13,17,B1*%
%TO.N,SYSADDR6*%
X98552000Y-144780000D03*
%TO.P,U13,18,B0*%
%TO.N,SYSADDR7*%
X98552000Y-147320000D03*
%TO.P,U13,19,CE*%
%TO.N,~{AtoD}*%
X98552000Y-149860000D03*
%TO.P,U13,20,VCC*%
%TO.N,VCC*%
X98552000Y-152400000D03*
%TD*%
D12*
%TO.P,C2,1*%
%TO.N,VCC*%
X37973000Y-121011000D03*
%TO.P,C2,2*%
%TO.N,GND*%
X37973000Y-118511000D03*
%TD*%
D13*
%TO.P,J3,1,Pin_1*%
%TO.N,VCC*%
X36449000Y-130175000D03*
D14*
%TO.P,J3,2,Pin_2*%
X36449000Y-132715000D03*
%TO.P,J3,3,Pin_3*%
%TO.N,ALU0*%
X36449000Y-135255000D03*
%TO.P,J3,4,Pin_4*%
%TO.N,ALU1*%
X36449000Y-137795000D03*
%TO.P,J3,5,Pin_5*%
%TO.N,ALU2*%
X36449000Y-140335000D03*
%TO.P,J3,6,Pin_6*%
%TO.N,ALU3*%
X36449000Y-142875000D03*
%TO.P,J3,7,Pin_7*%
%TO.N,ALU4*%
X36449000Y-145415000D03*
%TO.P,J3,8,Pin_8*%
%TO.N,ALU5*%
X36449000Y-147955000D03*
%TO.P,J3,9,Pin_9*%
%TO.N,ALU6*%
X36449000Y-150495000D03*
%TO.P,J3,10,Pin_10*%
%TO.N,ALU7*%
X36449000Y-153035000D03*
%TO.P,J3,11,Pin_11*%
%TO.N,ALU8*%
X36449000Y-155575000D03*
%TO.P,J3,12,Pin_12*%
%TO.N,ALU9*%
X36449000Y-158115000D03*
%TO.P,J3,13,Pin_13*%
%TO.N,ALU10*%
X36449000Y-160655000D03*
%TO.P,J3,14,Pin_14*%
%TO.N,ALU11*%
X36449000Y-163195000D03*
%TO.P,J3,15,Pin_15*%
%TO.N,ALU12*%
X36449000Y-165735000D03*
%TO.P,J3,16,Pin_16*%
%TO.N,ALU13*%
X36449000Y-168275000D03*
%TO.P,J3,17,Pin_17*%
%TO.N,ALU14*%
X36449000Y-170815000D03*
%TO.P,J3,18,Pin_18*%
%TO.N,ALU15*%
X36449000Y-173355000D03*
%TO.P,J3,19,Pin_19*%
%TO.N,VCC*%
X36449000Y-175895000D03*
%TO.P,J3,20,Pin_20*%
X36449000Y-178435000D03*
%TD*%
D10*
%TO.P,U14,1,A->B*%
%TO.N,GND*%
X106172000Y-178435000D03*
D11*
%TO.P,U14,2,A0*%
%TO.N,SYSDATA15*%
X106172000Y-175895000D03*
%TO.P,U14,3,A1*%
%TO.N,SYSDATA14*%
X106172000Y-173355000D03*
%TO.P,U14,4,A2*%
%TO.N,SYSDATA13*%
X106172000Y-170815000D03*
%TO.P,U14,5,A3*%
%TO.N,SYSDATA12*%
X106172000Y-168275000D03*
%TO.P,U14,6,A4*%
%TO.N,SYSDATA11*%
X106172000Y-165735000D03*
%TO.P,U14,7,A5*%
%TO.N,SYSDATA10*%
X106172000Y-163195000D03*
%TO.P,U14,8,A6*%
%TO.N,SYSDATA9*%
X106172000Y-160655000D03*
%TO.P,U14,9,A7*%
%TO.N,SYSDATA8*%
X106172000Y-158115000D03*
%TO.P,U14,10,GND*%
%TO.N,GND*%
X106172000Y-155575000D03*
%TO.P,U14,11,B7*%
%TO.N,SYSADDR8*%
X98552000Y-155575000D03*
%TO.P,U14,12,B6*%
%TO.N,SYSADDR9*%
X98552000Y-158115000D03*
%TO.P,U14,13,B5*%
%TO.N,SYSADDR10*%
X98552000Y-160655000D03*
%TO.P,U14,14,B4*%
%TO.N,SYSADDR11*%
X98552000Y-163195000D03*
%TO.P,U14,15,B3*%
%TO.N,SYSADDR12*%
X98552000Y-165735000D03*
%TO.P,U14,16,B2*%
%TO.N,SYSADDR13*%
X98552000Y-168275000D03*
%TO.P,U14,17,B1*%
%TO.N,SYSADDR14*%
X98552000Y-170815000D03*
%TO.P,U14,18,B0*%
%TO.N,SYSADDR15*%
X98552000Y-173355000D03*
%TO.P,U14,19,CE*%
%TO.N,~{AtoD}*%
X98552000Y-175895000D03*
%TO.P,U14,20,VCC*%
%TO.N,VCC*%
X98552000Y-178435000D03*
%TD*%
D12*
%TO.P,C10,1*%
%TO.N,VCC*%
X98308800Y-123926600D03*
%TO.P,C10,2*%
%TO.N,GND*%
X95808800Y-123926600D03*
%TD*%
D15*
%TO.N,SYSADDR12*%
X102489000Y-161848800D03*
%TO.N,SRC2:1*%
X72390000Y-129057400D03*
X40259000Y-78359000D03*
X72390000Y-82219800D03*
%TO.N,~{ALUtoA}*%
X37973000Y-124968000D03*
%TO.N,SRC2:0*%
X52298600Y-108331000D03*
X45034200Y-43205400D03*
%TO.N,SRC2:2*%
X37973000Y-115824000D03*
%TO.N,SYSADDR0*%
X63093600Y-113741200D03*
X49885600Y-114681000D03*
%TO.N,SYSADDR1*%
X45212000Y-98171000D03*
X64211200Y-98171000D03*
%TO.N,SYSADDR2*%
X47117000Y-51181000D03*
X43815000Y-97307400D03*
X58928000Y-44297600D03*
X47117000Y-95372701D03*
%TO.N,SYSADDR3*%
X44831000Y-50165000D03*
X42862500Y-82867500D03*
X44831000Y-80899000D03*
%TO.N,SUM1*%
X51104800Y-121031000D03*
%TO.N,SUM2*%
X52070000Y-100584000D03*
X42799000Y-100584000D03*
%TO.N,SUM3*%
X53467000Y-105791000D03*
%TO.N,Rb*%
X77978000Y-38354000D03*
X51308000Y-45110400D03*
X90678000Y-38354000D03*
X65278000Y-38354000D03*
%TO.N,Ra*%
X80518000Y-39878000D03*
X67818000Y-39878000D03*
X93218000Y-39878000D03*
%TO.N,~{Er}*%
X94503000Y-30988000D03*
X81803000Y-30988000D03*
X69088000Y-30988000D03*
%TO.N,~{Ew}*%
X92011500Y-35242500D03*
X66548000Y-35179000D03*
X79248000Y-35179000D03*
%TO.N,Wb*%
X64008000Y-36830000D03*
X76708000Y-36830000D03*
X88646000Y-36703000D03*
%TO.N,Wa*%
X75565000Y-29819600D03*
X85598000Y-29819600D03*
X62992000Y-29845000D03*
X50038000Y-46304200D03*
%TO.N,SUM5*%
X56388000Y-126238000D03*
%TO.N,SYSADDR7*%
X65151000Y-149860000D03*
%TO.N,SYSADDR6*%
X65151000Y-115951000D03*
X62992000Y-147320000D03*
%TO.N,SYSADDR5*%
X69723000Y-144780000D03*
%TO.N,SYSADDR4*%
X72771000Y-57150000D03*
X71069200Y-142240000D03*
%TO.N,SUM4*%
X54737000Y-112141000D03*
%TO.N,SUM10*%
X88290400Y-111633000D03*
%TO.N,SUM11*%
X89408000Y-107061000D03*
%TO.N,SYSADDR11*%
X84302600Y-68757800D03*
X87274400Y-109601000D03*
X83058000Y-165862000D03*
%TO.N,SYSADDR10*%
X77978000Y-64592200D03*
X81026000Y-163195000D03*
%TO.N,SYSADDR9*%
X83108800Y-63423800D03*
X87630000Y-160655000D03*
X83058000Y-115925600D03*
%TO.N,SYSADDR8*%
X89204800Y-158115000D03*
X80391000Y-110871000D03*
%TO.N,SUM8*%
X81788000Y-113411000D03*
%TO.N,SUM13*%
X94462600Y-119761000D03*
%TO.N,SYSADDR13*%
X102844600Y-163982400D03*
%TO.N,SUM12*%
X91948000Y-114681000D03*
%TO.N,SYSCLK*%
X41656000Y-80899000D03*
%TO.N,~{AtoD}*%
X90627200Y-151079200D03*
X90652600Y-99263200D03*
X37846000Y-99314000D03*
X101447600Y-152755600D03*
%TO.N,HLD4*%
X54610000Y-52578000D03*
%TO.N,HLD8*%
X72898000Y-77343000D03*
%TO.N,HLD12*%
X94488000Y-74625200D03*
%TD*%
D16*
%TO.N,SYSADDR10*%
X77978000Y-71200009D02*
X77869000Y-71309009D01*
X77869000Y-71309009D02*
X77869000Y-89898000D01*
X76835000Y-114554000D02*
X78232000Y-115951000D01*
X77978000Y-64592200D02*
X77978000Y-71200009D01*
X77869000Y-89898000D02*
X76835000Y-90932000D01*
X76835000Y-90932000D02*
X76835000Y-114554000D01*
%TO.N,SYSADDR11*%
X84302600Y-68757800D02*
X84302600Y-69545200D01*
X84302600Y-69545200D02*
X85598000Y-70840600D01*
X85598000Y-70840600D02*
X85598000Y-94488000D01*
X87274400Y-96164400D02*
X87274400Y-109601000D01*
X85598000Y-94488000D02*
X87274400Y-96164400D01*
%TO.N,HLD12*%
X94488000Y-77470000D02*
X93218000Y-78740000D01*
X94488000Y-74625200D02*
X94488000Y-77470000D01*
X93218000Y-83058000D02*
X92202000Y-84074000D01*
X93218000Y-78740000D02*
X93218000Y-83058000D01*
X92202000Y-85979000D02*
X91948000Y-86233000D01*
X92202000Y-84074000D02*
X92202000Y-85979000D01*
%TO.N,SYSADDR4*%
X67945000Y-110871000D02*
X67945000Y-110769400D01*
X71374000Y-80873600D02*
X75308000Y-76939600D01*
X67945000Y-110769400D02*
X71374000Y-107340400D01*
X71374000Y-107340400D02*
X71374000Y-80873600D01*
X72771000Y-61468000D02*
X72771000Y-57150000D01*
X75308000Y-76939600D02*
X75308000Y-64005000D01*
X75308000Y-64005000D02*
X72771000Y-61468000D01*
%TO.N,SUM10*%
X88290400Y-111633000D02*
X88265000Y-111607600D01*
X88265000Y-111607600D02*
X88265000Y-95250000D01*
X88265000Y-95250000D02*
X86868000Y-93853000D01*
%TO.N,~{AtoD}*%
X101447600Y-152755600D02*
X101447600Y-172999400D01*
X101447600Y-172999400D02*
X98552000Y-175895000D01*
%TO.N,SYSADDR13*%
X102844600Y-163982400D02*
X104495600Y-162331400D01*
X104495600Y-162331400D02*
X104495600Y-117373400D01*
X104495600Y-117373400D02*
X105918000Y-115951000D01*
%TO.N,SYSADDR12*%
X102489000Y-161848800D02*
X102489000Y-114300000D01*
X102489000Y-114300000D02*
X105918000Y-110871000D01*
%TO.N,~{ALUtoA}*%
X37973000Y-124968000D02*
X37973000Y-123266200D01*
X38481000Y-73787000D02*
X36449000Y-71755000D01*
X38481000Y-107289600D02*
X38481000Y-100330000D01*
X38989000Y-99822000D02*
X38989000Y-98679000D01*
X38989000Y-98679000D02*
X38481000Y-98171000D01*
X37973000Y-123266200D02*
X36601400Y-121894600D01*
X36601400Y-121894600D02*
X36601400Y-109169200D01*
X36601400Y-109169200D02*
X38481000Y-107289600D01*
X38481000Y-100330000D02*
X38989000Y-99822000D01*
X38481000Y-98171000D02*
X38481000Y-73787000D01*
%TO.N,SUM13*%
X94488000Y-119735600D02*
X94462600Y-119761000D01*
X94488000Y-93853000D02*
X94488000Y-119735600D01*
%TO.N,SYSADDR2*%
X43815000Y-97307400D02*
X43815000Y-112624000D01*
X43815000Y-112624000D02*
X40503000Y-115936000D01*
%TO.N,Wa*%
X86883000Y-70373000D02*
X86883000Y-71745000D01*
X85598000Y-29819600D02*
X85598000Y-69088000D01*
X85598000Y-69088000D02*
X86883000Y-70373000D01*
X75565000Y-57663000D02*
X74183000Y-59045000D01*
X75565000Y-29819600D02*
X75565000Y-57663000D01*
X62992000Y-44831000D02*
X61468000Y-46355000D01*
X62992000Y-29845000D02*
X62992000Y-44831000D01*
%TO.N,SYSADDR2*%
X58928000Y-44297600D02*
X58928000Y-41275000D01*
%TO.N,Wa*%
X50038000Y-46304200D02*
X50038000Y-34925000D01*
X50038000Y-34925000D02*
X48768000Y-33655000D01*
%TO.N,Rb*%
X51308000Y-45110400D02*
X51308000Y-41275000D01*
%TO.N,SRC2:0*%
X45034200Y-45669200D02*
X49657000Y-50292000D01*
X49657000Y-50292000D02*
X49657000Y-100965000D01*
X45034200Y-43205400D02*
X45034200Y-45669200D01*
X49657000Y-100965000D02*
X52298600Y-103606600D01*
X52298600Y-103606600D02*
X52298600Y-108331000D01*
%TO.N,SYSADDR2*%
X47117000Y-51181000D02*
X47117000Y-95372701D01*
%TO.N,SUM1*%
X51104800Y-121031000D02*
X51130200Y-121005600D01*
X51130200Y-121005600D02*
X51130200Y-104089200D01*
X51130200Y-104089200D02*
X48387000Y-101346000D01*
X48387000Y-101346000D02*
X48387000Y-93853000D01*
%TO.N,SYSADDR0*%
X49885600Y-114681000D02*
X49885600Y-112618600D01*
X49885600Y-112618600D02*
X48123000Y-110856000D01*
X49885600Y-114681000D02*
X49860200Y-114706400D01*
X49860200Y-114706400D02*
X49860200Y-132257800D01*
X49860200Y-132257800D02*
X47498000Y-134620000D01*
X47498000Y-134620000D02*
X47117000Y-134620000D01*
%TO.N,SYSADDR6*%
X65151000Y-115951000D02*
X65125600Y-115925600D01*
X67818000Y-70967600D02*
X67818000Y-57785000D01*
X65125600Y-115925600D02*
X65125600Y-101041200D01*
X69418200Y-96748600D02*
X69418200Y-72567800D01*
X65125600Y-101041200D02*
X69418200Y-96748600D01*
X69418200Y-72567800D02*
X67818000Y-70967600D01*
X67818000Y-57785000D02*
X71628000Y-53975000D01*
%TO.N,SYSADDR5*%
X74168000Y-46355000D02*
X74168000Y-50818000D01*
X72898000Y-55626000D02*
X70383400Y-58140600D01*
X74168000Y-50818000D02*
X72898000Y-52088000D01*
X72898000Y-52088000D02*
X72898000Y-55626000D01*
X70383400Y-58140600D02*
X70383400Y-97739200D01*
X70383400Y-97739200D02*
X66471800Y-101650800D01*
X66471800Y-101650800D02*
X66471800Y-114477800D01*
X66471800Y-114477800D02*
X67945000Y-115951000D01*
%TO.N,SYSADDR7*%
X62103000Y-115443000D02*
X62865000Y-115443000D01*
X68427600Y-95758000D02*
X68427600Y-73507600D01*
X62865000Y-115443000D02*
X64185800Y-114122200D01*
X64185800Y-114122200D02*
X64185800Y-99999800D01*
X64897000Y-69977000D02*
X64897000Y-58166000D01*
X64185800Y-99999800D02*
X68427600Y-95758000D01*
X68427600Y-73507600D02*
X64897000Y-69977000D01*
X64897000Y-58166000D02*
X69088000Y-53975000D01*
%TO.N,SYSADDR0*%
X63093600Y-113741200D02*
X63093600Y-96291400D01*
X64897000Y-94488000D02*
X64897000Y-92837000D01*
X57658000Y-81788000D02*
X57658000Y-36830000D01*
X59817000Y-83947000D02*
X57658000Y-81788000D01*
X58928000Y-35560000D02*
X58928000Y-33655000D01*
X63093600Y-96291400D02*
X64897000Y-94488000D01*
X64897000Y-92837000D02*
X59817000Y-87757000D01*
X59817000Y-87757000D02*
X59817000Y-83947000D01*
X57658000Y-36830000D02*
X58928000Y-35560000D01*
%TO.N,SUM7*%
X63627000Y-93853000D02*
X62103000Y-95377000D01*
X62103000Y-95377000D02*
X62103000Y-104013000D01*
X62103000Y-104013000D02*
X60325000Y-105791000D01*
%TO.N,SYSADDR1*%
X62357000Y-87630000D02*
X62357000Y-83693000D01*
X62357000Y-83693000D02*
X60198000Y-81534000D01*
X64211200Y-98171000D02*
X67437000Y-94945200D01*
X60198000Y-36830000D02*
X61468000Y-35560000D01*
X67437000Y-94945200D02*
X67437000Y-92710000D01*
X60198000Y-81534000D02*
X60198000Y-36830000D01*
X67437000Y-92710000D02*
X62357000Y-87630000D01*
X61468000Y-35560000D02*
X61468000Y-33655000D01*
%TO.N,SRC2:2*%
X37973000Y-115824000D02*
X37973000Y-110921800D01*
X37973000Y-110921800D02*
X39243000Y-109651800D01*
X39243000Y-109651800D02*
X39243000Y-108331000D01*
%TO.N,~{AtoD}*%
X90627200Y-151079200D02*
X90627200Y-99288600D01*
X90627200Y-99288600D02*
X90652600Y-99263200D01*
%TO.N,SYSADDR8*%
X89204800Y-114223800D02*
X85852000Y-110871000D01*
X89204800Y-158115000D02*
X89204800Y-114223800D01*
%TO.N,SRC2:1*%
X72390000Y-82219800D02*
X72390000Y-129057400D01*
%TO.N,SYSADDR5*%
X69723000Y-144780000D02*
X69723000Y-117729000D01*
X69723000Y-117729000D02*
X67945000Y-115951000D01*
%TO.N,SYSADDR4*%
X71069200Y-142240000D02*
X71069200Y-113995200D01*
X71069200Y-113995200D02*
X67945000Y-110871000D01*
%TO.N,SRC2:2*%
X39243000Y-108331000D02*
X39243000Y-100457000D01*
X40503000Y-108316000D02*
X39258000Y-108316000D01*
X39258000Y-108316000D02*
X39243000Y-108331000D01*
%TO.N,SYSADDR9*%
X83058000Y-115925600D02*
X83108800Y-115874800D01*
X83108800Y-115874800D02*
X83108800Y-63423800D01*
%TO.N,SYSADDR12*%
X105918000Y-110871000D02*
X104521000Y-109474000D01*
X104521000Y-109474000D02*
X104521000Y-71374000D01*
X104521000Y-71374000D02*
X109220000Y-66675000D01*
%TO.N,SRC2:1*%
X39116000Y-45339000D02*
X39116000Y-43942000D01*
X40259000Y-78359000D02*
X40259000Y-46482000D01*
X39116000Y-43942000D02*
X36449000Y-41275000D01*
X40259000Y-46482000D02*
X39116000Y-45339000D01*
%TO.N,SRC2:2*%
X39243000Y-100457000D02*
X39751000Y-99949000D01*
X39134000Y-46500000D02*
X36449000Y-43815000D01*
X39751000Y-98722498D02*
X39134000Y-98105498D01*
X39134000Y-98105498D02*
X39134000Y-46500000D01*
X39751000Y-99949000D02*
X39751000Y-98722498D01*
%TO.N,SYSADDR1*%
X45212000Y-113030000D02*
X48118000Y-115936000D01*
X48118000Y-115936000D02*
X48123000Y-115936000D01*
X48123000Y-115936000D02*
X43472000Y-120587000D01*
X43472000Y-120587000D02*
X43472000Y-133515000D01*
X45212000Y-98171000D02*
X45212000Y-113030000D01*
X43472000Y-133515000D02*
X47117000Y-137160000D01*
%TO.N,SYSADDR2*%
X40503000Y-115936000D02*
X42037000Y-117470000D01*
X42037000Y-134620000D02*
X47117000Y-139700000D01*
X42037000Y-117470000D02*
X42037000Y-134620000D01*
%TO.N,SYSADDR3*%
X41910000Y-109449000D02*
X40503000Y-110856000D01*
X44577000Y-94869000D02*
X41910000Y-97536000D01*
X40503000Y-110856000D02*
X39243000Y-112116000D01*
X44577000Y-84582000D02*
X44577000Y-94869000D01*
X42862500Y-82867500D02*
X44577000Y-84582000D01*
X39243000Y-126873000D02*
X40894000Y-128524000D01*
X40894000Y-136017000D02*
X47117000Y-142240000D01*
X41910000Y-97536000D02*
X41910000Y-109449000D01*
X44831000Y-50165000D02*
X44831000Y-80899000D01*
X39243000Y-112116000D02*
X39243000Y-126873000D01*
X40894000Y-128524000D02*
X40894000Y-136017000D01*
%TO.N,SUM2*%
X42799000Y-100584000D02*
X42799000Y-111100000D01*
X52070000Y-94996000D02*
X52070000Y-100584000D01*
X50927000Y-93853000D02*
X52070000Y-94996000D01*
X42799000Y-111100000D02*
X40503000Y-113396000D01*
%TO.N,SUM3*%
X53467000Y-93853000D02*
X53467000Y-105791000D01*
%TO.N,Rb*%
X64008000Y-53975000D02*
X65278000Y-52705000D01*
X76708000Y-66650000D02*
X76723000Y-66665000D01*
X76708000Y-64516000D02*
X76708000Y-66650000D01*
X77978000Y-63246000D02*
X76708000Y-64516000D01*
X65278000Y-52705000D02*
X65278000Y-38354000D01*
X89423000Y-77709000D02*
X89423000Y-79365000D01*
X90678000Y-76454000D02*
X89423000Y-77709000D01*
X77978000Y-38354000D02*
X77978000Y-63246000D01*
X90678000Y-38354000D02*
X90678000Y-76454000D01*
%TO.N,Ra*%
X67818000Y-52705000D02*
X67818000Y-39878000D01*
X93218000Y-72263000D02*
X91963000Y-73518000D01*
X93218000Y-39878000D02*
X93218000Y-72263000D01*
X80518000Y-39878000D02*
X80518000Y-63373000D01*
X79263000Y-64628000D02*
X79263000Y-66665000D01*
X66548000Y-53975000D02*
X67818000Y-52705000D01*
X91963000Y-73518000D02*
X91963000Y-79365000D01*
X80518000Y-63373000D02*
X79263000Y-64628000D01*
%TO.N,~{Er}*%
X69088000Y-46355000D02*
X69088000Y-30988000D01*
X81803000Y-30988000D02*
X81803000Y-59045000D01*
X94503000Y-30988000D02*
X94503000Y-71745000D01*
%TO.N,~{Ew}*%
X91963000Y-35291000D02*
X91963000Y-71745000D01*
X92011500Y-35242500D02*
X91963000Y-35291000D01*
X79263000Y-59045000D02*
X79263000Y-35194000D01*
X66548000Y-46355000D02*
X66548000Y-35179000D01*
X79263000Y-35194000D02*
X79248000Y-35179000D01*
%TO.N,Wb*%
X89423000Y-69738000D02*
X89423000Y-71745000D01*
X88646000Y-68961000D02*
X89423000Y-69738000D01*
X76723000Y-36845000D02*
X76708000Y-36830000D01*
X64008000Y-46355000D02*
X64008000Y-36830000D01*
X76723000Y-59045000D02*
X76723000Y-36845000D01*
X88646000Y-36703000D02*
X88646000Y-68961000D01*
%TO.N,SUM0*%
X45847000Y-93853000D02*
X45847000Y-96139000D01*
X46736000Y-112009000D02*
X48123000Y-113396000D01*
X46736000Y-97028000D02*
X46736000Y-112009000D01*
X45847000Y-96139000D02*
X46736000Y-97028000D01*
%TO.N,SUM5*%
X56388000Y-126238000D02*
X56388000Y-96012000D01*
X56388000Y-96012000D02*
X58547000Y-93853000D01*
%TO.N,SUM6*%
X61087000Y-93853000D02*
X58928000Y-96012000D01*
X58928000Y-96012000D02*
X58928000Y-112014000D01*
X58928000Y-112014000D02*
X60325000Y-113411000D01*
%TO.N,SYSADDR7*%
X62103000Y-115443000D02*
X62103000Y-116586000D01*
X60325000Y-110871000D02*
X62103000Y-112649000D01*
X65151000Y-119634000D02*
X65151000Y-149860000D01*
X62103000Y-112649000D02*
X62103000Y-115443000D01*
X62103000Y-116586000D02*
X65151000Y-119634000D01*
%TO.N,SYSADDR6*%
X62992000Y-118618000D02*
X62992000Y-147320000D01*
X60325000Y-115951000D02*
X62992000Y-118618000D01*
%TO.N,SUM4*%
X54737000Y-95123000D02*
X54737000Y-112141000D01*
X56007000Y-93853000D02*
X54737000Y-95123000D01*
%TO.N,SUM9*%
X84328000Y-93853000D02*
X84328000Y-119507000D01*
X84328000Y-119507000D02*
X85852000Y-121031000D01*
%TO.N,SUM11*%
X89408000Y-93853000D02*
X89408000Y-107061000D01*
%TO.N,SYSADDR11*%
X83058000Y-165862000D02*
X83058000Y-119126000D01*
X83058000Y-119126000D02*
X79629000Y-115697000D01*
X79629000Y-112268000D02*
X78232000Y-110871000D01*
X79629000Y-115697000D02*
X79629000Y-112268000D01*
%TO.N,SYSADDR10*%
X81026000Y-163195000D02*
X81026000Y-118745000D01*
X81026000Y-118745000D02*
X78232000Y-115951000D01*
%TO.N,SYSADDR9*%
X87630000Y-117475000D02*
X86106000Y-115951000D01*
X86106000Y-115951000D02*
X85852000Y-115951000D01*
X87630000Y-160655000D02*
X87630000Y-117475000D01*
%TO.N,SYSADDR8*%
X80518000Y-71628000D02*
X80518000Y-64516000D01*
X80391000Y-110871000D02*
X80391000Y-71755000D01*
X80391000Y-71755000D02*
X80518000Y-71628000D01*
X80518000Y-64516000D02*
X84343000Y-60691000D01*
X84343000Y-60691000D02*
X84343000Y-59045000D01*
%TO.N,SUM8*%
X81788000Y-113411000D02*
X81788000Y-93853000D01*
%TO.N,SUM14*%
X97536000Y-109601000D02*
X98806000Y-109601000D01*
X99568000Y-112141000D02*
X98298000Y-113411000D01*
X97028000Y-109093000D02*
X97536000Y-109601000D01*
X98806000Y-109601000D02*
X99568000Y-110363000D01*
X97028000Y-93853000D02*
X97028000Y-109093000D01*
X99568000Y-110363000D02*
X99568000Y-112141000D01*
%TO.N,SUM15*%
X99568000Y-93853000D02*
X99695000Y-93980000D01*
X99695000Y-104394000D02*
X98298000Y-105791000D01*
X99695000Y-93980000D02*
X99695000Y-104394000D01*
%TO.N,SYSADDR15*%
X96774000Y-110871000D02*
X95758000Y-109855000D01*
X97028000Y-171831000D02*
X98552000Y-173355000D01*
X94503000Y-82565000D02*
X94503000Y-79365000D01*
X95758000Y-83820000D02*
X94503000Y-82565000D01*
X98298000Y-110871000D02*
X96774000Y-110871000D01*
X98298000Y-110871000D02*
X97028000Y-112141000D01*
X97028000Y-112141000D02*
X97028000Y-171831000D01*
X95758000Y-109855000D02*
X95758000Y-83820000D01*
%TO.N,SYSADDR14*%
X97043000Y-81168000D02*
X97043000Y-79365000D01*
X98552000Y-170815000D02*
X100457000Y-168910000D01*
X100457000Y-118110000D02*
X98298000Y-115951000D01*
X100838000Y-113411000D02*
X100838000Y-84963000D01*
X98298000Y-115951000D02*
X100838000Y-113411000D01*
X100457000Y-168910000D02*
X100457000Y-118110000D01*
X100838000Y-84963000D02*
X97043000Y-81168000D01*
%TO.N,SYSADDR13*%
X107442000Y-70993000D02*
X109220000Y-69215000D01*
X107442000Y-114427000D02*
X107442000Y-70993000D01*
X105918000Y-115951000D02*
X107442000Y-114427000D01*
%TO.N,SUM12*%
X91948000Y-93853000D02*
X91948000Y-114681000D01*
%TO.N,SYSCLK*%
X41656000Y-46609000D02*
X40455000Y-45408000D01*
X40455000Y-40201000D02*
X36449000Y-36195000D01*
X40455000Y-45408000D02*
X40455000Y-40201000D01*
X41656000Y-80899000D02*
X41656000Y-46609000D01*
%TO.N,~{AtoD}*%
X37846000Y-75692000D02*
X36449000Y-74295000D01*
X37846000Y-99314000D02*
X37846000Y-75692000D01*
%TO.N,HLD1*%
X48387000Y-50419000D02*
X48387000Y-86233000D01*
X43688000Y-41275000D02*
X43688000Y-45720000D01*
X43688000Y-45720000D02*
X48387000Y-50419000D01*
%TO.N,HLD2*%
X46228000Y-45593000D02*
X50927000Y-50292000D01*
X50927000Y-50292000D02*
X50927000Y-86233000D01*
X46228000Y-41275000D02*
X46228000Y-45593000D01*
%TO.N,HLD3*%
X53467000Y-51562000D02*
X53467000Y-86233000D01*
X48768000Y-41275000D02*
X48768000Y-46863000D01*
X48768000Y-46863000D02*
X53467000Y-51562000D01*
%TO.N,HLD0*%
X45847000Y-83820000D02*
X45847000Y-86233000D01*
X46228000Y-33655000D02*
X42037000Y-37846000D01*
X43053000Y-46482000D02*
X43053000Y-81026000D01*
X42037000Y-37846000D02*
X42037000Y-45466000D01*
X43053000Y-81026000D02*
X45847000Y-83820000D01*
X42037000Y-45466000D02*
X43053000Y-46482000D01*
%TO.N,HLD5*%
X56388000Y-81915000D02*
X58547000Y-84074000D01*
X58547000Y-84074000D02*
X58547000Y-86233000D01*
X56388000Y-53975000D02*
X56388000Y-81915000D01*
%TO.N,HLD6*%
X58928000Y-81661000D02*
X58928000Y-53975000D01*
X61087000Y-86233000D02*
X61087000Y-83820000D01*
X61087000Y-83820000D02*
X58928000Y-81661000D01*
%TO.N,HLD7*%
X63627000Y-83693000D02*
X63627000Y-86233000D01*
X61468000Y-53975000D02*
X61468000Y-81534000D01*
X61468000Y-81534000D02*
X63627000Y-83693000D01*
%TO.N,HLD4*%
X56007000Y-83312000D02*
X54610000Y-81915000D01*
X56007000Y-86233000D02*
X56007000Y-83312000D01*
X54610000Y-81915000D02*
X54610000Y-52578000D01*
%TO.N,HLD8*%
X72898000Y-63246000D02*
X71643000Y-61991000D01*
X72898000Y-77343000D02*
X72898000Y-63246000D01*
X71643000Y-61991000D02*
X71643000Y-59045000D01*
%TD*%
M02*
