%TF.GenerationSoftware,KiCad,Pcbnew,7.0.6-0*%
%TF.CreationDate,2023-08-04T10:28:54-07:00*%
%TF.ProjectId,V503,56353033-2e6b-4696-9361-645f70636258,rev?*%
%TF.SameCoordinates,Original*%
%TF.FileFunction,Legend,Top*%
%TF.FilePolarity,Positive*%
%FSLAX46Y46*%
G04 Gerber Fmt 4.6, Leading zero omitted, Abs format (unit mm)*
G04 Created by KiCad (PCBNEW 7.0.6-0) date 2023-08-04 10:28:54*
%MOMM*%
%LPD*%
G01*
G04 APERTURE LIST*
%ADD10C,0.150000*%
%ADD11C,0.120000*%
G04 APERTURE END LIST*
D10*
X55080819Y-56895904D02*
X55890342Y-56895904D01*
X55890342Y-56895904D02*
X55985580Y-56848285D01*
X55985580Y-56848285D02*
X56033200Y-56800666D01*
X56033200Y-56800666D02*
X56080819Y-56705428D01*
X56080819Y-56705428D02*
X56080819Y-56514952D01*
X56080819Y-56514952D02*
X56033200Y-56419714D01*
X56033200Y-56419714D02*
X55985580Y-56372095D01*
X55985580Y-56372095D02*
X55890342Y-56324476D01*
X55890342Y-56324476D02*
X55080819Y-56324476D01*
X55414152Y-55419714D02*
X56080819Y-55419714D01*
X55033200Y-55657809D02*
X55747485Y-55895904D01*
X55747485Y-55895904D02*
X55747485Y-55276857D01*
X40348819Y-94614904D02*
X41158342Y-94614904D01*
X41158342Y-94614904D02*
X41253580Y-94567285D01*
X41253580Y-94567285D02*
X41301200Y-94519666D01*
X41301200Y-94519666D02*
X41348819Y-94424428D01*
X41348819Y-94424428D02*
X41348819Y-94233952D01*
X41348819Y-94233952D02*
X41301200Y-94138714D01*
X41301200Y-94138714D02*
X41253580Y-94091095D01*
X41253580Y-94091095D02*
X41158342Y-94043476D01*
X41158342Y-94043476D02*
X40348819Y-94043476D01*
X40348819Y-93662523D02*
X40348819Y-93043476D01*
X40348819Y-93043476D02*
X40729771Y-93376809D01*
X40729771Y-93376809D02*
X40729771Y-93233952D01*
X40729771Y-93233952D02*
X40777390Y-93138714D01*
X40777390Y-93138714D02*
X40825009Y-93091095D01*
X40825009Y-93091095D02*
X40920247Y-93043476D01*
X40920247Y-93043476D02*
X41158342Y-93043476D01*
X41158342Y-93043476D02*
X41253580Y-93091095D01*
X41253580Y-93091095D02*
X41301200Y-93138714D01*
X41301200Y-93138714D02*
X41348819Y-93233952D01*
X41348819Y-93233952D02*
X41348819Y-93519666D01*
X41348819Y-93519666D02*
X41301200Y-93614904D01*
X41301200Y-93614904D02*
X41253580Y-93662523D01*
X77448580Y-73191666D02*
X77496200Y-73239285D01*
X77496200Y-73239285D02*
X77543819Y-73382142D01*
X77543819Y-73382142D02*
X77543819Y-73477380D01*
X77543819Y-73477380D02*
X77496200Y-73620237D01*
X77496200Y-73620237D02*
X77400961Y-73715475D01*
X77400961Y-73715475D02*
X77305723Y-73763094D01*
X77305723Y-73763094D02*
X77115247Y-73810713D01*
X77115247Y-73810713D02*
X76972390Y-73810713D01*
X76972390Y-73810713D02*
X76781914Y-73763094D01*
X76781914Y-73763094D02*
X76686676Y-73715475D01*
X76686676Y-73715475D02*
X76591438Y-73620237D01*
X76591438Y-73620237D02*
X76543819Y-73477380D01*
X76543819Y-73477380D02*
X76543819Y-73382142D01*
X76543819Y-73382142D02*
X76591438Y-73239285D01*
X76591438Y-73239285D02*
X76639057Y-73191666D01*
X77543819Y-72715475D02*
X77543819Y-72524999D01*
X77543819Y-72524999D02*
X77496200Y-72429761D01*
X77496200Y-72429761D02*
X77448580Y-72382142D01*
X77448580Y-72382142D02*
X77305723Y-72286904D01*
X77305723Y-72286904D02*
X77115247Y-72239285D01*
X77115247Y-72239285D02*
X76734295Y-72239285D01*
X76734295Y-72239285D02*
X76639057Y-72286904D01*
X76639057Y-72286904D02*
X76591438Y-72334523D01*
X76591438Y-72334523D02*
X76543819Y-72429761D01*
X76543819Y-72429761D02*
X76543819Y-72620237D01*
X76543819Y-72620237D02*
X76591438Y-72715475D01*
X76591438Y-72715475D02*
X76639057Y-72763094D01*
X76639057Y-72763094D02*
X76734295Y-72810713D01*
X76734295Y-72810713D02*
X76972390Y-72810713D01*
X76972390Y-72810713D02*
X77067628Y-72763094D01*
X77067628Y-72763094D02*
X77115247Y-72715475D01*
X77115247Y-72715475D02*
X77162866Y-72620237D01*
X77162866Y-72620237D02*
X77162866Y-72429761D01*
X77162866Y-72429761D02*
X77115247Y-72334523D01*
X77115247Y-72334523D02*
X77067628Y-72286904D01*
X77067628Y-72286904D02*
X76972390Y-72239285D01*
X57765333Y-125708580D02*
X57717714Y-125756200D01*
X57717714Y-125756200D02*
X57574857Y-125803819D01*
X57574857Y-125803819D02*
X57479619Y-125803819D01*
X57479619Y-125803819D02*
X57336762Y-125756200D01*
X57336762Y-125756200D02*
X57241524Y-125660961D01*
X57241524Y-125660961D02*
X57193905Y-125565723D01*
X57193905Y-125565723D02*
X57146286Y-125375247D01*
X57146286Y-125375247D02*
X57146286Y-125232390D01*
X57146286Y-125232390D02*
X57193905Y-125041914D01*
X57193905Y-125041914D02*
X57241524Y-124946676D01*
X57241524Y-124946676D02*
X57336762Y-124851438D01*
X57336762Y-124851438D02*
X57479619Y-124803819D01*
X57479619Y-124803819D02*
X57574857Y-124803819D01*
X57574857Y-124803819D02*
X57717714Y-124851438D01*
X57717714Y-124851438D02*
X57765333Y-124899057D01*
X58670095Y-124803819D02*
X58193905Y-124803819D01*
X58193905Y-124803819D02*
X58146286Y-125280009D01*
X58146286Y-125280009D02*
X58193905Y-125232390D01*
X58193905Y-125232390D02*
X58289143Y-125184771D01*
X58289143Y-125184771D02*
X58527238Y-125184771D01*
X58527238Y-125184771D02*
X58622476Y-125232390D01*
X58622476Y-125232390D02*
X58670095Y-125280009D01*
X58670095Y-125280009D02*
X58717714Y-125375247D01*
X58717714Y-125375247D02*
X58717714Y-125613342D01*
X58717714Y-125613342D02*
X58670095Y-125708580D01*
X58670095Y-125708580D02*
X58622476Y-125756200D01*
X58622476Y-125756200D02*
X58527238Y-125803819D01*
X58527238Y-125803819D02*
X58289143Y-125803819D01*
X58289143Y-125803819D02*
X58193905Y-125756200D01*
X58193905Y-125756200D02*
X58146286Y-125708580D01*
X48799905Y-178016819D02*
X48799905Y-178826342D01*
X48799905Y-178826342D02*
X48847524Y-178921580D01*
X48847524Y-178921580D02*
X48895143Y-178969200D01*
X48895143Y-178969200D02*
X48990381Y-179016819D01*
X48990381Y-179016819D02*
X49180857Y-179016819D01*
X49180857Y-179016819D02*
X49276095Y-178969200D01*
X49276095Y-178969200D02*
X49323714Y-178921580D01*
X49323714Y-178921580D02*
X49371333Y-178826342D01*
X49371333Y-178826342D02*
X49371333Y-178016819D01*
X50371333Y-179016819D02*
X49799905Y-179016819D01*
X50085619Y-179016819D02*
X50085619Y-178016819D01*
X50085619Y-178016819D02*
X49990381Y-178159676D01*
X49990381Y-178159676D02*
X49895143Y-178254914D01*
X49895143Y-178254914D02*
X49799905Y-178302533D01*
X50752286Y-178112057D02*
X50799905Y-178064438D01*
X50799905Y-178064438D02*
X50895143Y-178016819D01*
X50895143Y-178016819D02*
X51133238Y-178016819D01*
X51133238Y-178016819D02*
X51228476Y-178064438D01*
X51228476Y-178064438D02*
X51276095Y-178112057D01*
X51276095Y-178112057D02*
X51323714Y-178207295D01*
X51323714Y-178207295D02*
X51323714Y-178302533D01*
X51323714Y-178302533D02*
X51276095Y-178445390D01*
X51276095Y-178445390D02*
X50704667Y-179016819D01*
X50704667Y-179016819D02*
X51323714Y-179016819D01*
X64748580Y-60491666D02*
X64796200Y-60539285D01*
X64796200Y-60539285D02*
X64843819Y-60682142D01*
X64843819Y-60682142D02*
X64843819Y-60777380D01*
X64843819Y-60777380D02*
X64796200Y-60920237D01*
X64796200Y-60920237D02*
X64700961Y-61015475D01*
X64700961Y-61015475D02*
X64605723Y-61063094D01*
X64605723Y-61063094D02*
X64415247Y-61110713D01*
X64415247Y-61110713D02*
X64272390Y-61110713D01*
X64272390Y-61110713D02*
X64081914Y-61063094D01*
X64081914Y-61063094D02*
X63986676Y-61015475D01*
X63986676Y-61015475D02*
X63891438Y-60920237D01*
X63891438Y-60920237D02*
X63843819Y-60777380D01*
X63843819Y-60777380D02*
X63843819Y-60682142D01*
X63843819Y-60682142D02*
X63891438Y-60539285D01*
X63891438Y-60539285D02*
X63939057Y-60491666D01*
X63843819Y-60158332D02*
X63843819Y-59491666D01*
X63843819Y-59491666D02*
X64843819Y-59920237D01*
X78575819Y-77469904D02*
X79385342Y-77469904D01*
X79385342Y-77469904D02*
X79480580Y-77422285D01*
X79480580Y-77422285D02*
X79528200Y-77374666D01*
X79528200Y-77374666D02*
X79575819Y-77279428D01*
X79575819Y-77279428D02*
X79575819Y-77088952D01*
X79575819Y-77088952D02*
X79528200Y-76993714D01*
X79528200Y-76993714D02*
X79480580Y-76946095D01*
X79480580Y-76946095D02*
X79385342Y-76898476D01*
X79385342Y-76898476D02*
X78575819Y-76898476D01*
X79575819Y-76374666D02*
X79575819Y-76184190D01*
X79575819Y-76184190D02*
X79528200Y-76088952D01*
X79528200Y-76088952D02*
X79480580Y-76041333D01*
X79480580Y-76041333D02*
X79337723Y-75946095D01*
X79337723Y-75946095D02*
X79147247Y-75898476D01*
X79147247Y-75898476D02*
X78766295Y-75898476D01*
X78766295Y-75898476D02*
X78671057Y-75946095D01*
X78671057Y-75946095D02*
X78623438Y-75993714D01*
X78623438Y-75993714D02*
X78575819Y-76088952D01*
X78575819Y-76088952D02*
X78575819Y-76279428D01*
X78575819Y-76279428D02*
X78623438Y-76374666D01*
X78623438Y-76374666D02*
X78671057Y-76422285D01*
X78671057Y-76422285D02*
X78766295Y-76469904D01*
X78766295Y-76469904D02*
X79004390Y-76469904D01*
X79004390Y-76469904D02*
X79099628Y-76422285D01*
X79099628Y-76422285D02*
X79147247Y-76374666D01*
X79147247Y-76374666D02*
X79194866Y-76279428D01*
X79194866Y-76279428D02*
X79194866Y-76088952D01*
X79194866Y-76088952D02*
X79147247Y-75993714D01*
X79147247Y-75993714D02*
X79099628Y-75946095D01*
X79099628Y-75946095D02*
X79004390Y-75898476D01*
X78702819Y-96900904D02*
X79512342Y-96900904D01*
X79512342Y-96900904D02*
X79607580Y-96853285D01*
X79607580Y-96853285D02*
X79655200Y-96805666D01*
X79655200Y-96805666D02*
X79702819Y-96710428D01*
X79702819Y-96710428D02*
X79702819Y-96519952D01*
X79702819Y-96519952D02*
X79655200Y-96424714D01*
X79655200Y-96424714D02*
X79607580Y-96377095D01*
X79607580Y-96377095D02*
X79512342Y-96329476D01*
X79512342Y-96329476D02*
X78702819Y-96329476D01*
X78702819Y-95424714D02*
X78702819Y-95615190D01*
X78702819Y-95615190D02*
X78750438Y-95710428D01*
X78750438Y-95710428D02*
X78798057Y-95758047D01*
X78798057Y-95758047D02*
X78940914Y-95853285D01*
X78940914Y-95853285D02*
X79131390Y-95900904D01*
X79131390Y-95900904D02*
X79512342Y-95900904D01*
X79512342Y-95900904D02*
X79607580Y-95853285D01*
X79607580Y-95853285D02*
X79655200Y-95805666D01*
X79655200Y-95805666D02*
X79702819Y-95710428D01*
X79702819Y-95710428D02*
X79702819Y-95519952D01*
X79702819Y-95519952D02*
X79655200Y-95424714D01*
X79655200Y-95424714D02*
X79607580Y-95377095D01*
X79607580Y-95377095D02*
X79512342Y-95329476D01*
X79512342Y-95329476D02*
X79274247Y-95329476D01*
X79274247Y-95329476D02*
X79179009Y-95377095D01*
X79179009Y-95377095D02*
X79131390Y-95424714D01*
X79131390Y-95424714D02*
X79083771Y-95519952D01*
X79083771Y-95519952D02*
X79083771Y-95710428D01*
X79083771Y-95710428D02*
X79131390Y-95805666D01*
X79131390Y-95805666D02*
X79179009Y-95853285D01*
X79179009Y-95853285D02*
X79274247Y-95900904D01*
X41783095Y-122771819D02*
X41783095Y-123581342D01*
X41783095Y-123581342D02*
X41830714Y-123676580D01*
X41830714Y-123676580D02*
X41878333Y-123724200D01*
X41878333Y-123724200D02*
X41973571Y-123771819D01*
X41973571Y-123771819D02*
X42164047Y-123771819D01*
X42164047Y-123771819D02*
X42259285Y-123724200D01*
X42259285Y-123724200D02*
X42306904Y-123676580D01*
X42306904Y-123676580D02*
X42354523Y-123581342D01*
X42354523Y-123581342D02*
X42354523Y-122771819D01*
X42783095Y-122867057D02*
X42830714Y-122819438D01*
X42830714Y-122819438D02*
X42925952Y-122771819D01*
X42925952Y-122771819D02*
X43164047Y-122771819D01*
X43164047Y-122771819D02*
X43259285Y-122819438D01*
X43259285Y-122819438D02*
X43306904Y-122867057D01*
X43306904Y-122867057D02*
X43354523Y-122962295D01*
X43354523Y-122962295D02*
X43354523Y-123057533D01*
X43354523Y-123057533D02*
X43306904Y-123200390D01*
X43306904Y-123200390D02*
X42735476Y-123771819D01*
X42735476Y-123771819D02*
X43354523Y-123771819D01*
X43142819Y-31876904D02*
X43952342Y-31876904D01*
X43952342Y-31876904D02*
X44047580Y-31829285D01*
X44047580Y-31829285D02*
X44095200Y-31781666D01*
X44095200Y-31781666D02*
X44142819Y-31686428D01*
X44142819Y-31686428D02*
X44142819Y-31495952D01*
X44142819Y-31495952D02*
X44095200Y-31400714D01*
X44095200Y-31400714D02*
X44047580Y-31353095D01*
X44047580Y-31353095D02*
X43952342Y-31305476D01*
X43952342Y-31305476D02*
X43142819Y-31305476D01*
X44142819Y-30305476D02*
X44142819Y-30876904D01*
X44142819Y-30591190D02*
X43142819Y-30591190D01*
X43142819Y-30591190D02*
X43285676Y-30686428D01*
X43285676Y-30686428D02*
X43380914Y-30781666D01*
X43380914Y-30781666D02*
X43428533Y-30876904D01*
X93958580Y-154185857D02*
X94006200Y-154233476D01*
X94006200Y-154233476D02*
X94053819Y-154376333D01*
X94053819Y-154376333D02*
X94053819Y-154471571D01*
X94053819Y-154471571D02*
X94006200Y-154614428D01*
X94006200Y-154614428D02*
X93910961Y-154709666D01*
X93910961Y-154709666D02*
X93815723Y-154757285D01*
X93815723Y-154757285D02*
X93625247Y-154804904D01*
X93625247Y-154804904D02*
X93482390Y-154804904D01*
X93482390Y-154804904D02*
X93291914Y-154757285D01*
X93291914Y-154757285D02*
X93196676Y-154709666D01*
X93196676Y-154709666D02*
X93101438Y-154614428D01*
X93101438Y-154614428D02*
X93053819Y-154471571D01*
X93053819Y-154471571D02*
X93053819Y-154376333D01*
X93053819Y-154376333D02*
X93101438Y-154233476D01*
X93101438Y-154233476D02*
X93149057Y-154185857D01*
X94053819Y-153233476D02*
X94053819Y-153804904D01*
X94053819Y-153519190D02*
X93053819Y-153519190D01*
X93053819Y-153519190D02*
X93196676Y-153614428D01*
X93196676Y-153614428D02*
X93291914Y-153709666D01*
X93291914Y-153709666D02*
X93339533Y-153804904D01*
X93053819Y-152900142D02*
X93053819Y-152281095D01*
X93053819Y-152281095D02*
X93434771Y-152614428D01*
X93434771Y-152614428D02*
X93434771Y-152471571D01*
X93434771Y-152471571D02*
X93482390Y-152376333D01*
X93482390Y-152376333D02*
X93530009Y-152328714D01*
X93530009Y-152328714D02*
X93625247Y-152281095D01*
X93625247Y-152281095D02*
X93863342Y-152281095D01*
X93863342Y-152281095D02*
X93958580Y-152328714D01*
X93958580Y-152328714D02*
X94006200Y-152376333D01*
X94006200Y-152376333D02*
X94053819Y-152471571D01*
X94053819Y-152471571D02*
X94053819Y-152757285D01*
X94053819Y-152757285D02*
X94006200Y-152852523D01*
X94006200Y-152852523D02*
X93958580Y-152900142D01*
X66383819Y-67055904D02*
X67193342Y-67055904D01*
X67193342Y-67055904D02*
X67288580Y-67008285D01*
X67288580Y-67008285D02*
X67336200Y-66960666D01*
X67336200Y-66960666D02*
X67383819Y-66865428D01*
X67383819Y-66865428D02*
X67383819Y-66674952D01*
X67383819Y-66674952D02*
X67336200Y-66579714D01*
X67336200Y-66579714D02*
X67288580Y-66532095D01*
X67288580Y-66532095D02*
X67193342Y-66484476D01*
X67193342Y-66484476D02*
X66383819Y-66484476D01*
X66383819Y-66103523D02*
X66383819Y-65436857D01*
X66383819Y-65436857D02*
X67383819Y-65865428D01*
X67183095Y-122771819D02*
X67183095Y-123581342D01*
X67183095Y-123581342D02*
X67230714Y-123676580D01*
X67230714Y-123676580D02*
X67278333Y-123724200D01*
X67278333Y-123724200D02*
X67373571Y-123771819D01*
X67373571Y-123771819D02*
X67564047Y-123771819D01*
X67564047Y-123771819D02*
X67659285Y-123724200D01*
X67659285Y-123724200D02*
X67706904Y-123676580D01*
X67706904Y-123676580D02*
X67754523Y-123581342D01*
X67754523Y-123581342D02*
X67754523Y-122771819D01*
X68706904Y-122771819D02*
X68230714Y-122771819D01*
X68230714Y-122771819D02*
X68183095Y-123248009D01*
X68183095Y-123248009D02*
X68230714Y-123200390D01*
X68230714Y-123200390D02*
X68325952Y-123152771D01*
X68325952Y-123152771D02*
X68564047Y-123152771D01*
X68564047Y-123152771D02*
X68659285Y-123200390D01*
X68659285Y-123200390D02*
X68706904Y-123248009D01*
X68706904Y-123248009D02*
X68754523Y-123343247D01*
X68754523Y-123343247D02*
X68754523Y-123581342D01*
X68754523Y-123581342D02*
X68706904Y-123676580D01*
X68706904Y-123676580D02*
X68659285Y-123724200D01*
X68659285Y-123724200D02*
X68564047Y-123771819D01*
X68564047Y-123771819D02*
X68325952Y-123771819D01*
X68325952Y-123771819D02*
X68230714Y-123724200D01*
X68230714Y-123724200D02*
X68183095Y-123676580D01*
X90543142Y-178794580D02*
X90495523Y-178842200D01*
X90495523Y-178842200D02*
X90352666Y-178889819D01*
X90352666Y-178889819D02*
X90257428Y-178889819D01*
X90257428Y-178889819D02*
X90114571Y-178842200D01*
X90114571Y-178842200D02*
X90019333Y-178746961D01*
X90019333Y-178746961D02*
X89971714Y-178651723D01*
X89971714Y-178651723D02*
X89924095Y-178461247D01*
X89924095Y-178461247D02*
X89924095Y-178318390D01*
X89924095Y-178318390D02*
X89971714Y-178127914D01*
X89971714Y-178127914D02*
X90019333Y-178032676D01*
X90019333Y-178032676D02*
X90114571Y-177937438D01*
X90114571Y-177937438D02*
X90257428Y-177889819D01*
X90257428Y-177889819D02*
X90352666Y-177889819D01*
X90352666Y-177889819D02*
X90495523Y-177937438D01*
X90495523Y-177937438D02*
X90543142Y-177985057D01*
X91495523Y-178889819D02*
X90924095Y-178889819D01*
X91209809Y-178889819D02*
X91209809Y-177889819D01*
X91209809Y-177889819D02*
X91114571Y-178032676D01*
X91114571Y-178032676D02*
X91019333Y-178127914D01*
X91019333Y-178127914D02*
X90924095Y-178175533D01*
X92352666Y-178223152D02*
X92352666Y-178889819D01*
X92114571Y-177842200D02*
X91876476Y-178556485D01*
X91876476Y-178556485D02*
X92495523Y-178556485D01*
X100869905Y-122815819D02*
X100869905Y-123625342D01*
X100869905Y-123625342D02*
X100917524Y-123720580D01*
X100917524Y-123720580D02*
X100965143Y-123768200D01*
X100965143Y-123768200D02*
X101060381Y-123815819D01*
X101060381Y-123815819D02*
X101250857Y-123815819D01*
X101250857Y-123815819D02*
X101346095Y-123768200D01*
X101346095Y-123768200D02*
X101393714Y-123720580D01*
X101393714Y-123720580D02*
X101441333Y-123625342D01*
X101441333Y-123625342D02*
X101441333Y-122815819D01*
X102441333Y-123815819D02*
X101869905Y-123815819D01*
X102155619Y-123815819D02*
X102155619Y-122815819D01*
X102155619Y-122815819D02*
X102060381Y-122958676D01*
X102060381Y-122958676D02*
X101965143Y-123053914D01*
X101965143Y-123053914D02*
X101869905Y-123101533D01*
X103060381Y-122815819D02*
X103155619Y-122815819D01*
X103155619Y-122815819D02*
X103250857Y-122863438D01*
X103250857Y-122863438D02*
X103298476Y-122911057D01*
X103298476Y-122911057D02*
X103346095Y-123006295D01*
X103346095Y-123006295D02*
X103393714Y-123196771D01*
X103393714Y-123196771D02*
X103393714Y-123434866D01*
X103393714Y-123434866D02*
X103346095Y-123625342D01*
X103346095Y-123625342D02*
X103298476Y-123720580D01*
X103298476Y-123720580D02*
X103250857Y-123768200D01*
X103250857Y-123768200D02*
X103155619Y-123815819D01*
X103155619Y-123815819D02*
X103060381Y-123815819D01*
X103060381Y-123815819D02*
X102965143Y-123768200D01*
X102965143Y-123768200D02*
X102917524Y-123720580D01*
X102917524Y-123720580D02*
X102869905Y-123625342D01*
X102869905Y-123625342D02*
X102822286Y-123434866D01*
X102822286Y-123434866D02*
X102822286Y-123196771D01*
X102822286Y-123196771D02*
X102869905Y-123006295D01*
X102869905Y-123006295D02*
X102917524Y-122911057D01*
X102917524Y-122911057D02*
X102965143Y-122863438D01*
X102965143Y-122863438D02*
X103060381Y-122815819D01*
X40618580Y-90844666D02*
X40666200Y-90892285D01*
X40666200Y-90892285D02*
X40713819Y-91035142D01*
X40713819Y-91035142D02*
X40713819Y-91130380D01*
X40713819Y-91130380D02*
X40666200Y-91273237D01*
X40666200Y-91273237D02*
X40570961Y-91368475D01*
X40570961Y-91368475D02*
X40475723Y-91416094D01*
X40475723Y-91416094D02*
X40285247Y-91463713D01*
X40285247Y-91463713D02*
X40142390Y-91463713D01*
X40142390Y-91463713D02*
X39951914Y-91416094D01*
X39951914Y-91416094D02*
X39856676Y-91368475D01*
X39856676Y-91368475D02*
X39761438Y-91273237D01*
X39761438Y-91273237D02*
X39713819Y-91130380D01*
X39713819Y-91130380D02*
X39713819Y-91035142D01*
X39713819Y-91035142D02*
X39761438Y-90892285D01*
X39761438Y-90892285D02*
X39809057Y-90844666D01*
X39713819Y-90511332D02*
X39713819Y-89892285D01*
X39713819Y-89892285D02*
X40094771Y-90225618D01*
X40094771Y-90225618D02*
X40094771Y-90082761D01*
X40094771Y-90082761D02*
X40142390Y-89987523D01*
X40142390Y-89987523D02*
X40190009Y-89939904D01*
X40190009Y-89939904D02*
X40285247Y-89892285D01*
X40285247Y-89892285D02*
X40523342Y-89892285D01*
X40523342Y-89892285D02*
X40618580Y-89939904D01*
X40618580Y-89939904D02*
X40666200Y-89987523D01*
X40666200Y-89987523D02*
X40713819Y-90082761D01*
X40713819Y-90082761D02*
X40713819Y-90368475D01*
X40713819Y-90368475D02*
X40666200Y-90463713D01*
X40666200Y-90463713D02*
X40618580Y-90511332D01*
X45204142Y-124946580D02*
X45156523Y-124994200D01*
X45156523Y-124994200D02*
X45013666Y-125041819D01*
X45013666Y-125041819D02*
X44918428Y-125041819D01*
X44918428Y-125041819D02*
X44775571Y-124994200D01*
X44775571Y-124994200D02*
X44680333Y-124898961D01*
X44680333Y-124898961D02*
X44632714Y-124803723D01*
X44632714Y-124803723D02*
X44585095Y-124613247D01*
X44585095Y-124613247D02*
X44585095Y-124470390D01*
X44585095Y-124470390D02*
X44632714Y-124279914D01*
X44632714Y-124279914D02*
X44680333Y-124184676D01*
X44680333Y-124184676D02*
X44775571Y-124089438D01*
X44775571Y-124089438D02*
X44918428Y-124041819D01*
X44918428Y-124041819D02*
X45013666Y-124041819D01*
X45013666Y-124041819D02*
X45156523Y-124089438D01*
X45156523Y-124089438D02*
X45204142Y-124137057D01*
X46156523Y-125041819D02*
X45585095Y-125041819D01*
X45870809Y-125041819D02*
X45870809Y-124041819D01*
X45870809Y-124041819D02*
X45775571Y-124184676D01*
X45775571Y-124184676D02*
X45680333Y-124279914D01*
X45680333Y-124279914D02*
X45585095Y-124327533D01*
X47108904Y-125041819D02*
X46537476Y-125041819D01*
X46823190Y-125041819D02*
X46823190Y-124041819D01*
X46823190Y-124041819D02*
X46727952Y-124184676D01*
X46727952Y-124184676D02*
X46632714Y-124279914D01*
X46632714Y-124279914D02*
X46537476Y-124327533D01*
X75652333Y-125708580D02*
X75604714Y-125756200D01*
X75604714Y-125756200D02*
X75461857Y-125803819D01*
X75461857Y-125803819D02*
X75366619Y-125803819D01*
X75366619Y-125803819D02*
X75223762Y-125756200D01*
X75223762Y-125756200D02*
X75128524Y-125660961D01*
X75128524Y-125660961D02*
X75080905Y-125565723D01*
X75080905Y-125565723D02*
X75033286Y-125375247D01*
X75033286Y-125375247D02*
X75033286Y-125232390D01*
X75033286Y-125232390D02*
X75080905Y-125041914D01*
X75080905Y-125041914D02*
X75128524Y-124946676D01*
X75128524Y-124946676D02*
X75223762Y-124851438D01*
X75223762Y-124851438D02*
X75366619Y-124803819D01*
X75366619Y-124803819D02*
X75461857Y-124803819D01*
X75461857Y-124803819D02*
X75604714Y-124851438D01*
X75604714Y-124851438D02*
X75652333Y-124899057D01*
X76223762Y-125232390D02*
X76128524Y-125184771D01*
X76128524Y-125184771D02*
X76080905Y-125137152D01*
X76080905Y-125137152D02*
X76033286Y-125041914D01*
X76033286Y-125041914D02*
X76033286Y-124994295D01*
X76033286Y-124994295D02*
X76080905Y-124899057D01*
X76080905Y-124899057D02*
X76128524Y-124851438D01*
X76128524Y-124851438D02*
X76223762Y-124803819D01*
X76223762Y-124803819D02*
X76414238Y-124803819D01*
X76414238Y-124803819D02*
X76509476Y-124851438D01*
X76509476Y-124851438D02*
X76557095Y-124899057D01*
X76557095Y-124899057D02*
X76604714Y-124994295D01*
X76604714Y-124994295D02*
X76604714Y-125041914D01*
X76604714Y-125041914D02*
X76557095Y-125137152D01*
X76557095Y-125137152D02*
X76509476Y-125184771D01*
X76509476Y-125184771D02*
X76414238Y-125232390D01*
X76414238Y-125232390D02*
X76223762Y-125232390D01*
X76223762Y-125232390D02*
X76128524Y-125280009D01*
X76128524Y-125280009D02*
X76080905Y-125327628D01*
X76080905Y-125327628D02*
X76033286Y-125422866D01*
X76033286Y-125422866D02*
X76033286Y-125613342D01*
X76033286Y-125613342D02*
X76080905Y-125708580D01*
X76080905Y-125708580D02*
X76128524Y-125756200D01*
X76128524Y-125756200D02*
X76223762Y-125803819D01*
X76223762Y-125803819D02*
X76414238Y-125803819D01*
X76414238Y-125803819D02*
X76509476Y-125756200D01*
X76509476Y-125756200D02*
X76557095Y-125708580D01*
X76557095Y-125708580D02*
X76604714Y-125613342D01*
X76604714Y-125613342D02*
X76604714Y-125422866D01*
X76604714Y-125422866D02*
X76557095Y-125327628D01*
X76557095Y-125327628D02*
X76509476Y-125280009D01*
X76509476Y-125280009D02*
X76414238Y-125232390D01*
X38909666Y-30569819D02*
X38909666Y-31284104D01*
X38909666Y-31284104D02*
X38862047Y-31426961D01*
X38862047Y-31426961D02*
X38766809Y-31522200D01*
X38766809Y-31522200D02*
X38623952Y-31569819D01*
X38623952Y-31569819D02*
X38528714Y-31569819D01*
X39909666Y-31569819D02*
X39338238Y-31569819D01*
X39623952Y-31569819D02*
X39623952Y-30569819D01*
X39623952Y-30569819D02*
X39528714Y-30712676D01*
X39528714Y-30712676D02*
X39433476Y-30807914D01*
X39433476Y-30807914D02*
X39338238Y-30855533D01*
X74527580Y-87669666D02*
X74575200Y-87717285D01*
X74575200Y-87717285D02*
X74622819Y-87860142D01*
X74622819Y-87860142D02*
X74622819Y-87955380D01*
X74622819Y-87955380D02*
X74575200Y-88098237D01*
X74575200Y-88098237D02*
X74479961Y-88193475D01*
X74479961Y-88193475D02*
X74384723Y-88241094D01*
X74384723Y-88241094D02*
X74194247Y-88288713D01*
X74194247Y-88288713D02*
X74051390Y-88288713D01*
X74051390Y-88288713D02*
X73860914Y-88241094D01*
X73860914Y-88241094D02*
X73765676Y-88193475D01*
X73765676Y-88193475D02*
X73670438Y-88098237D01*
X73670438Y-88098237D02*
X73622819Y-87955380D01*
X73622819Y-87955380D02*
X73622819Y-87860142D01*
X73622819Y-87860142D02*
X73670438Y-87717285D01*
X73670438Y-87717285D02*
X73718057Y-87669666D01*
X73622819Y-86812523D02*
X73622819Y-87002999D01*
X73622819Y-87002999D02*
X73670438Y-87098237D01*
X73670438Y-87098237D02*
X73718057Y-87145856D01*
X73718057Y-87145856D02*
X73860914Y-87241094D01*
X73860914Y-87241094D02*
X74051390Y-87288713D01*
X74051390Y-87288713D02*
X74432342Y-87288713D01*
X74432342Y-87288713D02*
X74527580Y-87241094D01*
X74527580Y-87241094D02*
X74575200Y-87193475D01*
X74575200Y-87193475D02*
X74622819Y-87098237D01*
X74622819Y-87098237D02*
X74622819Y-86907761D01*
X74622819Y-86907761D02*
X74575200Y-86812523D01*
X74575200Y-86812523D02*
X74527580Y-86764904D01*
X74527580Y-86764904D02*
X74432342Y-86717285D01*
X74432342Y-86717285D02*
X74194247Y-86717285D01*
X74194247Y-86717285D02*
X74099009Y-86764904D01*
X74099009Y-86764904D02*
X74051390Y-86812523D01*
X74051390Y-86812523D02*
X74003771Y-86907761D01*
X74003771Y-86907761D02*
X74003771Y-87098237D01*
X74003771Y-87098237D02*
X74051390Y-87193475D01*
X74051390Y-87193475D02*
X74099009Y-87241094D01*
X74099009Y-87241094D02*
X74194247Y-87288713D01*
X106219666Y-30569819D02*
X106219666Y-31284104D01*
X106219666Y-31284104D02*
X106172047Y-31426961D01*
X106172047Y-31426961D02*
X106076809Y-31522200D01*
X106076809Y-31522200D02*
X105933952Y-31569819D01*
X105933952Y-31569819D02*
X105838714Y-31569819D01*
X106648238Y-30665057D02*
X106695857Y-30617438D01*
X106695857Y-30617438D02*
X106791095Y-30569819D01*
X106791095Y-30569819D02*
X107029190Y-30569819D01*
X107029190Y-30569819D02*
X107124428Y-30617438D01*
X107124428Y-30617438D02*
X107172047Y-30665057D01*
X107172047Y-30665057D02*
X107219666Y-30760295D01*
X107219666Y-30760295D02*
X107219666Y-30855533D01*
X107219666Y-30855533D02*
X107172047Y-30998390D01*
X107172047Y-30998390D02*
X106600619Y-31569819D01*
X106600619Y-31569819D02*
X107219666Y-31569819D01*
X48545905Y-128994819D02*
X48545905Y-129804342D01*
X48545905Y-129804342D02*
X48593524Y-129899580D01*
X48593524Y-129899580D02*
X48641143Y-129947200D01*
X48641143Y-129947200D02*
X48736381Y-129994819D01*
X48736381Y-129994819D02*
X48926857Y-129994819D01*
X48926857Y-129994819D02*
X49022095Y-129947200D01*
X49022095Y-129947200D02*
X49069714Y-129899580D01*
X49069714Y-129899580D02*
X49117333Y-129804342D01*
X49117333Y-129804342D02*
X49117333Y-128994819D01*
X50117333Y-129994819D02*
X49545905Y-129994819D01*
X49831619Y-129994819D02*
X49831619Y-128994819D01*
X49831619Y-128994819D02*
X49736381Y-129137676D01*
X49736381Y-129137676D02*
X49641143Y-129232914D01*
X49641143Y-129232914D02*
X49545905Y-129280533D01*
X51069714Y-129994819D02*
X50498286Y-129994819D01*
X50784000Y-129994819D02*
X50784000Y-128994819D01*
X50784000Y-128994819D02*
X50688762Y-129137676D01*
X50688762Y-129137676D02*
X50593524Y-129232914D01*
X50593524Y-129232914D02*
X50498286Y-129280533D01*
X108886666Y-127299819D02*
X108886666Y-128014104D01*
X108886666Y-128014104D02*
X108839047Y-128156961D01*
X108839047Y-128156961D02*
X108743809Y-128252200D01*
X108743809Y-128252200D02*
X108600952Y-128299819D01*
X108600952Y-128299819D02*
X108505714Y-128299819D01*
X109791428Y-127633152D02*
X109791428Y-128299819D01*
X109553333Y-127252200D02*
X109315238Y-127966485D01*
X109315238Y-127966485D02*
X109934285Y-127966485D01*
X40872580Y-38393666D02*
X40920200Y-38441285D01*
X40920200Y-38441285D02*
X40967819Y-38584142D01*
X40967819Y-38584142D02*
X40967819Y-38679380D01*
X40967819Y-38679380D02*
X40920200Y-38822237D01*
X40920200Y-38822237D02*
X40824961Y-38917475D01*
X40824961Y-38917475D02*
X40729723Y-38965094D01*
X40729723Y-38965094D02*
X40539247Y-39012713D01*
X40539247Y-39012713D02*
X40396390Y-39012713D01*
X40396390Y-39012713D02*
X40205914Y-38965094D01*
X40205914Y-38965094D02*
X40110676Y-38917475D01*
X40110676Y-38917475D02*
X40015438Y-38822237D01*
X40015438Y-38822237D02*
X39967819Y-38679380D01*
X39967819Y-38679380D02*
X39967819Y-38584142D01*
X39967819Y-38584142D02*
X40015438Y-38441285D01*
X40015438Y-38441285D02*
X40063057Y-38393666D01*
X40967819Y-37441285D02*
X40967819Y-38012713D01*
X40967819Y-37726999D02*
X39967819Y-37726999D01*
X39967819Y-37726999D02*
X40110676Y-37822237D01*
X40110676Y-37822237D02*
X40205914Y-37917475D01*
X40205914Y-37917475D02*
X40253533Y-38012713D01*
X49883142Y-153684580D02*
X49835523Y-153732200D01*
X49835523Y-153732200D02*
X49692666Y-153779819D01*
X49692666Y-153779819D02*
X49597428Y-153779819D01*
X49597428Y-153779819D02*
X49454571Y-153732200D01*
X49454571Y-153732200D02*
X49359333Y-153636961D01*
X49359333Y-153636961D02*
X49311714Y-153541723D01*
X49311714Y-153541723D02*
X49264095Y-153351247D01*
X49264095Y-153351247D02*
X49264095Y-153208390D01*
X49264095Y-153208390D02*
X49311714Y-153017914D01*
X49311714Y-153017914D02*
X49359333Y-152922676D01*
X49359333Y-152922676D02*
X49454571Y-152827438D01*
X49454571Y-152827438D02*
X49597428Y-152779819D01*
X49597428Y-152779819D02*
X49692666Y-152779819D01*
X49692666Y-152779819D02*
X49835523Y-152827438D01*
X49835523Y-152827438D02*
X49883142Y-152875057D01*
X50835523Y-153779819D02*
X50264095Y-153779819D01*
X50549809Y-153779819D02*
X50549809Y-152779819D01*
X50549809Y-152779819D02*
X50454571Y-152922676D01*
X50454571Y-152922676D02*
X50359333Y-153017914D01*
X50359333Y-153017914D02*
X50264095Y-153065533D01*
X51216476Y-152875057D02*
X51264095Y-152827438D01*
X51264095Y-152827438D02*
X51359333Y-152779819D01*
X51359333Y-152779819D02*
X51597428Y-152779819D01*
X51597428Y-152779819D02*
X51692666Y-152827438D01*
X51692666Y-152827438D02*
X51740285Y-152875057D01*
X51740285Y-152875057D02*
X51787904Y-152970295D01*
X51787904Y-152970295D02*
X51787904Y-153065533D01*
X51787904Y-153065533D02*
X51740285Y-153208390D01*
X51740285Y-153208390D02*
X51168857Y-153779819D01*
X51168857Y-153779819D02*
X51787904Y-153779819D01*
X81280095Y-122815819D02*
X81280095Y-123625342D01*
X81280095Y-123625342D02*
X81327714Y-123720580D01*
X81327714Y-123720580D02*
X81375333Y-123768200D01*
X81375333Y-123768200D02*
X81470571Y-123815819D01*
X81470571Y-123815819D02*
X81661047Y-123815819D01*
X81661047Y-123815819D02*
X81756285Y-123768200D01*
X81756285Y-123768200D02*
X81803904Y-123720580D01*
X81803904Y-123720580D02*
X81851523Y-123625342D01*
X81851523Y-123625342D02*
X81851523Y-122815819D01*
X82470571Y-123244390D02*
X82375333Y-123196771D01*
X82375333Y-123196771D02*
X82327714Y-123149152D01*
X82327714Y-123149152D02*
X82280095Y-123053914D01*
X82280095Y-123053914D02*
X82280095Y-123006295D01*
X82280095Y-123006295D02*
X82327714Y-122911057D01*
X82327714Y-122911057D02*
X82375333Y-122863438D01*
X82375333Y-122863438D02*
X82470571Y-122815819D01*
X82470571Y-122815819D02*
X82661047Y-122815819D01*
X82661047Y-122815819D02*
X82756285Y-122863438D01*
X82756285Y-122863438D02*
X82803904Y-122911057D01*
X82803904Y-122911057D02*
X82851523Y-123006295D01*
X82851523Y-123006295D02*
X82851523Y-123053914D01*
X82851523Y-123053914D02*
X82803904Y-123149152D01*
X82803904Y-123149152D02*
X82756285Y-123196771D01*
X82756285Y-123196771D02*
X82661047Y-123244390D01*
X82661047Y-123244390D02*
X82470571Y-123244390D01*
X82470571Y-123244390D02*
X82375333Y-123292009D01*
X82375333Y-123292009D02*
X82327714Y-123339628D01*
X82327714Y-123339628D02*
X82280095Y-123434866D01*
X82280095Y-123434866D02*
X82280095Y-123625342D01*
X82280095Y-123625342D02*
X82327714Y-123720580D01*
X82327714Y-123720580D02*
X82375333Y-123768200D01*
X82375333Y-123768200D02*
X82470571Y-123815819D01*
X82470571Y-123815819D02*
X82661047Y-123815819D01*
X82661047Y-123815819D02*
X82756285Y-123768200D01*
X82756285Y-123768200D02*
X82803904Y-123720580D01*
X82803904Y-123720580D02*
X82851523Y-123625342D01*
X82851523Y-123625342D02*
X82851523Y-123434866D01*
X82851523Y-123434866D02*
X82803904Y-123339628D01*
X82803904Y-123339628D02*
X82756285Y-123292009D01*
X82756285Y-123292009D02*
X82661047Y-123244390D01*
X51921580Y-47791666D02*
X51969200Y-47839285D01*
X51969200Y-47839285D02*
X52016819Y-47982142D01*
X52016819Y-47982142D02*
X52016819Y-48077380D01*
X52016819Y-48077380D02*
X51969200Y-48220237D01*
X51969200Y-48220237D02*
X51873961Y-48315475D01*
X51873961Y-48315475D02*
X51778723Y-48363094D01*
X51778723Y-48363094D02*
X51588247Y-48410713D01*
X51588247Y-48410713D02*
X51445390Y-48410713D01*
X51445390Y-48410713D02*
X51254914Y-48363094D01*
X51254914Y-48363094D02*
X51159676Y-48315475D01*
X51159676Y-48315475D02*
X51064438Y-48220237D01*
X51064438Y-48220237D02*
X51016819Y-48077380D01*
X51016819Y-48077380D02*
X51016819Y-47982142D01*
X51016819Y-47982142D02*
X51064438Y-47839285D01*
X51064438Y-47839285D02*
X51112057Y-47791666D01*
X51350152Y-46934523D02*
X52016819Y-46934523D01*
X50969200Y-47172618D02*
X51683485Y-47410713D01*
X51683485Y-47410713D02*
X51683485Y-46791666D01*
X97440905Y-126454819D02*
X97440905Y-127264342D01*
X97440905Y-127264342D02*
X97488524Y-127359580D01*
X97488524Y-127359580D02*
X97536143Y-127407200D01*
X97536143Y-127407200D02*
X97631381Y-127454819D01*
X97631381Y-127454819D02*
X97821857Y-127454819D01*
X97821857Y-127454819D02*
X97917095Y-127407200D01*
X97917095Y-127407200D02*
X97964714Y-127359580D01*
X97964714Y-127359580D02*
X98012333Y-127264342D01*
X98012333Y-127264342D02*
X98012333Y-126454819D01*
X99012333Y-127454819D02*
X98440905Y-127454819D01*
X98726619Y-127454819D02*
X98726619Y-126454819D01*
X98726619Y-126454819D02*
X98631381Y-126597676D01*
X98631381Y-126597676D02*
X98536143Y-126692914D01*
X98536143Y-126692914D02*
X98440905Y-126740533D01*
X99345667Y-126454819D02*
X99964714Y-126454819D01*
X99964714Y-126454819D02*
X99631381Y-126835771D01*
X99631381Y-126835771D02*
X99774238Y-126835771D01*
X99774238Y-126835771D02*
X99869476Y-126883390D01*
X99869476Y-126883390D02*
X99917095Y-126931009D01*
X99917095Y-126931009D02*
X99964714Y-127026247D01*
X99964714Y-127026247D02*
X99964714Y-127264342D01*
X99964714Y-127264342D02*
X99917095Y-127359580D01*
X99917095Y-127359580D02*
X99869476Y-127407200D01*
X99869476Y-127407200D02*
X99774238Y-127454819D01*
X99774238Y-127454819D02*
X99488524Y-127454819D01*
X99488524Y-127454819D02*
X99393286Y-127407200D01*
X99393286Y-127407200D02*
X99345667Y-127359580D01*
X37806333Y-123168580D02*
X37758714Y-123216200D01*
X37758714Y-123216200D02*
X37615857Y-123263819D01*
X37615857Y-123263819D02*
X37520619Y-123263819D01*
X37520619Y-123263819D02*
X37377762Y-123216200D01*
X37377762Y-123216200D02*
X37282524Y-123120961D01*
X37282524Y-123120961D02*
X37234905Y-123025723D01*
X37234905Y-123025723D02*
X37187286Y-122835247D01*
X37187286Y-122835247D02*
X37187286Y-122692390D01*
X37187286Y-122692390D02*
X37234905Y-122501914D01*
X37234905Y-122501914D02*
X37282524Y-122406676D01*
X37282524Y-122406676D02*
X37377762Y-122311438D01*
X37377762Y-122311438D02*
X37520619Y-122263819D01*
X37520619Y-122263819D02*
X37615857Y-122263819D01*
X37615857Y-122263819D02*
X37758714Y-122311438D01*
X37758714Y-122311438D02*
X37806333Y-122359057D01*
X38187286Y-122359057D02*
X38234905Y-122311438D01*
X38234905Y-122311438D02*
X38330143Y-122263819D01*
X38330143Y-122263819D02*
X38568238Y-122263819D01*
X38568238Y-122263819D02*
X38663476Y-122311438D01*
X38663476Y-122311438D02*
X38711095Y-122359057D01*
X38711095Y-122359057D02*
X38758714Y-122454295D01*
X38758714Y-122454295D02*
X38758714Y-122549533D01*
X38758714Y-122549533D02*
X38711095Y-122692390D01*
X38711095Y-122692390D02*
X38139667Y-123263819D01*
X38139667Y-123263819D02*
X38758714Y-123263819D01*
X36115666Y-127299819D02*
X36115666Y-128014104D01*
X36115666Y-128014104D02*
X36068047Y-128156961D01*
X36068047Y-128156961D02*
X35972809Y-128252200D01*
X35972809Y-128252200D02*
X35829952Y-128299819D01*
X35829952Y-128299819D02*
X35734714Y-128299819D01*
X36496619Y-127299819D02*
X37115666Y-127299819D01*
X37115666Y-127299819D02*
X36782333Y-127680771D01*
X36782333Y-127680771D02*
X36925190Y-127680771D01*
X36925190Y-127680771D02*
X37020428Y-127728390D01*
X37020428Y-127728390D02*
X37068047Y-127776009D01*
X37068047Y-127776009D02*
X37115666Y-127871247D01*
X37115666Y-127871247D02*
X37115666Y-128109342D01*
X37115666Y-128109342D02*
X37068047Y-128204580D01*
X37068047Y-128204580D02*
X37020428Y-128252200D01*
X37020428Y-128252200D02*
X36925190Y-128299819D01*
X36925190Y-128299819D02*
X36639476Y-128299819D01*
X36639476Y-128299819D02*
X36544238Y-128252200D01*
X36544238Y-128252200D02*
X36496619Y-128204580D01*
X93376905Y-174079819D02*
X93376905Y-174889342D01*
X93376905Y-174889342D02*
X93424524Y-174984580D01*
X93424524Y-174984580D02*
X93472143Y-175032200D01*
X93472143Y-175032200D02*
X93567381Y-175079819D01*
X93567381Y-175079819D02*
X93757857Y-175079819D01*
X93757857Y-175079819D02*
X93853095Y-175032200D01*
X93853095Y-175032200D02*
X93900714Y-174984580D01*
X93900714Y-174984580D02*
X93948333Y-174889342D01*
X93948333Y-174889342D02*
X93948333Y-174079819D01*
X94948333Y-175079819D02*
X94376905Y-175079819D01*
X94662619Y-175079819D02*
X94662619Y-174079819D01*
X94662619Y-174079819D02*
X94567381Y-174222676D01*
X94567381Y-174222676D02*
X94472143Y-174317914D01*
X94472143Y-174317914D02*
X94376905Y-174365533D01*
X95805476Y-174413152D02*
X95805476Y-175079819D01*
X95567381Y-174032200D02*
X95329286Y-174746485D01*
X95329286Y-174746485D02*
X95948333Y-174746485D01*
X92575142Y-124260780D02*
X92527523Y-124308400D01*
X92527523Y-124308400D02*
X92384666Y-124356019D01*
X92384666Y-124356019D02*
X92289428Y-124356019D01*
X92289428Y-124356019D02*
X92146571Y-124308400D01*
X92146571Y-124308400D02*
X92051333Y-124213161D01*
X92051333Y-124213161D02*
X92003714Y-124117923D01*
X92003714Y-124117923D02*
X91956095Y-123927447D01*
X91956095Y-123927447D02*
X91956095Y-123784590D01*
X91956095Y-123784590D02*
X92003714Y-123594114D01*
X92003714Y-123594114D02*
X92051333Y-123498876D01*
X92051333Y-123498876D02*
X92146571Y-123403638D01*
X92146571Y-123403638D02*
X92289428Y-123356019D01*
X92289428Y-123356019D02*
X92384666Y-123356019D01*
X92384666Y-123356019D02*
X92527523Y-123403638D01*
X92527523Y-123403638D02*
X92575142Y-123451257D01*
X93527523Y-124356019D02*
X92956095Y-124356019D01*
X93241809Y-124356019D02*
X93241809Y-123356019D01*
X93241809Y-123356019D02*
X93146571Y-123498876D01*
X93146571Y-123498876D02*
X93051333Y-123594114D01*
X93051333Y-123594114D02*
X92956095Y-123641733D01*
X94146571Y-123356019D02*
X94241809Y-123356019D01*
X94241809Y-123356019D02*
X94337047Y-123403638D01*
X94337047Y-123403638D02*
X94384666Y-123451257D01*
X94384666Y-123451257D02*
X94432285Y-123546495D01*
X94432285Y-123546495D02*
X94479904Y-123736971D01*
X94479904Y-123736971D02*
X94479904Y-123975066D01*
X94479904Y-123975066D02*
X94432285Y-124165542D01*
X94432285Y-124165542D02*
X94384666Y-124260780D01*
X94384666Y-124260780D02*
X94337047Y-124308400D01*
X94337047Y-124308400D02*
X94241809Y-124356019D01*
X94241809Y-124356019D02*
X94146571Y-124356019D01*
X94146571Y-124356019D02*
X94051333Y-124308400D01*
X94051333Y-124308400D02*
X94003714Y-124260780D01*
X94003714Y-124260780D02*
X93956095Y-124165542D01*
X93956095Y-124165542D02*
X93908476Y-123975066D01*
X93908476Y-123975066D02*
X93908476Y-123736971D01*
X93908476Y-123736971D02*
X93956095Y-123546495D01*
X93956095Y-123546495D02*
X94003714Y-123451257D01*
X94003714Y-123451257D02*
X94051333Y-123403638D01*
X94051333Y-123403638D02*
X94146571Y-123356019D01*
D11*
%TO.C,U4*%
X55058000Y-52815000D02*
X75498000Y-52815000D01*
X75498000Y-52815000D02*
X75498000Y-47515000D01*
X55058000Y-51165000D02*
X55058000Y-52815000D01*
X55058000Y-47515000D02*
X55058000Y-49165000D01*
X75498000Y-47515000D02*
X55058000Y-47515000D01*
X55058000Y-51165000D02*
G75*
G03*
X55058000Y-49165000I0J1000000D01*
G01*
%TO.C,U3*%
X41977000Y-92693000D02*
X67497000Y-92693000D01*
X67497000Y-92693000D02*
X67497000Y-87393000D01*
X41977000Y-91043000D02*
X41977000Y-92693000D01*
X41977000Y-87393000D02*
X41977000Y-89043000D01*
X67497000Y-87393000D02*
X41977000Y-87393000D01*
X41977000Y-91043000D02*
G75*
G03*
X41977000Y-89043000I0J1000000D01*
G01*
%TO.C,C9*%
X80114000Y-71405000D02*
X80049000Y-71405000D01*
X80114000Y-71405000D02*
X80114000Y-74645000D01*
X77939000Y-71405000D02*
X77874000Y-71405000D01*
X77874000Y-71405000D02*
X77874000Y-74645000D01*
X80114000Y-74645000D02*
X80049000Y-74645000D01*
X77939000Y-74645000D02*
X77874000Y-74645000D01*
%TO.C,C5*%
X59032000Y-120661000D02*
X58967000Y-120661000D01*
X59032000Y-120661000D02*
X59032000Y-123901000D01*
X56857000Y-120661000D02*
X56792000Y-120661000D01*
X56792000Y-120661000D02*
X56792000Y-123901000D01*
X59032000Y-123901000D02*
X58967000Y-123901000D01*
X56857000Y-123901000D02*
X56792000Y-123901000D01*
%TO.C,U12*%
X40657000Y-154245000D02*
X40657000Y-179765000D01*
X40657000Y-179765000D02*
X45957000Y-179765000D01*
X42307000Y-154245000D02*
X40657000Y-154245000D01*
X45957000Y-154245000D02*
X44307000Y-154245000D01*
X45957000Y-179765000D02*
X45957000Y-154245000D01*
X42307000Y-154245000D02*
G75*
G03*
X44307000Y-154245000I1000000J0D01*
G01*
%TO.C,C7*%
X67414000Y-58705000D02*
X67349000Y-58705000D01*
X67414000Y-58705000D02*
X67414000Y-61945000D01*
X65239000Y-58705000D02*
X65174000Y-58705000D01*
X65174000Y-58705000D02*
X65174000Y-61945000D01*
X67414000Y-61945000D02*
X67349000Y-61945000D01*
X65239000Y-61945000D02*
X65174000Y-61945000D01*
%TO.C,U9*%
X80473000Y-78205000D02*
X100913000Y-78205000D01*
X100913000Y-78205000D02*
X100913000Y-72905000D01*
X80473000Y-76555000D02*
X80473000Y-78205000D01*
X80473000Y-72905000D02*
X80473000Y-74555000D01*
X100913000Y-72905000D02*
X80473000Y-72905000D01*
X80473000Y-76555000D02*
G75*
G03*
X80473000Y-74555000I0J1000000D01*
G01*
%TO.C,U6*%
X77918000Y-92693000D02*
X103438000Y-92693000D01*
X103438000Y-92693000D02*
X103438000Y-87393000D01*
X77918000Y-91043000D02*
X77918000Y-92693000D01*
X77918000Y-87393000D02*
X77918000Y-89043000D01*
X103438000Y-87393000D02*
X77918000Y-87393000D01*
X77918000Y-91043000D02*
G75*
G03*
X77918000Y-89043000I0J1000000D01*
G01*
%TO.C,U2*%
X46963000Y-122346000D02*
X46963000Y-101906000D01*
X46963000Y-101906000D02*
X41663000Y-101906000D01*
X45313000Y-122346000D02*
X46963000Y-122346000D01*
X41663000Y-122346000D02*
X43313000Y-122346000D01*
X41663000Y-101906000D02*
X41663000Y-122346000D01*
X45313000Y-122346000D02*
G75*
G03*
X43313000Y-122346000I-1000000J0D01*
G01*
%TO.C,U1*%
X42358000Y-40115000D02*
X62798000Y-40115000D01*
X62798000Y-40115000D02*
X62798000Y-34815000D01*
X42358000Y-38465000D02*
X42358000Y-40115000D01*
X42358000Y-34815000D02*
X42358000Y-36465000D01*
X62798000Y-34815000D02*
X42358000Y-34815000D01*
X42358000Y-38465000D02*
G75*
G03*
X42358000Y-36465000I0J1000000D01*
G01*
%TO.C,C13*%
X96624000Y-152030000D02*
X96559000Y-152030000D01*
X96624000Y-152030000D02*
X96624000Y-155270000D01*
X94449000Y-152030000D02*
X94384000Y-152030000D01*
X94384000Y-152030000D02*
X94384000Y-155270000D01*
X96624000Y-155270000D02*
X96559000Y-155270000D01*
X94449000Y-155270000D02*
X94384000Y-155270000D01*
%TO.C,U7*%
X67773000Y-65505000D02*
X88213000Y-65505000D01*
X88213000Y-65505000D02*
X88213000Y-60205000D01*
X67773000Y-63855000D02*
X67773000Y-65505000D01*
X67773000Y-60205000D02*
X67773000Y-61855000D01*
X88213000Y-60205000D02*
X67773000Y-60205000D01*
X67773000Y-63855000D02*
G75*
G03*
X67773000Y-61855000I0J1000000D01*
G01*
%TO.C,U5*%
X66785000Y-122361000D02*
X66785000Y-101921000D01*
X66785000Y-101921000D02*
X61485000Y-101921000D01*
X65135000Y-122361000D02*
X66785000Y-122361000D01*
X61485000Y-122361000D02*
X63135000Y-122361000D01*
X61485000Y-101921000D02*
X61485000Y-122361000D01*
X65135000Y-122361000D02*
G75*
G03*
X63135000Y-122361000I-1000000J0D01*
G01*
%TO.C,C14*%
X96743000Y-179555000D02*
X96743000Y-179490000D01*
X96743000Y-179555000D02*
X93503000Y-179555000D01*
X96743000Y-177380000D02*
X96743000Y-177315000D01*
X96743000Y-177315000D02*
X93503000Y-177315000D01*
X93503000Y-179555000D02*
X93503000Y-179490000D01*
X93503000Y-177380000D02*
X93503000Y-177315000D01*
%TO.C,U10*%
X104758000Y-122361000D02*
X104758000Y-101921000D01*
X104758000Y-101921000D02*
X99458000Y-101921000D01*
X103108000Y-122361000D02*
X104758000Y-122361000D01*
X99458000Y-122361000D02*
X101108000Y-122361000D01*
X99458000Y-101921000D02*
X99458000Y-122361000D01*
X103108000Y-122361000D02*
G75*
G03*
X101108000Y-122361000I-1000000J0D01*
G01*
%TO.C,C3*%
X41379000Y-85756000D02*
X41314000Y-85756000D01*
X41379000Y-85756000D02*
X41379000Y-88996000D01*
X39204000Y-85756000D02*
X39139000Y-85756000D01*
X39139000Y-85756000D02*
X39139000Y-88996000D01*
X41379000Y-88996000D02*
X41314000Y-88996000D01*
X39204000Y-88996000D02*
X39139000Y-88996000D01*
%TO.C,C11*%
X47467000Y-127739000D02*
X47467000Y-127674000D01*
X47467000Y-127739000D02*
X44227000Y-127739000D01*
X47467000Y-125564000D02*
X47467000Y-125499000D01*
X47467000Y-125499000D02*
X44227000Y-125499000D01*
X44227000Y-127739000D02*
X44227000Y-127674000D01*
X44227000Y-125564000D02*
X44227000Y-125499000D01*
%TO.C,C8*%
X76939000Y-120681000D02*
X76874000Y-120681000D01*
X76939000Y-120681000D02*
X76939000Y-123921000D01*
X74764000Y-120681000D02*
X74699000Y-120681000D01*
X74699000Y-120681000D02*
X74699000Y-123921000D01*
X76939000Y-123921000D02*
X76874000Y-123921000D01*
X74764000Y-123921000D02*
X74699000Y-123921000D01*
%TO.C,J1*%
X35119000Y-29785000D02*
X36449000Y-29785000D01*
X35119000Y-31115000D02*
X35119000Y-29785000D01*
X35119000Y-32385000D02*
X35119000Y-80705000D01*
X35119000Y-32385000D02*
X37779000Y-32385000D01*
X35119000Y-80705000D02*
X37779000Y-80705000D01*
X37779000Y-32385000D02*
X37779000Y-80705000D01*
%TO.C,C6*%
X77193000Y-85863000D02*
X77128000Y-85863000D01*
X77193000Y-85863000D02*
X77193000Y-89103000D01*
X75018000Y-85863000D02*
X74953000Y-85863000D01*
X74953000Y-85863000D02*
X74953000Y-89103000D01*
X77193000Y-89103000D02*
X77128000Y-89103000D01*
X75018000Y-89103000D02*
X74953000Y-89103000D01*
%TO.C,J2*%
X107890000Y-29785000D02*
X109220000Y-29785000D01*
X107890000Y-31115000D02*
X107890000Y-29785000D01*
X107890000Y-32385000D02*
X107890000Y-80705000D01*
X107890000Y-32385000D02*
X110550000Y-32385000D01*
X107890000Y-80705000D02*
X110550000Y-80705000D01*
X110550000Y-32385000D02*
X110550000Y-80705000D01*
%TO.C,U11*%
X40657000Y-128210000D02*
X40657000Y-153730000D01*
X40657000Y-153730000D02*
X45957000Y-153730000D01*
X42307000Y-128210000D02*
X40657000Y-128210000D01*
X45957000Y-128210000D02*
X44307000Y-128210000D01*
X45957000Y-153730000D02*
X45957000Y-128210000D01*
X42307000Y-128210000D02*
G75*
G03*
X44307000Y-128210000I1000000J0D01*
G01*
%TO.C,J4*%
X107890000Y-128845000D02*
X109220000Y-128845000D01*
X107890000Y-130175000D02*
X107890000Y-128845000D01*
X107890000Y-131445000D02*
X107890000Y-179765000D01*
X107890000Y-131445000D02*
X110550000Y-131445000D01*
X107890000Y-179765000D02*
X110550000Y-179765000D01*
X110550000Y-131445000D02*
X110550000Y-179765000D01*
%TO.C,C1*%
X41633000Y-33325000D02*
X41568000Y-33325000D01*
X41633000Y-33325000D02*
X41633000Y-36565000D01*
X39458000Y-33325000D02*
X39393000Y-33325000D01*
X39393000Y-33325000D02*
X39393000Y-36565000D01*
X41633000Y-36565000D02*
X41568000Y-36565000D01*
X39458000Y-36565000D02*
X39393000Y-36565000D01*
%TO.C,C12*%
X48906000Y-154455000D02*
X48906000Y-154520000D01*
X48906000Y-154455000D02*
X52146000Y-154455000D01*
X48906000Y-156630000D02*
X48906000Y-156695000D01*
X48906000Y-156695000D02*
X52146000Y-156695000D01*
X52146000Y-154455000D02*
X52146000Y-154520000D01*
X52146000Y-156630000D02*
X52146000Y-156695000D01*
%TO.C,U8*%
X84692000Y-122361000D02*
X84692000Y-101921000D01*
X84692000Y-101921000D02*
X79392000Y-101921000D01*
X83042000Y-122361000D02*
X84692000Y-122361000D01*
X79392000Y-122361000D02*
X81042000Y-122361000D01*
X79392000Y-101921000D02*
X79392000Y-122361000D01*
X83042000Y-122361000D02*
G75*
G03*
X81042000Y-122361000I-1000000J0D01*
G01*
%TO.C,C4*%
X54587000Y-46005000D02*
X54522000Y-46005000D01*
X54587000Y-46005000D02*
X54587000Y-49245000D01*
X52412000Y-46005000D02*
X52347000Y-46005000D01*
X52347000Y-46005000D02*
X52347000Y-49245000D01*
X54587000Y-49245000D02*
X54522000Y-49245000D01*
X52412000Y-49245000D02*
X52347000Y-49245000D01*
%TO.C,U13*%
X105012000Y-153730000D02*
X105012000Y-128210000D01*
X105012000Y-128210000D02*
X99712000Y-128210000D01*
X103362000Y-153730000D02*
X105012000Y-153730000D01*
X99712000Y-153730000D02*
X101362000Y-153730000D01*
X99712000Y-128210000D02*
X99712000Y-153730000D01*
X103362000Y-153730000D02*
G75*
G03*
X101362000Y-153730000I-1000000J0D01*
G01*
%TO.C,C2*%
X36853000Y-121381000D02*
X36918000Y-121381000D01*
X36853000Y-121381000D02*
X36853000Y-118141000D01*
X39028000Y-121381000D02*
X39093000Y-121381000D01*
X39093000Y-121381000D02*
X39093000Y-118141000D01*
X36853000Y-118141000D02*
X36918000Y-118141000D01*
X39028000Y-118141000D02*
X39093000Y-118141000D01*
%TO.C,J3*%
X35119000Y-128845000D02*
X36449000Y-128845000D01*
X35119000Y-130175000D02*
X35119000Y-128845000D01*
X35119000Y-131445000D02*
X35119000Y-179765000D01*
X35119000Y-131445000D02*
X37779000Y-131445000D01*
X35119000Y-179765000D02*
X37779000Y-179765000D01*
X37779000Y-131445000D02*
X37779000Y-179765000D01*
%TO.C,U14*%
X105012000Y-179765000D02*
X105012000Y-154245000D01*
X105012000Y-154245000D02*
X99712000Y-154245000D01*
X103362000Y-179765000D02*
X105012000Y-179765000D01*
X99712000Y-179765000D02*
X101362000Y-179765000D01*
X99712000Y-154245000D02*
X99712000Y-179765000D01*
X103362000Y-179765000D02*
G75*
G03*
X101362000Y-179765000I-1000000J0D01*
G01*
%TO.C,C10*%
X98678800Y-125046600D02*
X98678800Y-124981600D01*
X98678800Y-125046600D02*
X95438800Y-125046600D01*
X98678800Y-122871600D02*
X98678800Y-122806600D01*
X98678800Y-122806600D02*
X95438800Y-122806600D01*
X95438800Y-125046600D02*
X95438800Y-124981600D01*
X95438800Y-122871600D02*
X95438800Y-122806600D01*
%TD*%
M02*
