M48
; DRILL file {KiCad 7.0.6-0} date 2023 August 04, Friday 10:28:50
; FORMAT={-:-/ absolute / metric / decimal}
; #@! TF.CreationDate,2023-08-04T10:28:50-07:00
; #@! TF.GenerationSoftware,Kicad,Pcbnew,7.0.6-0
; #@! TF.FileFunction,Plated,1,4,PTH
FMAT,2
METRIC
; #@! TA.AperFunction,Plated,PTH,ViaDrill
T1C0.400
; #@! TA.AperFunction,Plated,PTH,ComponentDrill
T2C0.800
; #@! TA.AperFunction,Plated,PTH,ComponentDrill
T3C1.000
%
G90
G05
T1
X37.846Y-99.314
X37.973Y-115.824
X37.973Y-124.968
X40.259Y-78.359
X41.656Y-80.899
X42.799Y-100.584
X42.862Y-82.867
X43.815Y-97.307
X44.831Y-50.165
X44.831Y-80.899
X45.034Y-43.205
X45.212Y-98.171
X47.117Y-51.181
X47.117Y-95.373
X49.886Y-114.681
X50.038Y-46.304
X51.105Y-121.031
X51.308Y-45.11
X52.07Y-100.584
X52.299Y-108.331
X53.467Y-105.791
X54.61Y-52.578
X54.737Y-112.141
X56.388Y-126.238
X58.928Y-44.298
X62.992Y-29.845
X62.992Y-147.32
X63.094Y-113.741
X64.008Y-36.83
X64.211Y-98.171
X65.151Y-115.951
X65.151Y-149.86
X65.278Y-38.354
X66.548Y-35.179
X67.818Y-39.878
X69.088Y-30.988
X69.723Y-144.78
X71.069Y-142.24
X72.39Y-82.22
X72.39Y-129.057
X72.771Y-57.15
X72.898Y-77.343
X75.565Y-29.82
X76.708Y-36.83
X77.978Y-38.354
X77.978Y-64.592
X79.248Y-35.179
X80.391Y-110.871
X80.518Y-39.878
X81.026Y-163.195
X81.788Y-113.411
X81.803Y-30.988
X83.058Y-115.926
X83.058Y-165.862
X83.109Y-63.424
X84.303Y-68.758
X85.598Y-29.82
X87.274Y-109.601
X87.63Y-160.655
X88.29Y-111.633
X88.646Y-36.703
X89.205Y-158.115
X89.408Y-107.061
X90.627Y-151.079
X90.653Y-99.263
X90.678Y-38.354
X91.948Y-114.681
X92.011Y-35.242
X93.218Y-39.878
X94.463Y-119.761
X94.488Y-74.625
X94.503Y-30.988
X101.448Y-152.756
X102.489Y-161.849
X102.845Y-163.982
T2
X37.973Y-118.511
X37.973Y-121.011
X39.497Y-129.54
X39.497Y-132.08
X39.497Y-134.62
X39.497Y-137.16
X39.497Y-139.7
X39.497Y-142.24
X39.497Y-144.78
X39.497Y-147.32
X39.497Y-149.86
X39.497Y-152.4
X39.497Y-155.575
X39.497Y-158.115
X39.497Y-160.655
X39.497Y-163.195
X39.497Y-165.735
X39.497Y-168.275
X39.497Y-170.815
X39.497Y-173.355
X39.497Y-175.895
X39.497Y-178.435
X40.259Y-86.126
X40.259Y-88.626
X40.503Y-103.236
X40.503Y-105.776
X40.503Y-108.316
X40.503Y-110.856
X40.503Y-113.396
X40.503Y-115.936
X40.503Y-118.476
X40.503Y-121.016
X40.513Y-33.695
X40.513Y-36.195
X43.307Y-86.233
X43.307Y-93.853
X43.688Y-33.655
X43.688Y-41.275
X44.597Y-126.619
X45.847Y-86.233
X45.847Y-93.853
X46.228Y-33.655
X46.228Y-41.275
X47.097Y-126.619
X47.117Y-129.54
X47.117Y-132.08
X47.117Y-134.62
X47.117Y-137.16
X47.117Y-139.7
X47.117Y-142.24
X47.117Y-144.78
X47.117Y-147.32
X47.117Y-149.86
X47.117Y-152.4
X47.117Y-155.575
X47.117Y-158.115
X47.117Y-160.655
X47.117Y-163.195
X47.117Y-165.735
X47.117Y-168.275
X47.117Y-170.815
X47.117Y-173.355
X47.117Y-175.895
X47.117Y-178.435
X48.123Y-103.236
X48.123Y-105.776
X48.123Y-108.316
X48.123Y-110.856
X48.123Y-113.396
X48.123Y-115.936
X48.123Y-118.476
X48.123Y-121.016
X48.387Y-86.233
X48.387Y-93.853
X48.768Y-33.655
X48.768Y-41.275
X49.276Y-155.575
X50.927Y-86.233
X50.927Y-93.853
X51.308Y-33.655
X51.308Y-41.275
X51.776Y-155.575
X53.467Y-46.375
X53.467Y-48.875
X53.467Y-86.233
X53.467Y-93.853
X53.848Y-33.655
X53.848Y-41.275
X56.007Y-86.233
X56.007Y-93.853
X56.388Y-33.655
X56.388Y-41.275
X56.388Y-46.355
X56.388Y-53.975
X57.912Y-121.031
X57.912Y-123.531
X58.547Y-86.233
X58.547Y-93.853
X58.928Y-33.655
X58.928Y-41.275
X58.928Y-46.355
X58.928Y-53.975
X60.325Y-103.251
X60.325Y-105.791
X60.325Y-108.331
X60.325Y-110.871
X60.325Y-113.411
X60.325Y-115.951
X60.325Y-118.491
X60.325Y-121.031
X61.087Y-86.233
X61.087Y-93.853
X61.468Y-33.655
X61.468Y-41.275
X61.468Y-46.355
X61.468Y-53.975
X63.627Y-86.233
X63.627Y-93.853
X64.008Y-46.355
X64.008Y-53.975
X66.167Y-86.233
X66.167Y-93.853
X66.294Y-59.075
X66.294Y-61.575
X66.548Y-46.355
X66.548Y-53.975
X67.945Y-103.251
X67.945Y-105.791
X67.945Y-108.331
X67.945Y-110.871
X67.945Y-113.411
X67.945Y-115.951
X67.945Y-118.491
X67.945Y-121.031
X69.088Y-46.355
X69.088Y-53.975
X69.103Y-59.045
X69.103Y-66.665
X71.628Y-46.355
X71.628Y-53.975
X71.643Y-59.045
X71.643Y-66.665
X74.168Y-46.355
X74.168Y-53.975
X74.183Y-59.045
X74.183Y-66.665
X75.819Y-121.051
X75.819Y-123.551
X76.073Y-86.233
X76.073Y-88.733
X76.723Y-59.045
X76.723Y-66.665
X78.232Y-103.251
X78.232Y-105.791
X78.232Y-108.331
X78.232Y-110.871
X78.232Y-113.411
X78.232Y-115.951
X78.232Y-118.491
X78.232Y-121.031
X78.994Y-71.775
X78.994Y-74.275
X79.248Y-86.233
X79.248Y-93.853
X79.263Y-59.045
X79.263Y-66.665
X81.788Y-86.233
X81.788Y-93.853
X81.803Y-59.045
X81.803Y-66.665
X81.803Y-71.745
X81.803Y-79.365
X84.328Y-86.233
X84.328Y-93.853
X84.343Y-59.045
X84.343Y-66.665
X84.343Y-71.745
X84.343Y-79.365
X85.852Y-103.251
X85.852Y-105.791
X85.852Y-108.331
X85.852Y-110.871
X85.852Y-113.411
X85.852Y-115.951
X85.852Y-118.491
X85.852Y-121.031
X86.868Y-86.233
X86.868Y-93.853
X86.883Y-59.045
X86.883Y-66.665
X86.883Y-71.745
X86.883Y-79.365
X89.408Y-86.233
X89.408Y-93.853
X89.423Y-71.745
X89.423Y-79.365
X91.948Y-86.233
X91.948Y-93.853
X91.963Y-71.745
X91.963Y-79.365
X93.873Y-178.435
X94.488Y-86.233
X94.488Y-93.853
X94.503Y-71.745
X94.503Y-79.365
X95.504Y-152.4
X95.504Y-154.9
X95.809Y-123.927
X96.373Y-178.435
X97.028Y-86.233
X97.028Y-93.853
X97.043Y-71.745
X97.043Y-79.365
X98.298Y-103.251
X98.298Y-105.791
X98.298Y-108.331
X98.298Y-110.871
X98.298Y-113.411
X98.298Y-115.951
X98.298Y-118.491
X98.298Y-121.031
X98.309Y-123.927
X98.552Y-129.54
X98.552Y-132.08
X98.552Y-134.62
X98.552Y-137.16
X98.552Y-139.7
X98.552Y-142.24
X98.552Y-144.78
X98.552Y-147.32
X98.552Y-149.86
X98.552Y-152.4
X98.552Y-155.575
X98.552Y-158.115
X98.552Y-160.655
X98.552Y-163.195
X98.552Y-165.735
X98.552Y-168.275
X98.552Y-170.815
X98.552Y-173.355
X98.552Y-175.895
X98.552Y-178.435
X99.568Y-86.233
X99.568Y-93.853
X99.583Y-71.745
X99.583Y-79.365
X102.108Y-86.233
X102.108Y-93.853
X105.918Y-103.251
X105.918Y-105.791
X105.918Y-108.331
X105.918Y-110.871
X105.918Y-113.411
X105.918Y-115.951
X105.918Y-118.491
X105.918Y-121.031
X106.172Y-129.54
X106.172Y-132.08
X106.172Y-134.62
X106.172Y-137.16
X106.172Y-139.7
X106.172Y-142.24
X106.172Y-144.78
X106.172Y-147.32
X106.172Y-149.86
X106.172Y-152.4
X106.172Y-155.575
X106.172Y-158.115
X106.172Y-160.655
X106.172Y-163.195
X106.172Y-165.735
X106.172Y-168.275
X106.172Y-170.815
X106.172Y-173.355
X106.172Y-175.895
X106.172Y-178.435
T3
X36.449Y-31.115
X36.449Y-33.655
X36.449Y-36.195
X36.449Y-38.735
X36.449Y-41.275
X36.449Y-43.815
X36.449Y-46.355
X36.449Y-48.895
X36.449Y-51.435
X36.449Y-53.975
X36.449Y-56.515
X36.449Y-59.055
X36.449Y-61.595
X36.449Y-64.135
X36.449Y-66.675
X36.449Y-69.215
X36.449Y-71.755
X36.449Y-74.295
X36.449Y-76.835
X36.449Y-79.375
X36.449Y-130.175
X36.449Y-132.715
X36.449Y-135.255
X36.449Y-137.795
X36.449Y-140.335
X36.449Y-142.875
X36.449Y-145.415
X36.449Y-147.955
X36.449Y-150.495
X36.449Y-153.035
X36.449Y-155.575
X36.449Y-158.115
X36.449Y-160.655
X36.449Y-163.195
X36.449Y-165.735
X36.449Y-168.275
X36.449Y-170.815
X36.449Y-173.355
X36.449Y-175.895
X36.449Y-178.435
X109.22Y-31.115
X109.22Y-33.655
X109.22Y-36.195
X109.22Y-38.735
X109.22Y-41.275
X109.22Y-43.815
X109.22Y-46.355
X109.22Y-48.895
X109.22Y-51.435
X109.22Y-53.975
X109.22Y-56.515
X109.22Y-59.055
X109.22Y-61.595
X109.22Y-64.135
X109.22Y-66.675
X109.22Y-69.215
X109.22Y-71.755
X109.22Y-74.295
X109.22Y-76.835
X109.22Y-79.375
X109.22Y-130.175
X109.22Y-132.715
X109.22Y-135.255
X109.22Y-137.795
X109.22Y-140.335
X109.22Y-142.875
X109.22Y-145.415
X109.22Y-147.955
X109.22Y-150.495
X109.22Y-153.035
X109.22Y-155.575
X109.22Y-158.115
X109.22Y-160.655
X109.22Y-163.195
X109.22Y-165.735
X109.22Y-168.275
X109.22Y-170.815
X109.22Y-173.355
X109.22Y-175.895
X109.22Y-178.435
T0
M30
