M48
; DRILL file {KiCad 7.0.6-0} date 2023 July 28, Friday 23:20:12
; FORMAT={-:-/ absolute / metric / decimal}
; #@! TF.CreationDate,2023-07-28T23:20:12-07:00
; #@! TF.GenerationSoftware,Kicad,Pcbnew,7.0.6-0
; #@! TF.FileFunction,Plated,1,4,PTH
FMAT,2
METRIC
; #@! TA.AperFunction,Plated,PTH,ComponentDrill
T1C0.800
; #@! TA.AperFunction,Plated,PTH,ComponentDrill
T2C1.000
%
G90
G05
T1
X111.999Y-118.12
X111.999Y-135.88
X112.014Y-85.217
X112.014Y-92.837
X112.014Y-102.997
X112.014Y-110.617
X112.014Y-120.777
X112.014Y-128.397
X112.014Y-138.547
X112.014Y-146.167
X112.034Y-82.55
X112.034Y-100.33
X114.499Y-118.12
X114.499Y-135.88
X114.534Y-82.55
X114.534Y-100.33
X114.554Y-85.217
X114.554Y-92.837
X114.554Y-102.997
X114.554Y-110.617
X114.554Y-120.777
X114.554Y-128.397
X114.554Y-138.547
X114.554Y-146.167
X117.094Y-85.217
X117.094Y-92.837
X117.094Y-102.997
X117.094Y-110.617
X117.094Y-120.777
X117.094Y-128.397
X117.094Y-138.547
X117.094Y-146.167
X119.634Y-85.217
X119.634Y-92.837
X119.634Y-102.997
X119.634Y-110.617
X119.634Y-120.777
X119.634Y-128.397
X119.634Y-138.547
X119.634Y-146.167
X122.174Y-85.217
X122.174Y-92.837
X122.174Y-102.997
X122.174Y-110.617
X122.174Y-120.777
X122.174Y-128.397
X122.174Y-138.547
X122.174Y-146.167
X124.714Y-85.217
X124.714Y-92.837
X124.714Y-102.997
X124.714Y-110.617
X124.714Y-120.777
X124.714Y-128.397
X124.714Y-138.547
X124.714Y-146.167
X127.254Y-85.217
X127.254Y-92.837
X127.254Y-102.997
X127.254Y-110.617
X127.254Y-120.777
X127.254Y-128.397
X127.254Y-138.547
X127.254Y-146.167
X129.794Y-85.217
X129.794Y-92.837
X129.794Y-102.997
X129.794Y-110.617
X129.794Y-120.777
X129.794Y-128.397
X129.794Y-138.547
X129.794Y-146.167
T2
X109.474Y-77.597
X109.474Y-80.137
X109.474Y-82.677
X109.474Y-85.217
X109.474Y-87.757
X109.474Y-90.297
X109.474Y-92.837
X109.474Y-95.377
X109.474Y-97.917
X109.474Y-100.457
X109.474Y-102.997
X109.474Y-105.537
X109.474Y-108.077
X109.474Y-110.617
X109.474Y-113.157
X109.474Y-115.697
X109.474Y-118.237
X109.474Y-120.777
X109.474Y-123.317
X109.474Y-125.857
X109.474Y-128.397
X109.474Y-130.937
X109.474Y-133.477
X109.474Y-136.017
X109.474Y-138.557
X109.474Y-141.097
X109.474Y-143.637
X109.474Y-146.177
X109.474Y-148.717
X109.474Y-151.257
X132.334Y-77.597
X132.334Y-80.137
X132.334Y-82.677
X132.334Y-85.217
X132.334Y-87.757
X132.334Y-90.297
X132.334Y-92.837
X132.334Y-95.377
X132.334Y-97.917
X132.334Y-100.457
X132.334Y-102.997
X132.334Y-105.537
X132.334Y-108.077
X132.334Y-110.617
X132.334Y-113.157
X132.334Y-115.697
X132.334Y-118.237
X132.334Y-120.777
X132.334Y-123.317
X132.334Y-125.857
X132.334Y-128.397
X132.334Y-130.937
X132.334Y-133.477
X132.334Y-136.017
X132.334Y-138.557
X132.334Y-141.097
X132.334Y-143.637
X132.334Y-146.177
X132.334Y-148.717
X132.334Y-151.257
T0
M30
