%TF.GenerationSoftware,KiCad,Pcbnew,7.0.6-0*%
%TF.CreationDate,2023-07-28T23:20:17-07:00*%
%TF.ProjectId,V501,56353031-2e6b-4696-9361-645f70636258,rev?*%
%TF.SameCoordinates,Original*%
%TF.FileFunction,Soldermask,Bot*%
%TF.FilePolarity,Negative*%
%FSLAX46Y46*%
G04 Gerber Fmt 4.6, Leading zero omitted, Abs format (unit mm)*
G04 Created by KiCad (PCBNEW 7.0.6-0) date 2023-07-28 23:20:17*
%MOMM*%
%LPD*%
G01*
G04 APERTURE LIST*
%ADD10O,1.700000X1.700000*%
%ADD11R,1.700000X1.700000*%
%ADD12C,1.600000*%
%ADD13R,1.600000X1.600000*%
%ADD14O,1.600000X1.600000*%
G04 APERTURE END LIST*
D10*
%TO.C,J2*%
X132334000Y-151257000D03*
X132334000Y-148717000D03*
X132334000Y-146177000D03*
X132334000Y-143637000D03*
X132334000Y-141097000D03*
X132334000Y-138557000D03*
X132334000Y-136017000D03*
X132334000Y-133477000D03*
X132334000Y-130937000D03*
X132334000Y-128397000D03*
X132334000Y-125857000D03*
X132334000Y-123317000D03*
X132334000Y-120777000D03*
X132334000Y-118237000D03*
X132334000Y-115697000D03*
X132334000Y-113157000D03*
X132334000Y-110617000D03*
X132334000Y-108077000D03*
X132334000Y-105537000D03*
X132334000Y-102997000D03*
X132334000Y-100457000D03*
X132334000Y-97917000D03*
X132334000Y-95377000D03*
X132334000Y-92837000D03*
X132334000Y-90297000D03*
X132334000Y-87757000D03*
X132334000Y-85217000D03*
X132334000Y-82677000D03*
X132334000Y-80137000D03*
D11*
X132334000Y-77597000D03*
%TD*%
D12*
%TO.C,C2*%
X112034000Y-100330000D03*
X114534000Y-100330000D03*
%TD*%
%TO.C,C1*%
X112034000Y-82550000D03*
X114534000Y-82550000D03*
%TD*%
%TO.C,C3*%
X111999000Y-118120000D03*
X114499000Y-118120000D03*
%TD*%
D13*
%TO.C,U1*%
X112014000Y-92837000D03*
D14*
X114554000Y-92837000D03*
X117094000Y-92837000D03*
X119634000Y-92837000D03*
X122174000Y-92837000D03*
X124714000Y-92837000D03*
X127254000Y-92837000D03*
X129794000Y-92837000D03*
X129794000Y-85217000D03*
X127254000Y-85217000D03*
X124714000Y-85217000D03*
X122174000Y-85217000D03*
X119634000Y-85217000D03*
X117094000Y-85217000D03*
X114554000Y-85217000D03*
X112014000Y-85217000D03*
%TD*%
D13*
%TO.C,U4*%
X112014000Y-146167000D03*
D14*
X114554000Y-146167000D03*
X117094000Y-146167000D03*
X119634000Y-146167000D03*
X122174000Y-146167000D03*
X124714000Y-146167000D03*
X127254000Y-146167000D03*
X129794000Y-146167000D03*
X129794000Y-138547000D03*
X127254000Y-138547000D03*
X124714000Y-138547000D03*
X122174000Y-138547000D03*
X119634000Y-138547000D03*
X117094000Y-138547000D03*
X114554000Y-138547000D03*
X112014000Y-138547000D03*
%TD*%
D13*
%TO.C,U2*%
X112014000Y-110617000D03*
D14*
X114554000Y-110617000D03*
X117094000Y-110617000D03*
X119634000Y-110617000D03*
X122174000Y-110617000D03*
X124714000Y-110617000D03*
X127254000Y-110617000D03*
X129794000Y-110617000D03*
X129794000Y-102997000D03*
X127254000Y-102997000D03*
X124714000Y-102997000D03*
X122174000Y-102997000D03*
X119634000Y-102997000D03*
X117094000Y-102997000D03*
X114554000Y-102997000D03*
X112014000Y-102997000D03*
%TD*%
D12*
%TO.C,C4*%
X111999000Y-135880000D03*
X114499000Y-135880000D03*
%TD*%
D13*
%TO.C,U3*%
X112014000Y-128397000D03*
D14*
X114554000Y-128397000D03*
X117094000Y-128397000D03*
X119634000Y-128397000D03*
X122174000Y-128397000D03*
X124714000Y-128397000D03*
X127254000Y-128397000D03*
X129794000Y-128397000D03*
X129794000Y-120777000D03*
X127254000Y-120777000D03*
X124714000Y-120777000D03*
X122174000Y-120777000D03*
X119634000Y-120777000D03*
X117094000Y-120777000D03*
X114554000Y-120777000D03*
X112014000Y-120777000D03*
%TD*%
D11*
%TO.C,J1*%
X109474000Y-77597000D03*
D10*
X109474000Y-80137000D03*
X109474000Y-82677000D03*
X109474000Y-85217000D03*
X109474000Y-87757000D03*
X109474000Y-90297000D03*
X109474000Y-92837000D03*
X109474000Y-95377000D03*
X109474000Y-97917000D03*
X109474000Y-100457000D03*
X109474000Y-102997000D03*
X109474000Y-105537000D03*
X109474000Y-108077000D03*
X109474000Y-110617000D03*
X109474000Y-113157000D03*
X109474000Y-115697000D03*
X109474000Y-118237000D03*
X109474000Y-120777000D03*
X109474000Y-123317000D03*
X109474000Y-125857000D03*
X109474000Y-128397000D03*
X109474000Y-130937000D03*
X109474000Y-133477000D03*
X109474000Y-136017000D03*
X109474000Y-138557000D03*
X109474000Y-141097000D03*
X109474000Y-143637000D03*
X109474000Y-146177000D03*
X109474000Y-148717000D03*
X109474000Y-151257000D03*
%TD*%
M02*
