%TF.GenerationSoftware,KiCad,Pcbnew,7.0.6-0*%
%TF.CreationDate,2023-07-28T22:16:22-07:00*%
%TF.ProjectId,V501,56353031-2e6b-4696-9361-645f70636258,rev?*%
%TF.SameCoordinates,Original*%
%TF.FileFunction,Copper,L2,Inr*%
%TF.FilePolarity,Positive*%
%FSLAX46Y46*%
G04 Gerber Fmt 4.6, Leading zero omitted, Abs format (unit mm)*
G04 Created by KiCad (PCBNEW 7.0.6-0) date 2023-07-28 22:16:22*
%MOMM*%
%LPD*%
G01*
G04 APERTURE LIST*
%TA.AperFunction,ComponentPad*%
%ADD10C,1.600000*%
%TD*%
%TA.AperFunction,ComponentPad*%
%ADD11R,1.600000X1.600000*%
%TD*%
%TA.AperFunction,ComponentPad*%
%ADD12O,1.600000X1.600000*%
%TD*%
%TA.AperFunction,ComponentPad*%
%ADD13R,1.700000X1.700000*%
%TD*%
%TA.AperFunction,ComponentPad*%
%ADD14O,1.700000X1.700000*%
%TD*%
%TA.AperFunction,Conductor*%
%ADD15C,0.250000*%
%TD*%
%TA.AperFunction,Conductor*%
%ADD16C,0.500000*%
%TD*%
G04 APERTURE END LIST*
D10*
%TO.N,VCC*%
%TO.C,C2*%
X112034000Y-100330000D03*
%TO.N,GND*%
X114534000Y-100330000D03*
%TD*%
%TO.N,VCC*%
%TO.C,C1*%
X112034000Y-82550000D03*
%TO.N,GND*%
X114534000Y-82550000D03*
%TD*%
%TO.N,VCC*%
%TO.C,C3*%
X111999000Y-118120000D03*
%TO.N,GND*%
X114499000Y-118120000D03*
%TD*%
D11*
%TO.N,/J1Bus6*%
%TO.C,U1*%
X112014000Y-92837000D03*
D12*
%TO.N,/J1Bus7*%
X114554000Y-92837000D03*
%TO.N,/J1Bus8*%
X117094000Y-92837000D03*
%TO.N,Rb*%
X119634000Y-92837000D03*
%TO.N,Ra*%
X122174000Y-92837000D03*
%TO.N,/J2Bus6*%
X124714000Y-92837000D03*
%TO.N,/J2Bus5*%
X127254000Y-92837000D03*
%TO.N,GND*%
X129794000Y-92837000D03*
%TO.N,/J2Bus4*%
X129794000Y-85217000D03*
%TO.N,/J2Bus3*%
X127254000Y-85217000D03*
%TO.N,~{Er}*%
X124714000Y-85217000D03*
%TO.N,~{Ew}*%
X122174000Y-85217000D03*
%TO.N,Wb*%
X119634000Y-85217000D03*
%TO.N,Wa*%
X117094000Y-85217000D03*
%TO.N,/J1Bus5*%
X114554000Y-85217000D03*
%TO.N,VCC*%
X112014000Y-85217000D03*
%TD*%
D11*
%TO.N,/J1Bus27*%
%TO.C,U4*%
X112014000Y-146167000D03*
D12*
%TO.N,/J1Bus28*%
X114554000Y-146167000D03*
%TO.N,/J1Bus29*%
X117094000Y-146167000D03*
%TO.N,Rb*%
X119634000Y-146167000D03*
%TO.N,Ra*%
X122174000Y-146167000D03*
%TO.N,/J2Bus27*%
X124714000Y-146167000D03*
%TO.N,/J2Bus26*%
X127254000Y-146167000D03*
%TO.N,GND*%
X129794000Y-146167000D03*
%TO.N,/J2Bus25*%
X129794000Y-138547000D03*
%TO.N,/J2Bus24*%
X127254000Y-138547000D03*
%TO.N,~{Er}*%
X124714000Y-138547000D03*
%TO.N,~{Ew}*%
X122174000Y-138547000D03*
%TO.N,Wb*%
X119634000Y-138547000D03*
%TO.N,Wa*%
X117094000Y-138547000D03*
%TO.N,/J1Bus26*%
X114554000Y-138547000D03*
%TO.N,VCC*%
X112014000Y-138547000D03*
%TD*%
D11*
%TO.N,/J1Bus13*%
%TO.C,U2*%
X112014000Y-110617000D03*
D12*
%TO.N,/J1Bus14*%
X114554000Y-110617000D03*
%TO.N,/J1Bus15*%
X117094000Y-110617000D03*
%TO.N,Rb*%
X119634000Y-110617000D03*
%TO.N,Ra*%
X122174000Y-110617000D03*
%TO.N,/J2Bus13*%
X124714000Y-110617000D03*
%TO.N,/J2Bus12*%
X127254000Y-110617000D03*
%TO.N,GND*%
X129794000Y-110617000D03*
%TO.N,/J2Bus11*%
X129794000Y-102997000D03*
%TO.N,/J2Bus10*%
X127254000Y-102997000D03*
%TO.N,~{Er}*%
X124714000Y-102997000D03*
%TO.N,~{Ew}*%
X122174000Y-102997000D03*
%TO.N,Wb*%
X119634000Y-102997000D03*
%TO.N,Wa*%
X117094000Y-102997000D03*
%TO.N,/J1Bus12*%
X114554000Y-102997000D03*
%TO.N,VCC*%
X112014000Y-102997000D03*
%TD*%
D10*
%TO.N,VCC*%
%TO.C,C4*%
X111999000Y-135880000D03*
%TO.N,GND*%
X114499000Y-135880000D03*
%TD*%
D11*
%TO.N,/J1Bus20*%
%TO.C,U3*%
X112014000Y-128397000D03*
D12*
%TO.N,/J1Bus21*%
X114554000Y-128397000D03*
%TO.N,/J1Bus22*%
X117094000Y-128397000D03*
%TO.N,Rb*%
X119634000Y-128397000D03*
%TO.N,Ra*%
X122174000Y-128397000D03*
%TO.N,/J2Bus20*%
X124714000Y-128397000D03*
%TO.N,/J2Bus19*%
X127254000Y-128397000D03*
%TO.N,GND*%
X129794000Y-128397000D03*
%TO.N,/J2Bus18*%
X129794000Y-120777000D03*
%TO.N,/J2Bus17*%
X127254000Y-120777000D03*
%TO.N,~{Er}*%
X124714000Y-120777000D03*
%TO.N,~{Ew}*%
X122174000Y-120777000D03*
%TO.N,Wb*%
X119634000Y-120777000D03*
%TO.N,Wa*%
X117094000Y-120777000D03*
%TO.N,/J1Bus19*%
X114554000Y-120777000D03*
%TO.N,VCC*%
X112014000Y-120777000D03*
%TD*%
D13*
%TO.N,Wa*%
%TO.C,J1*%
X109474000Y-77597000D03*
D14*
%TO.N,Wb*%
X109474000Y-80137000D03*
%TO.N,VCC*%
X109474000Y-82677000D03*
X109474000Y-85217000D03*
%TO.N,/J1Bus5*%
X109474000Y-87757000D03*
%TO.N,/J1Bus6*%
X109474000Y-90297000D03*
%TO.N,/J1Bus7*%
X109474000Y-92837000D03*
%TO.N,/J1Bus8*%
X109474000Y-95377000D03*
%TO.N,~{Ew}*%
X109474000Y-97917000D03*
%TO.N,VCC*%
X109474000Y-100457000D03*
X109474000Y-102997000D03*
%TO.N,/J1Bus12*%
X109474000Y-105537000D03*
%TO.N,/J1Bus13*%
X109474000Y-108077000D03*
%TO.N,/J1Bus14*%
X109474000Y-110617000D03*
%TO.N,/J1Bus15*%
X109474000Y-113157000D03*
%TO.N,/J1Bus16*%
X109474000Y-115697000D03*
%TO.N,VCC*%
X109474000Y-118237000D03*
X109474000Y-120777000D03*
%TO.N,/J1Bus19*%
X109474000Y-123317000D03*
%TO.N,/J1Bus20*%
X109474000Y-125857000D03*
%TO.N,/J1Bus21*%
X109474000Y-128397000D03*
%TO.N,/J1Bus22*%
X109474000Y-130937000D03*
%TO.N,Rb*%
X109474000Y-133477000D03*
%TO.N,VCC*%
X109474000Y-136017000D03*
X109474000Y-138557000D03*
%TO.N,/J1Bus26*%
X109474000Y-141097000D03*
%TO.N,/J1Bus27*%
X109474000Y-143637000D03*
%TO.N,/J1Bus28*%
X109474000Y-146177000D03*
%TO.N,/J1Bus29*%
X109474000Y-148717000D03*
%TO.N,VCC*%
X109474000Y-151257000D03*
%TD*%
D13*
%TO.N,GND*%
%TO.C,J2*%
X132334000Y-77597000D03*
D14*
X132334000Y-80137000D03*
%TO.N,/J2Bus3*%
X132334000Y-82677000D03*
%TO.N,/J2Bus4*%
X132334000Y-85217000D03*
%TO.N,/J2Bus5*%
X132334000Y-87757000D03*
%TO.N,/J2Bus6*%
X132334000Y-90297000D03*
%TO.N,GND*%
X132334000Y-92837000D03*
X132334000Y-95377000D03*
%TO.N,~{Er}*%
X132334000Y-97917000D03*
%TO.N,/J2Bus10*%
X132334000Y-100457000D03*
%TO.N,/J2Bus11*%
X132334000Y-102997000D03*
%TO.N,/J2Bus12*%
X132334000Y-105537000D03*
%TO.N,/J2Bus13*%
X132334000Y-108077000D03*
%TO.N,GND*%
X132334000Y-110617000D03*
X132334000Y-113157000D03*
%TO.N,/J2Bus16*%
X132334000Y-115697000D03*
%TO.N,/J2Bus17*%
X132334000Y-118237000D03*
%TO.N,/J2Bus18*%
X132334000Y-120777000D03*
%TO.N,/J2Bus19*%
X132334000Y-123317000D03*
%TO.N,/J2Bus20*%
X132334000Y-125857000D03*
%TO.N,GND*%
X132334000Y-128397000D03*
X132334000Y-130937000D03*
%TO.N,/J2Bus23*%
X132334000Y-133477000D03*
%TO.N,/J2Bus24*%
X132334000Y-136017000D03*
%TO.N,/J2Bus25*%
X132334000Y-138557000D03*
%TO.N,/J2Bus26*%
X132334000Y-141097000D03*
%TO.N,/J2Bus27*%
X132334000Y-143637000D03*
%TO.N,GND*%
X132334000Y-146177000D03*
X132334000Y-148717000D03*
%TO.N,Ra*%
X132334000Y-151257000D03*
%TD*%
D15*
%TO.N,VCC*%
X109484000Y-136017000D02*
X109474000Y-136017000D01*
X113139000Y-139672000D02*
X113139000Y-147592000D01*
D16*
X109474000Y-151257000D02*
X110299500Y-150431500D01*
X109474000Y-151257000D02*
X110490000Y-152273000D01*
X109474000Y-100457000D02*
X109474000Y-102997000D01*
X109474000Y-100457000D02*
X110744000Y-99187000D01*
X109474000Y-82677000D02*
X111907000Y-82677000D01*
X111999000Y-135880000D02*
X109474000Y-138405000D01*
X109474000Y-102997000D02*
X110744000Y-104267000D01*
X109474000Y-82677000D02*
X112014000Y-85217000D01*
D15*
X113139000Y-147592000D02*
X110299500Y-150431500D01*
D16*
X113304000Y-99060000D02*
X112034000Y-100330000D01*
X112034000Y-82550000D02*
X109474000Y-85110000D01*
X112014000Y-85217000D02*
X113304000Y-86507000D01*
D15*
X109474000Y-85110000D02*
X109474000Y-85217000D01*
X111907000Y-82677000D02*
X112034000Y-82550000D01*
D16*
X112014000Y-120777000D02*
X109474000Y-118237000D01*
X109474000Y-100457000D02*
X111907000Y-100457000D01*
X109474000Y-120777000D02*
X110490000Y-121793000D01*
D15*
X113139000Y-116980000D02*
X111999000Y-118120000D01*
D16*
X110299500Y-150431500D02*
X110553500Y-150177500D01*
X112014000Y-138547000D02*
X109484000Y-136017000D01*
D15*
X113139000Y-101435000D02*
X113139000Y-116980000D01*
X109474000Y-102890000D02*
X109474000Y-102997000D01*
D16*
X112014000Y-120777000D02*
X113304000Y-122067000D01*
D15*
X111999000Y-118252000D02*
X111999000Y-118120000D01*
D16*
X109474000Y-136017000D02*
X110871000Y-134620000D01*
X112014000Y-102997000D02*
X112014000Y-100350000D01*
X109474000Y-82677000D02*
X110744000Y-81407000D01*
X109474000Y-100457000D02*
X112014000Y-102997000D01*
D15*
X112014000Y-118135000D02*
X111999000Y-118120000D01*
X112014000Y-138547000D02*
X113139000Y-139672000D01*
X111907000Y-100457000D02*
X112034000Y-100330000D01*
X112034000Y-100330000D02*
X113139000Y-101435000D01*
D16*
X112014000Y-85217000D02*
X112014000Y-82570000D01*
D15*
X111862000Y-136017000D02*
X111999000Y-135880000D01*
D16*
X109474000Y-118237000D02*
X110617000Y-117094000D01*
X112014000Y-120777000D02*
X112014000Y-118135000D01*
X109474000Y-136017000D02*
X109474000Y-138557000D01*
X109474000Y-136017000D02*
X111862000Y-136017000D01*
D15*
X109474000Y-138405000D02*
X109474000Y-138557000D01*
D16*
X109474000Y-120777000D02*
X111999000Y-118252000D01*
D15*
X113304000Y-122067000D02*
X113304000Y-134575000D01*
X112014000Y-100350000D02*
X112034000Y-100330000D01*
X111882000Y-118237000D02*
X111999000Y-118120000D01*
D16*
X113304000Y-134575000D02*
X111999000Y-135880000D01*
X109474000Y-118237000D02*
X111882000Y-118237000D01*
D15*
X111999000Y-138532000D02*
X112014000Y-138547000D01*
D16*
X109474000Y-138557000D02*
X110871000Y-139954000D01*
X112034000Y-100330000D02*
X109474000Y-102890000D01*
X109474000Y-85217000D02*
X110680500Y-86423500D01*
X109474000Y-120777000D02*
X109474000Y-118237000D01*
X111999000Y-135880000D02*
X111999000Y-138532000D01*
D15*
X112014000Y-82570000D02*
X112034000Y-82550000D01*
X113304000Y-86507000D02*
X113304000Y-99060000D01*
%TD*%
%TA.AperFunction,Conductor*%
%TO.N,VCC*%
G36*
X128577892Y-146811625D02*
G01*
X128666819Y-146850753D01*
X128727968Y-146911902D01*
X128793953Y-147006139D01*
X128954861Y-147167047D01*
X128954864Y-147167049D01*
X128954865Y-147167050D01*
X129141258Y-147297563D01*
X129141262Y-147297565D01*
X129141266Y-147297568D01*
X129141270Y-147297569D01*
X129141272Y-147297571D01*
X129174808Y-147313209D01*
X129347504Y-147393739D01*
X129567308Y-147452635D01*
X129586984Y-147454356D01*
X129793994Y-147472468D01*
X129794000Y-147472468D01*
X129794006Y-147472468D01*
X129973668Y-147456749D01*
X130020692Y-147452635D01*
X130240496Y-147393739D01*
X130446734Y-147297568D01*
X130633139Y-147167047D01*
X130794047Y-147006139D01*
X130826009Y-146960491D01*
X130896190Y-146893306D01*
X130986739Y-146858092D01*
X131083871Y-146860211D01*
X131172798Y-146899339D01*
X131233944Y-146960483D01*
X131295505Y-147048401D01*
X131462599Y-147215495D01*
X131501925Y-147243031D01*
X131569107Y-147313209D01*
X131604321Y-147403758D01*
X131602202Y-147500890D01*
X131563074Y-147589818D01*
X131501928Y-147650965D01*
X131462603Y-147678501D01*
X131295504Y-147845600D01*
X131159965Y-148039169D01*
X131159961Y-148039177D01*
X131060098Y-148253333D01*
X131060097Y-148253335D01*
X130998935Y-148481598D01*
X130978341Y-148716994D01*
X130978341Y-148717005D01*
X130998935Y-148952401D01*
X130998937Y-148952408D01*
X131060097Y-149180663D01*
X131159965Y-149394830D01*
X131295505Y-149588401D01*
X131462599Y-149755495D01*
X131501925Y-149783031D01*
X131569107Y-149853209D01*
X131604321Y-149943758D01*
X131602202Y-150040890D01*
X131563074Y-150129818D01*
X131501928Y-150190965D01*
X131462603Y-150218501D01*
X131295504Y-150385600D01*
X131159965Y-150579169D01*
X131159961Y-150579177D01*
X131060098Y-150793333D01*
X131060097Y-150793335D01*
X130998935Y-151021598D01*
X130978341Y-151256994D01*
X130978341Y-151257005D01*
X130998935Y-151492401D01*
X131049724Y-151681952D01*
X131060097Y-151720663D01*
X131159965Y-151934830D01*
X131295505Y-152128401D01*
X131295508Y-152128404D01*
X131300252Y-152135179D01*
X131339381Y-152224106D01*
X131341500Y-152321238D01*
X131306288Y-152411788D01*
X131239104Y-152481969D01*
X131150177Y-152521098D01*
X131096283Y-152527000D01*
X110711106Y-152527000D01*
X110615818Y-152508046D01*
X110535036Y-152454070D01*
X110481060Y-152373288D01*
X110462106Y-152278000D01*
X110481060Y-152182712D01*
X110507137Y-152135179D01*
X110647600Y-151934576D01*
X110747433Y-151720485D01*
X110747433Y-151720483D01*
X110804636Y-151507001D01*
X110804636Y-151507000D01*
X109907686Y-151507000D01*
X109933493Y-151466844D01*
X109974000Y-151328889D01*
X109974000Y-151185111D01*
X109933493Y-151047156D01*
X109907686Y-151007000D01*
X110804636Y-151007000D01*
X110804636Y-151006998D01*
X110747433Y-150793516D01*
X110747429Y-150793505D01*
X110647603Y-150579428D01*
X110647599Y-150579420D01*
X110512110Y-150385923D01*
X110345075Y-150218888D01*
X110305637Y-150191273D01*
X110238454Y-150121091D01*
X110203242Y-150030542D01*
X110205362Y-149933410D01*
X110244491Y-149844483D01*
X110305636Y-149783338D01*
X110345401Y-149755495D01*
X110512495Y-149588401D01*
X110648035Y-149394830D01*
X110747903Y-149180663D01*
X110809063Y-148952408D01*
X110829659Y-148717000D01*
X110829659Y-148716994D01*
X110809064Y-148481598D01*
X110809063Y-148481595D01*
X110809063Y-148481592D01*
X110747903Y-148253337D01*
X110648035Y-148039171D01*
X110512495Y-147845599D01*
X110345401Y-147678505D01*
X110306074Y-147650967D01*
X110238891Y-147580789D01*
X110203678Y-147490240D01*
X110205797Y-147393108D01*
X110244925Y-147304181D01*
X110306073Y-147243032D01*
X110345401Y-147215495D01*
X110387786Y-147173109D01*
X110468564Y-147119135D01*
X110563852Y-147100180D01*
X110659140Y-147119133D01*
X110739922Y-147173109D01*
X110763188Y-147199959D01*
X110836260Y-147297571D01*
X110856454Y-147324546D01*
X110971669Y-147410796D01*
X111106517Y-147461091D01*
X111166127Y-147467500D01*
X112861872Y-147467499D01*
X112921483Y-147461091D01*
X113056331Y-147410796D01*
X113171546Y-147324546D01*
X113257796Y-147209331D01*
X113258043Y-147208666D01*
X113259037Y-147207058D01*
X113266330Y-147193702D01*
X113267045Y-147194092D01*
X113309094Y-147126011D01*
X113387894Y-147069181D01*
X113482443Y-147046831D01*
X113578348Y-147062366D01*
X113661008Y-147113419D01*
X113667388Y-147119574D01*
X113714861Y-147167047D01*
X113714864Y-147167049D01*
X113714865Y-147167050D01*
X113901258Y-147297563D01*
X113901262Y-147297565D01*
X113901266Y-147297568D01*
X113901270Y-147297569D01*
X113901272Y-147297571D01*
X113934808Y-147313209D01*
X114107504Y-147393739D01*
X114327308Y-147452635D01*
X114346984Y-147454356D01*
X114553994Y-147472468D01*
X114554000Y-147472468D01*
X114554006Y-147472468D01*
X114733668Y-147456749D01*
X114780692Y-147452635D01*
X115000496Y-147393739D01*
X115206734Y-147297568D01*
X115393139Y-147167047D01*
X115554047Y-147006139D01*
X115620031Y-146911902D01*
X115690211Y-146844719D01*
X115780760Y-146809506D01*
X115877892Y-146811625D01*
X115966819Y-146850753D01*
X116027968Y-146911902D01*
X116093953Y-147006139D01*
X116254861Y-147167047D01*
X116254864Y-147167049D01*
X116254865Y-147167050D01*
X116441258Y-147297563D01*
X116441262Y-147297565D01*
X116441266Y-147297568D01*
X116441270Y-147297569D01*
X116441272Y-147297571D01*
X116474808Y-147313209D01*
X116647504Y-147393739D01*
X116867308Y-147452635D01*
X116886984Y-147454356D01*
X117093994Y-147472468D01*
X117094000Y-147472468D01*
X117094006Y-147472468D01*
X117273668Y-147456749D01*
X117320692Y-147452635D01*
X117540496Y-147393739D01*
X117746734Y-147297568D01*
X117933139Y-147167047D01*
X118094047Y-147006139D01*
X118160031Y-146911902D01*
X118230211Y-146844719D01*
X118320760Y-146809506D01*
X118417892Y-146811625D01*
X118506819Y-146850753D01*
X118567968Y-146911902D01*
X118633953Y-147006139D01*
X118794861Y-147167047D01*
X118794864Y-147167049D01*
X118794865Y-147167050D01*
X118981258Y-147297563D01*
X118981262Y-147297565D01*
X118981266Y-147297568D01*
X118981270Y-147297569D01*
X118981272Y-147297571D01*
X119014808Y-147313209D01*
X119187504Y-147393739D01*
X119407308Y-147452635D01*
X119426984Y-147454356D01*
X119633994Y-147472468D01*
X119634000Y-147472468D01*
X119634006Y-147472468D01*
X119813668Y-147456749D01*
X119860692Y-147452635D01*
X120080496Y-147393739D01*
X120286734Y-147297568D01*
X120473139Y-147167047D01*
X120634047Y-147006139D01*
X120700031Y-146911902D01*
X120770211Y-146844719D01*
X120860760Y-146809506D01*
X120957892Y-146811625D01*
X121046819Y-146850753D01*
X121107968Y-146911902D01*
X121173953Y-147006139D01*
X121334861Y-147167047D01*
X121334864Y-147167049D01*
X121334865Y-147167050D01*
X121521258Y-147297563D01*
X121521262Y-147297565D01*
X121521266Y-147297568D01*
X121521270Y-147297569D01*
X121521272Y-147297571D01*
X121554808Y-147313209D01*
X121727504Y-147393739D01*
X121947308Y-147452635D01*
X121966984Y-147454356D01*
X122173994Y-147472468D01*
X122174000Y-147472468D01*
X122174006Y-147472468D01*
X122353668Y-147456749D01*
X122400692Y-147452635D01*
X122620496Y-147393739D01*
X122826734Y-147297568D01*
X123013139Y-147167047D01*
X123174047Y-147006139D01*
X123240031Y-146911902D01*
X123310211Y-146844719D01*
X123400760Y-146809506D01*
X123497892Y-146811625D01*
X123586819Y-146850753D01*
X123647968Y-146911902D01*
X123713953Y-147006139D01*
X123874861Y-147167047D01*
X123874864Y-147167049D01*
X123874865Y-147167050D01*
X124061258Y-147297563D01*
X124061262Y-147297565D01*
X124061266Y-147297568D01*
X124061270Y-147297569D01*
X124061272Y-147297571D01*
X124094808Y-147313209D01*
X124267504Y-147393739D01*
X124487308Y-147452635D01*
X124506984Y-147454356D01*
X124713994Y-147472468D01*
X124714000Y-147472468D01*
X124714006Y-147472468D01*
X124893668Y-147456749D01*
X124940692Y-147452635D01*
X125160496Y-147393739D01*
X125366734Y-147297568D01*
X125553139Y-147167047D01*
X125714047Y-147006139D01*
X125780031Y-146911902D01*
X125850211Y-146844719D01*
X125940760Y-146809506D01*
X126037892Y-146811625D01*
X126126819Y-146850753D01*
X126187968Y-146911902D01*
X126253953Y-147006139D01*
X126414861Y-147167047D01*
X126414864Y-147167049D01*
X126414865Y-147167050D01*
X126601258Y-147297563D01*
X126601262Y-147297565D01*
X126601266Y-147297568D01*
X126601270Y-147297569D01*
X126601272Y-147297571D01*
X126634808Y-147313209D01*
X126807504Y-147393739D01*
X127027308Y-147452635D01*
X127046984Y-147454356D01*
X127253994Y-147472468D01*
X127254000Y-147472468D01*
X127254006Y-147472468D01*
X127433668Y-147456749D01*
X127480692Y-147452635D01*
X127700496Y-147393739D01*
X127906734Y-147297568D01*
X128093139Y-147167047D01*
X128254047Y-147006139D01*
X128320031Y-146911902D01*
X128390211Y-146844719D01*
X128480760Y-146809506D01*
X128577892Y-146811625D01*
G37*
%TD.AperFunction*%
%TA.AperFunction,Conductor*%
G36*
X112264000Y-139825871D02*
G01*
X112460323Y-139773267D01*
X112666483Y-139677133D01*
X112852812Y-139546664D01*
X113013663Y-139385813D01*
X113079724Y-139291468D01*
X113149905Y-139224283D01*
X113240454Y-139189070D01*
X113337586Y-139191189D01*
X113426513Y-139230317D01*
X113487663Y-139291467D01*
X113553949Y-139386134D01*
X113553953Y-139386139D01*
X113714861Y-139547047D01*
X113714864Y-139547049D01*
X113714865Y-139547050D01*
X113901258Y-139677563D01*
X113901262Y-139677565D01*
X113901266Y-139677568D01*
X114107504Y-139773739D01*
X114327308Y-139832635D01*
X114346984Y-139834356D01*
X114553994Y-139852468D01*
X114554000Y-139852468D01*
X114554006Y-139852468D01*
X114733668Y-139836749D01*
X114780692Y-139832635D01*
X115000496Y-139773739D01*
X115206734Y-139677568D01*
X115393139Y-139547047D01*
X115554047Y-139386139D01*
X115620031Y-139291902D01*
X115690211Y-139224719D01*
X115780760Y-139189506D01*
X115877892Y-139191625D01*
X115966819Y-139230753D01*
X116027968Y-139291902D01*
X116093953Y-139386139D01*
X116254861Y-139547047D01*
X116254864Y-139547049D01*
X116254865Y-139547050D01*
X116441258Y-139677563D01*
X116441262Y-139677565D01*
X116441266Y-139677568D01*
X116647504Y-139773739D01*
X116867308Y-139832635D01*
X116886984Y-139834356D01*
X117093994Y-139852468D01*
X117094000Y-139852468D01*
X117094006Y-139852468D01*
X117273668Y-139836749D01*
X117320692Y-139832635D01*
X117540496Y-139773739D01*
X117746734Y-139677568D01*
X117933139Y-139547047D01*
X118094047Y-139386139D01*
X118160031Y-139291902D01*
X118230211Y-139224719D01*
X118320760Y-139189506D01*
X118417892Y-139191625D01*
X118506819Y-139230753D01*
X118567968Y-139291902D01*
X118633953Y-139386139D01*
X118794861Y-139547047D01*
X118794864Y-139547049D01*
X118794865Y-139547050D01*
X118981258Y-139677563D01*
X118981262Y-139677565D01*
X118981266Y-139677568D01*
X119187504Y-139773739D01*
X119407308Y-139832635D01*
X119426984Y-139834356D01*
X119633994Y-139852468D01*
X119634000Y-139852468D01*
X119634006Y-139852468D01*
X119813668Y-139836749D01*
X119860692Y-139832635D01*
X120080496Y-139773739D01*
X120286734Y-139677568D01*
X120473139Y-139547047D01*
X120634047Y-139386139D01*
X120700031Y-139291902D01*
X120770211Y-139224719D01*
X120860760Y-139189506D01*
X120957892Y-139191625D01*
X121046819Y-139230753D01*
X121107968Y-139291902D01*
X121173953Y-139386139D01*
X121334861Y-139547047D01*
X121334864Y-139547049D01*
X121334865Y-139547050D01*
X121521258Y-139677563D01*
X121521262Y-139677565D01*
X121521266Y-139677568D01*
X121727504Y-139773739D01*
X121947308Y-139832635D01*
X121966984Y-139834356D01*
X122173994Y-139852468D01*
X122174000Y-139852468D01*
X122174006Y-139852468D01*
X122353668Y-139836749D01*
X122400692Y-139832635D01*
X122620496Y-139773739D01*
X122826734Y-139677568D01*
X123013139Y-139547047D01*
X123174047Y-139386139D01*
X123240031Y-139291902D01*
X123310211Y-139224719D01*
X123400760Y-139189506D01*
X123497892Y-139191625D01*
X123586819Y-139230753D01*
X123647968Y-139291902D01*
X123713953Y-139386139D01*
X123874861Y-139547047D01*
X123874864Y-139547049D01*
X123874865Y-139547050D01*
X124061258Y-139677563D01*
X124061262Y-139677565D01*
X124061266Y-139677568D01*
X124267504Y-139773739D01*
X124487308Y-139832635D01*
X124506984Y-139834356D01*
X124713994Y-139852468D01*
X124714000Y-139852468D01*
X124714006Y-139852468D01*
X124893668Y-139836749D01*
X124940692Y-139832635D01*
X125160496Y-139773739D01*
X125366734Y-139677568D01*
X125553139Y-139547047D01*
X125714047Y-139386139D01*
X125780031Y-139291902D01*
X125850211Y-139224719D01*
X125940760Y-139189506D01*
X126037892Y-139191625D01*
X126126819Y-139230753D01*
X126187968Y-139291902D01*
X126253953Y-139386139D01*
X126414861Y-139547047D01*
X126414864Y-139547049D01*
X126414865Y-139547050D01*
X126601258Y-139677563D01*
X126601262Y-139677565D01*
X126601266Y-139677568D01*
X126807504Y-139773739D01*
X127027308Y-139832635D01*
X127046984Y-139834356D01*
X127253994Y-139852468D01*
X127254000Y-139852468D01*
X127254006Y-139852468D01*
X127433668Y-139836749D01*
X127480692Y-139832635D01*
X127700496Y-139773739D01*
X127906734Y-139677568D01*
X128093139Y-139547047D01*
X128254047Y-139386139D01*
X128320031Y-139291902D01*
X128390211Y-139224719D01*
X128480760Y-139189506D01*
X128577892Y-139191625D01*
X128666819Y-139230753D01*
X128727968Y-139291902D01*
X128793953Y-139386139D01*
X128954861Y-139547047D01*
X128954864Y-139547049D01*
X128954865Y-139547050D01*
X129141258Y-139677563D01*
X129141262Y-139677565D01*
X129141266Y-139677568D01*
X129347504Y-139773739D01*
X129567308Y-139832635D01*
X129586984Y-139834356D01*
X129793994Y-139852468D01*
X129794000Y-139852468D01*
X129794006Y-139852468D01*
X129973668Y-139836749D01*
X130020692Y-139832635D01*
X130240496Y-139773739D01*
X130446734Y-139677568D01*
X130633139Y-139547047D01*
X130794047Y-139386139D01*
X130826009Y-139340491D01*
X130896190Y-139273306D01*
X130986739Y-139238092D01*
X131083871Y-139240211D01*
X131172798Y-139279339D01*
X131233944Y-139340483D01*
X131295505Y-139428401D01*
X131462599Y-139595495D01*
X131501925Y-139623031D01*
X131569107Y-139693209D01*
X131604321Y-139783758D01*
X131602202Y-139880890D01*
X131563074Y-139969818D01*
X131501928Y-140030965D01*
X131462603Y-140058501D01*
X131295504Y-140225600D01*
X131159965Y-140419169D01*
X131159961Y-140419177D01*
X131060098Y-140633333D01*
X131060097Y-140633335D01*
X130998935Y-140861598D01*
X130978341Y-141096994D01*
X130978341Y-141097005D01*
X130998935Y-141332401D01*
X130998937Y-141332408D01*
X131060097Y-141560663D01*
X131159965Y-141774830D01*
X131295505Y-141968401D01*
X131462599Y-142135495D01*
X131501925Y-142163031D01*
X131569107Y-142233209D01*
X131604321Y-142323758D01*
X131602202Y-142420890D01*
X131563074Y-142509818D01*
X131501928Y-142570965D01*
X131462603Y-142598501D01*
X131295504Y-142765600D01*
X131159965Y-142959169D01*
X131159961Y-142959177D01*
X131060098Y-143173333D01*
X131060097Y-143173335D01*
X130998935Y-143401598D01*
X130978341Y-143636994D01*
X130978341Y-143637005D01*
X130998935Y-143872401D01*
X130998937Y-143872408D01*
X131060097Y-144100663D01*
X131159965Y-144314830D01*
X131295505Y-144508401D01*
X131462599Y-144675495D01*
X131501925Y-144703031D01*
X131569107Y-144773209D01*
X131604321Y-144863758D01*
X131602202Y-144960890D01*
X131563074Y-145049818D01*
X131501928Y-145110965D01*
X131462603Y-145138501D01*
X131295503Y-145305601D01*
X131240949Y-145383512D01*
X131170767Y-145450696D01*
X131080217Y-145485907D01*
X130983086Y-145483787D01*
X130894159Y-145444658D01*
X130833013Y-145383511D01*
X130794047Y-145327861D01*
X130633139Y-145166953D01*
X130633135Y-145166950D01*
X130633134Y-145166949D01*
X130446741Y-145036436D01*
X130446727Y-145036428D01*
X130240499Y-144940262D01*
X130240496Y-144940261D01*
X130020694Y-144881365D01*
X130020679Y-144881363D01*
X129794006Y-144861532D01*
X129793994Y-144861532D01*
X129567320Y-144881363D01*
X129567305Y-144881365D01*
X129347503Y-144940261D01*
X129347500Y-144940262D01*
X129141272Y-145036428D01*
X129141258Y-145036436D01*
X128954865Y-145166949D01*
X128793949Y-145327865D01*
X128727969Y-145422096D01*
X128657788Y-145489280D01*
X128567239Y-145524493D01*
X128470107Y-145522374D01*
X128381180Y-145483245D01*
X128320031Y-145422096D01*
X128254050Y-145327865D01*
X128254049Y-145327864D01*
X128254047Y-145327861D01*
X128093139Y-145166953D01*
X128093135Y-145166950D01*
X128093134Y-145166949D01*
X127906741Y-145036436D01*
X127906727Y-145036428D01*
X127700499Y-144940262D01*
X127700496Y-144940261D01*
X127480694Y-144881365D01*
X127480679Y-144881363D01*
X127254006Y-144861532D01*
X127253994Y-144861532D01*
X127027320Y-144881363D01*
X127027305Y-144881365D01*
X126807503Y-144940261D01*
X126807500Y-144940262D01*
X126601272Y-145036428D01*
X126601258Y-145036436D01*
X126414865Y-145166949D01*
X126253949Y-145327865D01*
X126187969Y-145422096D01*
X126117788Y-145489280D01*
X126027239Y-145524493D01*
X125930107Y-145522374D01*
X125841180Y-145483245D01*
X125780031Y-145422096D01*
X125714050Y-145327865D01*
X125714049Y-145327864D01*
X125714047Y-145327861D01*
X125553139Y-145166953D01*
X125553135Y-145166950D01*
X125553134Y-145166949D01*
X125366741Y-145036436D01*
X125366727Y-145036428D01*
X125160499Y-144940262D01*
X125160496Y-144940261D01*
X124940694Y-144881365D01*
X124940679Y-144881363D01*
X124714006Y-144861532D01*
X124713994Y-144861532D01*
X124487320Y-144881363D01*
X124487305Y-144881365D01*
X124267503Y-144940261D01*
X124267500Y-144940262D01*
X124061272Y-145036428D01*
X124061258Y-145036436D01*
X123874865Y-145166949D01*
X123713949Y-145327865D01*
X123647969Y-145422096D01*
X123577788Y-145489280D01*
X123487239Y-145524493D01*
X123390107Y-145522374D01*
X123301180Y-145483245D01*
X123240031Y-145422096D01*
X123174050Y-145327865D01*
X123174049Y-145327864D01*
X123174047Y-145327861D01*
X123013139Y-145166953D01*
X123013135Y-145166950D01*
X123013134Y-145166949D01*
X122826741Y-145036436D01*
X122826727Y-145036428D01*
X122620499Y-144940262D01*
X122620496Y-144940261D01*
X122400694Y-144881365D01*
X122400679Y-144881363D01*
X122174006Y-144861532D01*
X122173994Y-144861532D01*
X121947320Y-144881363D01*
X121947305Y-144881365D01*
X121727503Y-144940261D01*
X121727500Y-144940262D01*
X121521272Y-145036428D01*
X121521258Y-145036436D01*
X121334865Y-145166949D01*
X121173949Y-145327865D01*
X121107969Y-145422096D01*
X121037788Y-145489280D01*
X120947239Y-145524493D01*
X120850107Y-145522374D01*
X120761180Y-145483245D01*
X120700031Y-145422096D01*
X120634050Y-145327865D01*
X120634049Y-145327864D01*
X120634047Y-145327861D01*
X120473139Y-145166953D01*
X120473135Y-145166950D01*
X120473134Y-145166949D01*
X120286741Y-145036436D01*
X120286727Y-145036428D01*
X120080499Y-144940262D01*
X120080496Y-144940261D01*
X119860694Y-144881365D01*
X119860679Y-144881363D01*
X119634006Y-144861532D01*
X119633994Y-144861532D01*
X119407320Y-144881363D01*
X119407305Y-144881365D01*
X119187503Y-144940261D01*
X119187500Y-144940262D01*
X118981272Y-145036428D01*
X118981258Y-145036436D01*
X118794865Y-145166949D01*
X118633949Y-145327865D01*
X118567969Y-145422096D01*
X118497788Y-145489280D01*
X118407239Y-145524493D01*
X118310107Y-145522374D01*
X118221180Y-145483245D01*
X118160031Y-145422096D01*
X118094050Y-145327865D01*
X118094049Y-145327864D01*
X118094047Y-145327861D01*
X117933139Y-145166953D01*
X117933135Y-145166950D01*
X117933134Y-145166949D01*
X117746741Y-145036436D01*
X117746727Y-145036428D01*
X117540499Y-144940262D01*
X117540496Y-144940261D01*
X117320694Y-144881365D01*
X117320679Y-144881363D01*
X117094006Y-144861532D01*
X117093994Y-144861532D01*
X116867320Y-144881363D01*
X116867305Y-144881365D01*
X116647503Y-144940261D01*
X116647500Y-144940262D01*
X116441272Y-145036428D01*
X116441258Y-145036436D01*
X116254865Y-145166949D01*
X116093949Y-145327865D01*
X116027969Y-145422096D01*
X115957788Y-145489280D01*
X115867239Y-145524493D01*
X115770107Y-145522374D01*
X115681180Y-145483245D01*
X115620031Y-145422096D01*
X115554050Y-145327865D01*
X115554049Y-145327864D01*
X115554047Y-145327861D01*
X115393139Y-145166953D01*
X115393135Y-145166950D01*
X115393134Y-145166949D01*
X115206741Y-145036436D01*
X115206727Y-145036428D01*
X115000499Y-144940262D01*
X115000496Y-144940261D01*
X114780694Y-144881365D01*
X114780679Y-144881363D01*
X114554006Y-144861532D01*
X114553994Y-144861532D01*
X114327320Y-144881363D01*
X114327305Y-144881365D01*
X114107503Y-144940261D01*
X114107500Y-144940262D01*
X113901272Y-145036428D01*
X113901258Y-145036436D01*
X113714861Y-145166952D01*
X113667415Y-145214398D01*
X113586633Y-145268374D01*
X113491345Y-145287327D01*
X113396057Y-145268372D01*
X113315276Y-145214395D01*
X113261300Y-145133613D01*
X113258066Y-145125394D01*
X113257796Y-145124669D01*
X113171546Y-145009454D01*
X113056331Y-144923204D01*
X112944155Y-144881365D01*
X112921481Y-144872908D01*
X112861873Y-144866500D01*
X111166134Y-144866500D01*
X111166130Y-144866500D01*
X111166128Y-144866501D01*
X111153313Y-144867878D01*
X111106519Y-144872908D01*
X111106515Y-144872909D01*
X110971670Y-144923203D01*
X110935554Y-144950240D01*
X110856454Y-145009454D01*
X110770206Y-145124667D01*
X110759531Y-145138927D01*
X110757302Y-145137258D01*
X110712373Y-145191010D01*
X110626281Y-145236035D01*
X110529512Y-145244686D01*
X110436798Y-145215647D01*
X110380083Y-145173187D01*
X110345401Y-145138505D01*
X110306074Y-145110967D01*
X110238891Y-145040789D01*
X110203678Y-144950240D01*
X110205797Y-144853108D01*
X110244925Y-144764181D01*
X110306073Y-144703032D01*
X110345401Y-144675495D01*
X110512495Y-144508401D01*
X110648035Y-144314830D01*
X110747903Y-144100663D01*
X110809063Y-143872408D01*
X110829659Y-143637000D01*
X110829659Y-143636994D01*
X110809064Y-143401598D01*
X110809063Y-143401595D01*
X110809063Y-143401592D01*
X110747903Y-143173337D01*
X110648035Y-142959171D01*
X110512495Y-142765599D01*
X110345401Y-142598505D01*
X110306074Y-142570967D01*
X110238891Y-142500789D01*
X110203678Y-142410240D01*
X110205797Y-142313108D01*
X110244925Y-142224181D01*
X110306073Y-142163032D01*
X110345401Y-142135495D01*
X110512495Y-141968401D01*
X110648035Y-141774830D01*
X110747903Y-141560663D01*
X110809063Y-141332408D01*
X110829659Y-141097000D01*
X110829659Y-141096994D01*
X110809064Y-140861598D01*
X110809063Y-140861595D01*
X110809063Y-140861592D01*
X110747903Y-140633337D01*
X110648035Y-140419171D01*
X110512495Y-140225599D01*
X110345401Y-140058505D01*
X110345397Y-140058502D01*
X110345396Y-140058501D01*
X110305638Y-140030662D01*
X110238454Y-139960481D01*
X110203242Y-139869931D01*
X110205362Y-139772800D01*
X110244491Y-139683873D01*
X110305640Y-139622724D01*
X110345075Y-139595111D01*
X110512112Y-139428074D01*
X110574051Y-139339617D01*
X110644232Y-139272433D01*
X110734781Y-139237220D01*
X110831913Y-139239339D01*
X110920840Y-139278468D01*
X110981989Y-139339616D01*
X111014337Y-139385814D01*
X111175187Y-139546664D01*
X111361516Y-139677133D01*
X111567676Y-139773267D01*
X111763999Y-139825871D01*
X111764000Y-139825871D01*
X111764000Y-138862686D01*
X111775955Y-138874641D01*
X111888852Y-138932165D01*
X111982519Y-138947000D01*
X112045481Y-138947000D01*
X112139148Y-138932165D01*
X112252045Y-138874641D01*
X112264000Y-138862685D01*
X112264000Y-139825871D01*
G37*
%TD.AperFunction*%
%TA.AperFunction,Conductor*%
G36*
X111686359Y-138308955D02*
G01*
X111628835Y-138421852D01*
X111609014Y-138547000D01*
X111628835Y-138672148D01*
X111686359Y-138785045D01*
X111698314Y-138797000D01*
X110801134Y-138797000D01*
X110750861Y-138807000D01*
X109907686Y-138807000D01*
X109933493Y-138766844D01*
X109974000Y-138628889D01*
X109974000Y-138485111D01*
X109933493Y-138347156D01*
X109907686Y-138307000D01*
X110736866Y-138307000D01*
X110787139Y-138297000D01*
X111698314Y-138297000D01*
X111686359Y-138308955D01*
G37*
%TD.AperFunction*%
%TA.AperFunction,Conductor*%
G36*
X109724000Y-138121498D02*
G01*
X109616315Y-138072320D01*
X109509763Y-138057000D01*
X109438237Y-138057000D01*
X109331685Y-138072320D01*
X109224000Y-138121498D01*
X109224000Y-136452501D01*
X109331685Y-136501680D01*
X109438237Y-136517000D01*
X109509763Y-136517000D01*
X109616315Y-136501680D01*
X109724000Y-136452501D01*
X109724000Y-138121498D01*
G37*
%TD.AperFunction*%
%TA.AperFunction,Conductor*%
G36*
X113078025Y-136605471D02*
G01*
X113096051Y-136603894D01*
X113114905Y-136585846D01*
X113205454Y-136550633D01*
X113302586Y-136552752D01*
X113391513Y-136591880D01*
X113452663Y-136653030D01*
X113481931Y-136694830D01*
X113498953Y-136719139D01*
X113659861Y-136880047D01*
X113659864Y-136880049D01*
X113659865Y-136880050D01*
X113846258Y-137010563D01*
X113846262Y-137010565D01*
X113846266Y-137010568D01*
X113846269Y-137010569D01*
X113855606Y-137015960D01*
X113928652Y-137080017D01*
X113971624Y-137167152D01*
X113977980Y-137264099D01*
X113946753Y-137356099D01*
X113882696Y-137429145D01*
X113873930Y-137435572D01*
X113714865Y-137546949D01*
X113553951Y-137707863D01*
X113487663Y-137802533D01*
X113417481Y-137869717D01*
X113326932Y-137904929D01*
X113229800Y-137902810D01*
X113140873Y-137863681D01*
X113079725Y-137802532D01*
X113013664Y-137708187D01*
X112852814Y-137547337D01*
X112659843Y-137412217D01*
X112592659Y-137342035D01*
X112557447Y-137251486D01*
X112559566Y-137154354D01*
X112598695Y-137065427D01*
X112659843Y-137004279D01*
X112724471Y-136959025D01*
X112043400Y-136277953D01*
X112124148Y-136265165D01*
X112237045Y-136207641D01*
X112326641Y-136118045D01*
X112384165Y-136005148D01*
X112396953Y-135924400D01*
X113078025Y-136605471D01*
G37*
%TD.AperFunction*%
%TA.AperFunction,Conductor*%
G36*
X128577892Y-129041625D02*
G01*
X128666819Y-129080753D01*
X128727968Y-129141902D01*
X128793953Y-129236139D01*
X128954861Y-129397047D01*
X128954864Y-129397049D01*
X128954865Y-129397050D01*
X129141258Y-129527563D01*
X129141262Y-129527565D01*
X129141266Y-129527568D01*
X129347504Y-129623739D01*
X129567308Y-129682635D01*
X129586984Y-129684356D01*
X129793994Y-129702468D01*
X129794000Y-129702468D01*
X129794006Y-129702468D01*
X129973668Y-129686749D01*
X130020692Y-129682635D01*
X130240496Y-129623739D01*
X130446734Y-129527568D01*
X130633139Y-129397047D01*
X130794047Y-129236139D01*
X130829512Y-129185488D01*
X130899691Y-129118306D01*
X130990240Y-129083092D01*
X131087372Y-129085211D01*
X131176300Y-129124339D01*
X131237445Y-129185483D01*
X131295505Y-129268401D01*
X131462599Y-129435495D01*
X131501925Y-129463031D01*
X131569107Y-129533209D01*
X131604321Y-129623758D01*
X131602202Y-129720890D01*
X131563074Y-129809818D01*
X131501928Y-129870965D01*
X131462603Y-129898501D01*
X131295504Y-130065600D01*
X131159965Y-130259169D01*
X131159961Y-130259177D01*
X131060098Y-130473333D01*
X131060097Y-130473335D01*
X130998935Y-130701598D01*
X130978341Y-130936994D01*
X130978341Y-130937005D01*
X130998935Y-131172401D01*
X130998937Y-131172408D01*
X131060097Y-131400663D01*
X131159965Y-131614830D01*
X131295505Y-131808401D01*
X131462599Y-131975495D01*
X131501925Y-132003031D01*
X131569107Y-132073209D01*
X131604321Y-132163758D01*
X131602202Y-132260890D01*
X131563074Y-132349818D01*
X131501928Y-132410965D01*
X131462603Y-132438501D01*
X131295504Y-132605600D01*
X131159965Y-132799169D01*
X131159961Y-132799177D01*
X131060098Y-133013333D01*
X131060097Y-133013335D01*
X130998935Y-133241598D01*
X130978341Y-133476994D01*
X130978341Y-133477005D01*
X130998935Y-133712401D01*
X130998937Y-133712408D01*
X131060097Y-133940663D01*
X131159965Y-134154830D01*
X131295505Y-134348401D01*
X131462599Y-134515495D01*
X131501925Y-134543031D01*
X131569107Y-134613209D01*
X131604321Y-134703758D01*
X131602202Y-134800890D01*
X131563074Y-134889818D01*
X131501928Y-134950965D01*
X131462603Y-134978501D01*
X131295504Y-135145600D01*
X131159965Y-135339169D01*
X131159961Y-135339177D01*
X131060098Y-135553333D01*
X131060097Y-135553335D01*
X130998935Y-135781598D01*
X130978341Y-136016994D01*
X130978341Y-136017005D01*
X130998935Y-136252401D01*
X131049724Y-136441952D01*
X131060097Y-136480663D01*
X131116067Y-136600691D01*
X131159965Y-136694830D01*
X131289657Y-136880050D01*
X131295505Y-136888401D01*
X131462599Y-137055495D01*
X131501925Y-137083031D01*
X131569107Y-137153209D01*
X131604321Y-137243758D01*
X131602202Y-137340890D01*
X131563074Y-137429818D01*
X131501928Y-137490965D01*
X131462603Y-137518501D01*
X131295503Y-137685601D01*
X131240949Y-137763512D01*
X131170767Y-137830696D01*
X131080217Y-137865907D01*
X130983086Y-137863787D01*
X130894159Y-137824658D01*
X130833013Y-137763511D01*
X130794047Y-137707861D01*
X130633139Y-137546953D01*
X130633135Y-137546950D01*
X130633134Y-137546949D01*
X130446741Y-137416436D01*
X130446727Y-137416428D01*
X130240499Y-137320262D01*
X130240496Y-137320261D01*
X130020694Y-137261365D01*
X130020679Y-137261363D01*
X129794006Y-137241532D01*
X129793994Y-137241532D01*
X129567320Y-137261363D01*
X129567305Y-137261365D01*
X129347503Y-137320261D01*
X129347500Y-137320262D01*
X129141272Y-137416428D01*
X129141258Y-137416436D01*
X128954865Y-137546949D01*
X128793949Y-137707865D01*
X128727969Y-137802096D01*
X128657788Y-137869280D01*
X128567239Y-137904493D01*
X128470107Y-137902374D01*
X128381180Y-137863245D01*
X128320031Y-137802096D01*
X128254050Y-137707865D01*
X128254048Y-137707863D01*
X128254047Y-137707861D01*
X128093139Y-137546953D01*
X128093135Y-137546950D01*
X128093134Y-137546949D01*
X127906741Y-137416436D01*
X127906727Y-137416428D01*
X127700499Y-137320262D01*
X127700496Y-137320261D01*
X127480694Y-137261365D01*
X127480679Y-137261363D01*
X127254006Y-137241532D01*
X127253994Y-137241532D01*
X127027320Y-137261363D01*
X127027305Y-137261365D01*
X126807503Y-137320261D01*
X126807500Y-137320262D01*
X126601272Y-137416428D01*
X126601258Y-137416436D01*
X126414865Y-137546949D01*
X126253949Y-137707865D01*
X126187969Y-137802096D01*
X126117788Y-137869280D01*
X126027239Y-137904493D01*
X125930107Y-137902374D01*
X125841180Y-137863245D01*
X125780031Y-137802096D01*
X125714050Y-137707865D01*
X125714048Y-137707863D01*
X125714047Y-137707861D01*
X125553139Y-137546953D01*
X125553135Y-137546950D01*
X125553134Y-137546949D01*
X125366741Y-137416436D01*
X125366727Y-137416428D01*
X125160499Y-137320262D01*
X125160496Y-137320261D01*
X124940694Y-137261365D01*
X124940679Y-137261363D01*
X124714006Y-137241532D01*
X124713994Y-137241532D01*
X124487320Y-137261363D01*
X124487305Y-137261365D01*
X124267503Y-137320261D01*
X124267500Y-137320262D01*
X124061272Y-137416428D01*
X124061258Y-137416436D01*
X123874865Y-137546949D01*
X123713949Y-137707865D01*
X123647969Y-137802096D01*
X123577788Y-137869280D01*
X123487239Y-137904493D01*
X123390107Y-137902374D01*
X123301180Y-137863245D01*
X123240031Y-137802096D01*
X123174050Y-137707865D01*
X123174048Y-137707863D01*
X123174047Y-137707861D01*
X123013139Y-137546953D01*
X123013135Y-137546950D01*
X123013134Y-137546949D01*
X122826741Y-137416436D01*
X122826727Y-137416428D01*
X122620499Y-137320262D01*
X122620496Y-137320261D01*
X122400694Y-137261365D01*
X122400679Y-137261363D01*
X122174006Y-137241532D01*
X122173994Y-137241532D01*
X121947320Y-137261363D01*
X121947305Y-137261365D01*
X121727503Y-137320261D01*
X121727500Y-137320262D01*
X121521272Y-137416428D01*
X121521258Y-137416436D01*
X121334865Y-137546949D01*
X121173949Y-137707865D01*
X121107969Y-137802096D01*
X121037788Y-137869280D01*
X120947239Y-137904493D01*
X120850107Y-137902374D01*
X120761180Y-137863245D01*
X120700031Y-137802096D01*
X120634050Y-137707865D01*
X120634048Y-137707863D01*
X120634047Y-137707861D01*
X120473139Y-137546953D01*
X120473135Y-137546950D01*
X120473134Y-137546949D01*
X120286741Y-137416436D01*
X120286727Y-137416428D01*
X120080499Y-137320262D01*
X120080496Y-137320261D01*
X119860694Y-137261365D01*
X119860679Y-137261363D01*
X119634006Y-137241532D01*
X119633994Y-137241532D01*
X119407320Y-137261363D01*
X119407305Y-137261365D01*
X119187503Y-137320261D01*
X119187500Y-137320262D01*
X118981272Y-137416428D01*
X118981258Y-137416436D01*
X118794865Y-137546949D01*
X118633949Y-137707865D01*
X118567969Y-137802096D01*
X118497788Y-137869280D01*
X118407239Y-137904493D01*
X118310107Y-137902374D01*
X118221180Y-137863245D01*
X118160031Y-137802096D01*
X118094050Y-137707865D01*
X118094048Y-137707863D01*
X118094047Y-137707861D01*
X117933139Y-137546953D01*
X117933135Y-137546950D01*
X117933134Y-137546949D01*
X117746741Y-137416436D01*
X117746727Y-137416428D01*
X117540499Y-137320262D01*
X117540496Y-137320261D01*
X117320694Y-137261365D01*
X117320679Y-137261363D01*
X117094006Y-137241532D01*
X117093994Y-137241532D01*
X116867320Y-137261363D01*
X116867305Y-137261365D01*
X116647503Y-137320261D01*
X116647500Y-137320262D01*
X116441272Y-137416428D01*
X116441258Y-137416436D01*
X116254865Y-137546949D01*
X116093949Y-137707865D01*
X116027969Y-137802096D01*
X115957788Y-137869280D01*
X115867239Y-137904493D01*
X115770107Y-137902374D01*
X115681180Y-137863245D01*
X115620031Y-137802096D01*
X115554050Y-137707865D01*
X115554048Y-137707863D01*
X115554047Y-137707861D01*
X115393139Y-137546953D01*
X115393135Y-137546950D01*
X115393134Y-137546949D01*
X115206737Y-137416433D01*
X115197390Y-137411037D01*
X115124345Y-137346978D01*
X115081374Y-137259843D01*
X115075019Y-137162896D01*
X115106248Y-137070897D01*
X115170307Y-136997852D01*
X115179030Y-136991454D01*
X115338139Y-136880047D01*
X115499047Y-136719139D01*
X115629568Y-136532734D01*
X115725739Y-136326496D01*
X115784635Y-136106692D01*
X115804468Y-135880000D01*
X115804468Y-135879994D01*
X115784636Y-135653320D01*
X115784635Y-135653308D01*
X115725739Y-135433504D01*
X115629568Y-135227266D01*
X115629565Y-135227262D01*
X115629563Y-135227258D01*
X115499050Y-135040865D01*
X115499049Y-135040864D01*
X115499047Y-135040861D01*
X115338139Y-134879953D01*
X115338135Y-134879950D01*
X115338134Y-134879949D01*
X115151741Y-134749436D01*
X115151727Y-134749428D01*
X114945499Y-134653262D01*
X114945496Y-134653261D01*
X114725694Y-134594365D01*
X114725679Y-134594363D01*
X114499006Y-134574532D01*
X114498994Y-134574532D01*
X114272320Y-134594363D01*
X114272305Y-134594365D01*
X114052503Y-134653261D01*
X114052500Y-134653262D01*
X113846272Y-134749428D01*
X113846258Y-134749436D01*
X113659865Y-134879949D01*
X113498950Y-135040864D01*
X113452662Y-135106970D01*
X113382480Y-135174154D01*
X113291930Y-135209366D01*
X113194798Y-135207245D01*
X113105872Y-135168116D01*
X113093650Y-135155894D01*
X113078026Y-135154527D01*
X112396953Y-135835599D01*
X112384165Y-135754852D01*
X112326641Y-135641955D01*
X112237045Y-135552359D01*
X112124148Y-135494835D01*
X112043399Y-135482045D01*
X112724472Y-134800973D01*
X112651485Y-134749868D01*
X112651483Y-134749866D01*
X112445323Y-134653732D01*
X112225603Y-134594859D01*
X111998999Y-134575034D01*
X111772397Y-134594859D01*
X111772396Y-134594859D01*
X111552676Y-134653732D01*
X111346513Y-134749868D01*
X111273527Y-134800972D01*
X111954600Y-135482045D01*
X111873852Y-135494835D01*
X111760955Y-135552359D01*
X111671359Y-135641955D01*
X111613835Y-135754852D01*
X111601045Y-135835600D01*
X110919971Y-135154526D01*
X110918320Y-135154671D01*
X110852841Y-135217354D01*
X110762292Y-135252567D01*
X110665160Y-135250448D01*
X110576233Y-135211319D01*
X110519134Y-135154219D01*
X110519098Y-135154250D01*
X110518748Y-135153833D01*
X110515080Y-135150165D01*
X110512109Y-135145922D01*
X110345075Y-134978888D01*
X110305637Y-134951273D01*
X110238454Y-134881091D01*
X110203242Y-134790542D01*
X110205362Y-134693410D01*
X110244491Y-134604483D01*
X110305636Y-134543338D01*
X110345401Y-134515495D01*
X110512495Y-134348401D01*
X110648035Y-134154830D01*
X110747903Y-133940663D01*
X110809063Y-133712408D01*
X110829659Y-133477000D01*
X110829659Y-133476994D01*
X110809064Y-133241598D01*
X110809063Y-133241595D01*
X110809063Y-133241592D01*
X110747903Y-133013337D01*
X110648035Y-132799171D01*
X110512495Y-132605599D01*
X110345401Y-132438505D01*
X110306074Y-132410967D01*
X110238891Y-132340789D01*
X110203678Y-132250240D01*
X110205797Y-132153108D01*
X110244925Y-132064181D01*
X110306073Y-132003032D01*
X110345401Y-131975495D01*
X110512495Y-131808401D01*
X110648035Y-131614830D01*
X110747903Y-131400663D01*
X110809063Y-131172408D01*
X110829659Y-130937000D01*
X110829659Y-130936994D01*
X110809064Y-130701598D01*
X110809063Y-130701595D01*
X110809063Y-130701592D01*
X110747903Y-130473337D01*
X110648035Y-130259171D01*
X110512495Y-130065599D01*
X110345401Y-129898505D01*
X110306074Y-129870967D01*
X110238891Y-129800789D01*
X110203678Y-129710240D01*
X110205797Y-129613108D01*
X110244925Y-129524181D01*
X110306073Y-129463032D01*
X110345401Y-129435495D01*
X110383616Y-129397279D01*
X110464391Y-129343307D01*
X110559679Y-129324352D01*
X110654968Y-129343305D01*
X110735750Y-129397280D01*
X110757625Y-129426499D01*
X110759531Y-129425073D01*
X110770203Y-129439329D01*
X110770204Y-129439331D01*
X110856454Y-129554546D01*
X110971669Y-129640796D01*
X111106517Y-129691091D01*
X111166127Y-129697500D01*
X112861872Y-129697499D01*
X112921483Y-129691091D01*
X113056331Y-129640796D01*
X113171546Y-129554546D01*
X113257796Y-129439331D01*
X113258043Y-129438666D01*
X113259037Y-129437058D01*
X113266330Y-129423702D01*
X113267045Y-129424092D01*
X113309094Y-129356011D01*
X113387894Y-129299181D01*
X113482443Y-129276831D01*
X113578348Y-129292366D01*
X113661008Y-129343419D01*
X113667388Y-129349574D01*
X113714861Y-129397047D01*
X113714864Y-129397049D01*
X113714865Y-129397050D01*
X113901258Y-129527563D01*
X113901262Y-129527565D01*
X113901266Y-129527568D01*
X114107504Y-129623739D01*
X114327308Y-129682635D01*
X114346984Y-129684356D01*
X114553994Y-129702468D01*
X114554000Y-129702468D01*
X114554006Y-129702468D01*
X114733668Y-129686749D01*
X114780692Y-129682635D01*
X115000496Y-129623739D01*
X115206734Y-129527568D01*
X115393139Y-129397047D01*
X115554047Y-129236139D01*
X115620031Y-129141902D01*
X115690211Y-129074719D01*
X115780760Y-129039506D01*
X115877892Y-129041625D01*
X115966819Y-129080753D01*
X116027968Y-129141902D01*
X116093953Y-129236139D01*
X116254861Y-129397047D01*
X116254864Y-129397049D01*
X116254865Y-129397050D01*
X116441258Y-129527563D01*
X116441262Y-129527565D01*
X116441266Y-129527568D01*
X116647504Y-129623739D01*
X116867308Y-129682635D01*
X116886984Y-129684356D01*
X117093994Y-129702468D01*
X117094000Y-129702468D01*
X117094006Y-129702468D01*
X117273668Y-129686749D01*
X117320692Y-129682635D01*
X117540496Y-129623739D01*
X117746734Y-129527568D01*
X117933139Y-129397047D01*
X118094047Y-129236139D01*
X118160031Y-129141902D01*
X118230211Y-129074719D01*
X118320760Y-129039506D01*
X118417892Y-129041625D01*
X118506819Y-129080753D01*
X118567968Y-129141902D01*
X118633953Y-129236139D01*
X118794861Y-129397047D01*
X118794864Y-129397049D01*
X118794865Y-129397050D01*
X118981258Y-129527563D01*
X118981262Y-129527565D01*
X118981266Y-129527568D01*
X119187504Y-129623739D01*
X119407308Y-129682635D01*
X119426984Y-129684356D01*
X119633994Y-129702468D01*
X119634000Y-129702468D01*
X119634006Y-129702468D01*
X119813668Y-129686749D01*
X119860692Y-129682635D01*
X120080496Y-129623739D01*
X120286734Y-129527568D01*
X120473139Y-129397047D01*
X120634047Y-129236139D01*
X120700031Y-129141902D01*
X120770211Y-129074719D01*
X120860760Y-129039506D01*
X120957892Y-129041625D01*
X121046819Y-129080753D01*
X121107968Y-129141902D01*
X121173953Y-129236139D01*
X121334861Y-129397047D01*
X121334864Y-129397049D01*
X121334865Y-129397050D01*
X121521258Y-129527563D01*
X121521262Y-129527565D01*
X121521266Y-129527568D01*
X121727504Y-129623739D01*
X121947308Y-129682635D01*
X121966984Y-129684356D01*
X122173994Y-129702468D01*
X122174000Y-129702468D01*
X122174006Y-129702468D01*
X122353668Y-129686749D01*
X122400692Y-129682635D01*
X122620496Y-129623739D01*
X122826734Y-129527568D01*
X123013139Y-129397047D01*
X123174047Y-129236139D01*
X123240031Y-129141902D01*
X123310211Y-129074719D01*
X123400760Y-129039506D01*
X123497892Y-129041625D01*
X123586819Y-129080753D01*
X123647968Y-129141902D01*
X123713953Y-129236139D01*
X123874861Y-129397047D01*
X123874864Y-129397049D01*
X123874865Y-129397050D01*
X124061258Y-129527563D01*
X124061262Y-129527565D01*
X124061266Y-129527568D01*
X124267504Y-129623739D01*
X124487308Y-129682635D01*
X124506984Y-129684356D01*
X124713994Y-129702468D01*
X124714000Y-129702468D01*
X124714006Y-129702468D01*
X124893668Y-129686749D01*
X124940692Y-129682635D01*
X125160496Y-129623739D01*
X125366734Y-129527568D01*
X125553139Y-129397047D01*
X125714047Y-129236139D01*
X125780031Y-129141902D01*
X125850211Y-129074719D01*
X125940760Y-129039506D01*
X126037892Y-129041625D01*
X126126819Y-129080753D01*
X126187968Y-129141902D01*
X126253953Y-129236139D01*
X126414861Y-129397047D01*
X126414864Y-129397049D01*
X126414865Y-129397050D01*
X126601258Y-129527563D01*
X126601262Y-129527565D01*
X126601266Y-129527568D01*
X126807504Y-129623739D01*
X127027308Y-129682635D01*
X127046984Y-129684356D01*
X127253994Y-129702468D01*
X127254000Y-129702468D01*
X127254006Y-129702468D01*
X127433668Y-129686749D01*
X127480692Y-129682635D01*
X127700496Y-129623739D01*
X127906734Y-129527568D01*
X128093139Y-129397047D01*
X128254047Y-129236139D01*
X128320031Y-129141902D01*
X128390211Y-129074719D01*
X128480760Y-129039506D01*
X128577892Y-129041625D01*
G37*
%TD.AperFunction*%
%TA.AperFunction,Conductor*%
G36*
X111613835Y-136005148D02*
G01*
X111671359Y-136118045D01*
X111760955Y-136207641D01*
X111873852Y-136265165D01*
X111954599Y-136277953D01*
X111273527Y-136959026D01*
X111353156Y-137014783D01*
X111420339Y-137084964D01*
X111455552Y-137175514D01*
X111453433Y-137272645D01*
X111414304Y-137361573D01*
X111353156Y-137422721D01*
X111175185Y-137547337D01*
X111014336Y-137708186D01*
X110974986Y-137764384D01*
X110904804Y-137831567D01*
X110814255Y-137866779D01*
X110717123Y-137864659D01*
X110628196Y-137825530D01*
X110567050Y-137764384D01*
X110512111Y-137685924D01*
X110345075Y-137518888D01*
X110305203Y-137490970D01*
X110238018Y-137420789D01*
X110202805Y-137330240D01*
X110204924Y-137233108D01*
X110244052Y-137144181D01*
X110305203Y-137083030D01*
X110345075Y-137055111D01*
X110512112Y-136888074D01*
X110639656Y-136705923D01*
X110709837Y-136638739D01*
X110800386Y-136603526D01*
X110865327Y-136600691D01*
X110919973Y-136605472D01*
X111601045Y-135924399D01*
X111613835Y-136005148D01*
G37*
%TD.AperFunction*%
%TA.AperFunction,Conductor*%
G36*
X112264000Y-122055871D02*
G01*
X112460323Y-122003267D01*
X112666483Y-121907133D01*
X112852812Y-121776664D01*
X113013663Y-121615813D01*
X113079724Y-121521468D01*
X113149905Y-121454283D01*
X113240454Y-121419070D01*
X113337586Y-121421189D01*
X113426513Y-121460317D01*
X113487663Y-121521467D01*
X113553725Y-121615814D01*
X113553953Y-121616139D01*
X113714861Y-121777047D01*
X113714864Y-121777049D01*
X113714865Y-121777050D01*
X113901258Y-121907563D01*
X113901262Y-121907565D01*
X113901266Y-121907568D01*
X114107504Y-122003739D01*
X114327308Y-122062635D01*
X114346984Y-122064356D01*
X114553994Y-122082468D01*
X114554000Y-122082468D01*
X114554006Y-122082468D01*
X114733668Y-122066749D01*
X114780692Y-122062635D01*
X115000496Y-122003739D01*
X115206734Y-121907568D01*
X115393139Y-121777047D01*
X115554047Y-121616139D01*
X115620031Y-121521902D01*
X115690211Y-121454719D01*
X115780760Y-121419506D01*
X115877892Y-121421625D01*
X115966819Y-121460753D01*
X116027968Y-121521902D01*
X116093953Y-121616139D01*
X116254861Y-121777047D01*
X116254864Y-121777049D01*
X116254865Y-121777050D01*
X116441258Y-121907563D01*
X116441262Y-121907565D01*
X116441266Y-121907568D01*
X116647504Y-122003739D01*
X116867308Y-122062635D01*
X116886984Y-122064356D01*
X117093994Y-122082468D01*
X117094000Y-122082468D01*
X117094006Y-122082468D01*
X117273668Y-122066749D01*
X117320692Y-122062635D01*
X117540496Y-122003739D01*
X117746734Y-121907568D01*
X117933139Y-121777047D01*
X118094047Y-121616139D01*
X118160031Y-121521902D01*
X118230211Y-121454719D01*
X118320760Y-121419506D01*
X118417892Y-121421625D01*
X118506819Y-121460753D01*
X118567968Y-121521902D01*
X118633953Y-121616139D01*
X118794861Y-121777047D01*
X118794864Y-121777049D01*
X118794865Y-121777050D01*
X118981258Y-121907563D01*
X118981262Y-121907565D01*
X118981266Y-121907568D01*
X119187504Y-122003739D01*
X119407308Y-122062635D01*
X119426984Y-122064356D01*
X119633994Y-122082468D01*
X119634000Y-122082468D01*
X119634006Y-122082468D01*
X119813668Y-122066749D01*
X119860692Y-122062635D01*
X120080496Y-122003739D01*
X120286734Y-121907568D01*
X120473139Y-121777047D01*
X120634047Y-121616139D01*
X120700031Y-121521902D01*
X120770211Y-121454719D01*
X120860760Y-121419506D01*
X120957892Y-121421625D01*
X121046819Y-121460753D01*
X121107968Y-121521902D01*
X121173953Y-121616139D01*
X121334861Y-121777047D01*
X121334864Y-121777049D01*
X121334865Y-121777050D01*
X121521258Y-121907563D01*
X121521262Y-121907565D01*
X121521266Y-121907568D01*
X121727504Y-122003739D01*
X121947308Y-122062635D01*
X121966984Y-122064356D01*
X122173994Y-122082468D01*
X122174000Y-122082468D01*
X122174006Y-122082468D01*
X122353668Y-122066749D01*
X122400692Y-122062635D01*
X122620496Y-122003739D01*
X122826734Y-121907568D01*
X123013139Y-121777047D01*
X123174047Y-121616139D01*
X123240031Y-121521902D01*
X123310211Y-121454719D01*
X123400760Y-121419506D01*
X123497892Y-121421625D01*
X123586819Y-121460753D01*
X123647968Y-121521902D01*
X123713953Y-121616139D01*
X123874861Y-121777047D01*
X123874864Y-121777049D01*
X123874865Y-121777050D01*
X124061258Y-121907563D01*
X124061262Y-121907565D01*
X124061266Y-121907568D01*
X124267504Y-122003739D01*
X124487308Y-122062635D01*
X124506984Y-122064356D01*
X124713994Y-122082468D01*
X124714000Y-122082468D01*
X124714006Y-122082468D01*
X124893668Y-122066749D01*
X124940692Y-122062635D01*
X125160496Y-122003739D01*
X125366734Y-121907568D01*
X125553139Y-121777047D01*
X125714047Y-121616139D01*
X125780031Y-121521902D01*
X125850211Y-121454719D01*
X125940760Y-121419506D01*
X126037892Y-121421625D01*
X126126819Y-121460753D01*
X126187968Y-121521902D01*
X126253953Y-121616139D01*
X126414861Y-121777047D01*
X126414864Y-121777049D01*
X126414865Y-121777050D01*
X126601258Y-121907563D01*
X126601262Y-121907565D01*
X126601266Y-121907568D01*
X126807504Y-122003739D01*
X127027308Y-122062635D01*
X127046984Y-122064356D01*
X127253994Y-122082468D01*
X127254000Y-122082468D01*
X127254006Y-122082468D01*
X127433668Y-122066749D01*
X127480692Y-122062635D01*
X127700496Y-122003739D01*
X127906734Y-121907568D01*
X128093139Y-121777047D01*
X128254047Y-121616139D01*
X128320031Y-121521902D01*
X128390211Y-121454719D01*
X128480760Y-121419506D01*
X128577892Y-121421625D01*
X128666819Y-121460753D01*
X128727968Y-121521902D01*
X128793953Y-121616139D01*
X128954861Y-121777047D01*
X128954864Y-121777049D01*
X128954865Y-121777050D01*
X129141258Y-121907563D01*
X129141262Y-121907565D01*
X129141266Y-121907568D01*
X129347504Y-122003739D01*
X129567308Y-122062635D01*
X129586984Y-122064356D01*
X129793994Y-122082468D01*
X129794000Y-122082468D01*
X129794006Y-122082468D01*
X129973668Y-122066749D01*
X130020692Y-122062635D01*
X130240496Y-122003739D01*
X130446734Y-121907568D01*
X130633139Y-121777047D01*
X130794047Y-121616139D01*
X130829512Y-121565488D01*
X130899691Y-121498306D01*
X130990240Y-121463092D01*
X131087372Y-121465211D01*
X131176300Y-121504339D01*
X131237445Y-121565483D01*
X131295505Y-121648401D01*
X131462599Y-121815495D01*
X131501925Y-121843031D01*
X131569107Y-121913209D01*
X131604321Y-122003758D01*
X131602202Y-122100890D01*
X131563074Y-122189818D01*
X131501928Y-122250965D01*
X131462603Y-122278501D01*
X131295504Y-122445600D01*
X131159965Y-122639169D01*
X131159961Y-122639177D01*
X131060098Y-122853333D01*
X131060097Y-122853335D01*
X130998935Y-123081598D01*
X130978341Y-123316994D01*
X130978341Y-123317005D01*
X130998935Y-123552401D01*
X130998937Y-123552408D01*
X131060097Y-123780663D01*
X131159965Y-123994830D01*
X131295505Y-124188401D01*
X131462599Y-124355495D01*
X131501925Y-124383031D01*
X131569107Y-124453209D01*
X131604321Y-124543758D01*
X131602202Y-124640890D01*
X131563074Y-124729818D01*
X131501928Y-124790965D01*
X131462603Y-124818501D01*
X131295504Y-124985600D01*
X131159965Y-125179169D01*
X131159961Y-125179177D01*
X131060098Y-125393333D01*
X131060097Y-125393335D01*
X130998935Y-125621598D01*
X130978341Y-125856994D01*
X130978341Y-125857005D01*
X130998935Y-126092401D01*
X130998937Y-126092408D01*
X131060097Y-126320663D01*
X131159965Y-126534830D01*
X131295505Y-126728401D01*
X131462599Y-126895495D01*
X131501925Y-126923031D01*
X131569107Y-126993209D01*
X131604321Y-127083758D01*
X131602202Y-127180890D01*
X131563074Y-127269818D01*
X131501928Y-127330965D01*
X131462603Y-127358501D01*
X131295503Y-127525601D01*
X131237448Y-127608512D01*
X131167266Y-127675695D01*
X131076717Y-127710907D01*
X130979585Y-127708787D01*
X130890658Y-127669658D01*
X130829512Y-127608511D01*
X130794047Y-127557861D01*
X130633139Y-127396953D01*
X130633135Y-127396950D01*
X130633134Y-127396949D01*
X130446741Y-127266436D01*
X130446727Y-127266428D01*
X130240499Y-127170262D01*
X130240496Y-127170261D01*
X130020694Y-127111365D01*
X130020679Y-127111363D01*
X129794006Y-127091532D01*
X129793994Y-127091532D01*
X129567320Y-127111363D01*
X129567305Y-127111365D01*
X129347503Y-127170261D01*
X129347500Y-127170262D01*
X129141272Y-127266428D01*
X129141258Y-127266436D01*
X128954865Y-127396949D01*
X128793949Y-127557865D01*
X128727969Y-127652096D01*
X128657788Y-127719280D01*
X128567239Y-127754493D01*
X128470107Y-127752374D01*
X128381180Y-127713245D01*
X128320031Y-127652096D01*
X128254050Y-127557865D01*
X128254049Y-127557864D01*
X128254047Y-127557861D01*
X128093139Y-127396953D01*
X128093135Y-127396950D01*
X128093134Y-127396949D01*
X127906741Y-127266436D01*
X127906727Y-127266428D01*
X127700499Y-127170262D01*
X127700496Y-127170261D01*
X127480694Y-127111365D01*
X127480679Y-127111363D01*
X127254006Y-127091532D01*
X127253994Y-127091532D01*
X127027320Y-127111363D01*
X127027305Y-127111365D01*
X126807503Y-127170261D01*
X126807500Y-127170262D01*
X126601272Y-127266428D01*
X126601258Y-127266436D01*
X126414865Y-127396949D01*
X126253949Y-127557865D01*
X126187969Y-127652096D01*
X126117788Y-127719280D01*
X126027239Y-127754493D01*
X125930107Y-127752374D01*
X125841180Y-127713245D01*
X125780031Y-127652096D01*
X125714050Y-127557865D01*
X125714049Y-127557864D01*
X125714047Y-127557861D01*
X125553139Y-127396953D01*
X125553135Y-127396950D01*
X125553134Y-127396949D01*
X125366741Y-127266436D01*
X125366727Y-127266428D01*
X125160499Y-127170262D01*
X125160496Y-127170261D01*
X124940694Y-127111365D01*
X124940679Y-127111363D01*
X124714006Y-127091532D01*
X124713994Y-127091532D01*
X124487320Y-127111363D01*
X124487305Y-127111365D01*
X124267503Y-127170261D01*
X124267500Y-127170262D01*
X124061272Y-127266428D01*
X124061258Y-127266436D01*
X123874865Y-127396949D01*
X123713949Y-127557865D01*
X123647969Y-127652096D01*
X123577788Y-127719280D01*
X123487239Y-127754493D01*
X123390107Y-127752374D01*
X123301180Y-127713245D01*
X123240031Y-127652096D01*
X123174050Y-127557865D01*
X123174049Y-127557864D01*
X123174047Y-127557861D01*
X123013139Y-127396953D01*
X123013135Y-127396950D01*
X123013134Y-127396949D01*
X122826741Y-127266436D01*
X122826727Y-127266428D01*
X122620499Y-127170262D01*
X122620496Y-127170261D01*
X122400694Y-127111365D01*
X122400679Y-127111363D01*
X122174006Y-127091532D01*
X122173994Y-127091532D01*
X121947320Y-127111363D01*
X121947305Y-127111365D01*
X121727503Y-127170261D01*
X121727500Y-127170262D01*
X121521272Y-127266428D01*
X121521258Y-127266436D01*
X121334865Y-127396949D01*
X121173949Y-127557865D01*
X121107969Y-127652096D01*
X121037788Y-127719280D01*
X120947239Y-127754493D01*
X120850107Y-127752374D01*
X120761180Y-127713245D01*
X120700031Y-127652096D01*
X120634050Y-127557865D01*
X120634049Y-127557864D01*
X120634047Y-127557861D01*
X120473139Y-127396953D01*
X120473135Y-127396950D01*
X120473134Y-127396949D01*
X120286741Y-127266436D01*
X120286727Y-127266428D01*
X120080499Y-127170262D01*
X120080496Y-127170261D01*
X119860694Y-127111365D01*
X119860679Y-127111363D01*
X119634006Y-127091532D01*
X119633994Y-127091532D01*
X119407320Y-127111363D01*
X119407305Y-127111365D01*
X119187503Y-127170261D01*
X119187500Y-127170262D01*
X118981272Y-127266428D01*
X118981258Y-127266436D01*
X118794865Y-127396949D01*
X118633949Y-127557865D01*
X118567969Y-127652096D01*
X118497788Y-127719280D01*
X118407239Y-127754493D01*
X118310107Y-127752374D01*
X118221180Y-127713245D01*
X118160031Y-127652096D01*
X118094050Y-127557865D01*
X118094049Y-127557864D01*
X118094047Y-127557861D01*
X117933139Y-127396953D01*
X117933135Y-127396950D01*
X117933134Y-127396949D01*
X117746741Y-127266436D01*
X117746727Y-127266428D01*
X117540499Y-127170262D01*
X117540496Y-127170261D01*
X117320694Y-127111365D01*
X117320679Y-127111363D01*
X117094006Y-127091532D01*
X117093994Y-127091532D01*
X116867320Y-127111363D01*
X116867305Y-127111365D01*
X116647503Y-127170261D01*
X116647500Y-127170262D01*
X116441272Y-127266428D01*
X116441258Y-127266436D01*
X116254865Y-127396949D01*
X116093949Y-127557865D01*
X116027969Y-127652096D01*
X115957788Y-127719280D01*
X115867239Y-127754493D01*
X115770107Y-127752374D01*
X115681180Y-127713245D01*
X115620031Y-127652096D01*
X115554050Y-127557865D01*
X115554049Y-127557864D01*
X115554047Y-127557861D01*
X115393139Y-127396953D01*
X115393135Y-127396950D01*
X115393134Y-127396949D01*
X115206741Y-127266436D01*
X115206727Y-127266428D01*
X115000499Y-127170262D01*
X115000496Y-127170261D01*
X114780694Y-127111365D01*
X114780679Y-127111363D01*
X114554006Y-127091532D01*
X114553994Y-127091532D01*
X114327320Y-127111363D01*
X114327305Y-127111365D01*
X114107503Y-127170261D01*
X114107500Y-127170262D01*
X113901272Y-127266428D01*
X113901258Y-127266436D01*
X113714861Y-127396952D01*
X113667415Y-127444398D01*
X113586633Y-127498374D01*
X113491345Y-127517327D01*
X113396057Y-127498372D01*
X113315276Y-127444395D01*
X113261300Y-127363613D01*
X113258066Y-127355394D01*
X113257796Y-127354669D01*
X113171546Y-127239454D01*
X113056331Y-127153204D01*
X112944155Y-127111365D01*
X112921481Y-127102908D01*
X112861873Y-127096500D01*
X111166134Y-127096500D01*
X111166130Y-127096500D01*
X111166128Y-127096501D01*
X111153314Y-127097878D01*
X111106519Y-127102908D01*
X111106515Y-127102909D01*
X110971670Y-127153203D01*
X110856455Y-127239453D01*
X110856453Y-127239455D01*
X110836261Y-127266428D01*
X110770206Y-127354667D01*
X110759531Y-127368927D01*
X110756154Y-127366399D01*
X110715822Y-127414609D01*
X110629711Y-127459597D01*
X110532938Y-127468207D01*
X110440237Y-127439128D01*
X110383615Y-127396719D01*
X110345401Y-127358505D01*
X110306074Y-127330967D01*
X110238891Y-127260789D01*
X110203678Y-127170240D01*
X110205797Y-127073108D01*
X110244925Y-126984181D01*
X110306073Y-126923032D01*
X110345401Y-126895495D01*
X110512495Y-126728401D01*
X110648035Y-126534830D01*
X110747903Y-126320663D01*
X110809063Y-126092408D01*
X110829659Y-125857000D01*
X110829659Y-125856994D01*
X110809064Y-125621598D01*
X110809063Y-125621595D01*
X110809063Y-125621592D01*
X110747903Y-125393337D01*
X110648035Y-125179171D01*
X110512495Y-124985599D01*
X110345401Y-124818505D01*
X110306074Y-124790967D01*
X110238891Y-124720789D01*
X110203678Y-124630240D01*
X110205797Y-124533108D01*
X110244925Y-124444181D01*
X110306073Y-124383032D01*
X110345401Y-124355495D01*
X110512495Y-124188401D01*
X110648035Y-123994830D01*
X110747903Y-123780663D01*
X110809063Y-123552408D01*
X110829659Y-123317000D01*
X110829659Y-123316994D01*
X110809064Y-123081598D01*
X110809063Y-123081595D01*
X110809063Y-123081592D01*
X110747903Y-122853337D01*
X110648035Y-122639171D01*
X110512495Y-122445599D01*
X110345401Y-122278505D01*
X110345397Y-122278502D01*
X110345396Y-122278501D01*
X110305638Y-122250662D01*
X110238454Y-122180481D01*
X110203242Y-122089931D01*
X110205362Y-121992800D01*
X110244491Y-121903873D01*
X110305640Y-121842724D01*
X110345075Y-121815111D01*
X110512112Y-121648074D01*
X110570550Y-121564617D01*
X110640731Y-121497433D01*
X110731280Y-121462220D01*
X110828412Y-121464339D01*
X110917339Y-121503468D01*
X110978488Y-121564616D01*
X111014337Y-121615814D01*
X111175187Y-121776664D01*
X111361516Y-121907133D01*
X111567676Y-122003267D01*
X111763999Y-122055871D01*
X111764000Y-122055871D01*
X111764000Y-121092686D01*
X111775955Y-121104641D01*
X111888852Y-121162165D01*
X111982519Y-121177000D01*
X112045481Y-121177000D01*
X112139148Y-121162165D01*
X112252045Y-121104641D01*
X112264000Y-121092686D01*
X112264000Y-122055871D01*
G37*
%TD.AperFunction*%
%TA.AperFunction,Conductor*%
G36*
X111686359Y-120538955D02*
G01*
X111628835Y-120651852D01*
X111609014Y-120777000D01*
X111628835Y-120902148D01*
X111686359Y-121015045D01*
X111698314Y-121027000D01*
X109907686Y-121027000D01*
X109933493Y-120986844D01*
X109974000Y-120848889D01*
X109974000Y-120705111D01*
X109933493Y-120567156D01*
X109907686Y-120527000D01*
X111698314Y-120527000D01*
X111686359Y-120538955D01*
G37*
%TD.AperFunction*%
%TA.AperFunction,Conductor*%
G36*
X109724000Y-120341498D02*
G01*
X109616315Y-120292320D01*
X109509763Y-120277000D01*
X109438237Y-120277000D01*
X109331685Y-120292320D01*
X109224000Y-120341498D01*
X109224000Y-118672501D01*
X109331685Y-118721680D01*
X109438237Y-118737000D01*
X109509763Y-118737000D01*
X109616315Y-118721680D01*
X109724000Y-118672501D01*
X109724000Y-120341498D01*
G37*
%TD.AperFunction*%
%TA.AperFunction,Conductor*%
G36*
X113078026Y-118845471D02*
G01*
X113096051Y-118843894D01*
X113114905Y-118825846D01*
X113205454Y-118790633D01*
X113302586Y-118792752D01*
X113391513Y-118831880D01*
X113452663Y-118893030D01*
X113467927Y-118914830D01*
X113498953Y-118959139D01*
X113659861Y-119120047D01*
X113659864Y-119120049D01*
X113659865Y-119120050D01*
X113846256Y-119250562D01*
X113847767Y-119251434D01*
X113848818Y-119252355D01*
X113855171Y-119256804D01*
X113854684Y-119257499D01*
X113920816Y-119315488D01*
X113963793Y-119402620D01*
X113970154Y-119499567D01*
X113938931Y-119591568D01*
X113874877Y-119664617D01*
X113866103Y-119671052D01*
X113714863Y-119776951D01*
X113553951Y-119937863D01*
X113487663Y-120032533D01*
X113417481Y-120099717D01*
X113326932Y-120134929D01*
X113229800Y-120132810D01*
X113140873Y-120093681D01*
X113079725Y-120032532D01*
X113013664Y-119938187D01*
X112852814Y-119777337D01*
X112666983Y-119647217D01*
X112599800Y-119577036D01*
X112564587Y-119486486D01*
X112566706Y-119389355D01*
X112605835Y-119300427D01*
X112666984Y-119239279D01*
X112724471Y-119199025D01*
X112043400Y-118517953D01*
X112124148Y-118505165D01*
X112237045Y-118447641D01*
X112326641Y-118358045D01*
X112384165Y-118245148D01*
X112396954Y-118164399D01*
X113078026Y-118845471D01*
G37*
%TD.AperFunction*%
%TA.AperFunction,Conductor*%
G36*
X128577892Y-111261625D02*
G01*
X128666819Y-111300753D01*
X128727968Y-111361902D01*
X128793953Y-111456139D01*
X128954861Y-111617047D01*
X128954864Y-111617049D01*
X128954865Y-111617050D01*
X129141258Y-111747563D01*
X129141262Y-111747565D01*
X129141266Y-111747568D01*
X129347504Y-111843739D01*
X129567308Y-111902635D01*
X129586984Y-111904356D01*
X129793994Y-111922468D01*
X129794000Y-111922468D01*
X129794006Y-111922468D01*
X129973668Y-111906749D01*
X130020692Y-111902635D01*
X130240496Y-111843739D01*
X130446734Y-111747568D01*
X130633139Y-111617047D01*
X130794047Y-111456139D01*
X130829512Y-111405488D01*
X130899691Y-111338306D01*
X130990240Y-111303092D01*
X131087372Y-111305211D01*
X131176300Y-111344339D01*
X131237445Y-111405483D01*
X131295505Y-111488401D01*
X131462599Y-111655495D01*
X131501925Y-111683031D01*
X131569107Y-111753209D01*
X131604321Y-111843758D01*
X131602202Y-111940890D01*
X131563074Y-112029818D01*
X131501928Y-112090965D01*
X131462603Y-112118501D01*
X131295504Y-112285600D01*
X131159965Y-112479169D01*
X131159961Y-112479177D01*
X131060098Y-112693333D01*
X131060097Y-112693335D01*
X130998935Y-112921598D01*
X130978341Y-113156994D01*
X130978341Y-113157005D01*
X130998935Y-113392401D01*
X130998937Y-113392408D01*
X131060097Y-113620663D01*
X131159965Y-113834830D01*
X131295505Y-114028401D01*
X131462599Y-114195495D01*
X131501925Y-114223031D01*
X131569107Y-114293209D01*
X131604321Y-114383758D01*
X131602202Y-114480890D01*
X131563074Y-114569818D01*
X131501928Y-114630965D01*
X131462603Y-114658501D01*
X131295504Y-114825600D01*
X131159965Y-115019169D01*
X131159961Y-115019177D01*
X131060098Y-115233333D01*
X131060097Y-115233335D01*
X130998935Y-115461598D01*
X130978341Y-115696994D01*
X130978341Y-115697005D01*
X130998935Y-115932401D01*
X130998937Y-115932408D01*
X131060097Y-116160663D01*
X131159965Y-116374830D01*
X131295505Y-116568401D01*
X131462599Y-116735495D01*
X131501925Y-116763031D01*
X131569107Y-116833209D01*
X131604321Y-116923758D01*
X131602202Y-117020890D01*
X131563074Y-117109818D01*
X131501928Y-117170965D01*
X131462603Y-117198501D01*
X131295504Y-117365600D01*
X131159965Y-117559169D01*
X131159961Y-117559177D01*
X131060098Y-117773333D01*
X131060097Y-117773335D01*
X130998935Y-118001598D01*
X130978341Y-118236994D01*
X130978341Y-118237005D01*
X130998935Y-118472401D01*
X131049724Y-118661952D01*
X131060097Y-118700663D01*
X131159965Y-118914829D01*
X131159965Y-118914830D01*
X131190990Y-118959139D01*
X131295505Y-119108401D01*
X131462599Y-119275495D01*
X131501925Y-119303031D01*
X131569107Y-119373209D01*
X131604321Y-119463758D01*
X131602202Y-119560890D01*
X131563074Y-119649818D01*
X131501928Y-119710965D01*
X131462603Y-119738501D01*
X131295503Y-119905601D01*
X131237448Y-119988512D01*
X131167266Y-120055695D01*
X131076717Y-120090907D01*
X130979585Y-120088787D01*
X130890658Y-120049658D01*
X130829512Y-119988511D01*
X130794047Y-119937861D01*
X130633139Y-119776953D01*
X130633135Y-119776950D01*
X130633134Y-119776949D01*
X130446741Y-119646436D01*
X130446727Y-119646428D01*
X130240499Y-119550262D01*
X130240496Y-119550261D01*
X130020694Y-119491365D01*
X130020679Y-119491363D01*
X129794006Y-119471532D01*
X129793994Y-119471532D01*
X129567320Y-119491363D01*
X129567305Y-119491365D01*
X129347503Y-119550261D01*
X129347500Y-119550262D01*
X129141272Y-119646428D01*
X129141258Y-119646436D01*
X128954865Y-119776949D01*
X128793949Y-119937865D01*
X128727969Y-120032096D01*
X128657788Y-120099280D01*
X128567239Y-120134493D01*
X128470107Y-120132374D01*
X128381180Y-120093245D01*
X128320031Y-120032096D01*
X128254050Y-119937865D01*
X128254048Y-119937863D01*
X128254047Y-119937861D01*
X128093139Y-119776953D01*
X128093135Y-119776950D01*
X128093134Y-119776949D01*
X127906741Y-119646436D01*
X127906727Y-119646428D01*
X127700499Y-119550262D01*
X127700496Y-119550261D01*
X127480694Y-119491365D01*
X127480679Y-119491363D01*
X127254006Y-119471532D01*
X127253994Y-119471532D01*
X127027320Y-119491363D01*
X127027305Y-119491365D01*
X126807503Y-119550261D01*
X126807500Y-119550262D01*
X126601272Y-119646428D01*
X126601258Y-119646436D01*
X126414865Y-119776949D01*
X126253949Y-119937865D01*
X126187969Y-120032096D01*
X126117788Y-120099280D01*
X126027239Y-120134493D01*
X125930107Y-120132374D01*
X125841180Y-120093245D01*
X125780031Y-120032096D01*
X125714050Y-119937865D01*
X125714048Y-119937863D01*
X125714047Y-119937861D01*
X125553139Y-119776953D01*
X125553135Y-119776950D01*
X125553134Y-119776949D01*
X125366741Y-119646436D01*
X125366727Y-119646428D01*
X125160499Y-119550262D01*
X125160496Y-119550261D01*
X124940694Y-119491365D01*
X124940679Y-119491363D01*
X124714006Y-119471532D01*
X124713994Y-119471532D01*
X124487320Y-119491363D01*
X124487305Y-119491365D01*
X124267503Y-119550261D01*
X124267500Y-119550262D01*
X124061272Y-119646428D01*
X124061258Y-119646436D01*
X123874865Y-119776949D01*
X123713949Y-119937865D01*
X123647969Y-120032096D01*
X123577788Y-120099280D01*
X123487239Y-120134493D01*
X123390107Y-120132374D01*
X123301180Y-120093245D01*
X123240031Y-120032096D01*
X123174050Y-119937865D01*
X123174048Y-119937863D01*
X123174047Y-119937861D01*
X123013139Y-119776953D01*
X123013135Y-119776950D01*
X123013134Y-119776949D01*
X122826741Y-119646436D01*
X122826727Y-119646428D01*
X122620499Y-119550262D01*
X122620496Y-119550261D01*
X122400694Y-119491365D01*
X122400679Y-119491363D01*
X122174006Y-119471532D01*
X122173994Y-119471532D01*
X121947320Y-119491363D01*
X121947305Y-119491365D01*
X121727503Y-119550261D01*
X121727500Y-119550262D01*
X121521272Y-119646428D01*
X121521258Y-119646436D01*
X121334865Y-119776949D01*
X121173949Y-119937865D01*
X121107969Y-120032096D01*
X121037788Y-120099280D01*
X120947239Y-120134493D01*
X120850107Y-120132374D01*
X120761180Y-120093245D01*
X120700031Y-120032096D01*
X120634050Y-119937865D01*
X120634048Y-119937863D01*
X120634047Y-119937861D01*
X120473139Y-119776953D01*
X120473135Y-119776950D01*
X120473134Y-119776949D01*
X120286741Y-119646436D01*
X120286727Y-119646428D01*
X120080499Y-119550262D01*
X120080496Y-119550261D01*
X119860694Y-119491365D01*
X119860679Y-119491363D01*
X119634006Y-119471532D01*
X119633994Y-119471532D01*
X119407320Y-119491363D01*
X119407305Y-119491365D01*
X119187503Y-119550261D01*
X119187500Y-119550262D01*
X118981272Y-119646428D01*
X118981258Y-119646436D01*
X118794865Y-119776949D01*
X118633949Y-119937865D01*
X118567969Y-120032096D01*
X118497788Y-120099280D01*
X118407239Y-120134493D01*
X118310107Y-120132374D01*
X118221180Y-120093245D01*
X118160031Y-120032096D01*
X118094050Y-119937865D01*
X118094048Y-119937863D01*
X118094047Y-119937861D01*
X117933139Y-119776953D01*
X117933135Y-119776950D01*
X117933134Y-119776949D01*
X117746741Y-119646436D01*
X117746727Y-119646428D01*
X117540499Y-119550262D01*
X117540496Y-119550261D01*
X117320694Y-119491365D01*
X117320679Y-119491363D01*
X117094006Y-119471532D01*
X117093994Y-119471532D01*
X116867320Y-119491363D01*
X116867305Y-119491365D01*
X116647503Y-119550261D01*
X116647500Y-119550262D01*
X116441272Y-119646428D01*
X116441258Y-119646436D01*
X116254865Y-119776949D01*
X116093949Y-119937865D01*
X116027969Y-120032096D01*
X115957788Y-120099280D01*
X115867239Y-120134493D01*
X115770107Y-120132374D01*
X115681180Y-120093245D01*
X115620031Y-120032096D01*
X115554050Y-119937865D01*
X115554048Y-119937863D01*
X115554047Y-119937861D01*
X115393139Y-119776953D01*
X115393135Y-119776950D01*
X115393134Y-119776949D01*
X115206736Y-119646432D01*
X115205226Y-119645561D01*
X115204175Y-119644639D01*
X115197829Y-119640196D01*
X115198315Y-119639501D01*
X115132178Y-119581506D01*
X115089204Y-119494372D01*
X115082846Y-119397425D01*
X115114072Y-119305425D01*
X115178127Y-119232377D01*
X115186872Y-119225964D01*
X115338139Y-119120047D01*
X115499047Y-118959139D01*
X115629568Y-118772734D01*
X115725739Y-118566496D01*
X115784635Y-118346692D01*
X115793519Y-118245148D01*
X115804468Y-118120005D01*
X115804468Y-118119994D01*
X115784636Y-117893320D01*
X115784635Y-117893308D01*
X115725739Y-117673504D01*
X115629568Y-117467266D01*
X115629565Y-117467262D01*
X115629563Y-117467258D01*
X115499050Y-117280865D01*
X115499049Y-117280864D01*
X115499047Y-117280861D01*
X115338139Y-117119953D01*
X115338135Y-117119950D01*
X115338134Y-117119949D01*
X115151741Y-116989436D01*
X115151727Y-116989428D01*
X114945499Y-116893262D01*
X114945496Y-116893261D01*
X114725694Y-116834365D01*
X114725679Y-116834363D01*
X114499006Y-116814532D01*
X114498994Y-116814532D01*
X114272320Y-116834363D01*
X114272305Y-116834365D01*
X114052503Y-116893261D01*
X114052500Y-116893262D01*
X113846272Y-116989428D01*
X113846258Y-116989436D01*
X113659865Y-117119949D01*
X113498950Y-117280864D01*
X113452662Y-117346970D01*
X113382480Y-117414154D01*
X113291930Y-117449366D01*
X113194798Y-117447245D01*
X113105872Y-117408116D01*
X113093650Y-117395894D01*
X113078025Y-117394527D01*
X112396953Y-118075597D01*
X112384165Y-117994852D01*
X112326641Y-117881955D01*
X112237045Y-117792359D01*
X112124148Y-117734835D01*
X112043399Y-117722045D01*
X112724472Y-117040973D01*
X112651485Y-116989868D01*
X112651483Y-116989866D01*
X112445323Y-116893732D01*
X112225603Y-116834859D01*
X111998999Y-116815034D01*
X111772397Y-116834859D01*
X111772396Y-116834859D01*
X111552676Y-116893732D01*
X111346513Y-116989868D01*
X111273527Y-117040972D01*
X111954600Y-117722045D01*
X111873852Y-117734835D01*
X111760955Y-117792359D01*
X111671359Y-117881955D01*
X111613835Y-117994852D01*
X111601045Y-118075600D01*
X110919971Y-117394526D01*
X110914529Y-117395002D01*
X110859843Y-117447354D01*
X110769294Y-117482567D01*
X110672162Y-117480448D01*
X110583235Y-117441319D01*
X110522084Y-117380167D01*
X110512112Y-117365925D01*
X110345075Y-117198888D01*
X110305637Y-117171273D01*
X110238454Y-117101091D01*
X110203242Y-117010542D01*
X110205362Y-116913410D01*
X110244491Y-116824483D01*
X110305636Y-116763338D01*
X110345401Y-116735495D01*
X110512495Y-116568401D01*
X110648035Y-116374830D01*
X110747903Y-116160663D01*
X110809063Y-115932408D01*
X110829659Y-115697000D01*
X110829659Y-115696994D01*
X110809064Y-115461598D01*
X110809063Y-115461595D01*
X110809063Y-115461592D01*
X110747903Y-115233337D01*
X110648035Y-115019171D01*
X110512495Y-114825599D01*
X110345401Y-114658505D01*
X110306074Y-114630967D01*
X110238891Y-114560789D01*
X110203678Y-114470240D01*
X110205797Y-114373108D01*
X110244925Y-114284181D01*
X110306073Y-114223032D01*
X110345401Y-114195495D01*
X110512495Y-114028401D01*
X110648035Y-113834830D01*
X110747903Y-113620663D01*
X110809063Y-113392408D01*
X110829659Y-113157000D01*
X110829659Y-113156994D01*
X110809064Y-112921598D01*
X110809063Y-112921595D01*
X110809063Y-112921592D01*
X110747903Y-112693337D01*
X110648035Y-112479171D01*
X110512495Y-112285599D01*
X110345401Y-112118505D01*
X110306074Y-112090967D01*
X110238891Y-112020789D01*
X110203678Y-111930240D01*
X110205797Y-111833108D01*
X110244925Y-111744181D01*
X110306073Y-111683032D01*
X110345401Y-111655495D01*
X110383616Y-111617279D01*
X110464391Y-111563307D01*
X110559679Y-111544352D01*
X110654968Y-111563305D01*
X110735750Y-111617280D01*
X110757625Y-111646499D01*
X110759531Y-111645073D01*
X110770203Y-111659329D01*
X110770204Y-111659331D01*
X110856454Y-111774546D01*
X110971669Y-111860796D01*
X111106517Y-111911091D01*
X111166127Y-111917500D01*
X112861872Y-111917499D01*
X112921483Y-111911091D01*
X113056331Y-111860796D01*
X113171546Y-111774546D01*
X113257796Y-111659331D01*
X113258043Y-111658666D01*
X113259037Y-111657058D01*
X113266330Y-111643702D01*
X113267045Y-111644092D01*
X113309094Y-111576011D01*
X113387894Y-111519181D01*
X113482443Y-111496831D01*
X113578348Y-111512366D01*
X113661008Y-111563419D01*
X113667388Y-111569574D01*
X113714861Y-111617047D01*
X113714864Y-111617049D01*
X113714865Y-111617050D01*
X113901258Y-111747563D01*
X113901262Y-111747565D01*
X113901266Y-111747568D01*
X114107504Y-111843739D01*
X114327308Y-111902635D01*
X114346984Y-111904356D01*
X114553994Y-111922468D01*
X114554000Y-111922468D01*
X114554006Y-111922468D01*
X114733668Y-111906749D01*
X114780692Y-111902635D01*
X115000496Y-111843739D01*
X115206734Y-111747568D01*
X115393139Y-111617047D01*
X115554047Y-111456139D01*
X115620031Y-111361902D01*
X115690211Y-111294719D01*
X115780760Y-111259506D01*
X115877892Y-111261625D01*
X115966819Y-111300753D01*
X116027968Y-111361902D01*
X116093953Y-111456139D01*
X116254861Y-111617047D01*
X116254864Y-111617049D01*
X116254865Y-111617050D01*
X116441258Y-111747563D01*
X116441262Y-111747565D01*
X116441266Y-111747568D01*
X116647504Y-111843739D01*
X116867308Y-111902635D01*
X116886984Y-111904356D01*
X117093994Y-111922468D01*
X117094000Y-111922468D01*
X117094006Y-111922468D01*
X117273668Y-111906749D01*
X117320692Y-111902635D01*
X117540496Y-111843739D01*
X117746734Y-111747568D01*
X117933139Y-111617047D01*
X118094047Y-111456139D01*
X118160031Y-111361902D01*
X118230211Y-111294719D01*
X118320760Y-111259506D01*
X118417892Y-111261625D01*
X118506819Y-111300753D01*
X118567968Y-111361902D01*
X118633953Y-111456139D01*
X118794861Y-111617047D01*
X118794864Y-111617049D01*
X118794865Y-111617050D01*
X118981258Y-111747563D01*
X118981262Y-111747565D01*
X118981266Y-111747568D01*
X119187504Y-111843739D01*
X119407308Y-111902635D01*
X119426984Y-111904356D01*
X119633994Y-111922468D01*
X119634000Y-111922468D01*
X119634006Y-111922468D01*
X119813668Y-111906749D01*
X119860692Y-111902635D01*
X120080496Y-111843739D01*
X120286734Y-111747568D01*
X120473139Y-111617047D01*
X120634047Y-111456139D01*
X120700031Y-111361902D01*
X120770211Y-111294719D01*
X120860760Y-111259506D01*
X120957892Y-111261625D01*
X121046819Y-111300753D01*
X121107968Y-111361902D01*
X121173953Y-111456139D01*
X121334861Y-111617047D01*
X121334864Y-111617049D01*
X121334865Y-111617050D01*
X121521258Y-111747563D01*
X121521262Y-111747565D01*
X121521266Y-111747568D01*
X121727504Y-111843739D01*
X121947308Y-111902635D01*
X121966984Y-111904356D01*
X122173994Y-111922468D01*
X122174000Y-111922468D01*
X122174006Y-111922468D01*
X122353668Y-111906749D01*
X122400692Y-111902635D01*
X122620496Y-111843739D01*
X122826734Y-111747568D01*
X123013139Y-111617047D01*
X123174047Y-111456139D01*
X123240031Y-111361902D01*
X123310211Y-111294719D01*
X123400760Y-111259506D01*
X123497892Y-111261625D01*
X123586819Y-111300753D01*
X123647968Y-111361902D01*
X123713953Y-111456139D01*
X123874861Y-111617047D01*
X123874864Y-111617049D01*
X123874865Y-111617050D01*
X124061258Y-111747563D01*
X124061262Y-111747565D01*
X124061266Y-111747568D01*
X124267504Y-111843739D01*
X124487308Y-111902635D01*
X124506984Y-111904356D01*
X124713994Y-111922468D01*
X124714000Y-111922468D01*
X124714006Y-111922468D01*
X124893668Y-111906749D01*
X124940692Y-111902635D01*
X125160496Y-111843739D01*
X125366734Y-111747568D01*
X125553139Y-111617047D01*
X125714047Y-111456139D01*
X125780031Y-111361902D01*
X125850211Y-111294719D01*
X125940760Y-111259506D01*
X126037892Y-111261625D01*
X126126819Y-111300753D01*
X126187968Y-111361902D01*
X126253953Y-111456139D01*
X126414861Y-111617047D01*
X126414864Y-111617049D01*
X126414865Y-111617050D01*
X126601258Y-111747563D01*
X126601262Y-111747565D01*
X126601266Y-111747568D01*
X126807504Y-111843739D01*
X127027308Y-111902635D01*
X127046984Y-111904356D01*
X127253994Y-111922468D01*
X127254000Y-111922468D01*
X127254006Y-111922468D01*
X127433668Y-111906749D01*
X127480692Y-111902635D01*
X127700496Y-111843739D01*
X127906734Y-111747568D01*
X128093139Y-111617047D01*
X128254047Y-111456139D01*
X128320031Y-111361902D01*
X128390211Y-111294719D01*
X128480760Y-111259506D01*
X128577892Y-111261625D01*
G37*
%TD.AperFunction*%
%TA.AperFunction,Conductor*%
G36*
X111613835Y-118245148D02*
G01*
X111671359Y-118358045D01*
X111760955Y-118447641D01*
X111873852Y-118505165D01*
X111954599Y-118517953D01*
X111273527Y-119199026D01*
X111346015Y-119249783D01*
X111413199Y-119319965D01*
X111448411Y-119410514D01*
X111446292Y-119507646D01*
X111407163Y-119596573D01*
X111346015Y-119657721D01*
X111175185Y-119777337D01*
X111014336Y-119938186D01*
X110978487Y-119989384D01*
X110908305Y-120056568D01*
X110817755Y-120091779D01*
X110720624Y-120089659D01*
X110631697Y-120050530D01*
X110570551Y-119989383D01*
X110512113Y-119905926D01*
X110345075Y-119738888D01*
X110305203Y-119710970D01*
X110238018Y-119640789D01*
X110202805Y-119550240D01*
X110204924Y-119453108D01*
X110244052Y-119364181D01*
X110305203Y-119303030D01*
X110345075Y-119275111D01*
X110512112Y-119108074D01*
X110626460Y-118944768D01*
X110696641Y-118877584D01*
X110787190Y-118842371D01*
X110852132Y-118839536D01*
X110919973Y-118845471D01*
X111601045Y-118164399D01*
X111613835Y-118245148D01*
G37*
%TD.AperFunction*%
%TA.AperFunction,Conductor*%
G36*
X112264000Y-104275871D02*
G01*
X112460323Y-104223267D01*
X112666483Y-104127133D01*
X112852812Y-103996664D01*
X113013663Y-103835813D01*
X113079724Y-103741468D01*
X113149905Y-103674283D01*
X113240454Y-103639070D01*
X113337586Y-103641189D01*
X113426513Y-103680317D01*
X113487663Y-103741467D01*
X113553725Y-103835814D01*
X113553953Y-103836139D01*
X113714861Y-103997047D01*
X113714864Y-103997049D01*
X113714865Y-103997050D01*
X113901258Y-104127563D01*
X113901262Y-104127565D01*
X113901266Y-104127568D01*
X114107504Y-104223739D01*
X114327308Y-104282635D01*
X114346984Y-104284356D01*
X114553994Y-104302468D01*
X114554000Y-104302468D01*
X114554006Y-104302468D01*
X114733668Y-104286749D01*
X114780692Y-104282635D01*
X115000496Y-104223739D01*
X115206734Y-104127568D01*
X115393139Y-103997047D01*
X115554047Y-103836139D01*
X115620031Y-103741902D01*
X115690211Y-103674719D01*
X115780760Y-103639506D01*
X115877892Y-103641625D01*
X115966819Y-103680753D01*
X116027968Y-103741902D01*
X116093953Y-103836139D01*
X116254861Y-103997047D01*
X116254864Y-103997049D01*
X116254865Y-103997050D01*
X116441258Y-104127563D01*
X116441262Y-104127565D01*
X116441266Y-104127568D01*
X116647504Y-104223739D01*
X116867308Y-104282635D01*
X116886984Y-104284356D01*
X117093994Y-104302468D01*
X117094000Y-104302468D01*
X117094006Y-104302468D01*
X117273668Y-104286749D01*
X117320692Y-104282635D01*
X117540496Y-104223739D01*
X117746734Y-104127568D01*
X117933139Y-103997047D01*
X118094047Y-103836139D01*
X118160031Y-103741902D01*
X118230211Y-103674719D01*
X118320760Y-103639506D01*
X118417892Y-103641625D01*
X118506819Y-103680753D01*
X118567968Y-103741902D01*
X118633953Y-103836139D01*
X118794861Y-103997047D01*
X118794864Y-103997049D01*
X118794865Y-103997050D01*
X118981258Y-104127563D01*
X118981262Y-104127565D01*
X118981266Y-104127568D01*
X119187504Y-104223739D01*
X119407308Y-104282635D01*
X119426984Y-104284356D01*
X119633994Y-104302468D01*
X119634000Y-104302468D01*
X119634006Y-104302468D01*
X119813668Y-104286749D01*
X119860692Y-104282635D01*
X120080496Y-104223739D01*
X120286734Y-104127568D01*
X120473139Y-103997047D01*
X120634047Y-103836139D01*
X120700031Y-103741902D01*
X120770211Y-103674719D01*
X120860760Y-103639506D01*
X120957892Y-103641625D01*
X121046819Y-103680753D01*
X121107968Y-103741902D01*
X121173953Y-103836139D01*
X121334861Y-103997047D01*
X121334864Y-103997049D01*
X121334865Y-103997050D01*
X121521258Y-104127563D01*
X121521262Y-104127565D01*
X121521266Y-104127568D01*
X121727504Y-104223739D01*
X121947308Y-104282635D01*
X121966984Y-104284356D01*
X122173994Y-104302468D01*
X122174000Y-104302468D01*
X122174006Y-104302468D01*
X122353668Y-104286749D01*
X122400692Y-104282635D01*
X122620496Y-104223739D01*
X122826734Y-104127568D01*
X123013139Y-103997047D01*
X123174047Y-103836139D01*
X123240031Y-103741902D01*
X123310211Y-103674719D01*
X123400760Y-103639506D01*
X123497892Y-103641625D01*
X123586819Y-103680753D01*
X123647968Y-103741902D01*
X123713953Y-103836139D01*
X123874861Y-103997047D01*
X123874864Y-103997049D01*
X123874865Y-103997050D01*
X124061258Y-104127563D01*
X124061262Y-104127565D01*
X124061266Y-104127568D01*
X124267504Y-104223739D01*
X124487308Y-104282635D01*
X124506984Y-104284356D01*
X124713994Y-104302468D01*
X124714000Y-104302468D01*
X124714006Y-104302468D01*
X124893668Y-104286749D01*
X124940692Y-104282635D01*
X125160496Y-104223739D01*
X125366734Y-104127568D01*
X125553139Y-103997047D01*
X125714047Y-103836139D01*
X125780031Y-103741902D01*
X125850211Y-103674719D01*
X125940760Y-103639506D01*
X126037892Y-103641625D01*
X126126819Y-103680753D01*
X126187968Y-103741902D01*
X126253953Y-103836139D01*
X126414861Y-103997047D01*
X126414864Y-103997049D01*
X126414865Y-103997050D01*
X126601258Y-104127563D01*
X126601262Y-104127565D01*
X126601266Y-104127568D01*
X126807504Y-104223739D01*
X127027308Y-104282635D01*
X127046984Y-104284356D01*
X127253994Y-104302468D01*
X127254000Y-104302468D01*
X127254006Y-104302468D01*
X127433668Y-104286749D01*
X127480692Y-104282635D01*
X127700496Y-104223739D01*
X127906734Y-104127568D01*
X128093139Y-103997047D01*
X128254047Y-103836139D01*
X128320031Y-103741902D01*
X128390211Y-103674719D01*
X128480760Y-103639506D01*
X128577892Y-103641625D01*
X128666819Y-103680753D01*
X128727968Y-103741902D01*
X128793953Y-103836139D01*
X128954861Y-103997047D01*
X128954864Y-103997049D01*
X128954865Y-103997050D01*
X129141258Y-104127563D01*
X129141262Y-104127565D01*
X129141266Y-104127568D01*
X129347504Y-104223739D01*
X129567308Y-104282635D01*
X129586984Y-104284356D01*
X129793994Y-104302468D01*
X129794000Y-104302468D01*
X129794006Y-104302468D01*
X129973668Y-104286749D01*
X130020692Y-104282635D01*
X130240496Y-104223739D01*
X130446734Y-104127568D01*
X130633139Y-103997047D01*
X130794047Y-103836139D01*
X130829512Y-103785488D01*
X130899691Y-103718306D01*
X130990240Y-103683092D01*
X131087372Y-103685211D01*
X131176300Y-103724339D01*
X131237445Y-103785483D01*
X131295505Y-103868401D01*
X131462599Y-104035495D01*
X131501925Y-104063031D01*
X131569107Y-104133209D01*
X131604321Y-104223758D01*
X131602202Y-104320890D01*
X131563074Y-104409818D01*
X131501928Y-104470965D01*
X131462603Y-104498501D01*
X131295504Y-104665600D01*
X131159965Y-104859169D01*
X131159961Y-104859177D01*
X131060098Y-105073333D01*
X131060097Y-105073335D01*
X130998935Y-105301598D01*
X130978341Y-105536994D01*
X130978341Y-105537005D01*
X130998935Y-105772401D01*
X130998937Y-105772408D01*
X131060097Y-106000663D01*
X131159965Y-106214830D01*
X131295505Y-106408401D01*
X131462599Y-106575495D01*
X131501925Y-106603031D01*
X131569107Y-106673209D01*
X131604321Y-106763758D01*
X131602202Y-106860890D01*
X131563074Y-106949818D01*
X131501928Y-107010965D01*
X131462603Y-107038501D01*
X131295504Y-107205600D01*
X131159965Y-107399169D01*
X131159961Y-107399177D01*
X131060098Y-107613333D01*
X131060097Y-107613335D01*
X130998935Y-107841598D01*
X130978341Y-108076994D01*
X130978341Y-108077005D01*
X130998935Y-108312401D01*
X130998937Y-108312408D01*
X131060097Y-108540663D01*
X131159965Y-108754830D01*
X131295505Y-108948401D01*
X131462599Y-109115495D01*
X131501925Y-109143031D01*
X131569107Y-109213209D01*
X131604321Y-109303758D01*
X131602202Y-109400890D01*
X131563074Y-109489818D01*
X131501928Y-109550965D01*
X131462603Y-109578501D01*
X131295503Y-109745601D01*
X131237448Y-109828512D01*
X131167266Y-109895695D01*
X131076717Y-109930907D01*
X130979585Y-109928787D01*
X130890658Y-109889658D01*
X130829512Y-109828511D01*
X130794047Y-109777861D01*
X130633139Y-109616953D01*
X130633135Y-109616950D01*
X130633134Y-109616949D01*
X130446741Y-109486436D01*
X130446727Y-109486428D01*
X130240499Y-109390262D01*
X130240496Y-109390261D01*
X130020694Y-109331365D01*
X130020679Y-109331363D01*
X129794006Y-109311532D01*
X129793994Y-109311532D01*
X129567320Y-109331363D01*
X129567305Y-109331365D01*
X129347503Y-109390261D01*
X129347500Y-109390262D01*
X129141272Y-109486428D01*
X129141258Y-109486436D01*
X128954865Y-109616949D01*
X128793949Y-109777865D01*
X128727969Y-109872096D01*
X128657788Y-109939280D01*
X128567239Y-109974493D01*
X128470107Y-109972374D01*
X128381180Y-109933245D01*
X128320031Y-109872096D01*
X128254050Y-109777865D01*
X128254049Y-109777864D01*
X128254047Y-109777861D01*
X128093139Y-109616953D01*
X128093135Y-109616950D01*
X128093134Y-109616949D01*
X127906741Y-109486436D01*
X127906727Y-109486428D01*
X127700499Y-109390262D01*
X127700496Y-109390261D01*
X127480694Y-109331365D01*
X127480679Y-109331363D01*
X127254006Y-109311532D01*
X127253994Y-109311532D01*
X127027320Y-109331363D01*
X127027305Y-109331365D01*
X126807503Y-109390261D01*
X126807500Y-109390262D01*
X126601272Y-109486428D01*
X126601258Y-109486436D01*
X126414865Y-109616949D01*
X126253949Y-109777865D01*
X126187969Y-109872096D01*
X126117788Y-109939280D01*
X126027239Y-109974493D01*
X125930107Y-109972374D01*
X125841180Y-109933245D01*
X125780031Y-109872096D01*
X125714050Y-109777865D01*
X125714049Y-109777864D01*
X125714047Y-109777861D01*
X125553139Y-109616953D01*
X125553135Y-109616950D01*
X125553134Y-109616949D01*
X125366741Y-109486436D01*
X125366727Y-109486428D01*
X125160499Y-109390262D01*
X125160496Y-109390261D01*
X124940694Y-109331365D01*
X124940679Y-109331363D01*
X124714006Y-109311532D01*
X124713994Y-109311532D01*
X124487320Y-109331363D01*
X124487305Y-109331365D01*
X124267503Y-109390261D01*
X124267500Y-109390262D01*
X124061272Y-109486428D01*
X124061258Y-109486436D01*
X123874865Y-109616949D01*
X123713949Y-109777865D01*
X123647969Y-109872096D01*
X123577788Y-109939280D01*
X123487239Y-109974493D01*
X123390107Y-109972374D01*
X123301180Y-109933245D01*
X123240031Y-109872096D01*
X123174050Y-109777865D01*
X123174049Y-109777864D01*
X123174047Y-109777861D01*
X123013139Y-109616953D01*
X123013135Y-109616950D01*
X123013134Y-109616949D01*
X122826741Y-109486436D01*
X122826727Y-109486428D01*
X122620499Y-109390262D01*
X122620496Y-109390261D01*
X122400694Y-109331365D01*
X122400679Y-109331363D01*
X122174006Y-109311532D01*
X122173994Y-109311532D01*
X121947320Y-109331363D01*
X121947305Y-109331365D01*
X121727503Y-109390261D01*
X121727500Y-109390262D01*
X121521272Y-109486428D01*
X121521258Y-109486436D01*
X121334865Y-109616949D01*
X121173949Y-109777865D01*
X121107969Y-109872096D01*
X121037788Y-109939280D01*
X120947239Y-109974493D01*
X120850107Y-109972374D01*
X120761180Y-109933245D01*
X120700031Y-109872096D01*
X120634050Y-109777865D01*
X120634049Y-109777864D01*
X120634047Y-109777861D01*
X120473139Y-109616953D01*
X120473135Y-109616950D01*
X120473134Y-109616949D01*
X120286741Y-109486436D01*
X120286727Y-109486428D01*
X120080499Y-109390262D01*
X120080496Y-109390261D01*
X119860694Y-109331365D01*
X119860679Y-109331363D01*
X119634006Y-109311532D01*
X119633994Y-109311532D01*
X119407320Y-109331363D01*
X119407305Y-109331365D01*
X119187503Y-109390261D01*
X119187500Y-109390262D01*
X118981272Y-109486428D01*
X118981258Y-109486436D01*
X118794865Y-109616949D01*
X118633949Y-109777865D01*
X118567969Y-109872096D01*
X118497788Y-109939280D01*
X118407239Y-109974493D01*
X118310107Y-109972374D01*
X118221180Y-109933245D01*
X118160031Y-109872096D01*
X118094050Y-109777865D01*
X118094049Y-109777864D01*
X118094047Y-109777861D01*
X117933139Y-109616953D01*
X117933135Y-109616950D01*
X117933134Y-109616949D01*
X117746741Y-109486436D01*
X117746727Y-109486428D01*
X117540499Y-109390262D01*
X117540496Y-109390261D01*
X117320694Y-109331365D01*
X117320679Y-109331363D01*
X117094006Y-109311532D01*
X117093994Y-109311532D01*
X116867320Y-109331363D01*
X116867305Y-109331365D01*
X116647503Y-109390261D01*
X116647500Y-109390262D01*
X116441272Y-109486428D01*
X116441258Y-109486436D01*
X116254865Y-109616949D01*
X116093949Y-109777865D01*
X116027969Y-109872096D01*
X115957788Y-109939280D01*
X115867239Y-109974493D01*
X115770107Y-109972374D01*
X115681180Y-109933245D01*
X115620031Y-109872096D01*
X115554050Y-109777865D01*
X115554049Y-109777864D01*
X115554047Y-109777861D01*
X115393139Y-109616953D01*
X115393135Y-109616950D01*
X115393134Y-109616949D01*
X115206741Y-109486436D01*
X115206727Y-109486428D01*
X115000499Y-109390262D01*
X115000496Y-109390261D01*
X114780694Y-109331365D01*
X114780679Y-109331363D01*
X114554006Y-109311532D01*
X114553994Y-109311532D01*
X114327320Y-109331363D01*
X114327305Y-109331365D01*
X114107503Y-109390261D01*
X114107500Y-109390262D01*
X113901272Y-109486428D01*
X113901258Y-109486436D01*
X113714861Y-109616952D01*
X113667415Y-109664398D01*
X113586633Y-109718374D01*
X113491345Y-109737327D01*
X113396057Y-109718372D01*
X113315276Y-109664395D01*
X113261300Y-109583613D01*
X113258066Y-109575394D01*
X113257796Y-109574669D01*
X113171546Y-109459454D01*
X113056331Y-109373204D01*
X112944155Y-109331365D01*
X112921481Y-109322908D01*
X112861873Y-109316500D01*
X111166134Y-109316500D01*
X111166130Y-109316500D01*
X111166128Y-109316501D01*
X111153313Y-109317878D01*
X111106519Y-109322908D01*
X111106515Y-109322909D01*
X110971670Y-109373203D01*
X110856455Y-109459453D01*
X110856453Y-109459455D01*
X110836261Y-109486428D01*
X110770206Y-109574667D01*
X110759531Y-109588927D01*
X110756154Y-109586399D01*
X110715822Y-109634609D01*
X110629711Y-109679597D01*
X110532938Y-109688207D01*
X110440237Y-109659128D01*
X110383615Y-109616719D01*
X110345401Y-109578505D01*
X110306074Y-109550967D01*
X110238891Y-109480789D01*
X110203678Y-109390240D01*
X110205797Y-109293108D01*
X110244925Y-109204181D01*
X110306073Y-109143032D01*
X110345401Y-109115495D01*
X110512495Y-108948401D01*
X110648035Y-108754830D01*
X110747903Y-108540663D01*
X110809063Y-108312408D01*
X110829659Y-108077000D01*
X110829659Y-108076994D01*
X110809064Y-107841598D01*
X110809063Y-107841595D01*
X110809063Y-107841592D01*
X110747903Y-107613337D01*
X110648035Y-107399171D01*
X110512495Y-107205599D01*
X110345401Y-107038505D01*
X110306074Y-107010967D01*
X110238891Y-106940789D01*
X110203678Y-106850240D01*
X110205797Y-106753108D01*
X110244925Y-106664181D01*
X110306073Y-106603032D01*
X110345401Y-106575495D01*
X110512495Y-106408401D01*
X110648035Y-106214830D01*
X110747903Y-106000663D01*
X110809063Y-105772408D01*
X110829659Y-105537000D01*
X110829659Y-105536994D01*
X110809064Y-105301598D01*
X110809063Y-105301595D01*
X110809063Y-105301592D01*
X110747903Y-105073337D01*
X110648035Y-104859171D01*
X110512495Y-104665599D01*
X110345401Y-104498505D01*
X110345397Y-104498502D01*
X110345396Y-104498501D01*
X110305638Y-104470662D01*
X110238454Y-104400481D01*
X110203242Y-104309931D01*
X110205362Y-104212800D01*
X110244491Y-104123873D01*
X110305640Y-104062724D01*
X110345075Y-104035111D01*
X110512112Y-103868074D01*
X110570550Y-103784617D01*
X110640731Y-103717433D01*
X110731280Y-103682220D01*
X110828412Y-103684339D01*
X110917339Y-103723468D01*
X110978488Y-103784616D01*
X111014337Y-103835814D01*
X111175187Y-103996664D01*
X111361516Y-104127133D01*
X111567676Y-104223267D01*
X111763999Y-104275871D01*
X111764000Y-104275871D01*
X111764000Y-103312686D01*
X111775955Y-103324641D01*
X111888852Y-103382165D01*
X111982519Y-103397000D01*
X112045481Y-103397000D01*
X112139148Y-103382165D01*
X112252045Y-103324641D01*
X112264000Y-103312686D01*
X112264000Y-104275871D01*
G37*
%TD.AperFunction*%
%TA.AperFunction,Conductor*%
G36*
X111686359Y-102758955D02*
G01*
X111628835Y-102871852D01*
X111609014Y-102997000D01*
X111628835Y-103122148D01*
X111686359Y-103235045D01*
X111698314Y-103247000D01*
X109907686Y-103247000D01*
X109933493Y-103206844D01*
X109974000Y-103068889D01*
X109974000Y-102925111D01*
X109933493Y-102787156D01*
X109907686Y-102747000D01*
X111698314Y-102747000D01*
X111686359Y-102758955D01*
G37*
%TD.AperFunction*%
%TA.AperFunction,Conductor*%
G36*
X109724000Y-102561498D02*
G01*
X109616315Y-102512320D01*
X109509763Y-102497000D01*
X109438237Y-102497000D01*
X109331685Y-102512320D01*
X109224000Y-102561498D01*
X109224000Y-100892501D01*
X109331685Y-100941680D01*
X109438237Y-100957000D01*
X109509763Y-100957000D01*
X109616315Y-100941680D01*
X109724000Y-100892501D01*
X109724000Y-102561498D01*
G37*
%TD.AperFunction*%
%TA.AperFunction,Conductor*%
G36*
X113113025Y-101055471D02*
G01*
X113131051Y-101053894D01*
X113149905Y-101035846D01*
X113240454Y-101000633D01*
X113337586Y-101002752D01*
X113426513Y-101041880D01*
X113487663Y-101103030D01*
X113509929Y-101134830D01*
X113533953Y-101169139D01*
X113694861Y-101330047D01*
X113694864Y-101330049D01*
X113694865Y-101330050D01*
X113889784Y-101466533D01*
X113956968Y-101536714D01*
X113992181Y-101627263D01*
X113990062Y-101724395D01*
X113950933Y-101813322D01*
X113889784Y-101874471D01*
X113714865Y-101996949D01*
X113553951Y-102157863D01*
X113487663Y-102252533D01*
X113417481Y-102319717D01*
X113326932Y-102354929D01*
X113229800Y-102352810D01*
X113140873Y-102313681D01*
X113079725Y-102252532D01*
X113013664Y-102158187D01*
X112852814Y-101997337D01*
X112677320Y-101874455D01*
X112610137Y-101804274D01*
X112574924Y-101713724D01*
X112577043Y-101616593D01*
X112616172Y-101527665D01*
X112678631Y-101467874D01*
X112677578Y-101466370D01*
X112759471Y-101409027D01*
X112759471Y-101409025D01*
X112078400Y-100727953D01*
X112159148Y-100715165D01*
X112272045Y-100657641D01*
X112361641Y-100568045D01*
X112419165Y-100455148D01*
X112431953Y-100374400D01*
X113113025Y-101055471D01*
G37*
%TD.AperFunction*%
%TA.AperFunction,Conductor*%
G36*
X128577892Y-93481625D02*
G01*
X128666819Y-93520753D01*
X128727968Y-93581902D01*
X128793953Y-93676139D01*
X128954861Y-93837047D01*
X128954864Y-93837049D01*
X128954865Y-93837050D01*
X129141258Y-93967563D01*
X129141262Y-93967565D01*
X129141266Y-93967568D01*
X129347504Y-94063739D01*
X129567308Y-94122635D01*
X129586984Y-94124356D01*
X129793994Y-94142468D01*
X129794000Y-94142468D01*
X129794006Y-94142468D01*
X129973668Y-94126749D01*
X130020692Y-94122635D01*
X130240496Y-94063739D01*
X130446734Y-93967568D01*
X130633139Y-93837047D01*
X130794047Y-93676139D01*
X130829512Y-93625488D01*
X130899691Y-93558306D01*
X130990240Y-93523092D01*
X131087372Y-93525211D01*
X131176300Y-93564339D01*
X131237445Y-93625483D01*
X131295505Y-93708401D01*
X131462599Y-93875495D01*
X131501925Y-93903031D01*
X131569107Y-93973209D01*
X131604321Y-94063758D01*
X131602202Y-94160890D01*
X131563074Y-94249818D01*
X131501928Y-94310965D01*
X131462603Y-94338501D01*
X131295504Y-94505600D01*
X131159965Y-94699169D01*
X131159961Y-94699177D01*
X131060098Y-94913333D01*
X131060097Y-94913335D01*
X130998935Y-95141598D01*
X130978341Y-95376994D01*
X130978341Y-95377005D01*
X130998935Y-95612401D01*
X130998937Y-95612408D01*
X131060097Y-95840663D01*
X131159965Y-96054830D01*
X131295505Y-96248401D01*
X131462599Y-96415495D01*
X131501925Y-96443031D01*
X131569107Y-96513209D01*
X131604321Y-96603758D01*
X131602202Y-96700890D01*
X131563074Y-96789818D01*
X131501928Y-96850965D01*
X131462603Y-96878501D01*
X131295504Y-97045600D01*
X131159965Y-97239169D01*
X131159961Y-97239177D01*
X131060098Y-97453333D01*
X131060097Y-97453335D01*
X130998935Y-97681598D01*
X130978341Y-97916994D01*
X130978341Y-97917005D01*
X130998935Y-98152401D01*
X130998937Y-98152408D01*
X131060097Y-98380663D01*
X131159965Y-98594830D01*
X131295505Y-98788401D01*
X131462599Y-98955495D01*
X131501925Y-98983031D01*
X131569107Y-99053209D01*
X131604321Y-99143758D01*
X131602202Y-99240890D01*
X131563074Y-99329818D01*
X131501928Y-99390965D01*
X131462603Y-99418501D01*
X131295504Y-99585600D01*
X131159965Y-99779169D01*
X131159961Y-99779177D01*
X131060098Y-99993333D01*
X131060097Y-99993335D01*
X130998935Y-100221598D01*
X130978341Y-100456994D01*
X130978341Y-100457005D01*
X130998935Y-100692401D01*
X131049724Y-100881952D01*
X131060097Y-100920663D01*
X131159965Y-101134830D01*
X131295505Y-101328401D01*
X131462599Y-101495495D01*
X131501925Y-101523031D01*
X131569107Y-101593209D01*
X131604321Y-101683758D01*
X131602202Y-101780890D01*
X131563074Y-101869818D01*
X131501928Y-101930965D01*
X131462603Y-101958501D01*
X131295503Y-102125601D01*
X131237448Y-102208512D01*
X131167266Y-102275695D01*
X131076717Y-102310907D01*
X130979585Y-102308787D01*
X130890658Y-102269658D01*
X130829512Y-102208511D01*
X130794047Y-102157861D01*
X130633139Y-101996953D01*
X130633135Y-101996950D01*
X130633134Y-101996949D01*
X130446741Y-101866436D01*
X130446727Y-101866428D01*
X130240499Y-101770262D01*
X130240496Y-101770261D01*
X130020694Y-101711365D01*
X130020679Y-101711363D01*
X129794006Y-101691532D01*
X129793994Y-101691532D01*
X129567320Y-101711363D01*
X129567305Y-101711365D01*
X129347503Y-101770261D01*
X129347500Y-101770262D01*
X129141272Y-101866428D01*
X129141258Y-101866436D01*
X128954865Y-101996949D01*
X128793949Y-102157865D01*
X128727969Y-102252096D01*
X128657788Y-102319280D01*
X128567239Y-102354493D01*
X128470107Y-102352374D01*
X128381180Y-102313245D01*
X128320031Y-102252096D01*
X128254050Y-102157865D01*
X128254048Y-102157863D01*
X128254047Y-102157861D01*
X128093139Y-101996953D01*
X128093135Y-101996950D01*
X128093134Y-101996949D01*
X127906741Y-101866436D01*
X127906727Y-101866428D01*
X127700499Y-101770262D01*
X127700496Y-101770261D01*
X127480694Y-101711365D01*
X127480679Y-101711363D01*
X127254006Y-101691532D01*
X127253994Y-101691532D01*
X127027320Y-101711363D01*
X127027305Y-101711365D01*
X126807503Y-101770261D01*
X126807500Y-101770262D01*
X126601272Y-101866428D01*
X126601258Y-101866436D01*
X126414865Y-101996949D01*
X126253949Y-102157865D01*
X126187969Y-102252096D01*
X126117788Y-102319280D01*
X126027239Y-102354493D01*
X125930107Y-102352374D01*
X125841180Y-102313245D01*
X125780031Y-102252096D01*
X125714050Y-102157865D01*
X125714048Y-102157863D01*
X125714047Y-102157861D01*
X125553139Y-101996953D01*
X125553135Y-101996950D01*
X125553134Y-101996949D01*
X125366741Y-101866436D01*
X125366727Y-101866428D01*
X125160499Y-101770262D01*
X125160496Y-101770261D01*
X124940694Y-101711365D01*
X124940679Y-101711363D01*
X124714006Y-101691532D01*
X124713994Y-101691532D01*
X124487320Y-101711363D01*
X124487305Y-101711365D01*
X124267503Y-101770261D01*
X124267500Y-101770262D01*
X124061272Y-101866428D01*
X124061258Y-101866436D01*
X123874865Y-101996949D01*
X123713949Y-102157865D01*
X123647969Y-102252096D01*
X123577788Y-102319280D01*
X123487239Y-102354493D01*
X123390107Y-102352374D01*
X123301180Y-102313245D01*
X123240031Y-102252096D01*
X123174050Y-102157865D01*
X123174048Y-102157863D01*
X123174047Y-102157861D01*
X123013139Y-101996953D01*
X123013135Y-101996950D01*
X123013134Y-101996949D01*
X122826741Y-101866436D01*
X122826727Y-101866428D01*
X122620499Y-101770262D01*
X122620496Y-101770261D01*
X122400694Y-101711365D01*
X122400679Y-101711363D01*
X122174006Y-101691532D01*
X122173994Y-101691532D01*
X121947320Y-101711363D01*
X121947305Y-101711365D01*
X121727503Y-101770261D01*
X121727500Y-101770262D01*
X121521272Y-101866428D01*
X121521258Y-101866436D01*
X121334865Y-101996949D01*
X121173949Y-102157865D01*
X121107969Y-102252096D01*
X121037788Y-102319280D01*
X120947239Y-102354493D01*
X120850107Y-102352374D01*
X120761180Y-102313245D01*
X120700031Y-102252096D01*
X120634050Y-102157865D01*
X120634048Y-102157863D01*
X120634047Y-102157861D01*
X120473139Y-101996953D01*
X120473135Y-101996950D01*
X120473134Y-101996949D01*
X120286741Y-101866436D01*
X120286727Y-101866428D01*
X120080499Y-101770262D01*
X120080496Y-101770261D01*
X119860694Y-101711365D01*
X119860679Y-101711363D01*
X119634006Y-101691532D01*
X119633994Y-101691532D01*
X119407320Y-101711363D01*
X119407305Y-101711365D01*
X119187503Y-101770261D01*
X119187500Y-101770262D01*
X118981272Y-101866428D01*
X118981258Y-101866436D01*
X118794865Y-101996949D01*
X118633949Y-102157865D01*
X118567969Y-102252096D01*
X118497788Y-102319280D01*
X118407239Y-102354493D01*
X118310107Y-102352374D01*
X118221180Y-102313245D01*
X118160031Y-102252096D01*
X118094050Y-102157865D01*
X118094048Y-102157863D01*
X118094047Y-102157861D01*
X117933139Y-101996953D01*
X117933135Y-101996950D01*
X117933134Y-101996949D01*
X117746741Y-101866436D01*
X117746727Y-101866428D01*
X117540499Y-101770262D01*
X117540496Y-101770261D01*
X117320694Y-101711365D01*
X117320679Y-101711363D01*
X117094006Y-101691532D01*
X117093994Y-101691532D01*
X116867320Y-101711363D01*
X116867305Y-101711365D01*
X116647503Y-101770261D01*
X116647500Y-101770262D01*
X116441272Y-101866428D01*
X116441258Y-101866436D01*
X116254865Y-101996949D01*
X116093949Y-102157865D01*
X116027969Y-102252096D01*
X115957788Y-102319280D01*
X115867239Y-102354493D01*
X115770107Y-102352374D01*
X115681180Y-102313245D01*
X115620031Y-102252096D01*
X115554050Y-102157865D01*
X115554048Y-102157863D01*
X115554047Y-102157861D01*
X115393139Y-101996953D01*
X115393135Y-101996950D01*
X115393134Y-101996949D01*
X115198215Y-101860466D01*
X115131031Y-101790285D01*
X115095818Y-101699736D01*
X115097937Y-101602604D01*
X115137066Y-101513677D01*
X115198211Y-101452531D01*
X115373139Y-101330047D01*
X115534047Y-101169139D01*
X115664568Y-100982734D01*
X115760739Y-100776496D01*
X115819635Y-100556692D01*
X115824375Y-100502512D01*
X115839468Y-100330005D01*
X115839468Y-100329994D01*
X115819636Y-100103320D01*
X115819635Y-100103308D01*
X115760739Y-99883504D01*
X115712087Y-99779171D01*
X115664571Y-99677272D01*
X115664563Y-99677258D01*
X115534050Y-99490865D01*
X115534049Y-99490864D01*
X115534047Y-99490861D01*
X115373139Y-99329953D01*
X115373135Y-99329950D01*
X115373134Y-99329949D01*
X115186741Y-99199436D01*
X115186727Y-99199428D01*
X114980499Y-99103262D01*
X114980496Y-99103261D01*
X114760694Y-99044365D01*
X114760679Y-99044363D01*
X114534006Y-99024532D01*
X114533994Y-99024532D01*
X114307320Y-99044363D01*
X114307305Y-99044365D01*
X114087503Y-99103261D01*
X114087500Y-99103262D01*
X113881272Y-99199428D01*
X113881258Y-99199436D01*
X113694865Y-99329949D01*
X113533950Y-99490864D01*
X113487662Y-99556970D01*
X113417480Y-99624154D01*
X113326930Y-99659366D01*
X113229798Y-99657245D01*
X113140872Y-99618116D01*
X113128650Y-99605894D01*
X113113026Y-99604527D01*
X112431953Y-100285599D01*
X112419165Y-100204852D01*
X112361641Y-100091955D01*
X112272045Y-100002359D01*
X112159148Y-99944835D01*
X112078399Y-99932045D01*
X112759472Y-99250973D01*
X112686485Y-99199868D01*
X112686483Y-99199866D01*
X112480323Y-99103732D01*
X112260603Y-99044859D01*
X112034000Y-99025034D01*
X111807397Y-99044859D01*
X111807396Y-99044859D01*
X111587676Y-99103732D01*
X111381513Y-99199868D01*
X111308527Y-99250972D01*
X111989600Y-99932045D01*
X111908852Y-99944835D01*
X111795955Y-100002359D01*
X111706359Y-100091955D01*
X111648835Y-100204852D01*
X111636045Y-100285600D01*
X110954972Y-99604527D01*
X110944025Y-99620162D01*
X110873845Y-99687346D01*
X110783296Y-99722560D01*
X110686164Y-99720441D01*
X110597236Y-99681313D01*
X110536086Y-99620164D01*
X110512110Y-99585923D01*
X110345075Y-99418888D01*
X110305637Y-99391273D01*
X110238454Y-99321091D01*
X110203242Y-99230542D01*
X110205362Y-99133410D01*
X110244491Y-99044483D01*
X110305636Y-98983338D01*
X110345401Y-98955495D01*
X110512495Y-98788401D01*
X110648035Y-98594830D01*
X110747903Y-98380663D01*
X110809063Y-98152408D01*
X110829659Y-97917000D01*
X110829659Y-97916994D01*
X110809064Y-97681598D01*
X110809063Y-97681595D01*
X110809063Y-97681592D01*
X110747903Y-97453337D01*
X110648035Y-97239171D01*
X110512495Y-97045599D01*
X110345401Y-96878505D01*
X110306074Y-96850967D01*
X110238891Y-96780789D01*
X110203678Y-96690240D01*
X110205797Y-96593108D01*
X110244925Y-96504181D01*
X110306073Y-96443032D01*
X110345401Y-96415495D01*
X110512495Y-96248401D01*
X110648035Y-96054830D01*
X110747903Y-95840663D01*
X110809063Y-95612408D01*
X110829659Y-95377000D01*
X110829659Y-95376994D01*
X110809064Y-95141598D01*
X110809063Y-95141595D01*
X110809063Y-95141592D01*
X110747903Y-94913337D01*
X110648035Y-94699171D01*
X110512495Y-94505599D01*
X110345401Y-94338505D01*
X110306074Y-94310967D01*
X110238891Y-94240789D01*
X110203678Y-94150240D01*
X110205797Y-94053108D01*
X110244925Y-93964181D01*
X110306073Y-93903032D01*
X110345401Y-93875495D01*
X110383616Y-93837279D01*
X110464391Y-93783307D01*
X110559679Y-93764352D01*
X110654968Y-93783305D01*
X110735750Y-93837280D01*
X110757625Y-93866499D01*
X110759531Y-93865073D01*
X110770203Y-93879329D01*
X110770204Y-93879331D01*
X110856454Y-93994546D01*
X110971669Y-94080796D01*
X111106517Y-94131091D01*
X111166127Y-94137500D01*
X112861872Y-94137499D01*
X112921483Y-94131091D01*
X113056331Y-94080796D01*
X113171546Y-93994546D01*
X113257796Y-93879331D01*
X113258043Y-93878666D01*
X113259037Y-93877058D01*
X113266330Y-93863702D01*
X113267045Y-93864092D01*
X113309094Y-93796011D01*
X113387894Y-93739181D01*
X113482443Y-93716831D01*
X113578348Y-93732366D01*
X113661008Y-93783419D01*
X113667388Y-93789574D01*
X113714861Y-93837047D01*
X113714864Y-93837049D01*
X113714865Y-93837050D01*
X113901258Y-93967563D01*
X113901262Y-93967565D01*
X113901266Y-93967568D01*
X114107504Y-94063739D01*
X114327308Y-94122635D01*
X114346984Y-94124356D01*
X114553994Y-94142468D01*
X114554000Y-94142468D01*
X114554006Y-94142468D01*
X114733668Y-94126749D01*
X114780692Y-94122635D01*
X115000496Y-94063739D01*
X115206734Y-93967568D01*
X115393139Y-93837047D01*
X115554047Y-93676139D01*
X115620031Y-93581902D01*
X115690211Y-93514719D01*
X115780760Y-93479506D01*
X115877892Y-93481625D01*
X115966819Y-93520753D01*
X116027968Y-93581902D01*
X116093953Y-93676139D01*
X116254861Y-93837047D01*
X116254864Y-93837049D01*
X116254865Y-93837050D01*
X116441258Y-93967563D01*
X116441262Y-93967565D01*
X116441266Y-93967568D01*
X116647504Y-94063739D01*
X116867308Y-94122635D01*
X116886984Y-94124356D01*
X117093994Y-94142468D01*
X117094000Y-94142468D01*
X117094006Y-94142468D01*
X117273668Y-94126749D01*
X117320692Y-94122635D01*
X117540496Y-94063739D01*
X117746734Y-93967568D01*
X117933139Y-93837047D01*
X118094047Y-93676139D01*
X118160031Y-93581902D01*
X118230211Y-93514719D01*
X118320760Y-93479506D01*
X118417892Y-93481625D01*
X118506819Y-93520753D01*
X118567968Y-93581902D01*
X118633953Y-93676139D01*
X118794861Y-93837047D01*
X118794864Y-93837049D01*
X118794865Y-93837050D01*
X118981258Y-93967563D01*
X118981262Y-93967565D01*
X118981266Y-93967568D01*
X119187504Y-94063739D01*
X119407308Y-94122635D01*
X119426984Y-94124356D01*
X119633994Y-94142468D01*
X119634000Y-94142468D01*
X119634006Y-94142468D01*
X119813668Y-94126749D01*
X119860692Y-94122635D01*
X120080496Y-94063739D01*
X120286734Y-93967568D01*
X120473139Y-93837047D01*
X120634047Y-93676139D01*
X120700031Y-93581902D01*
X120770211Y-93514719D01*
X120860760Y-93479506D01*
X120957892Y-93481625D01*
X121046819Y-93520753D01*
X121107968Y-93581902D01*
X121173953Y-93676139D01*
X121334861Y-93837047D01*
X121334864Y-93837049D01*
X121334865Y-93837050D01*
X121521258Y-93967563D01*
X121521262Y-93967565D01*
X121521266Y-93967568D01*
X121727504Y-94063739D01*
X121947308Y-94122635D01*
X121966984Y-94124356D01*
X122173994Y-94142468D01*
X122174000Y-94142468D01*
X122174006Y-94142468D01*
X122353668Y-94126749D01*
X122400692Y-94122635D01*
X122620496Y-94063739D01*
X122826734Y-93967568D01*
X123013139Y-93837047D01*
X123174047Y-93676139D01*
X123240031Y-93581902D01*
X123310211Y-93514719D01*
X123400760Y-93479506D01*
X123497892Y-93481625D01*
X123586819Y-93520753D01*
X123647968Y-93581902D01*
X123713953Y-93676139D01*
X123874861Y-93837047D01*
X123874864Y-93837049D01*
X123874865Y-93837050D01*
X124061258Y-93967563D01*
X124061262Y-93967565D01*
X124061266Y-93967568D01*
X124267504Y-94063739D01*
X124487308Y-94122635D01*
X124506984Y-94124356D01*
X124713994Y-94142468D01*
X124714000Y-94142468D01*
X124714006Y-94142468D01*
X124893668Y-94126749D01*
X124940692Y-94122635D01*
X125160496Y-94063739D01*
X125366734Y-93967568D01*
X125553139Y-93837047D01*
X125714047Y-93676139D01*
X125780031Y-93581902D01*
X125850211Y-93514719D01*
X125940760Y-93479506D01*
X126037892Y-93481625D01*
X126126819Y-93520753D01*
X126187968Y-93581902D01*
X126253953Y-93676139D01*
X126414861Y-93837047D01*
X126414864Y-93837049D01*
X126414865Y-93837050D01*
X126601258Y-93967563D01*
X126601262Y-93967565D01*
X126601266Y-93967568D01*
X126807504Y-94063739D01*
X127027308Y-94122635D01*
X127046984Y-94124356D01*
X127253994Y-94142468D01*
X127254000Y-94142468D01*
X127254006Y-94142468D01*
X127433668Y-94126749D01*
X127480692Y-94122635D01*
X127700496Y-94063739D01*
X127906734Y-93967568D01*
X128093139Y-93837047D01*
X128254047Y-93676139D01*
X128320031Y-93581902D01*
X128390211Y-93514719D01*
X128480760Y-93479506D01*
X128577892Y-93481625D01*
G37*
%TD.AperFunction*%
%TA.AperFunction,Conductor*%
G36*
X111648835Y-100455148D02*
G01*
X111706359Y-100568045D01*
X111795955Y-100657641D01*
X111908852Y-100715165D01*
X111989599Y-100727953D01*
X111308527Y-101409026D01*
X111370678Y-101452545D01*
X111437862Y-101522726D01*
X111473075Y-101613275D01*
X111470956Y-101710407D01*
X111431827Y-101799334D01*
X111369368Y-101859125D01*
X111370422Y-101860631D01*
X111175187Y-101997335D01*
X111014336Y-102158186D01*
X110978487Y-102209384D01*
X110908305Y-102276568D01*
X110817755Y-102311779D01*
X110720624Y-102309659D01*
X110631697Y-102270530D01*
X110570551Y-102209383D01*
X110512113Y-102125926D01*
X110345075Y-101958888D01*
X110305200Y-101930967D01*
X110238017Y-101860785D01*
X110202805Y-101770236D01*
X110204925Y-101673104D01*
X110244054Y-101584177D01*
X110305206Y-101523027D01*
X110345076Y-101495110D01*
X110512112Y-101328074D01*
X110635078Y-101152460D01*
X110705259Y-101085276D01*
X110795808Y-101050063D01*
X110860750Y-101047228D01*
X110954973Y-101055471D01*
X111636045Y-100374399D01*
X111648835Y-100455148D01*
G37*
%TD.AperFunction*%
%TA.AperFunction,Conductor*%
G36*
X112264000Y-86495871D02*
G01*
X112460323Y-86443267D01*
X112666483Y-86347133D01*
X112852812Y-86216664D01*
X113013663Y-86055813D01*
X113079724Y-85961468D01*
X113149905Y-85894283D01*
X113240454Y-85859070D01*
X113337586Y-85861189D01*
X113426513Y-85900317D01*
X113487663Y-85961467D01*
X113553725Y-86055814D01*
X113553953Y-86056139D01*
X113714861Y-86217047D01*
X113714864Y-86217049D01*
X113714865Y-86217050D01*
X113901258Y-86347563D01*
X113901262Y-86347565D01*
X113901266Y-86347568D01*
X114107504Y-86443739D01*
X114327308Y-86502635D01*
X114346984Y-86504356D01*
X114553994Y-86522468D01*
X114554000Y-86522468D01*
X114554006Y-86522468D01*
X114733668Y-86506749D01*
X114780692Y-86502635D01*
X115000496Y-86443739D01*
X115206734Y-86347568D01*
X115393139Y-86217047D01*
X115554047Y-86056139D01*
X115620031Y-85961902D01*
X115690211Y-85894719D01*
X115780760Y-85859506D01*
X115877892Y-85861625D01*
X115966819Y-85900753D01*
X116027968Y-85961902D01*
X116093953Y-86056139D01*
X116254861Y-86217047D01*
X116254864Y-86217049D01*
X116254865Y-86217050D01*
X116441258Y-86347563D01*
X116441262Y-86347565D01*
X116441266Y-86347568D01*
X116647504Y-86443739D01*
X116867308Y-86502635D01*
X116886984Y-86504356D01*
X117093994Y-86522468D01*
X117094000Y-86522468D01*
X117094006Y-86522468D01*
X117273668Y-86506749D01*
X117320692Y-86502635D01*
X117540496Y-86443739D01*
X117746734Y-86347568D01*
X117933139Y-86217047D01*
X118094047Y-86056139D01*
X118160031Y-85961902D01*
X118230211Y-85894719D01*
X118320760Y-85859506D01*
X118417892Y-85861625D01*
X118506819Y-85900753D01*
X118567968Y-85961902D01*
X118633953Y-86056139D01*
X118794861Y-86217047D01*
X118794864Y-86217049D01*
X118794865Y-86217050D01*
X118981258Y-86347563D01*
X118981262Y-86347565D01*
X118981266Y-86347568D01*
X119187504Y-86443739D01*
X119407308Y-86502635D01*
X119426984Y-86504356D01*
X119633994Y-86522468D01*
X119634000Y-86522468D01*
X119634006Y-86522468D01*
X119813668Y-86506749D01*
X119860692Y-86502635D01*
X120080496Y-86443739D01*
X120286734Y-86347568D01*
X120473139Y-86217047D01*
X120634047Y-86056139D01*
X120700031Y-85961902D01*
X120770211Y-85894719D01*
X120860760Y-85859506D01*
X120957892Y-85861625D01*
X121046819Y-85900753D01*
X121107968Y-85961902D01*
X121173953Y-86056139D01*
X121334861Y-86217047D01*
X121334864Y-86217049D01*
X121334865Y-86217050D01*
X121521258Y-86347563D01*
X121521262Y-86347565D01*
X121521266Y-86347568D01*
X121727504Y-86443739D01*
X121947308Y-86502635D01*
X121966984Y-86504356D01*
X122173994Y-86522468D01*
X122174000Y-86522468D01*
X122174006Y-86522468D01*
X122353668Y-86506749D01*
X122400692Y-86502635D01*
X122620496Y-86443739D01*
X122826734Y-86347568D01*
X123013139Y-86217047D01*
X123174047Y-86056139D01*
X123240031Y-85961902D01*
X123310211Y-85894719D01*
X123400760Y-85859506D01*
X123497892Y-85861625D01*
X123586819Y-85900753D01*
X123647968Y-85961902D01*
X123713953Y-86056139D01*
X123874861Y-86217047D01*
X123874864Y-86217049D01*
X123874865Y-86217050D01*
X124061258Y-86347563D01*
X124061262Y-86347565D01*
X124061266Y-86347568D01*
X124267504Y-86443739D01*
X124487308Y-86502635D01*
X124506984Y-86504356D01*
X124713994Y-86522468D01*
X124714000Y-86522468D01*
X124714006Y-86522468D01*
X124893668Y-86506749D01*
X124940692Y-86502635D01*
X125160496Y-86443739D01*
X125366734Y-86347568D01*
X125553139Y-86217047D01*
X125714047Y-86056139D01*
X125780031Y-85961902D01*
X125850211Y-85894719D01*
X125940760Y-85859506D01*
X126037892Y-85861625D01*
X126126819Y-85900753D01*
X126187968Y-85961902D01*
X126253953Y-86056139D01*
X126414861Y-86217047D01*
X126414864Y-86217049D01*
X126414865Y-86217050D01*
X126601258Y-86347563D01*
X126601262Y-86347565D01*
X126601266Y-86347568D01*
X126807504Y-86443739D01*
X127027308Y-86502635D01*
X127046984Y-86504356D01*
X127253994Y-86522468D01*
X127254000Y-86522468D01*
X127254006Y-86522468D01*
X127433668Y-86506749D01*
X127480692Y-86502635D01*
X127700496Y-86443739D01*
X127906734Y-86347568D01*
X128093139Y-86217047D01*
X128254047Y-86056139D01*
X128320031Y-85961902D01*
X128390211Y-85894719D01*
X128480760Y-85859506D01*
X128577892Y-85861625D01*
X128666819Y-85900753D01*
X128727968Y-85961902D01*
X128793953Y-86056139D01*
X128954861Y-86217047D01*
X128954864Y-86217049D01*
X128954865Y-86217050D01*
X129141258Y-86347563D01*
X129141262Y-86347565D01*
X129141266Y-86347568D01*
X129347504Y-86443739D01*
X129567308Y-86502635D01*
X129586984Y-86504356D01*
X129793994Y-86522468D01*
X129794000Y-86522468D01*
X129794006Y-86522468D01*
X129973668Y-86506749D01*
X130020692Y-86502635D01*
X130240496Y-86443739D01*
X130446734Y-86347568D01*
X130633139Y-86217047D01*
X130794047Y-86056139D01*
X130829512Y-86005488D01*
X130899691Y-85938306D01*
X130990240Y-85903092D01*
X131087372Y-85905211D01*
X131176300Y-85944339D01*
X131237445Y-86005483D01*
X131295505Y-86088401D01*
X131462599Y-86255495D01*
X131501925Y-86283031D01*
X131569107Y-86353209D01*
X131604321Y-86443758D01*
X131602202Y-86540890D01*
X131563074Y-86629818D01*
X131501928Y-86690965D01*
X131462603Y-86718501D01*
X131295504Y-86885600D01*
X131159965Y-87079169D01*
X131159961Y-87079177D01*
X131060098Y-87293333D01*
X131060097Y-87293335D01*
X130998935Y-87521598D01*
X130978341Y-87756994D01*
X130978341Y-87757005D01*
X130998935Y-87992401D01*
X130998937Y-87992408D01*
X131060097Y-88220663D01*
X131159965Y-88434830D01*
X131295505Y-88628401D01*
X131462599Y-88795495D01*
X131501925Y-88823031D01*
X131569107Y-88893209D01*
X131604321Y-88983758D01*
X131602202Y-89080890D01*
X131563074Y-89169818D01*
X131501928Y-89230965D01*
X131462603Y-89258501D01*
X131295504Y-89425600D01*
X131159965Y-89619169D01*
X131159961Y-89619177D01*
X131060098Y-89833333D01*
X131060097Y-89833335D01*
X130998935Y-90061598D01*
X130978341Y-90296994D01*
X130978341Y-90297005D01*
X130998935Y-90532401D01*
X130998937Y-90532408D01*
X131060097Y-90760663D01*
X131159965Y-90974830D01*
X131295505Y-91168401D01*
X131462599Y-91335495D01*
X131501925Y-91363031D01*
X131569107Y-91433209D01*
X131604321Y-91523758D01*
X131602202Y-91620890D01*
X131563074Y-91709818D01*
X131501928Y-91770965D01*
X131462603Y-91798501D01*
X131295503Y-91965601D01*
X131237448Y-92048512D01*
X131167266Y-92115695D01*
X131076717Y-92150907D01*
X130979585Y-92148787D01*
X130890658Y-92109658D01*
X130829512Y-92048511D01*
X130794047Y-91997861D01*
X130633139Y-91836953D01*
X130633135Y-91836950D01*
X130633134Y-91836949D01*
X130446741Y-91706436D01*
X130446727Y-91706428D01*
X130240499Y-91610262D01*
X130240496Y-91610261D01*
X130020694Y-91551365D01*
X130020679Y-91551363D01*
X129794006Y-91531532D01*
X129793994Y-91531532D01*
X129567320Y-91551363D01*
X129567305Y-91551365D01*
X129347503Y-91610261D01*
X129347500Y-91610262D01*
X129141272Y-91706428D01*
X129141258Y-91706436D01*
X128954865Y-91836949D01*
X128793949Y-91997865D01*
X128727969Y-92092096D01*
X128657788Y-92159280D01*
X128567239Y-92194493D01*
X128470107Y-92192374D01*
X128381180Y-92153245D01*
X128320031Y-92092096D01*
X128254050Y-91997865D01*
X128254049Y-91997864D01*
X128254047Y-91997861D01*
X128093139Y-91836953D01*
X128093135Y-91836950D01*
X128093134Y-91836949D01*
X127906741Y-91706436D01*
X127906727Y-91706428D01*
X127700499Y-91610262D01*
X127700496Y-91610261D01*
X127480694Y-91551365D01*
X127480679Y-91551363D01*
X127254006Y-91531532D01*
X127253994Y-91531532D01*
X127027320Y-91551363D01*
X127027305Y-91551365D01*
X126807503Y-91610261D01*
X126807500Y-91610262D01*
X126601272Y-91706428D01*
X126601258Y-91706436D01*
X126414865Y-91836949D01*
X126253949Y-91997865D01*
X126187969Y-92092096D01*
X126117788Y-92159280D01*
X126027239Y-92194493D01*
X125930107Y-92192374D01*
X125841180Y-92153245D01*
X125780031Y-92092096D01*
X125714050Y-91997865D01*
X125714049Y-91997864D01*
X125714047Y-91997861D01*
X125553139Y-91836953D01*
X125553135Y-91836950D01*
X125553134Y-91836949D01*
X125366741Y-91706436D01*
X125366727Y-91706428D01*
X125160499Y-91610262D01*
X125160496Y-91610261D01*
X124940694Y-91551365D01*
X124940679Y-91551363D01*
X124714006Y-91531532D01*
X124713994Y-91531532D01*
X124487320Y-91551363D01*
X124487305Y-91551365D01*
X124267503Y-91610261D01*
X124267500Y-91610262D01*
X124061272Y-91706428D01*
X124061258Y-91706436D01*
X123874865Y-91836949D01*
X123713949Y-91997865D01*
X123647969Y-92092096D01*
X123577788Y-92159280D01*
X123487239Y-92194493D01*
X123390107Y-92192374D01*
X123301180Y-92153245D01*
X123240031Y-92092096D01*
X123174050Y-91997865D01*
X123174049Y-91997864D01*
X123174047Y-91997861D01*
X123013139Y-91836953D01*
X123013135Y-91836950D01*
X123013134Y-91836949D01*
X122826741Y-91706436D01*
X122826727Y-91706428D01*
X122620499Y-91610262D01*
X122620496Y-91610261D01*
X122400694Y-91551365D01*
X122400679Y-91551363D01*
X122174006Y-91531532D01*
X122173994Y-91531532D01*
X121947320Y-91551363D01*
X121947305Y-91551365D01*
X121727503Y-91610261D01*
X121727500Y-91610262D01*
X121521272Y-91706428D01*
X121521258Y-91706436D01*
X121334865Y-91836949D01*
X121173949Y-91997865D01*
X121107969Y-92092096D01*
X121037788Y-92159280D01*
X120947239Y-92194493D01*
X120850107Y-92192374D01*
X120761180Y-92153245D01*
X120700031Y-92092096D01*
X120634050Y-91997865D01*
X120634049Y-91997864D01*
X120634047Y-91997861D01*
X120473139Y-91836953D01*
X120473135Y-91836950D01*
X120473134Y-91836949D01*
X120286741Y-91706436D01*
X120286727Y-91706428D01*
X120080499Y-91610262D01*
X120080496Y-91610261D01*
X119860694Y-91551365D01*
X119860679Y-91551363D01*
X119634006Y-91531532D01*
X119633994Y-91531532D01*
X119407320Y-91551363D01*
X119407305Y-91551365D01*
X119187503Y-91610261D01*
X119187500Y-91610262D01*
X118981272Y-91706428D01*
X118981258Y-91706436D01*
X118794865Y-91836949D01*
X118633949Y-91997865D01*
X118567969Y-92092096D01*
X118497788Y-92159280D01*
X118407239Y-92194493D01*
X118310107Y-92192374D01*
X118221180Y-92153245D01*
X118160031Y-92092096D01*
X118094050Y-91997865D01*
X118094049Y-91997864D01*
X118094047Y-91997861D01*
X117933139Y-91836953D01*
X117933135Y-91836950D01*
X117933134Y-91836949D01*
X117746741Y-91706436D01*
X117746727Y-91706428D01*
X117540499Y-91610262D01*
X117540496Y-91610261D01*
X117320694Y-91551365D01*
X117320679Y-91551363D01*
X117094006Y-91531532D01*
X117093994Y-91531532D01*
X116867320Y-91551363D01*
X116867305Y-91551365D01*
X116647503Y-91610261D01*
X116647500Y-91610262D01*
X116441272Y-91706428D01*
X116441258Y-91706436D01*
X116254865Y-91836949D01*
X116093949Y-91997865D01*
X116027969Y-92092096D01*
X115957788Y-92159280D01*
X115867239Y-92194493D01*
X115770107Y-92192374D01*
X115681180Y-92153245D01*
X115620031Y-92092096D01*
X115554050Y-91997865D01*
X115554049Y-91997864D01*
X115554047Y-91997861D01*
X115393139Y-91836953D01*
X115393135Y-91836950D01*
X115393134Y-91836949D01*
X115206741Y-91706436D01*
X115206727Y-91706428D01*
X115000499Y-91610262D01*
X115000496Y-91610261D01*
X114780694Y-91551365D01*
X114780679Y-91551363D01*
X114554006Y-91531532D01*
X114553994Y-91531532D01*
X114327320Y-91551363D01*
X114327305Y-91551365D01*
X114107503Y-91610261D01*
X114107500Y-91610262D01*
X113901272Y-91706428D01*
X113901258Y-91706436D01*
X113714861Y-91836952D01*
X113667415Y-91884398D01*
X113586633Y-91938374D01*
X113491345Y-91957327D01*
X113396057Y-91938372D01*
X113315276Y-91884395D01*
X113261300Y-91803613D01*
X113258066Y-91795394D01*
X113257796Y-91794669D01*
X113171546Y-91679454D01*
X113056331Y-91593204D01*
X112944155Y-91551365D01*
X112921481Y-91542908D01*
X112861873Y-91536500D01*
X111166134Y-91536500D01*
X111166130Y-91536500D01*
X111166128Y-91536501D01*
X111153314Y-91537878D01*
X111106519Y-91542908D01*
X111106515Y-91542909D01*
X110971670Y-91593203D01*
X110856455Y-91679453D01*
X110856453Y-91679455D01*
X110836261Y-91706428D01*
X110770206Y-91794667D01*
X110759531Y-91808927D01*
X110756154Y-91806399D01*
X110715822Y-91854609D01*
X110629711Y-91899597D01*
X110532938Y-91908207D01*
X110440237Y-91879128D01*
X110383615Y-91836719D01*
X110345401Y-91798505D01*
X110306074Y-91770967D01*
X110238891Y-91700789D01*
X110203678Y-91610240D01*
X110205797Y-91513108D01*
X110244925Y-91424181D01*
X110306073Y-91363032D01*
X110345401Y-91335495D01*
X110512495Y-91168401D01*
X110648035Y-90974830D01*
X110747903Y-90760663D01*
X110809063Y-90532408D01*
X110829659Y-90297000D01*
X110829659Y-90296994D01*
X110809064Y-90061598D01*
X110809063Y-90061595D01*
X110809063Y-90061592D01*
X110747903Y-89833337D01*
X110648035Y-89619171D01*
X110512495Y-89425599D01*
X110345401Y-89258505D01*
X110306074Y-89230967D01*
X110238891Y-89160789D01*
X110203678Y-89070240D01*
X110205797Y-88973108D01*
X110244925Y-88884181D01*
X110306073Y-88823032D01*
X110345401Y-88795495D01*
X110512495Y-88628401D01*
X110648035Y-88434830D01*
X110747903Y-88220663D01*
X110809063Y-87992408D01*
X110829659Y-87757000D01*
X110829659Y-87756994D01*
X110809064Y-87521598D01*
X110809063Y-87521595D01*
X110809063Y-87521592D01*
X110747903Y-87293337D01*
X110648035Y-87079171D01*
X110512495Y-86885599D01*
X110345401Y-86718505D01*
X110345397Y-86718502D01*
X110345396Y-86718501D01*
X110305638Y-86690662D01*
X110238454Y-86620481D01*
X110203242Y-86529931D01*
X110205362Y-86432800D01*
X110244491Y-86343873D01*
X110305640Y-86282724D01*
X110345075Y-86255111D01*
X110512112Y-86088074D01*
X110570550Y-86004617D01*
X110640731Y-85937433D01*
X110731280Y-85902220D01*
X110828412Y-85904339D01*
X110917339Y-85943468D01*
X110978488Y-86004616D01*
X111014337Y-86055814D01*
X111175187Y-86216664D01*
X111361516Y-86347133D01*
X111567676Y-86443267D01*
X111763999Y-86495871D01*
X111764000Y-86495871D01*
X111764000Y-85532686D01*
X111775955Y-85544641D01*
X111888852Y-85602165D01*
X111982519Y-85617000D01*
X112045481Y-85617000D01*
X112139148Y-85602165D01*
X112252045Y-85544641D01*
X112264000Y-85532685D01*
X112264000Y-86495871D01*
G37*
%TD.AperFunction*%
%TA.AperFunction,Conductor*%
G36*
X111686359Y-84978955D02*
G01*
X111628835Y-85091852D01*
X111609014Y-85217000D01*
X111628835Y-85342148D01*
X111686359Y-85455045D01*
X111698314Y-85467000D01*
X109907686Y-85467000D01*
X109933493Y-85426844D01*
X109974000Y-85288889D01*
X109974000Y-85145111D01*
X109933493Y-85007156D01*
X109907686Y-84967000D01*
X111698314Y-84967000D01*
X111686359Y-84978955D01*
G37*
%TD.AperFunction*%
%TA.AperFunction,Conductor*%
G36*
X109724000Y-84781498D02*
G01*
X109616315Y-84732320D01*
X109509763Y-84717000D01*
X109438237Y-84717000D01*
X109331685Y-84732320D01*
X109224000Y-84781498D01*
X109224000Y-83112501D01*
X109331685Y-83161680D01*
X109438237Y-83177000D01*
X109509763Y-83177000D01*
X109616315Y-83161680D01*
X109724000Y-83112501D01*
X109724000Y-84781498D01*
G37*
%TD.AperFunction*%
%TA.AperFunction,Conductor*%
G36*
X113113025Y-83275471D02*
G01*
X113131051Y-83273894D01*
X113149905Y-83255846D01*
X113240454Y-83220633D01*
X113337586Y-83222752D01*
X113426513Y-83261880D01*
X113487663Y-83323030D01*
X113509929Y-83354830D01*
X113533953Y-83389139D01*
X113694861Y-83550047D01*
X113694864Y-83550049D01*
X113694865Y-83550050D01*
X113889784Y-83686533D01*
X113956968Y-83756714D01*
X113992181Y-83847263D01*
X113990062Y-83944395D01*
X113950933Y-84033322D01*
X113889784Y-84094471D01*
X113714865Y-84216949D01*
X113553951Y-84377863D01*
X113487663Y-84472533D01*
X113417481Y-84539717D01*
X113326932Y-84574929D01*
X113229800Y-84572810D01*
X113140873Y-84533681D01*
X113079725Y-84472532D01*
X113013664Y-84378187D01*
X112852814Y-84217337D01*
X112677320Y-84094455D01*
X112610137Y-84024274D01*
X112574924Y-83933724D01*
X112577043Y-83836593D01*
X112616172Y-83747665D01*
X112678631Y-83687874D01*
X112677578Y-83686370D01*
X112759471Y-83629027D01*
X112759471Y-83629025D01*
X112078400Y-82947953D01*
X112159148Y-82935165D01*
X112272045Y-82877641D01*
X112361641Y-82788045D01*
X112419165Y-82675148D01*
X112431953Y-82594400D01*
X113113025Y-83275471D01*
G37*
%TD.AperFunction*%
%TA.AperFunction,Conductor*%
G36*
X130844349Y-76345954D02*
G01*
X130925131Y-76399930D01*
X130979107Y-76480712D01*
X130998061Y-76576000D01*
X130991387Y-76633265D01*
X130989908Y-76639521D01*
X130983500Y-76699123D01*
X130983500Y-78494865D01*
X130983500Y-78494868D01*
X130983501Y-78494872D01*
X130985567Y-78514093D01*
X130989908Y-78554480D01*
X130989909Y-78554483D01*
X131040204Y-78689331D01*
X131126454Y-78804546D01*
X131241669Y-78890796D01*
X131241670Y-78890796D01*
X131255927Y-78901469D01*
X131253454Y-78904771D01*
X131301965Y-78945305D01*
X131347006Y-79031389D01*
X131355675Y-79128156D01*
X131326653Y-79220875D01*
X131298855Y-79261605D01*
X131295513Y-79265587D01*
X131159965Y-79459169D01*
X131159961Y-79459177D01*
X131060098Y-79673333D01*
X131060097Y-79673335D01*
X130998935Y-79901598D01*
X130978341Y-80136994D01*
X130978341Y-80137005D01*
X130998935Y-80372401D01*
X130998937Y-80372408D01*
X131060097Y-80600663D01*
X131159965Y-80814830D01*
X131295505Y-81008401D01*
X131462599Y-81175495D01*
X131501925Y-81203031D01*
X131569107Y-81273209D01*
X131604321Y-81363758D01*
X131602202Y-81460890D01*
X131563074Y-81549818D01*
X131501928Y-81610965D01*
X131462603Y-81638501D01*
X131295504Y-81805600D01*
X131159965Y-81999169D01*
X131159961Y-81999177D01*
X131060098Y-82213333D01*
X131060097Y-82213335D01*
X130998935Y-82441598D01*
X130978341Y-82676994D01*
X130978341Y-82677005D01*
X130998935Y-82912401D01*
X131049724Y-83101952D01*
X131060097Y-83140663D01*
X131159965Y-83354830D01*
X131295505Y-83548401D01*
X131462599Y-83715495D01*
X131501925Y-83743031D01*
X131569107Y-83813209D01*
X131604321Y-83903758D01*
X131602202Y-84000890D01*
X131563074Y-84089818D01*
X131501928Y-84150965D01*
X131462603Y-84178501D01*
X131295503Y-84345601D01*
X131237448Y-84428512D01*
X131167266Y-84495695D01*
X131076717Y-84530907D01*
X130979585Y-84528787D01*
X130890658Y-84489658D01*
X130829512Y-84428511D01*
X130794047Y-84377861D01*
X130633139Y-84216953D01*
X130633135Y-84216950D01*
X130633134Y-84216949D01*
X130446741Y-84086436D01*
X130446727Y-84086428D01*
X130240499Y-83990262D01*
X130240496Y-83990261D01*
X130020694Y-83931365D01*
X130020679Y-83931363D01*
X129794006Y-83911532D01*
X129793994Y-83911532D01*
X129567320Y-83931363D01*
X129567305Y-83931365D01*
X129347503Y-83990261D01*
X129347500Y-83990262D01*
X129141272Y-84086428D01*
X129141258Y-84086436D01*
X128954865Y-84216949D01*
X128793949Y-84377865D01*
X128727969Y-84472096D01*
X128657788Y-84539280D01*
X128567239Y-84574493D01*
X128470107Y-84572374D01*
X128381180Y-84533245D01*
X128320031Y-84472096D01*
X128254050Y-84377865D01*
X128254048Y-84377863D01*
X128254047Y-84377861D01*
X128093139Y-84216953D01*
X128093135Y-84216950D01*
X128093134Y-84216949D01*
X127906741Y-84086436D01*
X127906727Y-84086428D01*
X127700499Y-83990262D01*
X127700496Y-83990261D01*
X127480694Y-83931365D01*
X127480679Y-83931363D01*
X127254006Y-83911532D01*
X127253994Y-83911532D01*
X127027320Y-83931363D01*
X127027305Y-83931365D01*
X126807503Y-83990261D01*
X126807500Y-83990262D01*
X126601272Y-84086428D01*
X126601258Y-84086436D01*
X126414865Y-84216949D01*
X126253949Y-84377865D01*
X126187969Y-84472096D01*
X126117788Y-84539280D01*
X126027239Y-84574493D01*
X125930107Y-84572374D01*
X125841180Y-84533245D01*
X125780031Y-84472096D01*
X125714050Y-84377865D01*
X125714048Y-84377863D01*
X125714047Y-84377861D01*
X125553139Y-84216953D01*
X125553135Y-84216950D01*
X125553134Y-84216949D01*
X125366741Y-84086436D01*
X125366727Y-84086428D01*
X125160499Y-83990262D01*
X125160496Y-83990261D01*
X124940694Y-83931365D01*
X124940679Y-83931363D01*
X124714006Y-83911532D01*
X124713994Y-83911532D01*
X124487320Y-83931363D01*
X124487305Y-83931365D01*
X124267503Y-83990261D01*
X124267500Y-83990262D01*
X124061272Y-84086428D01*
X124061258Y-84086436D01*
X123874865Y-84216949D01*
X123713949Y-84377865D01*
X123647969Y-84472096D01*
X123577788Y-84539280D01*
X123487239Y-84574493D01*
X123390107Y-84572374D01*
X123301180Y-84533245D01*
X123240031Y-84472096D01*
X123174050Y-84377865D01*
X123174048Y-84377863D01*
X123174047Y-84377861D01*
X123013139Y-84216953D01*
X123013135Y-84216950D01*
X123013134Y-84216949D01*
X122826741Y-84086436D01*
X122826727Y-84086428D01*
X122620499Y-83990262D01*
X122620496Y-83990261D01*
X122400694Y-83931365D01*
X122400679Y-83931363D01*
X122174006Y-83911532D01*
X122173994Y-83911532D01*
X121947320Y-83931363D01*
X121947305Y-83931365D01*
X121727503Y-83990261D01*
X121727500Y-83990262D01*
X121521272Y-84086428D01*
X121521258Y-84086436D01*
X121334865Y-84216949D01*
X121173949Y-84377865D01*
X121107969Y-84472096D01*
X121037788Y-84539280D01*
X120947239Y-84574493D01*
X120850107Y-84572374D01*
X120761180Y-84533245D01*
X120700031Y-84472096D01*
X120634050Y-84377865D01*
X120634048Y-84377863D01*
X120634047Y-84377861D01*
X120473139Y-84216953D01*
X120473135Y-84216950D01*
X120473134Y-84216949D01*
X120286741Y-84086436D01*
X120286727Y-84086428D01*
X120080499Y-83990262D01*
X120080496Y-83990261D01*
X119860694Y-83931365D01*
X119860679Y-83931363D01*
X119634006Y-83911532D01*
X119633994Y-83911532D01*
X119407320Y-83931363D01*
X119407305Y-83931365D01*
X119187503Y-83990261D01*
X119187500Y-83990262D01*
X118981272Y-84086428D01*
X118981258Y-84086436D01*
X118794865Y-84216949D01*
X118633949Y-84377865D01*
X118567969Y-84472096D01*
X118497788Y-84539280D01*
X118407239Y-84574493D01*
X118310107Y-84572374D01*
X118221180Y-84533245D01*
X118160031Y-84472096D01*
X118094050Y-84377865D01*
X118094048Y-84377863D01*
X118094047Y-84377861D01*
X117933139Y-84216953D01*
X117933135Y-84216950D01*
X117933134Y-84216949D01*
X117746741Y-84086436D01*
X117746727Y-84086428D01*
X117540499Y-83990262D01*
X117540496Y-83990261D01*
X117320694Y-83931365D01*
X117320679Y-83931363D01*
X117094006Y-83911532D01*
X117093994Y-83911532D01*
X116867320Y-83931363D01*
X116867305Y-83931365D01*
X116647503Y-83990261D01*
X116647500Y-83990262D01*
X116441272Y-84086428D01*
X116441258Y-84086436D01*
X116254865Y-84216949D01*
X116093949Y-84377865D01*
X116027969Y-84472096D01*
X115957788Y-84539280D01*
X115867239Y-84574493D01*
X115770107Y-84572374D01*
X115681180Y-84533245D01*
X115620031Y-84472096D01*
X115554050Y-84377865D01*
X115554048Y-84377863D01*
X115554047Y-84377861D01*
X115393139Y-84216953D01*
X115393135Y-84216950D01*
X115393134Y-84216949D01*
X115198215Y-84080466D01*
X115131031Y-84010285D01*
X115095818Y-83919736D01*
X115097937Y-83822604D01*
X115137066Y-83733677D01*
X115198211Y-83672531D01*
X115373139Y-83550047D01*
X115534047Y-83389139D01*
X115664568Y-83202734D01*
X115760739Y-82996496D01*
X115819635Y-82776692D01*
X115824375Y-82722512D01*
X115839468Y-82550005D01*
X115839468Y-82549994D01*
X115819636Y-82323320D01*
X115819635Y-82323308D01*
X115760739Y-82103504D01*
X115712087Y-81999171D01*
X115664571Y-81897272D01*
X115664563Y-81897258D01*
X115534050Y-81710865D01*
X115534049Y-81710864D01*
X115534047Y-81710861D01*
X115373139Y-81549953D01*
X115373135Y-81549950D01*
X115373134Y-81549949D01*
X115186741Y-81419436D01*
X115186727Y-81419428D01*
X114980499Y-81323262D01*
X114980496Y-81323261D01*
X114760694Y-81264365D01*
X114760679Y-81264363D01*
X114534006Y-81244532D01*
X114533994Y-81244532D01*
X114307320Y-81264363D01*
X114307305Y-81264365D01*
X114087503Y-81323261D01*
X114087500Y-81323262D01*
X113881272Y-81419428D01*
X113881258Y-81419436D01*
X113694865Y-81549949D01*
X113533950Y-81710864D01*
X113487662Y-81776970D01*
X113417480Y-81844154D01*
X113326930Y-81879366D01*
X113229798Y-81877245D01*
X113140872Y-81838116D01*
X113128650Y-81825894D01*
X113113026Y-81824527D01*
X112431953Y-82505599D01*
X112419165Y-82424852D01*
X112361641Y-82311955D01*
X112272045Y-82222359D01*
X112159148Y-82164835D01*
X112078399Y-82152045D01*
X112759472Y-81470973D01*
X112686485Y-81419868D01*
X112686483Y-81419866D01*
X112480323Y-81323732D01*
X112260603Y-81264859D01*
X112033999Y-81245034D01*
X111807397Y-81264859D01*
X111807396Y-81264859D01*
X111587676Y-81323732D01*
X111381513Y-81419868D01*
X111308527Y-81470972D01*
X111989600Y-82152045D01*
X111908852Y-82164835D01*
X111795955Y-82222359D01*
X111706359Y-82311955D01*
X111648835Y-82424852D01*
X111636045Y-82505600D01*
X110954972Y-81824527D01*
X110944025Y-81840162D01*
X110873845Y-81907346D01*
X110783296Y-81942560D01*
X110686164Y-81940441D01*
X110597236Y-81901313D01*
X110536086Y-81840164D01*
X110512110Y-81805923D01*
X110345075Y-81638888D01*
X110305637Y-81611273D01*
X110238454Y-81541091D01*
X110203242Y-81450542D01*
X110205362Y-81353410D01*
X110244491Y-81264483D01*
X110305636Y-81203338D01*
X110345401Y-81175495D01*
X110512495Y-81008401D01*
X110648035Y-80814830D01*
X110747903Y-80600663D01*
X110809063Y-80372408D01*
X110829659Y-80137000D01*
X110829659Y-80136994D01*
X110809064Y-79901598D01*
X110809063Y-79901595D01*
X110809063Y-79901592D01*
X110747903Y-79673337D01*
X110648035Y-79459171D01*
X110512495Y-79265599D01*
X110512492Y-79265596D01*
X110509151Y-79261614D01*
X110507150Y-79257966D01*
X110506259Y-79256694D01*
X110506398Y-79256596D01*
X110462423Y-79176434D01*
X110451848Y-79079857D01*
X110479037Y-78986584D01*
X110539850Y-78910815D01*
X110552571Y-78902135D01*
X110552073Y-78901469D01*
X110566329Y-78890796D01*
X110566331Y-78890796D01*
X110681546Y-78804546D01*
X110767796Y-78689331D01*
X110818091Y-78554483D01*
X110824500Y-78494873D01*
X110824499Y-76699128D01*
X110818091Y-76639517D01*
X110818090Y-76639514D01*
X110816614Y-76633266D01*
X110813145Y-76536173D01*
X110847096Y-76445143D01*
X110913298Y-76374035D01*
X111001673Y-76333675D01*
X111058939Y-76327000D01*
X130749061Y-76327000D01*
X130844349Y-76345954D01*
G37*
%TD.AperFunction*%
%TA.AperFunction,Conductor*%
G36*
X111648835Y-82675148D02*
G01*
X111706359Y-82788045D01*
X111795955Y-82877641D01*
X111908852Y-82935165D01*
X111989599Y-82947953D01*
X111308527Y-83629026D01*
X111370678Y-83672545D01*
X111437862Y-83742726D01*
X111473075Y-83833275D01*
X111470956Y-83930407D01*
X111431827Y-84019334D01*
X111369368Y-84079125D01*
X111370422Y-84080631D01*
X111175187Y-84217335D01*
X111014336Y-84378186D01*
X110978487Y-84429384D01*
X110908305Y-84496568D01*
X110817755Y-84531779D01*
X110720624Y-84529659D01*
X110631697Y-84490530D01*
X110570551Y-84429383D01*
X110512113Y-84345926D01*
X110345075Y-84178888D01*
X110305203Y-84150970D01*
X110238018Y-84080789D01*
X110202805Y-83990240D01*
X110204924Y-83893108D01*
X110244052Y-83804181D01*
X110305203Y-83743030D01*
X110345075Y-83715111D01*
X110512112Y-83548074D01*
X110635078Y-83372460D01*
X110705259Y-83305276D01*
X110795808Y-83270063D01*
X110860750Y-83267228D01*
X110954973Y-83275471D01*
X111636045Y-82594399D01*
X111648835Y-82675148D01*
G37*
%TD.AperFunction*%
%TD*%
M02*
