%TF.GenerationSoftware,KiCad,Pcbnew,7.0.6-0*%
%TF.CreationDate,2023-07-28T22:16:22-07:00*%
%TF.ProjectId,V501,56353031-2e6b-4696-9361-645f70636258,rev?*%
%TF.SameCoordinates,Original*%
%TF.FileFunction,Copper,L4,Bot*%
%TF.FilePolarity,Positive*%
%FSLAX46Y46*%
G04 Gerber Fmt 4.6, Leading zero omitted, Abs format (unit mm)*
G04 Created by KiCad (PCBNEW 7.0.6-0) date 2023-07-28 22:16:22*
%MOMM*%
%LPD*%
G01*
G04 APERTURE LIST*
%TA.AperFunction,ComponentPad*%
%ADD10C,1.600000*%
%TD*%
%TA.AperFunction,ComponentPad*%
%ADD11R,1.600000X1.600000*%
%TD*%
%TA.AperFunction,ComponentPad*%
%ADD12O,1.600000X1.600000*%
%TD*%
%TA.AperFunction,ComponentPad*%
%ADD13R,1.700000X1.700000*%
%TD*%
%TA.AperFunction,ComponentPad*%
%ADD14O,1.700000X1.700000*%
%TD*%
%TA.AperFunction,Conductor*%
%ADD15C,0.250000*%
%TD*%
G04 APERTURE END LIST*
D10*
%TO.P,C2,1*%
%TO.N,VCC*%
X112034000Y-100330000D03*
%TO.P,C2,2*%
%TO.N,GND*%
X114534000Y-100330000D03*
%TD*%
%TO.P,C1,1*%
%TO.N,VCC*%
X112034000Y-82550000D03*
%TO.P,C1,2*%
%TO.N,GND*%
X114534000Y-82550000D03*
%TD*%
%TO.P,C3,1*%
%TO.N,VCC*%
X111999000Y-118120000D03*
%TO.P,C3,2*%
%TO.N,GND*%
X114499000Y-118120000D03*
%TD*%
D11*
%TO.P,U1,1,D2*%
%TO.N,/J1Bus6*%
X112014000Y-92837000D03*
D12*
%TO.P,U1,2,D3*%
%TO.N,/J1Bus7*%
X114554000Y-92837000D03*
%TO.P,U1,3,D4*%
%TO.N,/J1Bus8*%
X117094000Y-92837000D03*
%TO.P,U1,4,Rb*%
%TO.N,Rb*%
X119634000Y-92837000D03*
%TO.P,U1,5,Ra*%
%TO.N,Ra*%
X122174000Y-92837000D03*
%TO.P,U1,6,Q4*%
%TO.N,/J2Bus6*%
X124714000Y-92837000D03*
%TO.P,U1,7,Q3*%
%TO.N,/J2Bus5*%
X127254000Y-92837000D03*
%TO.P,U1,8,GND*%
%TO.N,GND*%
X129794000Y-92837000D03*
%TO.P,U1,9,Q2*%
%TO.N,/J2Bus4*%
X129794000Y-85217000D03*
%TO.P,U1,10,Q1*%
%TO.N,/J2Bus3*%
X127254000Y-85217000D03*
%TO.P,U1,11,~{Er}*%
%TO.N,~{Er}*%
X124714000Y-85217000D03*
%TO.P,U1,12,~{Ew}*%
%TO.N,~{Ew}*%
X122174000Y-85217000D03*
%TO.P,U1,13,Wb*%
%TO.N,Wb*%
X119634000Y-85217000D03*
%TO.P,U1,14,Wa*%
%TO.N,Wa*%
X117094000Y-85217000D03*
%TO.P,U1,15,D1*%
%TO.N,/J1Bus5*%
X114554000Y-85217000D03*
%TO.P,U1,16,VCC*%
%TO.N,VCC*%
X112014000Y-85217000D03*
%TD*%
D11*
%TO.P,U4,1,D2*%
%TO.N,/J1Bus27*%
X112014000Y-146167000D03*
D12*
%TO.P,U4,2,D3*%
%TO.N,/J1Bus28*%
X114554000Y-146167000D03*
%TO.P,U4,3,D4*%
%TO.N,/J1Bus29*%
X117094000Y-146167000D03*
%TO.P,U4,4,Rb*%
%TO.N,Rb*%
X119634000Y-146167000D03*
%TO.P,U4,5,Ra*%
%TO.N,Ra*%
X122174000Y-146167000D03*
%TO.P,U4,6,Q4*%
%TO.N,/J2Bus27*%
X124714000Y-146167000D03*
%TO.P,U4,7,Q3*%
%TO.N,/J2Bus26*%
X127254000Y-146167000D03*
%TO.P,U4,8,GND*%
%TO.N,GND*%
X129794000Y-146167000D03*
%TO.P,U4,9,Q2*%
%TO.N,/J2Bus25*%
X129794000Y-138547000D03*
%TO.P,U4,10,Q1*%
%TO.N,/J2Bus24*%
X127254000Y-138547000D03*
%TO.P,U4,11,~{Er}*%
%TO.N,~{Er}*%
X124714000Y-138547000D03*
%TO.P,U4,12,~{Ew}*%
%TO.N,~{Ew}*%
X122174000Y-138547000D03*
%TO.P,U4,13,Wb*%
%TO.N,Wb*%
X119634000Y-138547000D03*
%TO.P,U4,14,Wa*%
%TO.N,Wa*%
X117094000Y-138547000D03*
%TO.P,U4,15,D1*%
%TO.N,/J1Bus26*%
X114554000Y-138547000D03*
%TO.P,U4,16,VCC*%
%TO.N,VCC*%
X112014000Y-138547000D03*
%TD*%
D11*
%TO.P,U2,1,D2*%
%TO.N,/J1Bus13*%
X112014000Y-110617000D03*
D12*
%TO.P,U2,2,D3*%
%TO.N,/J1Bus14*%
X114554000Y-110617000D03*
%TO.P,U2,3,D4*%
%TO.N,/J1Bus15*%
X117094000Y-110617000D03*
%TO.P,U2,4,Rb*%
%TO.N,Rb*%
X119634000Y-110617000D03*
%TO.P,U2,5,Ra*%
%TO.N,Ra*%
X122174000Y-110617000D03*
%TO.P,U2,6,Q4*%
%TO.N,/J2Bus13*%
X124714000Y-110617000D03*
%TO.P,U2,7,Q3*%
%TO.N,/J2Bus12*%
X127254000Y-110617000D03*
%TO.P,U2,8,GND*%
%TO.N,GND*%
X129794000Y-110617000D03*
%TO.P,U2,9,Q2*%
%TO.N,/J2Bus11*%
X129794000Y-102997000D03*
%TO.P,U2,10,Q1*%
%TO.N,/J2Bus10*%
X127254000Y-102997000D03*
%TO.P,U2,11,~{Er}*%
%TO.N,~{Er}*%
X124714000Y-102997000D03*
%TO.P,U2,12,~{Ew}*%
%TO.N,~{Ew}*%
X122174000Y-102997000D03*
%TO.P,U2,13,Wb*%
%TO.N,Wb*%
X119634000Y-102997000D03*
%TO.P,U2,14,Wa*%
%TO.N,Wa*%
X117094000Y-102997000D03*
%TO.P,U2,15,D1*%
%TO.N,/J1Bus12*%
X114554000Y-102997000D03*
%TO.P,U2,16,VCC*%
%TO.N,VCC*%
X112014000Y-102997000D03*
%TD*%
D10*
%TO.P,C4,1*%
%TO.N,VCC*%
X111999000Y-135880000D03*
%TO.P,C4,2*%
%TO.N,GND*%
X114499000Y-135880000D03*
%TD*%
D11*
%TO.P,U3,1,D2*%
%TO.N,/J1Bus20*%
X112014000Y-128397000D03*
D12*
%TO.P,U3,2,D3*%
%TO.N,/J1Bus21*%
X114554000Y-128397000D03*
%TO.P,U3,3,D4*%
%TO.N,/J1Bus22*%
X117094000Y-128397000D03*
%TO.P,U3,4,Rb*%
%TO.N,Rb*%
X119634000Y-128397000D03*
%TO.P,U3,5,Ra*%
%TO.N,Ra*%
X122174000Y-128397000D03*
%TO.P,U3,6,Q4*%
%TO.N,/J2Bus20*%
X124714000Y-128397000D03*
%TO.P,U3,7,Q3*%
%TO.N,/J2Bus19*%
X127254000Y-128397000D03*
%TO.P,U3,8,GND*%
%TO.N,GND*%
X129794000Y-128397000D03*
%TO.P,U3,9,Q2*%
%TO.N,/J2Bus18*%
X129794000Y-120777000D03*
%TO.P,U3,10,Q1*%
%TO.N,/J2Bus17*%
X127254000Y-120777000D03*
%TO.P,U3,11,~{Er}*%
%TO.N,~{Er}*%
X124714000Y-120777000D03*
%TO.P,U3,12,~{Ew}*%
%TO.N,~{Ew}*%
X122174000Y-120777000D03*
%TO.P,U3,13,Wb*%
%TO.N,Wb*%
X119634000Y-120777000D03*
%TO.P,U3,14,Wa*%
%TO.N,Wa*%
X117094000Y-120777000D03*
%TO.P,U3,15,D1*%
%TO.N,/J1Bus19*%
X114554000Y-120777000D03*
%TO.P,U3,16,VCC*%
%TO.N,VCC*%
X112014000Y-120777000D03*
%TD*%
D13*
%TO.P,J1,1,Pin_1*%
%TO.N,Wa*%
X109474000Y-77597000D03*
D14*
%TO.P,J1,2,Pin_2*%
%TO.N,Wb*%
X109474000Y-80137000D03*
%TO.P,J1,3,Pin_3*%
%TO.N,VCC*%
X109474000Y-82677000D03*
%TO.P,J1,4,Pin_4*%
X109474000Y-85217000D03*
%TO.P,J1,5,Pin_5*%
%TO.N,/J1Bus5*%
X109474000Y-87757000D03*
%TO.P,J1,6,Pin_6*%
%TO.N,/J1Bus6*%
X109474000Y-90297000D03*
%TO.P,J1,7,Pin_7*%
%TO.N,/J1Bus7*%
X109474000Y-92837000D03*
%TO.P,J1,8,Pin_8*%
%TO.N,/J1Bus8*%
X109474000Y-95377000D03*
%TO.P,J1,9,Pin_9*%
%TO.N,~{Ew}*%
X109474000Y-97917000D03*
%TO.P,J1,10,Pin_10*%
%TO.N,VCC*%
X109474000Y-100457000D03*
%TO.P,J1,11,Pin_11*%
X109474000Y-102997000D03*
%TO.P,J1,12,Pin_12*%
%TO.N,/J1Bus12*%
X109474000Y-105537000D03*
%TO.P,J1,13,Pin_13*%
%TO.N,/J1Bus13*%
X109474000Y-108077000D03*
%TO.P,J1,14,Pin_14*%
%TO.N,/J1Bus14*%
X109474000Y-110617000D03*
%TO.P,J1,15,Pin_15*%
%TO.N,/J1Bus15*%
X109474000Y-113157000D03*
%TO.P,J1,16,Pin_16*%
%TO.N,/J1Bus16*%
X109474000Y-115697000D03*
%TO.P,J1,17,Pin_17*%
%TO.N,VCC*%
X109474000Y-118237000D03*
%TO.P,J1,18,Pin_18*%
X109474000Y-120777000D03*
%TO.P,J1,19,Pin_19*%
%TO.N,/J1Bus19*%
X109474000Y-123317000D03*
%TO.P,J1,20,Pin_20*%
%TO.N,/J1Bus20*%
X109474000Y-125857000D03*
%TO.P,J1,21,Pin_21*%
%TO.N,/J1Bus21*%
X109474000Y-128397000D03*
%TO.P,J1,22,Pin_22*%
%TO.N,/J1Bus22*%
X109474000Y-130937000D03*
%TO.P,J1,23,Pin_23*%
%TO.N,Rb*%
X109474000Y-133477000D03*
%TO.P,J1,24,Pin_24*%
%TO.N,VCC*%
X109474000Y-136017000D03*
%TO.P,J1,25,Pin_25*%
X109474000Y-138557000D03*
%TO.P,J1,26,Pin_26*%
%TO.N,/J1Bus26*%
X109474000Y-141097000D03*
%TO.P,J1,27,Pin_27*%
%TO.N,/J1Bus27*%
X109474000Y-143637000D03*
%TO.P,J1,28,Pin_28*%
%TO.N,/J1Bus28*%
X109474000Y-146177000D03*
%TO.P,J1,29,Pin_29*%
%TO.N,/J1Bus29*%
X109474000Y-148717000D03*
%TO.P,J1,30,Pin_30*%
%TO.N,VCC*%
X109474000Y-151257000D03*
%TD*%
D13*
%TO.P,J2,1,Pin_1*%
%TO.N,GND*%
X132334000Y-77597000D03*
D14*
%TO.P,J2,2,Pin_2*%
X132334000Y-80137000D03*
%TO.P,J2,3,Pin_3*%
%TO.N,/J2Bus3*%
X132334000Y-82677000D03*
%TO.P,J2,4,Pin_4*%
%TO.N,/J2Bus4*%
X132334000Y-85217000D03*
%TO.P,J2,5,Pin_5*%
%TO.N,/J2Bus5*%
X132334000Y-87757000D03*
%TO.P,J2,6,Pin_6*%
%TO.N,/J2Bus6*%
X132334000Y-90297000D03*
%TO.P,J2,7,Pin_7*%
%TO.N,GND*%
X132334000Y-92837000D03*
%TO.P,J2,8,Pin_8*%
X132334000Y-95377000D03*
%TO.P,J2,9,Pin_9*%
%TO.N,~{Er}*%
X132334000Y-97917000D03*
%TO.P,J2,10,Pin_10*%
%TO.N,/J2Bus10*%
X132334000Y-100457000D03*
%TO.P,J2,11,Pin_11*%
%TO.N,/J2Bus11*%
X132334000Y-102997000D03*
%TO.P,J2,12,Pin_12*%
%TO.N,/J2Bus12*%
X132334000Y-105537000D03*
%TO.P,J2,13,Pin_13*%
%TO.N,/J2Bus13*%
X132334000Y-108077000D03*
%TO.P,J2,14,Pin_14*%
%TO.N,GND*%
X132334000Y-110617000D03*
%TO.P,J2,15,Pin_15*%
X132334000Y-113157000D03*
%TO.P,J2,16,Pin_16*%
%TO.N,/J2Bus16*%
X132334000Y-115697000D03*
%TO.P,J2,17,Pin_17*%
%TO.N,/J2Bus17*%
X132334000Y-118237000D03*
%TO.P,J2,18,Pin_18*%
%TO.N,/J2Bus18*%
X132334000Y-120777000D03*
%TO.P,J2,19,Pin_19*%
%TO.N,/J2Bus19*%
X132334000Y-123317000D03*
%TO.P,J2,20,Pin_20*%
%TO.N,/J2Bus20*%
X132334000Y-125857000D03*
%TO.P,J2,21,Pin_21*%
%TO.N,GND*%
X132334000Y-128397000D03*
%TO.P,J2,22,Pin_22*%
X132334000Y-130937000D03*
%TO.P,J2,23,Pin_23*%
%TO.N,/J2Bus23*%
X132334000Y-133477000D03*
%TO.P,J2,24,Pin_24*%
%TO.N,/J2Bus24*%
X132334000Y-136017000D03*
%TO.P,J2,25,Pin_25*%
%TO.N,/J2Bus25*%
X132334000Y-138557000D03*
%TO.P,J2,26,Pin_26*%
%TO.N,/J2Bus26*%
X132334000Y-141097000D03*
%TO.P,J2,27,Pin_27*%
%TO.N,/J2Bus27*%
X132334000Y-143637000D03*
%TO.P,J2,28,Pin_28*%
%TO.N,GND*%
X132334000Y-146177000D03*
%TO.P,J2,29,Pin_29*%
X132334000Y-148717000D03*
%TO.P,J2,30,Pin_30*%
%TO.N,Ra*%
X132334000Y-151257000D03*
%TD*%
D15*
%TO.N,Rb*%
X119634000Y-101406009D02*
X118509000Y-102531009D01*
X119634000Y-104900604D02*
X119634000Y-110617000D01*
X118509000Y-103775604D02*
X119634000Y-104900604D01*
X118509000Y-121242991D02*
X119634000Y-122367991D01*
X118509000Y-120311009D02*
X118509000Y-121242991D01*
X118509000Y-138081009D02*
X118509000Y-145042000D01*
X119634000Y-110617000D02*
X119634000Y-119186009D01*
X119634000Y-119186009D02*
X118509000Y-120311009D01*
X119634000Y-122367991D02*
X119634000Y-128397000D01*
X119634000Y-92837000D02*
X119634000Y-101406009D01*
X118509000Y-145042000D02*
X119634000Y-146167000D01*
X118509000Y-102531009D02*
X118509000Y-103775604D01*
X119634000Y-128397000D02*
X119634000Y-136956009D01*
X119634000Y-136956009D02*
X118509000Y-138081009D01*
%TO.N,Ra*%
X122174000Y-128397000D02*
X122174000Y-136956009D01*
X122174000Y-136956009D02*
X121049000Y-138081009D01*
X122174000Y-110617000D02*
X122174000Y-119186009D01*
X122174000Y-119186009D02*
X121049000Y-120311009D01*
X121049000Y-102531009D02*
X121049000Y-103775604D01*
X121049000Y-145042000D02*
X122174000Y-146167000D01*
X122174000Y-104900604D02*
X122174000Y-110617000D01*
X121049000Y-103775604D02*
X122174000Y-104900604D01*
X121049000Y-120311009D02*
X121049000Y-121555604D01*
X121049000Y-121555604D02*
X122174000Y-122680604D01*
X122174000Y-122680604D02*
X122174000Y-128397000D01*
X121049000Y-138081009D02*
X121049000Y-145042000D01*
X122174000Y-101406009D02*
X121049000Y-102531009D01*
X122174000Y-92837000D02*
X122174000Y-101406009D01*
%TO.N,~{Er}*%
X124714000Y-85217000D02*
X124587000Y-85217000D01*
X125839000Y-121902000D02*
X125839000Y-137422000D01*
X124587000Y-85217000D02*
X125839000Y-86469000D01*
X125839000Y-86469000D02*
X125839000Y-101872000D01*
X125839000Y-119652000D02*
X124714000Y-120777000D01*
X124714000Y-102997000D02*
X125839000Y-104122000D01*
X125839000Y-101872000D02*
X124714000Y-102997000D01*
X125839000Y-137422000D02*
X124714000Y-138547000D01*
X124714000Y-120777000D02*
X125839000Y-121902000D01*
X125839000Y-104122000D02*
X125839000Y-119652000D01*
%TO.N,~{Ew}*%
X122174000Y-120777000D02*
X123299000Y-121902000D01*
X123589000Y-86632000D02*
X123589000Y-101582000D01*
X123299000Y-137422000D02*
X122174000Y-138547000D01*
X122174000Y-85217000D02*
X123589000Y-86632000D01*
X123299000Y-121902000D02*
X123299000Y-137422000D01*
X122174000Y-102997000D02*
X123589000Y-104412000D01*
X123589000Y-104412000D02*
X123589000Y-119362000D01*
X123589000Y-101582000D02*
X122174000Y-102997000D01*
X123589000Y-119362000D02*
X122174000Y-120777000D01*
%TO.N,Wb*%
X120759000Y-121902000D02*
X120759000Y-137422000D01*
X119634000Y-120777000D02*
X120759000Y-121902000D01*
X119634000Y-102997000D02*
X120759000Y-104122000D01*
X120759000Y-137422000D02*
X119634000Y-138547000D01*
X120759000Y-101872000D02*
X119634000Y-102997000D01*
X120759000Y-86342000D02*
X120759000Y-101872000D01*
X119634000Y-85217000D02*
X120759000Y-86342000D01*
X120759000Y-119652000D02*
X119634000Y-120777000D01*
X120759000Y-104122000D02*
X120759000Y-119652000D01*
%TO.N,Wa*%
X118219000Y-121902000D02*
X118219000Y-137422000D01*
X117094000Y-85217000D02*
X118509000Y-86632000D01*
X118219000Y-137422000D02*
X117094000Y-138547000D01*
X118509000Y-86632000D02*
X118509000Y-101582000D01*
X118509000Y-119362000D02*
X117094000Y-120777000D01*
X117094000Y-120777000D02*
X118219000Y-121902000D01*
X118509000Y-104412000D02*
X118509000Y-119362000D01*
X118509000Y-101582000D02*
X117094000Y-102997000D01*
X117094000Y-102997000D02*
X118509000Y-104412000D01*
%TD*%
M02*
